G04*
G04 #@! TF.GenerationSoftware,Altium Limited,Altium Designer,19.0.8 (182)*
G04*
G04 Layer_Color=32896*
%FSLAX25Y25*%
%MOIN*%
G70*
G01*
G75*
%ADD17C,0.01000*%
G36*
X323031Y249336D02*
X323157Y249329D01*
X323386Y249292D01*
X323601Y249233D01*
X323697Y249203D01*
X323778Y249166D01*
X323860Y249137D01*
X323934Y249100D01*
X323993Y249070D01*
X324045Y249048D01*
X324089Y249018D01*
X324119Y249003D01*
X324134Y248996D01*
X324141Y248989D01*
Y248167D01*
X324045Y248241D01*
X323956Y248315D01*
X323860Y248367D01*
X323771Y248419D01*
X323682Y248463D01*
X323593Y248500D01*
X323438Y248552D01*
X323364Y248567D01*
X323305Y248582D01*
X323246Y248589D01*
X323194Y248596D01*
X323157Y248604D01*
X323105D01*
X322994Y248596D01*
X322898Y248582D01*
X322816Y248559D01*
X322750Y248537D01*
X322705Y248508D01*
X322668Y248485D01*
X322646Y248471D01*
X322639Y248463D01*
X322587Y248404D01*
X322550Y248337D01*
X322520Y248271D01*
X322506Y248204D01*
X322491Y248145D01*
X322483Y248101D01*
Y248071D01*
Y248056D01*
X322491Y247953D01*
X322506Y247871D01*
X322520Y247834D01*
X322528Y247812D01*
X322535Y247797D01*
Y247790D01*
X322572Y247701D01*
X322624Y247627D01*
X322646Y247597D01*
X322661Y247575D01*
X322668Y247560D01*
X322676Y247553D01*
X322750Y247464D01*
X322831Y247390D01*
X322861Y247361D01*
X322890Y247338D01*
X322905Y247324D01*
X322913Y247316D01*
X323016Y247227D01*
X323120Y247146D01*
X323164Y247116D01*
X323201Y247087D01*
X323223Y247072D01*
X323231Y247065D01*
X323364Y246968D01*
X323431Y246917D01*
X323482Y246872D01*
X323534Y246835D01*
X323571Y246806D01*
X323601Y246783D01*
X323608Y246776D01*
X323741Y246658D01*
X323808Y246591D01*
X323860Y246539D01*
X323904Y246487D01*
X323934Y246450D01*
X323956Y246421D01*
X323963Y246413D01*
X324074Y246258D01*
X324119Y246184D01*
X324163Y246110D01*
X324193Y246051D01*
X324215Y245999D01*
X324230Y245969D01*
X324237Y245955D01*
X324274Y245858D01*
X324304Y245762D01*
X324319Y245659D01*
X324333Y245570D01*
X324341Y245496D01*
X324348Y245429D01*
Y245392D01*
Y245385D01*
Y245377D01*
Y245067D01*
X321544D01*
Y245829D01*
X323327D01*
X323320Y245888D01*
X323297Y245947D01*
X323283Y245984D01*
X323275Y245992D01*
Y245999D01*
X323223Y246073D01*
X323172Y246132D01*
X323135Y246177D01*
X323127Y246184D01*
X323120Y246191D01*
X323038Y246265D01*
X322964Y246325D01*
X322927Y246347D01*
X322905Y246369D01*
X322890Y246376D01*
X322883Y246384D01*
X322787Y246458D01*
X322698Y246517D01*
X322661Y246547D01*
X322631Y246569D01*
X322617Y246576D01*
X322609Y246584D01*
X322461Y246687D01*
X322395Y246739D01*
X322328Y246783D01*
X322284Y246820D01*
X322239Y246850D01*
X322217Y246872D01*
X322210Y246880D01*
X322076Y246998D01*
X322017Y247057D01*
X321965Y247109D01*
X321928Y247153D01*
X321891Y247190D01*
X321877Y247213D01*
X321869Y247220D01*
X321773Y247361D01*
X321729Y247427D01*
X321692Y247494D01*
X321669Y247546D01*
X321647Y247590D01*
X321640Y247620D01*
X321632Y247627D01*
X321603Y247716D01*
X321581Y247805D01*
X321566Y247893D01*
X321551Y247975D01*
Y248041D01*
X321544Y248093D01*
Y248130D01*
Y248145D01*
X321551Y248249D01*
X321558Y248337D01*
X321573Y248419D01*
X321588Y248493D01*
X321610Y248559D01*
X321625Y248604D01*
X321632Y248633D01*
X321640Y248641D01*
X321677Y248722D01*
X321721Y248796D01*
X321766Y248855D01*
X321803Y248915D01*
X321847Y248959D01*
X321877Y248989D01*
X321899Y249011D01*
X321906Y249018D01*
X321973Y249070D01*
X322047Y249122D01*
X322113Y249159D01*
X322187Y249196D01*
X322247Y249218D01*
X322291Y249240D01*
X322321Y249255D01*
X322335D01*
X322432Y249285D01*
X322528Y249307D01*
X322624Y249322D01*
X322713Y249336D01*
X322794D01*
X322853Y249344D01*
X322905D01*
X323031Y249336D01*
D02*
G37*
G36*
X326361Y249225D02*
X326457Y249166D01*
X326553Y249107D01*
X326627Y249063D01*
X326694Y249033D01*
X326731Y249011D01*
X326738Y249003D01*
X326746D01*
X326983Y248892D01*
X327101Y248848D01*
X327205Y248811D01*
X327293Y248781D01*
X327360Y248759D01*
X327404Y248744D01*
X327412Y248737D01*
X327419D01*
Y247953D01*
X327330Y247967D01*
X327249Y247982D01*
X327219Y247990D01*
X327197D01*
X327182Y247997D01*
X327175D01*
X327086Y248027D01*
X327005Y248049D01*
X326975Y248064D01*
X326953Y248071D01*
X326938Y248078D01*
X326931D01*
X326849Y248115D01*
X326775Y248152D01*
X326746Y248167D01*
X326724Y248182D01*
X326716Y248189D01*
X326709D01*
X326635Y248234D01*
X326583Y248278D01*
X326546Y248308D01*
X326531Y248323D01*
Y245067D01*
X325606D01*
Y249366D01*
X326161D01*
X326361Y249225D01*
D02*
G37*
G36*
X319449D02*
X319546Y249166D01*
X319642Y249107D01*
X319716Y249063D01*
X319782Y249033D01*
X319819Y249011D01*
X319827Y249003D01*
X319834D01*
X320071Y248892D01*
X320189Y248848D01*
X320293Y248811D01*
X320382Y248781D01*
X320448Y248759D01*
X320493Y248744D01*
X320500Y248737D01*
X320508D01*
Y247953D01*
X320419Y247967D01*
X320337Y247982D01*
X320308Y247990D01*
X320286D01*
X320271Y247997D01*
X320263D01*
X320175Y248027D01*
X320093Y248049D01*
X320064Y248064D01*
X320041Y248071D01*
X320027Y248078D01*
X320019D01*
X319938Y248115D01*
X319864Y248152D01*
X319834Y248167D01*
X319812Y248182D01*
X319805Y248189D01*
X319797D01*
X319723Y248234D01*
X319671Y248278D01*
X319634Y248308D01*
X319620Y248323D01*
Y245067D01*
X318695D01*
Y249366D01*
X319250D01*
X319449Y249225D01*
D02*
G37*
G36*
X315638Y249336D02*
X315786Y249314D01*
X315927Y249285D01*
X316038Y249255D01*
X316142Y249225D01*
X316216Y249196D01*
X316238Y249181D01*
X316260Y249174D01*
X316267Y249166D01*
X316275D01*
X316401Y249100D01*
X316512Y249018D01*
X316615Y248937D01*
X316704Y248855D01*
X316778Y248789D01*
X316830Y248730D01*
X316859Y248693D01*
X316874Y248685D01*
Y248678D01*
X316963Y248559D01*
X317037Y248426D01*
X317104Y248300D01*
X317155Y248182D01*
X317200Y248078D01*
X317229Y247997D01*
X317237Y247967D01*
X317244Y247945D01*
X317252Y247930D01*
Y247923D01*
X317296Y247753D01*
X317326Y247590D01*
X317355Y247420D01*
X317370Y247272D01*
X317377Y247139D01*
Y247087D01*
X317385Y247035D01*
Y246998D01*
Y246968D01*
Y246954D01*
Y246946D01*
X317377Y246776D01*
X317370Y246621D01*
X317355Y246480D01*
X317333Y246354D01*
X317311Y246258D01*
X317296Y246184D01*
X317289Y246154D01*
Y246132D01*
X317281Y246125D01*
Y246117D01*
X317237Y245984D01*
X317192Y245866D01*
X317141Y245762D01*
X317096Y245673D01*
X317052Y245599D01*
X317015Y245548D01*
X316993Y245518D01*
X316985Y245503D01*
X316911Y245414D01*
X316830Y245340D01*
X316748Y245274D01*
X316674Y245222D01*
X316608Y245178D01*
X316556Y245148D01*
X316526Y245133D01*
X316512Y245126D01*
X316401Y245081D01*
X316290Y245052D01*
X316186Y245030D01*
X316090Y245015D01*
X316001Y245007D01*
X315934Y245000D01*
X315875D01*
X315757Y245007D01*
X315646Y245015D01*
X315550Y245030D01*
X315461Y245052D01*
X315394Y245074D01*
X315335Y245089D01*
X315305Y245096D01*
X315291Y245104D01*
X315194Y245148D01*
X315106Y245200D01*
X315032Y245252D01*
X314958Y245303D01*
X314906Y245348D01*
X314869Y245385D01*
X314839Y245407D01*
X314832Y245414D01*
X314765Y245488D01*
X314706Y245570D01*
X314654Y245651D01*
X314610Y245725D01*
X314573Y245784D01*
X314551Y245836D01*
X314536Y245866D01*
X314528Y245881D01*
X314491Y245984D01*
X314462Y246088D01*
X314447Y246184D01*
X314432Y246273D01*
X314425Y246354D01*
X314417Y246413D01*
Y246450D01*
Y246465D01*
Y246569D01*
X314432Y246672D01*
X314447Y246761D01*
X314462Y246835D01*
X314477Y246902D01*
X314491Y246946D01*
X314499Y246983D01*
X314506Y246991D01*
X314536Y247079D01*
X314573Y247161D01*
X314617Y247227D01*
X314654Y247287D01*
X314684Y247338D01*
X314713Y247375D01*
X314728Y247398D01*
X314736Y247405D01*
X314795Y247464D01*
X314854Y247523D01*
X314913Y247568D01*
X314972Y247605D01*
X315024Y247634D01*
X315061Y247657D01*
X315091Y247664D01*
X315098Y247671D01*
X315180Y247701D01*
X315261Y247731D01*
X315335Y247745D01*
X315409Y247753D01*
X315468Y247760D01*
X315520Y247768D01*
X315564D01*
X315668Y247760D01*
X315772Y247753D01*
X315949Y247701D01*
X316105Y247634D01*
X316230Y247560D01*
X316327Y247486D01*
X316393Y247420D01*
X316438Y247368D01*
X316445Y247361D01*
X316452Y247353D01*
X316467D01*
X316460Y247457D01*
X316452Y247560D01*
X316438Y247649D01*
X316423Y247723D01*
X316408Y247790D01*
X316401Y247834D01*
X316386Y247871D01*
Y247879D01*
X316356Y247967D01*
X316319Y248041D01*
X316282Y248108D01*
X316245Y248167D01*
X316216Y248212D01*
X316193Y248249D01*
X316179Y248271D01*
X316171Y248278D01*
X316119Y248337D01*
X316060Y248389D01*
X316008Y248434D01*
X315957Y248471D01*
X315912Y248500D01*
X315875Y248522D01*
X315853Y248530D01*
X315846Y248537D01*
X315772Y248567D01*
X315698Y248596D01*
X315624Y248611D01*
X315557Y248619D01*
X315498Y248626D01*
X315453Y248633D01*
X315416D01*
X315276Y248626D01*
X315150Y248604D01*
X315032Y248574D01*
X314928Y248545D01*
X314839Y248508D01*
X314773Y248478D01*
X314736Y248456D01*
X314721Y248448D01*
Y249225D01*
X314832Y249262D01*
X314950Y249292D01*
X315076Y249314D01*
X315194Y249329D01*
X315305Y249336D01*
X315394Y249344D01*
X315476D01*
X315638Y249336D01*
D02*
G37*
G36*
X333443D02*
X333613Y249314D01*
X333776Y249285D01*
X333931Y249248D01*
X334079Y249196D01*
X334212Y249144D01*
X334331Y249085D01*
X334442Y249033D01*
X334538Y248974D01*
X334627Y248915D01*
X334701Y248863D01*
X334767Y248811D01*
X334812Y248774D01*
X334849Y248744D01*
X334871Y248722D01*
X334878Y248715D01*
X334989Y248596D01*
X335086Y248463D01*
X335167Y248330D01*
X335241Y248189D01*
X335300Y248056D01*
X335345Y247916D01*
X335389Y247782D01*
X335419Y247657D01*
X335448Y247538D01*
X335470Y247427D01*
X335478Y247324D01*
X335493Y247242D01*
Y247168D01*
X335500Y247116D01*
Y247087D01*
Y247072D01*
X335493Y246902D01*
X335478Y246739D01*
X335448Y246584D01*
X335411Y246436D01*
X335374Y246302D01*
X335322Y246177D01*
X335271Y246066D01*
X335219Y245962D01*
X335167Y245873D01*
X335123Y245792D01*
X335071Y245725D01*
X335034Y245666D01*
X334997Y245622D01*
X334967Y245592D01*
X334952Y245570D01*
X334945Y245562D01*
X334834Y245466D01*
X334723Y245377D01*
X334597Y245303D01*
X334471Y245237D01*
X334346Y245185D01*
X334220Y245141D01*
X334094Y245104D01*
X333976Y245074D01*
X333865Y245044D01*
X333754Y245030D01*
X333665Y245015D01*
X333583Y245007D01*
X333517D01*
X333465Y245000D01*
X333421D01*
X333154Y245007D01*
X333036Y245022D01*
X332917Y245037D01*
X332814Y245052D01*
X332718Y245067D01*
X332629Y245089D01*
X332540Y245111D01*
X332473Y245126D01*
X332407Y245148D01*
X332348Y245163D01*
X332303Y245185D01*
X332266Y245192D01*
X332244Y245207D01*
X332229Y245215D01*
X332222D01*
Y246080D01*
X332399Y245992D01*
X332577Y245925D01*
X332747Y245873D01*
X332903Y245844D01*
X333036Y245821D01*
X333095Y245814D01*
X333139D01*
X333184Y245807D01*
X333236D01*
X333339Y245814D01*
X333443Y245821D01*
X333628Y245866D01*
X333783Y245925D01*
X333916Y245992D01*
X334020Y246058D01*
X334064Y246088D01*
X334101Y246110D01*
X334124Y246140D01*
X334146Y246154D01*
X334153Y246162D01*
X334161Y246169D01*
X334220Y246243D01*
X334272Y246317D01*
X334360Y246473D01*
X334420Y246635D01*
X334457Y246791D01*
X334486Y246931D01*
X334494Y246991D01*
Y247042D01*
X334501Y247087D01*
Y247116D01*
Y247139D01*
Y247146D01*
X334494Y247264D01*
X334486Y247375D01*
X334442Y247575D01*
X334383Y247745D01*
X334353Y247819D01*
X334316Y247886D01*
X334286Y247945D01*
X334249Y248004D01*
X334220Y248049D01*
X334198Y248086D01*
X334168Y248115D01*
X334153Y248138D01*
X334146Y248145D01*
X334138Y248152D01*
X334064Y248219D01*
X333990Y248278D01*
X333916Y248323D01*
X333835Y248367D01*
X333680Y248434D01*
X333524Y248478D01*
X333391Y248500D01*
X333332Y248515D01*
X333280D01*
X333243Y248522D01*
X333184D01*
X332984Y248515D01*
X332806Y248485D01*
X332644Y248441D01*
X332503Y248397D01*
X332385Y248352D01*
X332333Y248330D01*
X332296Y248308D01*
X332266Y248293D01*
X332244Y248278D01*
X332229Y248271D01*
X332222D01*
Y249188D01*
X332385Y249240D01*
X332562Y249277D01*
X332732Y249307D01*
X332895Y249322D01*
X333043Y249336D01*
X333102D01*
X333154Y249344D01*
X333258D01*
X333443Y249336D01*
D02*
G37*
G36*
X331482Y245067D02*
X330535D01*
Y246672D01*
X330283D01*
X330216Y246665D01*
X330165Y246658D01*
X330135Y246643D01*
X330120Y246635D01*
X330068Y246606D01*
X330024Y246569D01*
X329994Y246547D01*
X329980Y246532D01*
X329928Y246480D01*
X329883Y246421D01*
X329854Y246376D01*
X329839Y246369D01*
Y246362D01*
X329787Y246288D01*
X329743Y246221D01*
X329728Y246191D01*
X329713Y246169D01*
X329698Y246154D01*
Y246147D01*
X329047Y245067D01*
X327952D01*
X328751Y246310D01*
X328796Y246384D01*
X328840Y246443D01*
X328870Y246487D01*
X328884Y246495D01*
Y246502D01*
X328944Y246576D01*
X328995Y246635D01*
X329032Y246680D01*
X329040Y246687D01*
X329047Y246695D01*
X329106Y246754D01*
X329166Y246806D01*
X329203Y246835D01*
X329210Y246850D01*
X329217D01*
X329277Y246894D01*
X329336Y246924D01*
X329380Y246939D01*
X329388Y246946D01*
X329395D01*
Y246954D01*
X329247Y247005D01*
X329180Y247035D01*
X329121Y247065D01*
X329077Y247087D01*
X329040Y247109D01*
X329018Y247116D01*
X329010Y247124D01*
X328892Y247213D01*
X328840Y247257D01*
X328796Y247294D01*
X328759Y247331D01*
X328736Y247361D01*
X328722Y247375D01*
X328714Y247383D01*
X328633Y247501D01*
X328574Y247605D01*
X328551Y247649D01*
X328537Y247686D01*
X328522Y247708D01*
Y247716D01*
X328485Y247864D01*
X328470Y247930D01*
X328463Y247990D01*
X328455Y248041D01*
Y248086D01*
Y248115D01*
Y248123D01*
X328463Y248226D01*
X328470Y248323D01*
X328492Y248419D01*
X328522Y248500D01*
X328596Y248656D01*
X328692Y248789D01*
X328810Y248900D01*
X328936Y248989D01*
X329077Y249063D01*
X329217Y249129D01*
X329358Y249174D01*
X329499Y249211D01*
X329624Y249233D01*
X329743Y249255D01*
X329839Y249262D01*
X329913Y249270D01*
X331482D01*
Y245067D01*
D02*
G37*
G36*
X444945Y63936D02*
X444789Y63564D01*
X444007Y63986D01*
Y61605D01*
X444845D01*
Y61200D01*
X442797D01*
Y61605D01*
X443524D01*
Y64480D01*
X443912D01*
X444945Y63936D01*
D02*
G37*
G36*
X450700Y64086D02*
X449734D01*
Y61200D01*
X449285D01*
Y64086D01*
X448319D01*
Y64463D01*
X450700D01*
Y64086D01*
D02*
G37*
G36*
X447709Y61200D02*
X447264D01*
Y62371D01*
X446865D01*
X446743Y62377D01*
X446626Y62388D01*
X446526Y62399D01*
X446443Y62421D01*
X446371Y62438D01*
X446321Y62449D01*
X446288Y62460D01*
X446277Y62465D01*
X446188Y62504D01*
X446110Y62543D01*
X446043Y62587D01*
X445983Y62626D01*
X445938Y62660D01*
X445905Y62687D01*
X445883Y62710D01*
X445877Y62715D01*
X445822Y62776D01*
X445772Y62837D01*
X445733Y62893D01*
X445699Y62948D01*
X445677Y62993D01*
X445655Y63032D01*
X445649Y63054D01*
X445644Y63065D01*
X445616Y63137D01*
X445600Y63209D01*
X445583Y63281D01*
X445577Y63342D01*
X445572Y63392D01*
X445566Y63431D01*
Y63453D01*
Y63464D01*
X445572Y63564D01*
X445583Y63653D01*
X445600Y63731D01*
X445616Y63797D01*
X445633Y63853D01*
X445649Y63892D01*
X445661Y63914D01*
X445666Y63925D01*
X445705Y63992D01*
X445749Y64053D01*
X445794Y64103D01*
X445838Y64147D01*
X445877Y64186D01*
X445910Y64208D01*
X445932Y64225D01*
X445938Y64230D01*
X446005Y64275D01*
X446071Y64308D01*
X446132Y64341D01*
X446193Y64363D01*
X446249Y64386D01*
X446288Y64397D01*
X446315Y64408D01*
X446327D01*
X446493Y64441D01*
X446571Y64452D01*
X446643Y64458D01*
X446704Y64463D01*
X447709D01*
Y61200D01*
D02*
G37*
G36*
X424046Y244508D02*
X424151Y244497D01*
X424245Y244475D01*
X424329Y244452D01*
X424395Y244430D01*
X424445Y244408D01*
X424478Y244397D01*
X424484Y244391D01*
X424490D01*
X424578Y244347D01*
X424656Y244291D01*
X424728Y244241D01*
X424789Y244191D01*
X424839Y244147D01*
X424878Y244114D01*
X424900Y244092D01*
X424911Y244080D01*
X424673Y243797D01*
X424617Y243847D01*
X424567Y243897D01*
X424512Y243936D01*
X424467Y243969D01*
X424423Y243997D01*
X424390Y244019D01*
X424368Y244030D01*
X424362Y244036D01*
X424295Y244069D01*
X424229Y244092D01*
X424168Y244108D01*
X424107Y244119D01*
X424057Y244125D01*
X424018Y244130D01*
X423929D01*
X423879Y244125D01*
X423840Y244114D01*
X423801Y244108D01*
X423768Y244097D01*
X423746Y244086D01*
X423735Y244080D01*
X423729D01*
X423657Y244036D01*
X423596Y243997D01*
X423579Y243975D01*
X423563Y243964D01*
X423557Y243953D01*
X423552Y243947D01*
X423507Y243881D01*
X423474Y243820D01*
X423463Y243792D01*
X423457Y243770D01*
X423452Y243759D01*
Y243753D01*
X423429Y243675D01*
X423424Y243598D01*
X423418Y243570D01*
Y243548D01*
Y243531D01*
Y243526D01*
X423424Y243437D01*
X423429Y243392D01*
Y243359D01*
X423435Y243331D01*
X423441Y243309D01*
X423446Y243292D01*
Y243287D01*
X423468Y243203D01*
X423502Y243131D01*
X423518Y243098D01*
X423535Y243076D01*
X423540Y243059D01*
X423546Y243054D01*
X423607Y242959D01*
X423640Y242915D01*
X423674Y242871D01*
X423701Y242837D01*
X423724Y242810D01*
X423740Y242787D01*
X423746Y242782D01*
X423796Y242726D01*
X423851Y242665D01*
X423907Y242604D01*
X423962Y242549D01*
X424012Y242499D01*
X424051Y242460D01*
X424073Y242438D01*
X424084Y242426D01*
X424923Y241588D01*
Y241200D01*
X422769D01*
Y241616D01*
X424356D01*
X423768Y242193D01*
X423690Y242266D01*
X423624Y242338D01*
X423563Y242399D01*
X423507Y242454D01*
X423468Y242499D01*
X423435Y242532D01*
X423413Y242554D01*
X423407Y242560D01*
X423352Y242621D01*
X423302Y242682D01*
X423257Y242737D01*
X423219Y242787D01*
X423191Y242832D01*
X423169Y242860D01*
X423158Y242882D01*
X423152Y242887D01*
X423085Y243004D01*
X423058Y243059D01*
X423035Y243109D01*
X423019Y243148D01*
X423008Y243181D01*
X422997Y243203D01*
Y243209D01*
X422969Y243331D01*
X422958Y243392D01*
X422952Y243442D01*
X422947Y243492D01*
Y243526D01*
Y243553D01*
Y243559D01*
X422952Y243642D01*
X422958Y243714D01*
X422969Y243781D01*
X422980Y243842D01*
X422997Y243892D01*
X423008Y243925D01*
X423013Y243953D01*
X423019Y243958D01*
X423047Y244025D01*
X423080Y244080D01*
X423113Y244130D01*
X423146Y244175D01*
X423180Y244208D01*
X423202Y244236D01*
X423219Y244252D01*
X423224Y244258D01*
X423324Y244341D01*
X423374Y244369D01*
X423424Y244397D01*
X423468Y244419D01*
X423502Y244436D01*
X423524Y244441D01*
X423529Y244447D01*
X423596Y244469D01*
X423668Y244486D01*
X423735Y244497D01*
X423796Y244508D01*
X423851D01*
X423890Y244513D01*
X423929D01*
X424046Y244508D01*
D02*
G37*
G36*
X421232D02*
X421337Y244497D01*
X421431Y244475D01*
X421515Y244452D01*
X421581Y244430D01*
X421631Y244408D01*
X421665Y244397D01*
X421670Y244391D01*
X421676D01*
X421765Y244347D01*
X421842Y244291D01*
X421914Y244241D01*
X421975Y244191D01*
X422025Y244147D01*
X422064Y244114D01*
X422086Y244092D01*
X422097Y244080D01*
X421859Y243797D01*
X421803Y243847D01*
X421753Y243897D01*
X421698Y243936D01*
X421654Y243969D01*
X421609Y243997D01*
X421576Y244019D01*
X421554Y244030D01*
X421548Y244036D01*
X421482Y244069D01*
X421415Y244092D01*
X421354Y244108D01*
X421293Y244119D01*
X421243Y244125D01*
X421204Y244130D01*
X421115D01*
X421065Y244125D01*
X421026Y244114D01*
X420988Y244108D01*
X420954Y244097D01*
X420932Y244086D01*
X420921Y244080D01*
X420915D01*
X420843Y244036D01*
X420782Y243997D01*
X420765Y243975D01*
X420749Y243964D01*
X420743Y243953D01*
X420738Y243947D01*
X420693Y243881D01*
X420660Y243820D01*
X420649Y243792D01*
X420643Y243770D01*
X420638Y243759D01*
Y243753D01*
X420616Y243675D01*
X420610Y243598D01*
X420605Y243570D01*
Y243548D01*
Y243531D01*
Y243526D01*
X420610Y243437D01*
X420616Y243392D01*
Y243359D01*
X420621Y243331D01*
X420627Y243309D01*
X420632Y243292D01*
Y243287D01*
X420654Y243203D01*
X420688Y243131D01*
X420705Y243098D01*
X420721Y243076D01*
X420727Y243059D01*
X420732Y243054D01*
X420793Y242959D01*
X420827Y242915D01*
X420860Y242871D01*
X420888Y242837D01*
X420910Y242810D01*
X420927Y242787D01*
X420932Y242782D01*
X420982Y242726D01*
X421037Y242665D01*
X421093Y242604D01*
X421148Y242549D01*
X421198Y242499D01*
X421237Y242460D01*
X421259Y242438D01*
X421271Y242426D01*
X422109Y241588D01*
Y241200D01*
X419955D01*
Y241616D01*
X421543D01*
X420954Y242193D01*
X420877Y242266D01*
X420810Y242338D01*
X420749Y242399D01*
X420693Y242454D01*
X420654Y242499D01*
X420621Y242532D01*
X420599Y242554D01*
X420594Y242560D01*
X420538Y242621D01*
X420488Y242682D01*
X420444Y242737D01*
X420405Y242787D01*
X420377Y242832D01*
X420355Y242860D01*
X420344Y242882D01*
X420338Y242887D01*
X420272Y243004D01*
X420244Y243059D01*
X420222Y243109D01*
X420205Y243148D01*
X420194Y243181D01*
X420183Y243203D01*
Y243209D01*
X420155Y243331D01*
X420144Y243392D01*
X420138Y243442D01*
X420133Y243492D01*
Y243526D01*
Y243553D01*
Y243559D01*
X420138Y243642D01*
X420144Y243714D01*
X420155Y243781D01*
X420166Y243842D01*
X420183Y243892D01*
X420194Y243925D01*
X420199Y243953D01*
X420205Y243958D01*
X420233Y244025D01*
X420266Y244080D01*
X420299Y244130D01*
X420333Y244175D01*
X420366Y244208D01*
X420388Y244236D01*
X420405Y244252D01*
X420410Y244258D01*
X420510Y244341D01*
X420560Y244369D01*
X420610Y244397D01*
X420654Y244419D01*
X420688Y244436D01*
X420710Y244441D01*
X420716Y244447D01*
X420782Y244469D01*
X420854Y244486D01*
X420921Y244497D01*
X420982Y244508D01*
X421037D01*
X421076Y244513D01*
X421115D01*
X421232Y244508D01*
D02*
G37*
G36*
X430700Y244086D02*
X429734D01*
Y241200D01*
X429285D01*
Y244086D01*
X428319D01*
Y244463D01*
X430700D01*
Y244086D01*
D02*
G37*
G36*
X427709Y241200D02*
X427265D01*
Y242371D01*
X426865D01*
X426743Y242377D01*
X426626Y242388D01*
X426526Y242399D01*
X426443Y242421D01*
X426371Y242438D01*
X426321Y242449D01*
X426288Y242460D01*
X426277Y242465D01*
X426188Y242504D01*
X426110Y242543D01*
X426044Y242587D01*
X425983Y242626D01*
X425938Y242660D01*
X425905Y242687D01*
X425883Y242710D01*
X425877Y242715D01*
X425822Y242776D01*
X425772Y242837D01*
X425733Y242893D01*
X425700Y242948D01*
X425677Y242993D01*
X425655Y243032D01*
X425649Y243054D01*
X425644Y243065D01*
X425616Y243137D01*
X425600Y243209D01*
X425583Y243281D01*
X425577Y243342D01*
X425572Y243392D01*
X425566Y243431D01*
Y243453D01*
Y243464D01*
X425572Y243564D01*
X425583Y243653D01*
X425600Y243731D01*
X425616Y243797D01*
X425633Y243853D01*
X425649Y243892D01*
X425661Y243914D01*
X425666Y243925D01*
X425705Y243992D01*
X425749Y244053D01*
X425794Y244103D01*
X425838Y244147D01*
X425877Y244186D01*
X425910Y244208D01*
X425933Y244225D01*
X425938Y244230D01*
X426005Y244275D01*
X426071Y244308D01*
X426132Y244341D01*
X426193Y244363D01*
X426249Y244386D01*
X426288Y244397D01*
X426315Y244408D01*
X426327D01*
X426493Y244441D01*
X426571Y244452D01*
X426643Y244458D01*
X426704Y244463D01*
X427709D01*
Y241200D01*
D02*
G37*
G36*
X414046Y224508D02*
X414151Y224497D01*
X414245Y224475D01*
X414329Y224452D01*
X414395Y224430D01*
X414445Y224408D01*
X414478Y224397D01*
X414484Y224391D01*
X414490D01*
X414578Y224347D01*
X414656Y224291D01*
X414728Y224241D01*
X414789Y224191D01*
X414839Y224147D01*
X414878Y224114D01*
X414900Y224092D01*
X414911Y224080D01*
X414673Y223797D01*
X414617Y223847D01*
X414567Y223897D01*
X414512Y223936D01*
X414467Y223970D01*
X414423Y223997D01*
X414390Y224019D01*
X414367Y224030D01*
X414362Y224036D01*
X414295Y224069D01*
X414229Y224092D01*
X414168Y224108D01*
X414107Y224119D01*
X414057Y224125D01*
X414018Y224130D01*
X413929D01*
X413879Y224125D01*
X413840Y224114D01*
X413801Y224108D01*
X413768Y224097D01*
X413746Y224086D01*
X413735Y224080D01*
X413729D01*
X413657Y224036D01*
X413596Y223997D01*
X413579Y223975D01*
X413563Y223964D01*
X413557Y223953D01*
X413552Y223947D01*
X413507Y223881D01*
X413474Y223820D01*
X413463Y223792D01*
X413457Y223770D01*
X413452Y223759D01*
Y223753D01*
X413429Y223675D01*
X413424Y223598D01*
X413418Y223570D01*
Y223548D01*
Y223531D01*
Y223526D01*
X413424Y223437D01*
X413429Y223392D01*
Y223359D01*
X413435Y223331D01*
X413441Y223309D01*
X413446Y223292D01*
Y223287D01*
X413468Y223203D01*
X413502Y223131D01*
X413518Y223098D01*
X413535Y223076D01*
X413541Y223059D01*
X413546Y223054D01*
X413607Y222959D01*
X413640Y222915D01*
X413674Y222871D01*
X413701Y222837D01*
X413724Y222810D01*
X413740Y222787D01*
X413746Y222782D01*
X413796Y222726D01*
X413851Y222665D01*
X413907Y222604D01*
X413962Y222549D01*
X414012Y222499D01*
X414051Y222460D01*
X414073Y222438D01*
X414084Y222427D01*
X414923Y221588D01*
Y221200D01*
X412769D01*
Y221616D01*
X414356D01*
X413768Y222193D01*
X413690Y222266D01*
X413624Y222338D01*
X413563Y222399D01*
X413507Y222454D01*
X413468Y222499D01*
X413435Y222532D01*
X413413Y222554D01*
X413407Y222560D01*
X413352Y222621D01*
X413302Y222682D01*
X413258Y222737D01*
X413219Y222787D01*
X413191Y222832D01*
X413169Y222860D01*
X413158Y222882D01*
X413152Y222887D01*
X413085Y223004D01*
X413058Y223059D01*
X413035Y223109D01*
X413019Y223148D01*
X413008Y223181D01*
X412997Y223203D01*
Y223209D01*
X412969Y223331D01*
X412958Y223392D01*
X412952Y223442D01*
X412947Y223492D01*
Y223526D01*
Y223553D01*
Y223559D01*
X412952Y223642D01*
X412958Y223714D01*
X412969Y223781D01*
X412980Y223842D01*
X412997Y223892D01*
X413008Y223925D01*
X413013Y223953D01*
X413019Y223958D01*
X413047Y224025D01*
X413080Y224080D01*
X413113Y224130D01*
X413146Y224175D01*
X413180Y224208D01*
X413202Y224236D01*
X413219Y224253D01*
X413224Y224258D01*
X413324Y224341D01*
X413374Y224369D01*
X413424Y224397D01*
X413468Y224419D01*
X413502Y224436D01*
X413524Y224441D01*
X413529Y224447D01*
X413596Y224469D01*
X413668Y224486D01*
X413735Y224497D01*
X413796Y224508D01*
X413851D01*
X413890Y224513D01*
X413929D01*
X414046Y224508D01*
D02*
G37*
G36*
X412131Y223936D02*
X411975Y223564D01*
X411193Y223986D01*
Y221605D01*
X412031D01*
Y221200D01*
X409983D01*
Y221605D01*
X410710D01*
Y224480D01*
X411098D01*
X412131Y223936D01*
D02*
G37*
G36*
X420700Y224086D02*
X419734D01*
Y221200D01*
X419285D01*
Y224086D01*
X418319D01*
Y224463D01*
X420700D01*
Y224086D01*
D02*
G37*
G36*
X417709Y221200D02*
X417265D01*
Y222371D01*
X416865D01*
X416743Y222377D01*
X416626Y222388D01*
X416526Y222399D01*
X416443Y222421D01*
X416371Y222438D01*
X416321Y222449D01*
X416288Y222460D01*
X416277Y222465D01*
X416188Y222504D01*
X416110Y222543D01*
X416044Y222587D01*
X415982Y222626D01*
X415938Y222660D01*
X415905Y222687D01*
X415883Y222710D01*
X415877Y222715D01*
X415822Y222776D01*
X415772Y222837D01*
X415733Y222893D01*
X415699Y222948D01*
X415677Y222993D01*
X415655Y223031D01*
X415650Y223054D01*
X415644Y223065D01*
X415616Y223137D01*
X415600Y223209D01*
X415583Y223281D01*
X415577Y223342D01*
X415572Y223392D01*
X415566Y223431D01*
Y223453D01*
Y223464D01*
X415572Y223564D01*
X415583Y223653D01*
X415600Y223731D01*
X415616Y223797D01*
X415633Y223853D01*
X415650Y223892D01*
X415661Y223914D01*
X415666Y223925D01*
X415705Y223992D01*
X415749Y224053D01*
X415794Y224103D01*
X415838Y224147D01*
X415877Y224186D01*
X415910Y224208D01*
X415933Y224225D01*
X415938Y224230D01*
X416005Y224275D01*
X416071Y224308D01*
X416132Y224341D01*
X416193Y224363D01*
X416249Y224386D01*
X416288Y224397D01*
X416316Y224408D01*
X416327D01*
X416493Y224441D01*
X416571Y224452D01*
X416643Y224458D01*
X416704Y224463D01*
X417709D01*
Y221200D01*
D02*
G37*
G36*
X460346Y263808D02*
X460451Y263797D01*
X460545Y263774D01*
X460629Y263752D01*
X460695Y263730D01*
X460745Y263708D01*
X460778Y263697D01*
X460784Y263691D01*
X460789D01*
X460878Y263647D01*
X460956Y263591D01*
X461028Y263541D01*
X461089Y263491D01*
X461139Y263447D01*
X461178Y263414D01*
X461200Y263392D01*
X461211Y263381D01*
X460973Y263097D01*
X460917Y263147D01*
X460867Y263197D01*
X460812Y263236D01*
X460767Y263269D01*
X460723Y263297D01*
X460690Y263319D01*
X460668Y263331D01*
X460662Y263336D01*
X460595Y263369D01*
X460529Y263392D01*
X460468Y263408D01*
X460407Y263419D01*
X460357Y263425D01*
X460318Y263430D01*
X460229D01*
X460179Y263425D01*
X460140Y263414D01*
X460101Y263408D01*
X460068Y263397D01*
X460046Y263386D01*
X460035Y263381D01*
X460029D01*
X459957Y263336D01*
X459896Y263297D01*
X459879Y263275D01*
X459863Y263264D01*
X459857Y263253D01*
X459852Y263247D01*
X459807Y263181D01*
X459774Y263120D01*
X459763Y263092D01*
X459757Y263070D01*
X459752Y263059D01*
Y263053D01*
X459729Y262975D01*
X459724Y262898D01*
X459718Y262870D01*
Y262848D01*
Y262831D01*
Y262825D01*
X459724Y262737D01*
X459729Y262692D01*
Y262659D01*
X459735Y262631D01*
X459741Y262609D01*
X459746Y262592D01*
Y262587D01*
X459768Y262504D01*
X459802Y262431D01*
X459818Y262398D01*
X459835Y262376D01*
X459840Y262359D01*
X459846Y262354D01*
X459907Y262259D01*
X459940Y262215D01*
X459974Y262171D01*
X460002Y262137D01*
X460024Y262109D01*
X460040Y262087D01*
X460046Y262082D01*
X460096Y262026D01*
X460151Y261965D01*
X460207Y261904D01*
X460262Y261849D01*
X460312Y261799D01*
X460351Y261760D01*
X460373Y261738D01*
X460384Y261726D01*
X461223Y260889D01*
Y260500D01*
X459069D01*
Y260916D01*
X460656D01*
X460068Y261493D01*
X459990Y261566D01*
X459924Y261638D01*
X459863Y261699D01*
X459807Y261754D01*
X459768Y261799D01*
X459735Y261832D01*
X459713Y261854D01*
X459707Y261860D01*
X459652Y261921D01*
X459602Y261982D01*
X459557Y262037D01*
X459519Y262087D01*
X459491Y262132D01*
X459469Y262159D01*
X459457Y262182D01*
X459452Y262187D01*
X459385Y262304D01*
X459358Y262359D01*
X459336Y262409D01*
X459319Y262448D01*
X459308Y262481D01*
X459297Y262504D01*
Y262509D01*
X459269Y262631D01*
X459258Y262692D01*
X459252Y262742D01*
X459247Y262792D01*
Y262825D01*
Y262853D01*
Y262859D01*
X459252Y262942D01*
X459258Y263014D01*
X459269Y263081D01*
X459280Y263142D01*
X459297Y263192D01*
X459308Y263225D01*
X459313Y263253D01*
X459319Y263258D01*
X459347Y263325D01*
X459380Y263381D01*
X459413Y263430D01*
X459446Y263475D01*
X459480Y263508D01*
X459502Y263536D01*
X459519Y263552D01*
X459524Y263558D01*
X459624Y263641D01*
X459674Y263669D01*
X459724Y263697D01*
X459768Y263719D01*
X459802Y263736D01*
X459824Y263741D01*
X459829Y263747D01*
X459896Y263769D01*
X459968Y263786D01*
X460035Y263797D01*
X460096Y263808D01*
X460151D01*
X460190Y263813D01*
X460229D01*
X460346Y263808D01*
D02*
G37*
G36*
X467000Y263386D02*
X466034D01*
Y260500D01*
X465585D01*
Y263386D01*
X464619D01*
Y263763D01*
X467000D01*
Y263386D01*
D02*
G37*
G36*
X464009Y260500D02*
X463564D01*
Y261671D01*
X463165D01*
X463043Y261677D01*
X462926Y261688D01*
X462826Y261699D01*
X462743Y261721D01*
X462671Y261738D01*
X462621Y261749D01*
X462588Y261760D01*
X462577Y261765D01*
X462488Y261804D01*
X462410Y261843D01*
X462344Y261888D01*
X462283Y261926D01*
X462238Y261960D01*
X462205Y261987D01*
X462183Y262010D01*
X462177Y262015D01*
X462122Y262076D01*
X462072Y262137D01*
X462033Y262193D01*
X461999Y262248D01*
X461977Y262293D01*
X461955Y262332D01*
X461949Y262354D01*
X461944Y262365D01*
X461916Y262437D01*
X461900Y262509D01*
X461883Y262581D01*
X461877Y262642D01*
X461872Y262692D01*
X461866Y262731D01*
Y262753D01*
Y262764D01*
X461872Y262864D01*
X461883Y262953D01*
X461900Y263031D01*
X461916Y263097D01*
X461933Y263153D01*
X461949Y263192D01*
X461961Y263214D01*
X461966Y263225D01*
X462005Y263292D01*
X462049Y263353D01*
X462094Y263403D01*
X462138Y263447D01*
X462177Y263486D01*
X462210Y263508D01*
X462232Y263525D01*
X462238Y263530D01*
X462305Y263575D01*
X462371Y263608D01*
X462432Y263641D01*
X462493Y263664D01*
X462549Y263686D01*
X462588Y263697D01*
X462615Y263708D01*
X462627D01*
X462793Y263741D01*
X462871Y263752D01*
X462943Y263758D01*
X463004Y263763D01*
X464009D01*
Y260500D01*
D02*
G37*
G36*
X457454Y263808D02*
X457554Y263797D01*
X457648Y263774D01*
X457726Y263752D01*
X457787Y263730D01*
X457837Y263708D01*
X457865Y263697D01*
X457876Y263691D01*
X457959Y263641D01*
X458031Y263586D01*
X458098Y263530D01*
X458148Y263475D01*
X458192Y263425D01*
X458225Y263386D01*
X458248Y263358D01*
X458253Y263347D01*
X458303Y263258D01*
X458353Y263170D01*
X458392Y263081D01*
X458425Y262998D01*
X458448Y262925D01*
X458464Y262864D01*
X458470Y262842D01*
X458475Y262831D01*
X458481Y262820D01*
Y262814D01*
X458503Y262698D01*
X458520Y262576D01*
X458536Y262465D01*
X458542Y262359D01*
X458547Y262265D01*
X458553Y262226D01*
Y262193D01*
Y262171D01*
Y262148D01*
Y262137D01*
Y262132D01*
X458547Y261976D01*
X458542Y261826D01*
X458531Y261699D01*
X458514Y261588D01*
X458508Y261543D01*
X458497Y261499D01*
X458492Y261466D01*
X458486Y261432D01*
X458481Y261410D01*
Y261394D01*
X458475Y261383D01*
Y261377D01*
X458442Y261266D01*
X458403Y261160D01*
X458364Y261072D01*
X458325Y260999D01*
X458292Y260939D01*
X458264Y260894D01*
X458248Y260866D01*
X458242Y260855D01*
X458181Y260783D01*
X458120Y260722D01*
X458059Y260666D01*
X457998Y260628D01*
X457948Y260594D01*
X457909Y260567D01*
X457887Y260556D01*
X457876Y260550D01*
X457793Y260517D01*
X457709Y260494D01*
X457626Y260478D01*
X457554Y260467D01*
X457487Y260461D01*
X457437Y260456D01*
X457393D01*
X457282Y260461D01*
X457182Y260472D01*
X457093Y260494D01*
X457016Y260517D01*
X456954Y260533D01*
X456905Y260556D01*
X456877Y260567D01*
X456866Y260572D01*
X456782Y260622D01*
X456710Y260678D01*
X456644Y260733D01*
X456594Y260789D01*
X456549Y260839D01*
X456516Y260877D01*
X456494Y260905D01*
X456488Y260916D01*
X456433Y261005D01*
X456388Y261094D01*
X456350Y261183D01*
X456316Y261266D01*
X456294Y261338D01*
X456272Y261394D01*
X456266Y261416D01*
Y261432D01*
X456261Y261438D01*
Y261443D01*
X456233Y261560D01*
X456216Y261682D01*
X456200Y261799D01*
X456194Y261904D01*
X456189Y261999D01*
X456183Y262037D01*
Y262071D01*
Y262093D01*
Y262115D01*
Y262126D01*
Y262132D01*
X456189Y262287D01*
X456194Y262431D01*
X456211Y262559D01*
X456222Y262670D01*
X456233Y262714D01*
X456239Y262759D01*
X456244Y262792D01*
X456255Y262825D01*
X456261Y262848D01*
Y262864D01*
X456266Y262875D01*
Y262881D01*
X456300Y262998D01*
X456339Y263097D01*
X456377Y263192D01*
X456416Y263264D01*
X456449Y263325D01*
X456477Y263369D01*
X456499Y263397D01*
X456505Y263408D01*
X456566Y263480D01*
X456627Y263541D01*
X456688Y263597D01*
X456744Y263636D01*
X456793Y263669D01*
X456832Y263697D01*
X456860Y263708D01*
X456871Y263714D01*
X456954Y263747D01*
X457032Y263769D01*
X457115Y263791D01*
X457188Y263802D01*
X457249Y263808D01*
X457299Y263813D01*
X457343D01*
X457454Y263808D01*
D02*
G37*
G36*
X447745Y262736D02*
X447589Y262364D01*
X446807Y262786D01*
Y260405D01*
X447645D01*
Y260000D01*
X445597D01*
Y260405D01*
X446324D01*
Y263280D01*
X446712D01*
X447745Y262736D01*
D02*
G37*
G36*
X443987Y263308D02*
X444076Y263302D01*
X444154Y263286D01*
X444220Y263269D01*
X444281Y263252D01*
X444320Y263241D01*
X444348Y263230D01*
X444359Y263225D01*
X444431Y263191D01*
X444503Y263152D01*
X444559Y263113D01*
X444615Y263075D01*
X444653Y263041D01*
X444687Y263014D01*
X444709Y262997D01*
X444714Y262991D01*
X444770Y262936D01*
X444814Y262875D01*
X444853Y262819D01*
X444886Y262764D01*
X444914Y262719D01*
X444931Y262681D01*
X444942Y262658D01*
X444947Y262647D01*
X444975Y262575D01*
X444992Y262497D01*
X445009Y262431D01*
X445014Y262364D01*
X445020Y262309D01*
X445025Y262264D01*
Y262237D01*
Y262226D01*
X445020Y262148D01*
X445014Y262076D01*
X445003Y262009D01*
X444992Y261954D01*
X444981Y261904D01*
X444975Y261870D01*
X444964Y261843D01*
Y261837D01*
X444936Y261770D01*
X444909Y261715D01*
X444881Y261660D01*
X444847Y261615D01*
X444825Y261576D01*
X444803Y261548D01*
X444787Y261532D01*
X444781Y261526D01*
X444731Y261482D01*
X444681Y261443D01*
X444626Y261410D01*
X444576Y261376D01*
X444537Y261354D01*
X444498Y261338D01*
X444476Y261332D01*
X444470Y261327D01*
X444398Y261304D01*
X444320Y261288D01*
X444248Y261271D01*
X444181Y261265D01*
X444121Y261260D01*
X444076Y261254D01*
X443943D01*
X443860Y261265D01*
X443787Y261271D01*
X443721Y261282D01*
X443665Y261293D01*
X443621Y261299D01*
X443599Y261310D01*
X443588D01*
X443515Y261332D01*
X443443Y261354D01*
X443382Y261382D01*
X443327Y261404D01*
X443282Y261426D01*
X443249Y261443D01*
X443227Y261454D01*
X443221Y261460D01*
X443232Y261354D01*
X443244Y261271D01*
X443260Y261193D01*
X443277Y261121D01*
X443294Y261060D01*
X443310Y261010D01*
X443327Y260971D01*
X443332Y260949D01*
X443338Y260938D01*
X443371Y260871D01*
X443410Y260816D01*
X443449Y260766D01*
X443488Y260721D01*
X443521Y260683D01*
X443549Y260655D01*
X443571Y260638D01*
X443577Y260633D01*
X443638Y260588D01*
X443704Y260549D01*
X443771Y260516D01*
X443832Y260488D01*
X443887Y260466D01*
X443932Y260450D01*
X443960Y260444D01*
X443965Y260438D01*
X443971D01*
X444060Y260416D01*
X444154Y260405D01*
X444248Y260394D01*
X444337Y260383D01*
X444409D01*
X444470Y260377D01*
X444825D01*
Y260000D01*
X444553D01*
X444398Y260005D01*
X444248Y260017D01*
X444121Y260033D01*
X444009Y260050D01*
X443960Y260061D01*
X443915Y260067D01*
X443876Y260078D01*
X443849Y260083D01*
X443821Y260089D01*
X443804Y260094D01*
X443793Y260100D01*
X443787D01*
X443665Y260144D01*
X443560Y260194D01*
X443466Y260250D01*
X443382Y260305D01*
X443321Y260350D01*
X443271Y260388D01*
X443244Y260416D01*
X443232Y260427D01*
X443155Y260516D01*
X443083Y260611D01*
X443022Y260705D01*
X442977Y260794D01*
X442938Y260871D01*
X442911Y260938D01*
X442900Y260960D01*
X442894Y260977D01*
X442888Y260988D01*
Y260993D01*
X442849Y261127D01*
X442822Y261265D01*
X442800Y261404D01*
X442789Y261532D01*
X442783Y261593D01*
X442777Y261648D01*
Y261693D01*
X442772Y261737D01*
Y261770D01*
Y261793D01*
Y261809D01*
Y261815D01*
X442777Y261965D01*
X442783Y262098D01*
X442800Y262214D01*
X442816Y262314D01*
X442833Y262398D01*
X442838Y262431D01*
X442844Y262459D01*
X442849Y262481D01*
X442855Y262497D01*
X442861Y262503D01*
Y262509D01*
X442894Y262609D01*
X442933Y262703D01*
X442972Y262780D01*
X443011Y262847D01*
X443044Y262897D01*
X443072Y262936D01*
X443088Y262964D01*
X443094Y262969D01*
X443155Y263036D01*
X443216Y263086D01*
X443271Y263130D01*
X443332Y263169D01*
X443382Y263197D01*
X443421Y263213D01*
X443443Y263225D01*
X443455Y263230D01*
X443532Y263258D01*
X443610Y263280D01*
X443688Y263291D01*
X443754Y263302D01*
X443810Y263308D01*
X443860Y263313D01*
X443898D01*
X443987Y263308D01*
D02*
G37*
G36*
X453500Y262886D02*
X452534D01*
Y260000D01*
X452085D01*
Y262886D01*
X451119D01*
Y263263D01*
X453500D01*
Y262886D01*
D02*
G37*
G36*
X450509Y260000D02*
X450065D01*
Y261171D01*
X449665D01*
X449543Y261177D01*
X449426Y261188D01*
X449326Y261199D01*
X449243Y261221D01*
X449171Y261238D01*
X449121Y261249D01*
X449088Y261260D01*
X449077Y261265D01*
X448988Y261304D01*
X448910Y261343D01*
X448843Y261387D01*
X448782Y261426D01*
X448738Y261460D01*
X448705Y261487D01*
X448683Y261510D01*
X448677Y261515D01*
X448622Y261576D01*
X448572Y261637D01*
X448533Y261693D01*
X448499Y261748D01*
X448477Y261793D01*
X448455Y261831D01*
X448450Y261854D01*
X448444Y261865D01*
X448416Y261937D01*
X448399Y262009D01*
X448383Y262081D01*
X448377Y262142D01*
X448372Y262192D01*
X448366Y262231D01*
Y262253D01*
Y262264D01*
X448372Y262364D01*
X448383Y262453D01*
X448399Y262531D01*
X448416Y262597D01*
X448433Y262653D01*
X448450Y262692D01*
X448461Y262714D01*
X448466Y262725D01*
X448505Y262792D01*
X448549Y262853D01*
X448594Y262903D01*
X448638Y262947D01*
X448677Y262986D01*
X448710Y263008D01*
X448733Y263025D01*
X448738Y263030D01*
X448805Y263075D01*
X448871Y263108D01*
X448932Y263141D01*
X448993Y263163D01*
X449049Y263186D01*
X449088Y263197D01*
X449116Y263208D01*
X449127D01*
X449293Y263241D01*
X449371Y263252D01*
X449443Y263258D01*
X449504Y263263D01*
X450509D01*
Y260000D01*
D02*
G37*
G36*
X435245Y262736D02*
X435089Y262364D01*
X434307Y262786D01*
Y260405D01*
X435145D01*
Y260000D01*
X433097D01*
Y260405D01*
X433824D01*
Y263280D01*
X434212D01*
X435245Y262736D01*
D02*
G37*
G36*
X441000Y262886D02*
X440034D01*
Y260000D01*
X439585D01*
Y262886D01*
X438619D01*
Y263263D01*
X441000D01*
Y262886D01*
D02*
G37*
G36*
X438009Y260000D02*
X437565D01*
Y261171D01*
X437165D01*
X437043Y261177D01*
X436926Y261188D01*
X436826Y261199D01*
X436743Y261221D01*
X436671Y261238D01*
X436621Y261249D01*
X436588Y261260D01*
X436577Y261265D01*
X436488Y261304D01*
X436410Y261343D01*
X436343Y261387D01*
X436282Y261426D01*
X436238Y261460D01*
X436205Y261487D01*
X436183Y261510D01*
X436177Y261515D01*
X436122Y261576D01*
X436072Y261637D01*
X436033Y261693D01*
X435999Y261748D01*
X435977Y261793D01*
X435955Y261831D01*
X435950Y261854D01*
X435944Y261865D01*
X435916Y261937D01*
X435899Y262009D01*
X435883Y262081D01*
X435877Y262142D01*
X435872Y262192D01*
X435866Y262231D01*
Y262253D01*
Y262264D01*
X435872Y262364D01*
X435883Y262453D01*
X435899Y262531D01*
X435916Y262597D01*
X435933Y262653D01*
X435950Y262692D01*
X435961Y262714D01*
X435966Y262725D01*
X436005Y262792D01*
X436049Y262853D01*
X436094Y262903D01*
X436138Y262947D01*
X436177Y262986D01*
X436210Y263008D01*
X436233Y263025D01*
X436238Y263030D01*
X436305Y263075D01*
X436371Y263108D01*
X436432Y263141D01*
X436493Y263163D01*
X436549Y263186D01*
X436588Y263197D01*
X436616Y263208D01*
X436627D01*
X436793Y263241D01*
X436871Y263252D01*
X436943Y263258D01*
X437004Y263263D01*
X438009D01*
Y260000D01*
D02*
G37*
G36*
X431448Y263308D02*
X431537Y263302D01*
X431621Y263291D01*
X431687Y263280D01*
X431743Y263263D01*
X431787Y263252D01*
X431809Y263247D01*
X431820Y263241D01*
X431892Y263213D01*
X431953Y263186D01*
X432009Y263152D01*
X432059Y263125D01*
X432098Y263097D01*
X432126Y263080D01*
X432142Y263064D01*
X432148Y263058D01*
X432192Y263014D01*
X432231Y262969D01*
X432264Y262925D01*
X432292Y262880D01*
X432314Y262847D01*
X432331Y262819D01*
X432336Y262797D01*
X432342Y262792D01*
X432364Y262736D01*
X432375Y262686D01*
X432386Y262636D01*
X432398Y262586D01*
Y262547D01*
X432403Y262520D01*
Y262497D01*
Y262492D01*
X432398Y262398D01*
X432381Y262314D01*
X432359Y262237D01*
X432331Y262170D01*
X432303Y262115D01*
X432281Y262070D01*
X432264Y262048D01*
X432259Y262037D01*
X432198Y261965D01*
X432120Y261898D01*
X432048Y261837D01*
X431970Y261782D01*
X431898Y261737D01*
X431843Y261704D01*
X431820Y261693D01*
X431804Y261682D01*
X431798Y261676D01*
X431793D01*
X431915Y261610D01*
X432020Y261537D01*
X432109Y261471D01*
X432181Y261410D01*
X432236Y261354D01*
X432275Y261315D01*
X432303Y261288D01*
X432309Y261277D01*
X432364Y261193D01*
X432403Y261104D01*
X432436Y261016D01*
X432453Y260938D01*
X432464Y260866D01*
X432470Y260810D01*
X432475Y260788D01*
Y260771D01*
Y260766D01*
Y260760D01*
X432470Y260694D01*
X432464Y260633D01*
X432453Y260577D01*
X432442Y260533D01*
X432431Y260488D01*
X432420Y260461D01*
X432409Y260438D01*
Y260433D01*
X432381Y260383D01*
X432347Y260333D01*
X432314Y260289D01*
X432281Y260250D01*
X432248Y260222D01*
X432226Y260200D01*
X432209Y260183D01*
X432203Y260178D01*
X432148Y260139D01*
X432092Y260105D01*
X432031Y260078D01*
X431981Y260055D01*
X431931Y260039D01*
X431892Y260022D01*
X431870Y260017D01*
X431859Y260011D01*
X431781Y259995D01*
X431698Y259978D01*
X431621Y259967D01*
X431548Y259961D01*
X431482D01*
X431432Y259956D01*
X431299D01*
X431215Y259967D01*
X431143Y259972D01*
X431077Y259983D01*
X431021Y259995D01*
X430977Y260000D01*
X430955Y260011D01*
X430943D01*
X430866Y260033D01*
X430799Y260061D01*
X430738Y260089D01*
X430683Y260117D01*
X430644Y260139D01*
X430610Y260161D01*
X430588Y260172D01*
X430583Y260178D01*
X430527Y260222D01*
X430477Y260266D01*
X430438Y260311D01*
X430405Y260355D01*
X430377Y260394D01*
X430361Y260422D01*
X430349Y260444D01*
X430344Y260450D01*
X430316Y260511D01*
X430294Y260577D01*
X430277Y260638D01*
X430266Y260694D01*
X430261Y260744D01*
X430255Y260788D01*
Y260810D01*
Y260821D01*
X430266Y260938D01*
X430272Y260988D01*
X430283Y261027D01*
X430294Y261066D01*
X430300Y261093D01*
X430311Y261110D01*
Y261116D01*
X430355Y261210D01*
X430377Y261249D01*
X430400Y261288D01*
X430422Y261315D01*
X430438Y261338D01*
X430449Y261349D01*
X430455Y261354D01*
X430527Y261432D01*
X430594Y261493D01*
X430627Y261515D01*
X430649Y261532D01*
X430666Y261543D01*
X430672Y261548D01*
X430766Y261610D01*
X430810Y261637D01*
X430849Y261665D01*
X430888Y261682D01*
X430916Y261698D01*
X430932Y261704D01*
X430938Y261709D01*
X430838Y261765D01*
X430744Y261826D01*
X430666Y261887D01*
X430605Y261943D01*
X430555Y261987D01*
X430516Y262026D01*
X430494Y262048D01*
X430488Y262059D01*
X430433Y262137D01*
X430394Y262220D01*
X430366Y262298D01*
X430349Y262375D01*
X430333Y262442D01*
X430327Y262497D01*
Y262514D01*
Y262531D01*
Y262536D01*
Y262542D01*
Y262609D01*
X430338Y262664D01*
X430349Y262719D01*
X430361Y262770D01*
X430372Y262803D01*
X430383Y262836D01*
X430388Y262853D01*
X430394Y262858D01*
X430422Y262908D01*
X430455Y262958D01*
X430488Y262997D01*
X430516Y263036D01*
X430549Y263064D01*
X430572Y263086D01*
X430588Y263097D01*
X430594Y263102D01*
X430644Y263136D01*
X430699Y263169D01*
X430749Y263197D01*
X430799Y263219D01*
X430843Y263236D01*
X430877Y263247D01*
X430899Y263258D01*
X430910D01*
X430982Y263275D01*
X431060Y263291D01*
X431132Y263302D01*
X431204Y263308D01*
X431265Y263313D01*
X431354D01*
X431448Y263308D01*
D02*
G37*
G36*
X435245Y252736D02*
X435089Y252364D01*
X434307Y252786D01*
Y250405D01*
X435145D01*
Y250000D01*
X433097D01*
Y250405D01*
X433824D01*
Y253280D01*
X434212D01*
X435245Y252736D01*
D02*
G37*
G36*
X441000Y252886D02*
X440034D01*
Y250000D01*
X439585D01*
Y252886D01*
X438619D01*
Y253263D01*
X441000D01*
Y252886D01*
D02*
G37*
G36*
X438009Y250000D02*
X437565D01*
Y251171D01*
X437165D01*
X437043Y251177D01*
X436926Y251188D01*
X436826Y251199D01*
X436743Y251221D01*
X436671Y251238D01*
X436621Y251249D01*
X436588Y251260D01*
X436577Y251265D01*
X436488Y251304D01*
X436410Y251343D01*
X436343Y251388D01*
X436282Y251426D01*
X436238Y251460D01*
X436205Y251487D01*
X436183Y251510D01*
X436177Y251515D01*
X436122Y251576D01*
X436072Y251637D01*
X436033Y251693D01*
X435999Y251748D01*
X435977Y251793D01*
X435955Y251832D01*
X435950Y251854D01*
X435944Y251865D01*
X435916Y251937D01*
X435899Y252009D01*
X435883Y252081D01*
X435877Y252142D01*
X435872Y252192D01*
X435866Y252231D01*
Y252253D01*
Y252264D01*
X435872Y252364D01*
X435883Y252453D01*
X435899Y252531D01*
X435916Y252597D01*
X435933Y252653D01*
X435950Y252692D01*
X435961Y252714D01*
X435966Y252725D01*
X436005Y252792D01*
X436049Y252853D01*
X436094Y252903D01*
X436138Y252947D01*
X436177Y252986D01*
X436210Y253008D01*
X436233Y253025D01*
X436238Y253030D01*
X436305Y253075D01*
X436371Y253108D01*
X436432Y253141D01*
X436493Y253164D01*
X436549Y253186D01*
X436588Y253197D01*
X436616Y253208D01*
X436627D01*
X436793Y253241D01*
X436871Y253252D01*
X436943Y253258D01*
X437004Y253263D01*
X438009D01*
Y250000D01*
D02*
G37*
G36*
X432481Y252858D02*
X430721D01*
X432142Y250000D01*
X431643D01*
X430272Y252858D01*
Y253263D01*
X432481D01*
Y252858D01*
D02*
G37*
G36*
X444945Y273936D02*
X444789Y273564D01*
X444007Y273986D01*
Y271605D01*
X444845D01*
Y271200D01*
X442797D01*
Y271605D01*
X443524D01*
Y274480D01*
X443912D01*
X444945Y273936D01*
D02*
G37*
G36*
X440621Y274458D02*
X440732Y274452D01*
X440832Y274441D01*
X440915Y274430D01*
X440987Y274413D01*
X441043Y274402D01*
X441076Y274397D01*
X441082Y274391D01*
X441087D01*
X441176Y274363D01*
X441259Y274336D01*
X441337Y274302D01*
X441398Y274269D01*
X441454Y274241D01*
X441493Y274219D01*
X441515Y274203D01*
X441526Y274197D01*
X441593Y274147D01*
X441653Y274097D01*
X441704Y274053D01*
X441748Y274003D01*
X441787Y273964D01*
X441815Y273931D01*
X441831Y273908D01*
X441837Y273903D01*
X441920Y273770D01*
X441953Y273709D01*
X441981Y273648D01*
X442003Y273598D01*
X442020Y273553D01*
X442031Y273531D01*
X442036Y273520D01*
X442081Y273364D01*
X442103Y273292D01*
X442114Y273226D01*
X442125Y273165D01*
X442136Y273120D01*
X442142Y273093D01*
Y273081D01*
X442159Y272909D01*
X442164Y272826D01*
Y272754D01*
X442170Y272687D01*
Y272643D01*
Y272610D01*
Y272604D01*
Y272599D01*
X442164Y272465D01*
X442159Y272343D01*
X442147Y272232D01*
X442131Y272138D01*
X442120Y272060D01*
X442109Y272005D01*
X442103Y271983D01*
Y271966D01*
X442098Y271960D01*
Y271955D01*
X442070Y271855D01*
X442036Y271772D01*
X441998Y271694D01*
X441964Y271627D01*
X441937Y271577D01*
X441909Y271538D01*
X441892Y271516D01*
X441887Y271505D01*
X441831Y271444D01*
X441776Y271389D01*
X441715Y271344D01*
X441665Y271305D01*
X441615Y271278D01*
X441576Y271255D01*
X441554Y271244D01*
X441542Y271239D01*
X441459Y271211D01*
X441376Y271189D01*
X441298Y271178D01*
X441221Y271167D01*
X441154Y271161D01*
X441104Y271156D01*
X441060D01*
X440965Y271161D01*
X440876Y271167D01*
X440799Y271183D01*
X440732Y271200D01*
X440671Y271211D01*
X440632Y271228D01*
X440605Y271233D01*
X440593Y271239D01*
X440516Y271272D01*
X440449Y271311D01*
X440388Y271350D01*
X440333Y271383D01*
X440294Y271416D01*
X440261Y271444D01*
X440238Y271461D01*
X440233Y271466D01*
X440177Y271522D01*
X440133Y271583D01*
X440094Y271638D01*
X440061Y271688D01*
X440033Y271738D01*
X440016Y271772D01*
X440005Y271794D01*
X440000Y271805D01*
X439972Y271883D01*
X439950Y271955D01*
X439939Y272027D01*
X439927Y272094D01*
X439922Y272149D01*
X439916Y272193D01*
Y272221D01*
Y272232D01*
Y272310D01*
X439927Y272382D01*
X439939Y272449D01*
X439950Y272504D01*
X439961Y272554D01*
X439972Y272587D01*
X439977Y272615D01*
X439983Y272621D01*
X440011Y272687D01*
X440038Y272748D01*
X440072Y272798D01*
X440099Y272843D01*
X440127Y272882D01*
X440149Y272909D01*
X440166Y272926D01*
X440172Y272932D01*
X440222Y272976D01*
X440272Y273015D01*
X440321Y273054D01*
X440372Y273081D01*
X440416Y273104D01*
X440449Y273120D01*
X440471Y273126D01*
X440483Y273131D01*
X440555Y273159D01*
X440627Y273176D01*
X440699Y273193D01*
X440765Y273198D01*
X440821Y273203D01*
X440871Y273209D01*
X440999D01*
X441082Y273198D01*
X441160Y273193D01*
X441226Y273181D01*
X441282Y273170D01*
X441321Y273159D01*
X441348Y273154D01*
X441359Y273148D01*
X441432Y273126D01*
X441504Y273104D01*
X441565Y273076D01*
X441615Y273054D01*
X441659Y273037D01*
X441692Y273020D01*
X441715Y273009D01*
X441720Y273004D01*
X441715Y273104D01*
X441704Y273187D01*
X441687Y273259D01*
X441676Y273326D01*
X441653Y273387D01*
X441642Y273437D01*
X441626Y273470D01*
X441620Y273498D01*
X441615Y273503D01*
X441581Y273570D01*
X441548Y273631D01*
X441509Y273681D01*
X441476Y273725D01*
X441443Y273764D01*
X441415Y273792D01*
X441398Y273809D01*
X441393Y273814D01*
X441337Y273858D01*
X441276Y273897D01*
X441215Y273936D01*
X441160Y273964D01*
X441110Y273986D01*
X441065Y274003D01*
X441043Y274008D01*
X441032Y274014D01*
X440949Y274036D01*
X440860Y274058D01*
X440777Y274069D01*
X440699Y274075D01*
X440627Y274080D01*
X440577Y274086D01*
X440172D01*
Y274463D01*
X440499D01*
X440621Y274458D01*
D02*
G37*
G36*
X450700Y274086D02*
X449734D01*
Y271200D01*
X449285D01*
Y274086D01*
X448319D01*
Y274463D01*
X450700D01*
Y274086D01*
D02*
G37*
G36*
X447709Y271200D02*
X447265D01*
Y272371D01*
X446865D01*
X446743Y272377D01*
X446626Y272388D01*
X446526Y272399D01*
X446443Y272421D01*
X446371Y272438D01*
X446321Y272449D01*
X446288Y272460D01*
X446277Y272465D01*
X446188Y272504D01*
X446110Y272543D01*
X446044Y272587D01*
X445983Y272626D01*
X445938Y272660D01*
X445905Y272687D01*
X445883Y272710D01*
X445877Y272715D01*
X445822Y272776D01*
X445772Y272837D01*
X445733Y272893D01*
X445700Y272948D01*
X445677Y272993D01*
X445655Y273031D01*
X445649Y273054D01*
X445644Y273065D01*
X445616Y273137D01*
X445600Y273209D01*
X445583Y273281D01*
X445577Y273342D01*
X445572Y273392D01*
X445566Y273431D01*
Y273453D01*
Y273464D01*
X445572Y273564D01*
X445583Y273653D01*
X445600Y273731D01*
X445616Y273797D01*
X445633Y273853D01*
X445649Y273892D01*
X445661Y273914D01*
X445666Y273925D01*
X445705Y273992D01*
X445749Y274053D01*
X445794Y274103D01*
X445838Y274147D01*
X445877Y274186D01*
X445910Y274208D01*
X445933Y274225D01*
X445938Y274230D01*
X446005Y274275D01*
X446071Y274308D01*
X446132Y274341D01*
X446193Y274363D01*
X446249Y274386D01*
X446288Y274397D01*
X446315Y274408D01*
X446327D01*
X446493Y274441D01*
X446571Y274452D01*
X446643Y274458D01*
X446704Y274463D01*
X447709D01*
Y271200D01*
D02*
G37*
G36*
X74945Y193936D02*
X74789Y193564D01*
X74007Y193986D01*
Y191605D01*
X74845D01*
Y191200D01*
X72797D01*
Y191605D01*
X73524D01*
Y194480D01*
X73912D01*
X74945Y193936D01*
D02*
G37*
G36*
X80700Y194086D02*
X79734D01*
Y191200D01*
X79285D01*
Y194086D01*
X78319D01*
Y194463D01*
X80700D01*
Y194086D01*
D02*
G37*
G36*
X77709Y191200D02*
X77265D01*
Y192371D01*
X76865D01*
X76743Y192377D01*
X76626Y192388D01*
X76526Y192399D01*
X76443Y192421D01*
X76371Y192438D01*
X76321Y192449D01*
X76288Y192460D01*
X76277Y192465D01*
X76188Y192504D01*
X76110Y192543D01*
X76044Y192587D01*
X75982Y192626D01*
X75938Y192660D01*
X75905Y192687D01*
X75883Y192710D01*
X75877Y192715D01*
X75822Y192776D01*
X75772Y192837D01*
X75733Y192893D01*
X75700Y192948D01*
X75677Y192993D01*
X75655Y193032D01*
X75649Y193054D01*
X75644Y193065D01*
X75616Y193137D01*
X75600Y193209D01*
X75583Y193281D01*
X75577Y193342D01*
X75572Y193392D01*
X75566Y193431D01*
Y193453D01*
Y193464D01*
X75572Y193564D01*
X75583Y193653D01*
X75600Y193731D01*
X75616Y193797D01*
X75633Y193853D01*
X75649Y193892D01*
X75661Y193914D01*
X75666Y193925D01*
X75705Y193992D01*
X75749Y194053D01*
X75794Y194103D01*
X75838Y194147D01*
X75877Y194186D01*
X75910Y194208D01*
X75933Y194225D01*
X75938Y194230D01*
X76005Y194275D01*
X76071Y194308D01*
X76132Y194341D01*
X76193Y194363D01*
X76249Y194386D01*
X76288Y194397D01*
X76315Y194408D01*
X76327D01*
X76493Y194441D01*
X76571Y194452D01*
X76643Y194458D01*
X76704Y194463D01*
X77709D01*
Y191200D01*
D02*
G37*
G36*
X71975Y192798D02*
X71359D01*
X71215Y192793D01*
X71087Y192776D01*
X70976Y192754D01*
X70888Y192726D01*
X70815Y192699D01*
X70766Y192676D01*
X70738Y192660D01*
X70727Y192654D01*
X70654Y192593D01*
X70599Y192526D01*
X70560Y192454D01*
X70532Y192382D01*
X70516Y192316D01*
X70510Y192266D01*
X70505Y192243D01*
Y192227D01*
Y192221D01*
Y192216D01*
Y192155D01*
X70516Y192105D01*
X70521Y192055D01*
X70532Y192010D01*
X70543Y191977D01*
X70555Y191949D01*
X70560Y191933D01*
X70566Y191927D01*
X70621Y191844D01*
X70649Y191805D01*
X70677Y191777D01*
X70705Y191750D01*
X70727Y191733D01*
X70738Y191722D01*
X70743Y191716D01*
X70832Y191655D01*
X70921Y191616D01*
X70960Y191600D01*
X70987Y191588D01*
X71010Y191577D01*
X71015D01*
X71137Y191550D01*
X71198Y191544D01*
X71248Y191539D01*
X71298Y191533D01*
X71498D01*
X71559Y191539D01*
X71659D01*
X71692Y191544D01*
X71726D01*
X71787Y191550D01*
X71848Y191561D01*
X71898Y191566D01*
X71942Y191577D01*
X71981Y191583D01*
X72009Y191588D01*
X72025Y191594D01*
X72031D01*
Y191200D01*
X71981Y191194D01*
X71937D01*
X71903Y191189D01*
X71892D01*
X71837Y191183D01*
X71781Y191178D01*
X71759Y191172D01*
X71731D01*
X71670Y191167D01*
X71615D01*
X71598Y191161D01*
X71565D01*
X71504Y191156D01*
X71409D01*
X71304Y191161D01*
X71204Y191167D01*
X71110Y191178D01*
X71032Y191194D01*
X70965Y191211D01*
X70915Y191222D01*
X70882Y191228D01*
X70871Y191233D01*
X70782Y191267D01*
X70699Y191300D01*
X70627Y191339D01*
X70560Y191372D01*
X70510Y191405D01*
X70471Y191433D01*
X70444Y191450D01*
X70438Y191455D01*
X70372Y191511D01*
X70310Y191572D01*
X70261Y191627D01*
X70222Y191683D01*
X70188Y191727D01*
X70161Y191766D01*
X70149Y191788D01*
X70144Y191799D01*
X70111Y191877D01*
X70083Y191955D01*
X70066Y192027D01*
X70050Y192099D01*
X70044Y192155D01*
X70038Y192204D01*
Y192232D01*
Y192243D01*
X70044Y192343D01*
X70055Y192427D01*
X70072Y192504D01*
X70094Y192571D01*
X70116Y192621D01*
X70133Y192660D01*
X70144Y192687D01*
X70149Y192693D01*
X70194Y192754D01*
X70238Y192815D01*
X70283Y192859D01*
X70327Y192904D01*
X70366Y192932D01*
X70399Y192959D01*
X70421Y192971D01*
X70427Y192976D01*
X70494Y193015D01*
X70560Y193043D01*
X70627Y193070D01*
X70693Y193093D01*
X70743Y193104D01*
X70788Y193115D01*
X70815Y193126D01*
X70827D01*
X70993Y193154D01*
X71065Y193159D01*
X71137Y193165D01*
X71198Y193170D01*
X71565D01*
Y194086D01*
X70216D01*
Y194463D01*
X71975D01*
Y192798D01*
D02*
G37*
G36*
X129745Y223736D02*
X129589Y223364D01*
X128807Y223786D01*
Y221405D01*
X129645D01*
Y221000D01*
X127597D01*
Y221405D01*
X128324D01*
Y224280D01*
X128712D01*
X129745Y223736D01*
D02*
G37*
G36*
X135500Y223886D02*
X134534D01*
Y221000D01*
X134085D01*
Y223886D01*
X133119D01*
Y224263D01*
X135500D01*
Y223886D01*
D02*
G37*
G36*
X132509Y221000D02*
X132065D01*
Y222171D01*
X131665D01*
X131543Y222177D01*
X131426Y222188D01*
X131326Y222199D01*
X131243Y222221D01*
X131171Y222238D01*
X131121Y222249D01*
X131088Y222260D01*
X131077Y222265D01*
X130988Y222304D01*
X130910Y222343D01*
X130844Y222388D01*
X130782Y222426D01*
X130738Y222460D01*
X130705Y222487D01*
X130683Y222510D01*
X130677Y222515D01*
X130622Y222576D01*
X130572Y222637D01*
X130533Y222693D01*
X130499Y222748D01*
X130477Y222793D01*
X130455Y222832D01*
X130449Y222854D01*
X130444Y222865D01*
X130416Y222937D01*
X130400Y223009D01*
X130383Y223081D01*
X130377Y223142D01*
X130372Y223192D01*
X130366Y223231D01*
Y223253D01*
Y223264D01*
X130372Y223364D01*
X130383Y223453D01*
X130400Y223531D01*
X130416Y223597D01*
X130433Y223653D01*
X130449Y223692D01*
X130461Y223714D01*
X130466Y223725D01*
X130505Y223792D01*
X130549Y223853D01*
X130594Y223903D01*
X130638Y223947D01*
X130677Y223986D01*
X130710Y224008D01*
X130733Y224025D01*
X130738Y224030D01*
X130805Y224075D01*
X130871Y224108D01*
X130932Y224141D01*
X130993Y224164D01*
X131049Y224186D01*
X131088Y224197D01*
X131115Y224208D01*
X131127D01*
X131293Y224241D01*
X131371Y224252D01*
X131443Y224258D01*
X131504Y224263D01*
X132509D01*
Y221000D01*
D02*
G37*
G36*
X127170Y222104D02*
Y221722D01*
X125599D01*
Y221000D01*
X125155D01*
Y221722D01*
X124594D01*
Y222104D01*
X125155D01*
Y224263D01*
X125782D01*
X127170Y222104D01*
D02*
G37*
G36*
X91354Y194508D02*
X91376D01*
X91398Y194502D01*
X91415D01*
X91482Y194491D01*
X91543Y194486D01*
X91570Y194480D01*
X91587D01*
X91598Y194474D01*
X91604D01*
X91676Y194463D01*
X91737Y194447D01*
X91759Y194441D01*
X91781D01*
X91792Y194436D01*
X91798D01*
X91864Y194419D01*
X91920Y194402D01*
X91942Y194397D01*
X91959Y194391D01*
X91970Y194386D01*
X91975D01*
Y194008D01*
X91903Y194030D01*
X91831Y194047D01*
X91770Y194064D01*
X91715Y194080D01*
X91670Y194092D01*
X91631Y194097D01*
X91609Y194103D01*
X91604D01*
X91476Y194125D01*
X91415Y194130D01*
X91365D01*
X91321Y194136D01*
X91259D01*
X91149Y194130D01*
X91054Y194119D01*
X90971Y194097D01*
X90904Y194075D01*
X90854Y194053D01*
X90816Y194030D01*
X90793Y194019D01*
X90788Y194014D01*
X90732Y193964D01*
X90693Y193903D01*
X90666Y193842D01*
X90649Y193775D01*
X90632Y193720D01*
X90627Y193675D01*
Y193642D01*
Y193636D01*
Y193631D01*
X90632Y193537D01*
X90643Y193492D01*
X90649Y193459D01*
X90660Y193426D01*
X90671Y193403D01*
X90677Y193392D01*
Y193387D01*
X90716Y193315D01*
X90760Y193259D01*
X90777Y193237D01*
X90793Y193220D01*
X90804Y193215D01*
X90810Y193209D01*
X90877Y193159D01*
X90943Y193126D01*
X90971Y193115D01*
X90993Y193104D01*
X91010Y193098D01*
X91015D01*
X91110Y193076D01*
X91154Y193070D01*
X91198Y193065D01*
X91232Y193059D01*
X91665D01*
Y192704D01*
X91293D01*
X91165Y192699D01*
X91110Y192693D01*
X91060Y192687D01*
X91021Y192676D01*
X90993Y192671D01*
X90971Y192665D01*
X90965D01*
X90910Y192654D01*
X90860Y192637D01*
X90816Y192621D01*
X90777Y192604D01*
X90743Y192587D01*
X90721Y192576D01*
X90710Y192571D01*
X90705Y192565D01*
X90632Y192510D01*
X90577Y192460D01*
X90560Y192432D01*
X90544Y192415D01*
X90532Y192404D01*
Y192399D01*
X90510Y192360D01*
X90499Y192321D01*
X90477Y192243D01*
Y192216D01*
X90471Y192188D01*
Y192171D01*
Y192166D01*
X90482Y192060D01*
X90488Y192016D01*
X90499Y191977D01*
X90510Y191944D01*
X90516Y191921D01*
X90527Y191905D01*
Y191899D01*
X90549Y191855D01*
X90571Y191822D01*
X90627Y191755D01*
X90649Y191733D01*
X90671Y191716D01*
X90682Y191705D01*
X90688Y191700D01*
X90732Y191672D01*
X90777Y191644D01*
X90871Y191605D01*
X90910Y191588D01*
X90943Y191583D01*
X90965Y191572D01*
X90971D01*
X91037Y191561D01*
X91110Y191550D01*
X91176Y191544D01*
X91243Y191539D01*
X91298Y191533D01*
X91515D01*
X91576Y191539D01*
X91676D01*
X91709Y191544D01*
X91742D01*
X91864Y191561D01*
X91920Y191566D01*
X91970Y191572D01*
X92009Y191577D01*
X92036Y191583D01*
X92059Y191588D01*
X92064D01*
Y191200D01*
X91964Y191189D01*
X91914Y191183D01*
X91870Y191178D01*
X91831D01*
X91803Y191172D01*
X91776D01*
X91654Y191161D01*
X91598D01*
X91543Y191156D01*
X91426D01*
X91298Y191161D01*
X91182Y191167D01*
X91076Y191178D01*
X90987Y191194D01*
X90910Y191211D01*
X90854Y191222D01*
X90838Y191228D01*
X90821D01*
X90816Y191233D01*
X90810D01*
X90716Y191267D01*
X90627Y191305D01*
X90555Y191339D01*
X90488Y191378D01*
X90438Y191405D01*
X90405Y191433D01*
X90377Y191450D01*
X90372Y191455D01*
X90310Y191511D01*
X90255Y191566D01*
X90210Y191622D01*
X90172Y191672D01*
X90144Y191716D01*
X90122Y191750D01*
X90111Y191777D01*
X90105Y191783D01*
X90077Y191855D01*
X90055Y191927D01*
X90039Y191994D01*
X90027Y192055D01*
X90022Y192110D01*
X90016Y192149D01*
Y192177D01*
Y192188D01*
Y192243D01*
X90027Y192299D01*
X90039Y192343D01*
X90050Y192388D01*
X90061Y192421D01*
X90072Y192449D01*
X90077Y192465D01*
X90083Y192471D01*
X90133Y192560D01*
X90161Y192599D01*
X90188Y192632D01*
X90210Y192654D01*
X90227Y192676D01*
X90238Y192687D01*
X90244Y192693D01*
X90316Y192754D01*
X90388Y192804D01*
X90421Y192821D01*
X90444Y192832D01*
X90460Y192843D01*
X90466D01*
X90555Y192882D01*
X90599Y192898D01*
X90638Y192909D01*
X90671Y192915D01*
X90693Y192920D01*
X90710Y192926D01*
X90716D01*
X90627Y192971D01*
X90544Y193020D01*
X90477Y193070D01*
X90421Y193120D01*
X90377Y193159D01*
X90344Y193193D01*
X90321Y193220D01*
X90316Y193226D01*
X90266Y193303D01*
X90233Y193381D01*
X90205Y193459D01*
X90188Y193537D01*
X90177Y193598D01*
X90172Y193653D01*
Y193686D01*
Y193692D01*
Y193698D01*
X90177Y193764D01*
X90183Y193831D01*
X90194Y193886D01*
X90205Y193936D01*
X90222Y193981D01*
X90233Y194008D01*
X90238Y194030D01*
X90244Y194036D01*
X90272Y194092D01*
X90305Y194141D01*
X90338Y194180D01*
X90366Y194219D01*
X90399Y194253D01*
X90421Y194275D01*
X90438Y194286D01*
X90444Y194291D01*
X90494Y194330D01*
X90549Y194363D01*
X90605Y194391D01*
X90660Y194413D01*
X90705Y194430D01*
X90743Y194441D01*
X90766Y194452D01*
X90777D01*
X90854Y194474D01*
X90932Y194486D01*
X91004Y194497D01*
X91076Y194508D01*
X91137D01*
X91187Y194513D01*
X91293D01*
X91354Y194508D01*
D02*
G37*
G36*
X94945Y193936D02*
X94789Y193564D01*
X94007Y193986D01*
Y191605D01*
X94845D01*
Y191200D01*
X92797D01*
Y191605D01*
X93524D01*
Y194480D01*
X93912D01*
X94945Y193936D01*
D02*
G37*
G36*
X100700Y194086D02*
X99734D01*
Y191200D01*
X99285D01*
Y194086D01*
X98319D01*
Y194463D01*
X100700D01*
Y194086D01*
D02*
G37*
G36*
X97709Y191200D02*
X97265D01*
Y192371D01*
X96865D01*
X96743Y192377D01*
X96626Y192388D01*
X96526Y192399D01*
X96443Y192421D01*
X96371Y192438D01*
X96321Y192449D01*
X96288Y192460D01*
X96277Y192465D01*
X96188Y192504D01*
X96110Y192543D01*
X96044Y192587D01*
X95982Y192626D01*
X95938Y192660D01*
X95905Y192687D01*
X95883Y192710D01*
X95877Y192715D01*
X95822Y192776D01*
X95772Y192837D01*
X95733Y192893D01*
X95700Y192948D01*
X95677Y192993D01*
X95655Y193032D01*
X95649Y193054D01*
X95644Y193065D01*
X95616Y193137D01*
X95600Y193209D01*
X95583Y193281D01*
X95577Y193342D01*
X95572Y193392D01*
X95566Y193431D01*
Y193453D01*
Y193464D01*
X95572Y193564D01*
X95583Y193653D01*
X95600Y193731D01*
X95616Y193797D01*
X95633Y193853D01*
X95649Y193892D01*
X95661Y193914D01*
X95666Y193925D01*
X95705Y193992D01*
X95749Y194053D01*
X95794Y194103D01*
X95838Y194147D01*
X95877Y194186D01*
X95910Y194208D01*
X95933Y194225D01*
X95938Y194230D01*
X96005Y194275D01*
X96071Y194308D01*
X96132Y194341D01*
X96193Y194363D01*
X96249Y194386D01*
X96288Y194397D01*
X96315Y194408D01*
X96327D01*
X96493Y194441D01*
X96571Y194452D01*
X96643Y194458D01*
X96704Y194463D01*
X97709D01*
Y191200D01*
D02*
G37*
G36*
X91232Y314508D02*
X91337Y314497D01*
X91431Y314475D01*
X91515Y314452D01*
X91581Y314430D01*
X91631Y314408D01*
X91665Y314397D01*
X91670Y314391D01*
X91676D01*
X91764Y314347D01*
X91842Y314291D01*
X91914Y314241D01*
X91975Y314191D01*
X92025Y314147D01*
X92064Y314114D01*
X92086Y314092D01*
X92098Y314081D01*
X91859Y313797D01*
X91803Y313847D01*
X91753Y313897D01*
X91698Y313936D01*
X91654Y313969D01*
X91609Y313997D01*
X91576Y314019D01*
X91554Y314031D01*
X91548Y314036D01*
X91482Y314069D01*
X91415Y314092D01*
X91354Y314108D01*
X91293Y314119D01*
X91243Y314125D01*
X91204Y314130D01*
X91115D01*
X91065Y314125D01*
X91026Y314114D01*
X90987Y314108D01*
X90954Y314097D01*
X90932Y314086D01*
X90921Y314081D01*
X90915D01*
X90843Y314036D01*
X90782Y313997D01*
X90766Y313975D01*
X90749Y313964D01*
X90743Y313953D01*
X90738Y313947D01*
X90693Y313881D01*
X90660Y313820D01*
X90649Y313792D01*
X90643Y313770D01*
X90638Y313759D01*
Y313753D01*
X90616Y313675D01*
X90610Y313598D01*
X90605Y313570D01*
Y313548D01*
Y313531D01*
Y313526D01*
X90610Y313437D01*
X90616Y313392D01*
Y313359D01*
X90621Y313331D01*
X90627Y313309D01*
X90632Y313292D01*
Y313287D01*
X90654Y313204D01*
X90688Y313131D01*
X90705Y313098D01*
X90721Y313076D01*
X90727Y313059D01*
X90732Y313054D01*
X90793Y312959D01*
X90827Y312915D01*
X90860Y312871D01*
X90888Y312837D01*
X90910Y312809D01*
X90926Y312787D01*
X90932Y312782D01*
X90982Y312726D01*
X91037Y312665D01*
X91093Y312604D01*
X91149Y312549D01*
X91198Y312499D01*
X91237Y312460D01*
X91259Y312438D01*
X91271Y312426D01*
X92109Y311589D01*
Y311200D01*
X89955D01*
Y311616D01*
X91543D01*
X90954Y312193D01*
X90877Y312266D01*
X90810Y312338D01*
X90749Y312399D01*
X90693Y312454D01*
X90654Y312499D01*
X90621Y312532D01*
X90599Y312554D01*
X90593Y312560D01*
X90538Y312621D01*
X90488Y312682D01*
X90444Y312737D01*
X90405Y312787D01*
X90377Y312832D01*
X90355Y312860D01*
X90344Y312882D01*
X90338Y312887D01*
X90272Y313004D01*
X90244Y313059D01*
X90222Y313109D01*
X90205Y313148D01*
X90194Y313181D01*
X90183Y313204D01*
Y313209D01*
X90155Y313331D01*
X90144Y313392D01*
X90138Y313442D01*
X90133Y313492D01*
Y313526D01*
Y313553D01*
Y313559D01*
X90138Y313642D01*
X90144Y313714D01*
X90155Y313781D01*
X90166Y313842D01*
X90183Y313892D01*
X90194Y313925D01*
X90199Y313953D01*
X90205Y313958D01*
X90233Y314025D01*
X90266Y314081D01*
X90299Y314130D01*
X90333Y314175D01*
X90366Y314208D01*
X90388Y314236D01*
X90405Y314252D01*
X90410Y314258D01*
X90510Y314341D01*
X90560Y314369D01*
X90610Y314397D01*
X90654Y314419D01*
X90688Y314436D01*
X90710Y314441D01*
X90716Y314447D01*
X90782Y314469D01*
X90854Y314486D01*
X90921Y314497D01*
X90982Y314508D01*
X91037D01*
X91076Y314513D01*
X91115D01*
X91232Y314508D01*
D02*
G37*
G36*
X94945Y313936D02*
X94789Y313564D01*
X94007Y313986D01*
Y311605D01*
X94845D01*
Y311200D01*
X92797D01*
Y311605D01*
X93524D01*
Y314480D01*
X93912D01*
X94945Y313936D01*
D02*
G37*
G36*
X100700Y314086D02*
X99734D01*
Y311200D01*
X99285D01*
Y314086D01*
X98319D01*
Y314463D01*
X100700D01*
Y314086D01*
D02*
G37*
G36*
X97709Y311200D02*
X97265D01*
Y312371D01*
X96865D01*
X96743Y312377D01*
X96626Y312388D01*
X96526Y312399D01*
X96443Y312421D01*
X96371Y312438D01*
X96321Y312449D01*
X96288Y312460D01*
X96277Y312465D01*
X96188Y312504D01*
X96110Y312543D01*
X96044Y312587D01*
X95982Y312626D01*
X95938Y312660D01*
X95905Y312687D01*
X95883Y312710D01*
X95877Y312715D01*
X95822Y312776D01*
X95772Y312837D01*
X95733Y312893D01*
X95700Y312948D01*
X95677Y312993D01*
X95655Y313032D01*
X95649Y313054D01*
X95644Y313065D01*
X95616Y313137D01*
X95600Y313209D01*
X95583Y313281D01*
X95577Y313342D01*
X95572Y313392D01*
X95566Y313431D01*
Y313453D01*
Y313464D01*
X95572Y313564D01*
X95583Y313653D01*
X95600Y313731D01*
X95616Y313797D01*
X95633Y313853D01*
X95649Y313892D01*
X95661Y313914D01*
X95666Y313925D01*
X95705Y313992D01*
X95749Y314053D01*
X95794Y314103D01*
X95838Y314147D01*
X95877Y314186D01*
X95910Y314208D01*
X95933Y314225D01*
X95938Y314230D01*
X96005Y314275D01*
X96071Y314308D01*
X96132Y314341D01*
X96193Y314364D01*
X96249Y314386D01*
X96288Y314397D01*
X96315Y314408D01*
X96327D01*
X96493Y314441D01*
X96571Y314452D01*
X96643Y314458D01*
X96704Y314463D01*
X97709D01*
Y311200D01*
D02*
G37*
G36*
X114945Y223936D02*
X114789Y223564D01*
X114007Y223986D01*
Y221605D01*
X114845D01*
Y221200D01*
X112797D01*
Y221605D01*
X113524D01*
Y224480D01*
X113912D01*
X114945Y223936D01*
D02*
G37*
G36*
X112131D02*
X111975Y223564D01*
X111193Y223986D01*
Y221605D01*
X112031D01*
Y221200D01*
X109983D01*
Y221605D01*
X110710D01*
Y224480D01*
X111099D01*
X112131Y223936D01*
D02*
G37*
G36*
X120700Y224086D02*
X119734D01*
Y221200D01*
X119285D01*
Y224086D01*
X118319D01*
Y224463D01*
X120700D01*
Y224086D01*
D02*
G37*
G36*
X117709Y221200D02*
X117265D01*
Y222371D01*
X116865D01*
X116743Y222377D01*
X116626Y222388D01*
X116526Y222399D01*
X116443Y222421D01*
X116371Y222438D01*
X116321Y222449D01*
X116288Y222460D01*
X116277Y222465D01*
X116188Y222504D01*
X116110Y222543D01*
X116044Y222587D01*
X115982Y222626D01*
X115938Y222660D01*
X115905Y222687D01*
X115883Y222710D01*
X115877Y222715D01*
X115822Y222776D01*
X115772Y222837D01*
X115733Y222893D01*
X115700Y222948D01*
X115677Y222993D01*
X115655Y223031D01*
X115649Y223054D01*
X115644Y223065D01*
X115616Y223137D01*
X115600Y223209D01*
X115583Y223281D01*
X115577Y223342D01*
X115572Y223392D01*
X115566Y223431D01*
Y223453D01*
Y223464D01*
X115572Y223564D01*
X115583Y223653D01*
X115600Y223731D01*
X115616Y223797D01*
X115633Y223853D01*
X115649Y223892D01*
X115661Y223914D01*
X115666Y223925D01*
X115705Y223992D01*
X115749Y224053D01*
X115794Y224103D01*
X115838Y224147D01*
X115877Y224186D01*
X115910Y224208D01*
X115933Y224225D01*
X115938Y224230D01*
X116005Y224275D01*
X116071Y224308D01*
X116132Y224341D01*
X116193Y224363D01*
X116249Y224386D01*
X116288Y224397D01*
X116315Y224408D01*
X116327D01*
X116493Y224441D01*
X116571Y224452D01*
X116643Y224458D01*
X116704Y224463D01*
X117709D01*
Y221200D01*
D02*
G37*
G36*
X94945Y273936D02*
X94789Y273564D01*
X94007Y273986D01*
Y271605D01*
X94845D01*
Y271200D01*
X92797D01*
Y271605D01*
X93524D01*
Y274480D01*
X93912D01*
X94945Y273936D01*
D02*
G37*
G36*
X100700Y274086D02*
X99734D01*
Y271200D01*
X99285D01*
Y274086D01*
X98319D01*
Y274463D01*
X100700D01*
Y274086D01*
D02*
G37*
G36*
X97709Y271200D02*
X97265D01*
Y272371D01*
X96865D01*
X96743Y272377D01*
X96626Y272388D01*
X96526Y272399D01*
X96443Y272421D01*
X96371Y272438D01*
X96321Y272449D01*
X96288Y272460D01*
X96277Y272465D01*
X96188Y272504D01*
X96110Y272543D01*
X96044Y272587D01*
X95982Y272626D01*
X95938Y272660D01*
X95905Y272687D01*
X95883Y272710D01*
X95877Y272715D01*
X95822Y272776D01*
X95772Y272837D01*
X95733Y272893D01*
X95700Y272948D01*
X95677Y272993D01*
X95655Y273031D01*
X95649Y273054D01*
X95644Y273065D01*
X95616Y273137D01*
X95600Y273209D01*
X95583Y273281D01*
X95577Y273342D01*
X95572Y273392D01*
X95566Y273431D01*
Y273453D01*
Y273464D01*
X95572Y273564D01*
X95583Y273653D01*
X95600Y273731D01*
X95616Y273797D01*
X95633Y273853D01*
X95649Y273892D01*
X95661Y273914D01*
X95666Y273925D01*
X95705Y273992D01*
X95749Y274053D01*
X95794Y274103D01*
X95838Y274147D01*
X95877Y274186D01*
X95910Y274208D01*
X95933Y274225D01*
X95938Y274230D01*
X96005Y274275D01*
X96071Y274308D01*
X96132Y274341D01*
X96193Y274363D01*
X96249Y274386D01*
X96288Y274397D01*
X96315Y274408D01*
X96327D01*
X96493Y274441D01*
X96571Y274452D01*
X96643Y274458D01*
X96704Y274463D01*
X97709D01*
Y271200D01*
D02*
G37*
G36*
X91154Y274508D02*
X91254Y274497D01*
X91348Y274475D01*
X91426Y274452D01*
X91487Y274430D01*
X91537Y274408D01*
X91565Y274397D01*
X91576Y274391D01*
X91659Y274341D01*
X91731Y274286D01*
X91798Y274230D01*
X91848Y274175D01*
X91892Y274125D01*
X91926Y274086D01*
X91948Y274058D01*
X91953Y274047D01*
X92003Y273958D01*
X92053Y273869D01*
X92092Y273781D01*
X92125Y273697D01*
X92147Y273625D01*
X92164Y273564D01*
X92170Y273542D01*
X92175Y273531D01*
X92181Y273520D01*
Y273514D01*
X92203Y273398D01*
X92220Y273276D01*
X92236Y273165D01*
X92242Y273059D01*
X92247Y272965D01*
X92253Y272926D01*
Y272893D01*
Y272871D01*
Y272848D01*
Y272837D01*
Y272832D01*
X92247Y272676D01*
X92242Y272527D01*
X92231Y272399D01*
X92214Y272288D01*
X92208Y272243D01*
X92197Y272199D01*
X92192Y272166D01*
X92186Y272132D01*
X92181Y272110D01*
Y272094D01*
X92175Y272082D01*
Y272077D01*
X92142Y271966D01*
X92103Y271860D01*
X92064Y271772D01*
X92025Y271700D01*
X91992Y271638D01*
X91964Y271594D01*
X91948Y271566D01*
X91942Y271555D01*
X91881Y271483D01*
X91820Y271422D01*
X91759Y271367D01*
X91698Y271328D01*
X91648Y271294D01*
X91609Y271267D01*
X91587Y271255D01*
X91576Y271250D01*
X91493Y271217D01*
X91409Y271195D01*
X91326Y271178D01*
X91254Y271167D01*
X91187Y271161D01*
X91137Y271156D01*
X91093D01*
X90982Y271161D01*
X90882Y271172D01*
X90793Y271195D01*
X90716Y271217D01*
X90654Y271233D01*
X90605Y271255D01*
X90577Y271267D01*
X90566Y271272D01*
X90482Y271322D01*
X90410Y271378D01*
X90344Y271433D01*
X90294Y271489D01*
X90249Y271538D01*
X90216Y271577D01*
X90194Y271605D01*
X90188Y271616D01*
X90133Y271705D01*
X90088Y271794D01*
X90050Y271883D01*
X90016Y271966D01*
X89994Y272038D01*
X89972Y272094D01*
X89966Y272116D01*
Y272132D01*
X89961Y272138D01*
Y272144D01*
X89933Y272260D01*
X89916Y272382D01*
X89900Y272499D01*
X89894Y272604D01*
X89889Y272698D01*
X89883Y272737D01*
Y272771D01*
Y272793D01*
Y272815D01*
Y272826D01*
Y272832D01*
X89889Y272987D01*
X89894Y273131D01*
X89911Y273259D01*
X89922Y273370D01*
X89933Y273414D01*
X89939Y273459D01*
X89944Y273492D01*
X89955Y273526D01*
X89961Y273548D01*
Y273564D01*
X89966Y273575D01*
Y273581D01*
X90000Y273697D01*
X90039Y273797D01*
X90077Y273892D01*
X90116Y273964D01*
X90149Y274025D01*
X90177Y274069D01*
X90199Y274097D01*
X90205Y274108D01*
X90266Y274180D01*
X90327Y274241D01*
X90388Y274297D01*
X90444Y274336D01*
X90494Y274369D01*
X90532Y274397D01*
X90560Y274408D01*
X90571Y274413D01*
X90654Y274447D01*
X90732Y274469D01*
X90816Y274491D01*
X90888Y274502D01*
X90949Y274508D01*
X90999Y274513D01*
X91043D01*
X91154Y274508D01*
D02*
G37*
G36*
X104001Y254508D02*
X104090Y254502D01*
X104168Y254486D01*
X104234Y254469D01*
X104295Y254452D01*
X104334Y254441D01*
X104362Y254430D01*
X104373Y254425D01*
X104445Y254391D01*
X104517Y254352D01*
X104573Y254313D01*
X104628Y254275D01*
X104667Y254241D01*
X104701Y254214D01*
X104723Y254197D01*
X104728Y254191D01*
X104784Y254136D01*
X104828Y254075D01*
X104867Y254019D01*
X104900Y253964D01*
X104928Y253920D01*
X104945Y253881D01*
X104956Y253858D01*
X104961Y253847D01*
X104989Y253775D01*
X105006Y253697D01*
X105022Y253631D01*
X105028Y253564D01*
X105034Y253509D01*
X105039Y253464D01*
Y253437D01*
Y253426D01*
X105034Y253348D01*
X105028Y253276D01*
X105017Y253209D01*
X105006Y253154D01*
X104995Y253104D01*
X104989Y253070D01*
X104978Y253043D01*
Y253037D01*
X104950Y252970D01*
X104922Y252915D01*
X104895Y252859D01*
X104861Y252815D01*
X104839Y252776D01*
X104817Y252748D01*
X104800Y252732D01*
X104795Y252726D01*
X104745Y252682D01*
X104695Y252643D01*
X104639Y252610D01*
X104589Y252576D01*
X104551Y252554D01*
X104512Y252538D01*
X104490Y252532D01*
X104484Y252526D01*
X104412Y252504D01*
X104334Y252488D01*
X104262Y252471D01*
X104195Y252465D01*
X104134Y252460D01*
X104090Y252454D01*
X103957D01*
X103874Y252465D01*
X103801Y252471D01*
X103735Y252482D01*
X103679Y252493D01*
X103635Y252499D01*
X103613Y252510D01*
X103602D01*
X103529Y252532D01*
X103457Y252554D01*
X103396Y252582D01*
X103341Y252604D01*
X103296Y252626D01*
X103263Y252643D01*
X103241Y252654D01*
X103235Y252660D01*
X103246Y252554D01*
X103258Y252471D01*
X103274Y252393D01*
X103291Y252321D01*
X103307Y252260D01*
X103324Y252210D01*
X103341Y252171D01*
X103346Y252149D01*
X103352Y252138D01*
X103385Y252071D01*
X103424Y252016D01*
X103463Y251966D01*
X103502Y251922D01*
X103535Y251883D01*
X103563Y251855D01*
X103585Y251838D01*
X103591Y251833D01*
X103651Y251788D01*
X103718Y251749D01*
X103785Y251716D01*
X103846Y251688D01*
X103901Y251666D01*
X103946Y251649D01*
X103973Y251644D01*
X103979Y251639D01*
X103984D01*
X104073Y251616D01*
X104168Y251605D01*
X104262Y251594D01*
X104351Y251583D01*
X104423D01*
X104484Y251577D01*
X104839D01*
Y251200D01*
X104567D01*
X104412Y251205D01*
X104262Y251217D01*
X104134Y251233D01*
X104023Y251250D01*
X103973Y251261D01*
X103929Y251267D01*
X103890Y251278D01*
X103862Y251283D01*
X103835Y251289D01*
X103818Y251294D01*
X103807Y251300D01*
X103801D01*
X103679Y251344D01*
X103574Y251394D01*
X103480Y251450D01*
X103396Y251505D01*
X103335Y251550D01*
X103285Y251589D01*
X103258Y251616D01*
X103246Y251627D01*
X103169Y251716D01*
X103096Y251811D01*
X103035Y251905D01*
X102991Y251994D01*
X102952Y252071D01*
X102925Y252138D01*
X102913Y252160D01*
X102908Y252177D01*
X102902Y252188D01*
Y252193D01*
X102863Y252327D01*
X102836Y252465D01*
X102813Y252604D01*
X102802Y252732D01*
X102797Y252793D01*
X102791Y252848D01*
Y252893D01*
X102786Y252937D01*
Y252970D01*
Y252993D01*
Y253009D01*
Y253015D01*
X102791Y253165D01*
X102797Y253298D01*
X102813Y253414D01*
X102830Y253514D01*
X102847Y253598D01*
X102852Y253631D01*
X102858Y253659D01*
X102863Y253681D01*
X102869Y253697D01*
X102875Y253703D01*
Y253709D01*
X102908Y253808D01*
X102947Y253903D01*
X102986Y253980D01*
X103024Y254047D01*
X103058Y254097D01*
X103085Y254136D01*
X103102Y254164D01*
X103108Y254169D01*
X103169Y254236D01*
X103230Y254286D01*
X103285Y254330D01*
X103346Y254369D01*
X103396Y254397D01*
X103435Y254414D01*
X103457Y254425D01*
X103468Y254430D01*
X103546Y254458D01*
X103624Y254480D01*
X103701Y254491D01*
X103768Y254502D01*
X103824Y254508D01*
X103874Y254513D01*
X103912D01*
X104001Y254508D01*
D02*
G37*
G36*
X110700Y254086D02*
X109734D01*
Y251200D01*
X109285D01*
Y254086D01*
X108319D01*
Y254463D01*
X110700D01*
Y254086D01*
D02*
G37*
G36*
X107709Y251200D02*
X107265D01*
Y252371D01*
X106865D01*
X106743Y252377D01*
X106626Y252388D01*
X106526Y252399D01*
X106443Y252421D01*
X106371Y252438D01*
X106321Y252449D01*
X106288Y252460D01*
X106277Y252465D01*
X106188Y252504D01*
X106110Y252543D01*
X106044Y252588D01*
X105982Y252626D01*
X105938Y252660D01*
X105905Y252687D01*
X105883Y252710D01*
X105877Y252715D01*
X105822Y252776D01*
X105772Y252837D01*
X105733Y252893D01*
X105700Y252948D01*
X105677Y252993D01*
X105655Y253031D01*
X105649Y253054D01*
X105644Y253065D01*
X105616Y253137D01*
X105600Y253209D01*
X105583Y253281D01*
X105577Y253342D01*
X105572Y253392D01*
X105566Y253431D01*
Y253453D01*
Y253464D01*
X105572Y253564D01*
X105583Y253653D01*
X105600Y253731D01*
X105616Y253797D01*
X105633Y253853D01*
X105649Y253892D01*
X105661Y253914D01*
X105666Y253925D01*
X105705Y253992D01*
X105749Y254053D01*
X105794Y254103D01*
X105838Y254147D01*
X105877Y254186D01*
X105910Y254208D01*
X105933Y254225D01*
X105938Y254230D01*
X106005Y254275D01*
X106071Y254308D01*
X106132Y254341D01*
X106193Y254363D01*
X106249Y254386D01*
X106288Y254397D01*
X106316Y254408D01*
X106327D01*
X106493Y254441D01*
X106571Y254452D01*
X106643Y254458D01*
X106704Y254463D01*
X107709D01*
Y251200D01*
D02*
G37*
G36*
X50700Y214086D02*
X49734D01*
Y211200D01*
X49285D01*
Y214086D01*
X48319D01*
Y214463D01*
X50700D01*
Y214086D01*
D02*
G37*
G36*
X47709Y211200D02*
X47265D01*
Y212371D01*
X46865D01*
X46743Y212377D01*
X46626Y212388D01*
X46526Y212399D01*
X46443Y212421D01*
X46371Y212438D01*
X46321Y212449D01*
X46288Y212460D01*
X46277Y212465D01*
X46188Y212504D01*
X46110Y212543D01*
X46044Y212587D01*
X45983Y212626D01*
X45938Y212660D01*
X45905Y212687D01*
X45883Y212710D01*
X45877Y212715D01*
X45822Y212776D01*
X45772Y212837D01*
X45733Y212893D01*
X45700Y212948D01*
X45677Y212993D01*
X45655Y213032D01*
X45649Y213054D01*
X45644Y213065D01*
X45616Y213137D01*
X45600Y213209D01*
X45583Y213281D01*
X45577Y213342D01*
X45572Y213392D01*
X45566Y213431D01*
Y213453D01*
Y213464D01*
X45572Y213564D01*
X45583Y213653D01*
X45600Y213731D01*
X45616Y213797D01*
X45633Y213853D01*
X45649Y213892D01*
X45661Y213914D01*
X45666Y213925D01*
X45705Y213992D01*
X45749Y214053D01*
X45794Y214103D01*
X45838Y214147D01*
X45877Y214186D01*
X45910Y214208D01*
X45933Y214225D01*
X45938Y214230D01*
X46005Y214275D01*
X46071Y214308D01*
X46132Y214341D01*
X46193Y214364D01*
X46249Y214386D01*
X46288Y214397D01*
X46316Y214408D01*
X46327D01*
X46493Y214441D01*
X46571Y214452D01*
X46643Y214458D01*
X46704Y214463D01*
X47709D01*
Y211200D01*
D02*
G37*
G36*
X43962Y214508D02*
X44051Y214502D01*
X44134Y214491D01*
X44201Y214480D01*
X44256Y214463D01*
X44301Y214452D01*
X44323Y214447D01*
X44334Y214441D01*
X44406Y214413D01*
X44467Y214386D01*
X44523Y214352D01*
X44573Y214325D01*
X44612Y214297D01*
X44639Y214280D01*
X44656Y214264D01*
X44662Y214258D01*
X44706Y214214D01*
X44745Y214169D01*
X44778Y214125D01*
X44806Y214081D01*
X44828Y214047D01*
X44845Y214019D01*
X44850Y213997D01*
X44856Y213992D01*
X44878Y213936D01*
X44889Y213886D01*
X44900Y213836D01*
X44911Y213786D01*
Y213747D01*
X44917Y213720D01*
Y213698D01*
Y213692D01*
X44911Y213598D01*
X44895Y213514D01*
X44872Y213437D01*
X44845Y213370D01*
X44817Y213315D01*
X44795Y213270D01*
X44778Y213248D01*
X44773Y213237D01*
X44712Y213165D01*
X44634Y213098D01*
X44562Y213037D01*
X44484Y212982D01*
X44412Y212937D01*
X44356Y212904D01*
X44334Y212893D01*
X44317Y212882D01*
X44312Y212876D01*
X44306D01*
X44429Y212809D01*
X44534Y212737D01*
X44623Y212671D01*
X44695Y212610D01*
X44750Y212554D01*
X44789Y212515D01*
X44817Y212488D01*
X44823Y212476D01*
X44878Y212393D01*
X44917Y212304D01*
X44950Y212216D01*
X44967Y212138D01*
X44978Y212066D01*
X44984Y212010D01*
X44989Y211988D01*
Y211971D01*
Y211966D01*
Y211960D01*
X44984Y211894D01*
X44978Y211833D01*
X44967Y211777D01*
X44956Y211733D01*
X44945Y211688D01*
X44934Y211661D01*
X44923Y211638D01*
Y211633D01*
X44895Y211583D01*
X44861Y211533D01*
X44828Y211489D01*
X44795Y211450D01*
X44761Y211422D01*
X44739Y211400D01*
X44723Y211383D01*
X44717Y211378D01*
X44662Y211339D01*
X44606Y211305D01*
X44545Y211278D01*
X44495Y211256D01*
X44445Y211239D01*
X44406Y211222D01*
X44384Y211217D01*
X44373Y211211D01*
X44295Y211194D01*
X44212Y211178D01*
X44134Y211167D01*
X44062Y211161D01*
X43996D01*
X43946Y211156D01*
X43813D01*
X43729Y211167D01*
X43657Y211172D01*
X43591Y211183D01*
X43535Y211194D01*
X43491Y211200D01*
X43468Y211211D01*
X43457D01*
X43380Y211233D01*
X43313Y211261D01*
X43252Y211289D01*
X43196Y211317D01*
X43158Y211339D01*
X43124Y211361D01*
X43102Y211372D01*
X43097Y211378D01*
X43041Y211422D01*
X42991Y211466D01*
X42952Y211511D01*
X42919Y211555D01*
X42891Y211594D01*
X42875Y211622D01*
X42863Y211644D01*
X42858Y211649D01*
X42830Y211711D01*
X42808Y211777D01*
X42791Y211838D01*
X42780Y211894D01*
X42775Y211944D01*
X42769Y211988D01*
Y212010D01*
Y212021D01*
X42780Y212138D01*
X42786Y212188D01*
X42797Y212227D01*
X42808Y212266D01*
X42814Y212293D01*
X42825Y212310D01*
Y212316D01*
X42869Y212410D01*
X42891Y212449D01*
X42913Y212488D01*
X42936Y212515D01*
X42952Y212538D01*
X42963Y212549D01*
X42969Y212554D01*
X43041Y212632D01*
X43108Y212693D01*
X43141Y212715D01*
X43163Y212732D01*
X43180Y212743D01*
X43185Y212749D01*
X43280Y212809D01*
X43324Y212837D01*
X43363Y212865D01*
X43402Y212882D01*
X43429Y212898D01*
X43446Y212904D01*
X43452Y212909D01*
X43352Y212965D01*
X43257Y213026D01*
X43180Y213087D01*
X43119Y213142D01*
X43069Y213187D01*
X43030Y213226D01*
X43008Y213248D01*
X43002Y213259D01*
X42947Y213337D01*
X42908Y213420D01*
X42880Y213498D01*
X42863Y213575D01*
X42847Y213642D01*
X42841Y213698D01*
Y213714D01*
Y213731D01*
Y213736D01*
Y213742D01*
Y213808D01*
X42852Y213864D01*
X42863Y213919D01*
X42875Y213969D01*
X42886Y214003D01*
X42897Y214036D01*
X42902Y214053D01*
X42908Y214058D01*
X42936Y214108D01*
X42969Y214158D01*
X43002Y214197D01*
X43030Y214236D01*
X43063Y214264D01*
X43085Y214286D01*
X43102Y214297D01*
X43108Y214302D01*
X43158Y214336D01*
X43213Y214369D01*
X43263Y214397D01*
X43313Y214419D01*
X43357Y214436D01*
X43391Y214447D01*
X43413Y214458D01*
X43424D01*
X43496Y214475D01*
X43574Y214491D01*
X43646Y214502D01*
X43718Y214508D01*
X43779Y214513D01*
X43868D01*
X43962Y214508D01*
D02*
G37*
G36*
X420700Y154086D02*
X419734D01*
Y151200D01*
X419285D01*
Y154086D01*
X418319D01*
Y154463D01*
X420700D01*
Y154086D01*
D02*
G37*
G36*
X417709Y151200D02*
X417265D01*
Y152371D01*
X416865D01*
X416743Y152377D01*
X416626Y152388D01*
X416526Y152399D01*
X416443Y152421D01*
X416371Y152438D01*
X416321Y152449D01*
X416288Y152460D01*
X416277Y152465D01*
X416188Y152504D01*
X416110Y152543D01*
X416044Y152587D01*
X415982Y152626D01*
X415938Y152660D01*
X415905Y152687D01*
X415883Y152710D01*
X415877Y152715D01*
X415822Y152776D01*
X415772Y152837D01*
X415733Y152893D01*
X415699Y152948D01*
X415677Y152993D01*
X415655Y153032D01*
X415650Y153054D01*
X415644Y153065D01*
X415616Y153137D01*
X415600Y153209D01*
X415583Y153281D01*
X415577Y153342D01*
X415572Y153392D01*
X415566Y153431D01*
Y153453D01*
Y153464D01*
X415572Y153564D01*
X415583Y153653D01*
X415600Y153731D01*
X415616Y153797D01*
X415633Y153853D01*
X415650Y153892D01*
X415661Y153914D01*
X415666Y153925D01*
X415705Y153992D01*
X415749Y154053D01*
X415794Y154103D01*
X415838Y154147D01*
X415877Y154186D01*
X415910Y154208D01*
X415933Y154225D01*
X415938Y154230D01*
X416005Y154275D01*
X416071Y154308D01*
X416132Y154341D01*
X416193Y154364D01*
X416249Y154386D01*
X416288Y154397D01*
X416316Y154408D01*
X416327D01*
X416493Y154441D01*
X416571Y154452D01*
X416643Y154458D01*
X416704Y154463D01*
X417709D01*
Y151200D01*
D02*
G37*
G36*
X414995Y154058D02*
X413235D01*
X414656Y151200D01*
X414157D01*
X412786Y154058D01*
Y154463D01*
X414995D01*
Y154058D01*
D02*
G37*
G36*
X453435Y144458D02*
X453546Y144452D01*
X453646Y144441D01*
X453729Y144430D01*
X453801Y144413D01*
X453857Y144402D01*
X453890Y144397D01*
X453896Y144391D01*
X453901D01*
X453990Y144363D01*
X454073Y144336D01*
X454151Y144302D01*
X454212Y144269D01*
X454268Y144241D01*
X454306Y144219D01*
X454329Y144202D01*
X454340Y144197D01*
X454406Y144147D01*
X454467Y144097D01*
X454517Y144053D01*
X454562Y144003D01*
X454601Y143964D01*
X454628Y143931D01*
X454645Y143908D01*
X454650Y143903D01*
X454734Y143770D01*
X454767Y143709D01*
X454795Y143648D01*
X454817Y143598D01*
X454834Y143553D01*
X454845Y143531D01*
X454850Y143520D01*
X454895Y143365D01*
X454917Y143292D01*
X454928Y143226D01*
X454939Y143165D01*
X454950Y143120D01*
X454956Y143093D01*
Y143081D01*
X454972Y142909D01*
X454978Y142826D01*
Y142754D01*
X454984Y142687D01*
Y142643D01*
Y142610D01*
Y142604D01*
Y142599D01*
X454978Y142465D01*
X454972Y142343D01*
X454961Y142232D01*
X454945Y142138D01*
X454934Y142060D01*
X454922Y142005D01*
X454917Y141982D01*
Y141966D01*
X454911Y141960D01*
Y141955D01*
X454884Y141855D01*
X454850Y141772D01*
X454811Y141694D01*
X454778Y141627D01*
X454750Y141577D01*
X454723Y141539D01*
X454706Y141516D01*
X454701Y141505D01*
X454645Y141444D01*
X454590Y141389D01*
X454528Y141344D01*
X454479Y141305D01*
X454428Y141278D01*
X454390Y141255D01*
X454367Y141244D01*
X454356Y141239D01*
X454273Y141211D01*
X454190Y141189D01*
X454112Y141178D01*
X454035Y141167D01*
X453968Y141161D01*
X453918Y141156D01*
X453873D01*
X453779Y141161D01*
X453690Y141167D01*
X453613Y141183D01*
X453546Y141200D01*
X453485Y141211D01*
X453446Y141228D01*
X453418Y141233D01*
X453407Y141239D01*
X453330Y141272D01*
X453263Y141311D01*
X453202Y141350D01*
X453147Y141383D01*
X453108Y141417D01*
X453074Y141444D01*
X453052Y141461D01*
X453047Y141466D01*
X452991Y141522D01*
X452947Y141583D01*
X452908Y141638D01*
X452875Y141688D01*
X452847Y141738D01*
X452830Y141772D01*
X452819Y141794D01*
X452813Y141805D01*
X452786Y141883D01*
X452764Y141955D01*
X452752Y142027D01*
X452741Y142094D01*
X452736Y142149D01*
X452730Y142193D01*
Y142221D01*
Y142232D01*
Y142310D01*
X452741Y142382D01*
X452752Y142449D01*
X452764Y142504D01*
X452775Y142554D01*
X452786Y142587D01*
X452791Y142615D01*
X452797Y142621D01*
X452825Y142687D01*
X452852Y142748D01*
X452886Y142798D01*
X452913Y142843D01*
X452941Y142882D01*
X452963Y142909D01*
X452980Y142926D01*
X452985Y142932D01*
X453035Y142976D01*
X453085Y143015D01*
X453135Y143054D01*
X453185Y143081D01*
X453230Y143104D01*
X453263Y143120D01*
X453285Y143126D01*
X453296Y143131D01*
X453369Y143159D01*
X453441Y143176D01*
X453513Y143193D01*
X453579Y143198D01*
X453635Y143203D01*
X453685Y143209D01*
X453813D01*
X453896Y143198D01*
X453973Y143193D01*
X454040Y143181D01*
X454096Y143170D01*
X454134Y143159D01*
X454162Y143154D01*
X454173Y143148D01*
X454245Y143126D01*
X454318Y143104D01*
X454379Y143076D01*
X454428Y143054D01*
X454473Y143037D01*
X454506Y143020D01*
X454528Y143009D01*
X454534Y143004D01*
X454528Y143104D01*
X454517Y143187D01*
X454501Y143259D01*
X454490Y143326D01*
X454467Y143387D01*
X454456Y143437D01*
X454440Y143470D01*
X454434Y143498D01*
X454428Y143503D01*
X454395Y143570D01*
X454362Y143631D01*
X454323Y143681D01*
X454290Y143725D01*
X454256Y143764D01*
X454229Y143792D01*
X454212Y143808D01*
X454207Y143814D01*
X454151Y143858D01*
X454090Y143897D01*
X454029Y143936D01*
X453973Y143964D01*
X453924Y143986D01*
X453879Y144003D01*
X453857Y144008D01*
X453846Y144014D01*
X453762Y144036D01*
X453674Y144058D01*
X453590Y144069D01*
X453513Y144075D01*
X453441Y144080D01*
X453391Y144086D01*
X452985D01*
Y144463D01*
X453313D01*
X453435Y144458D01*
D02*
G37*
G36*
X460700Y144086D02*
X459734D01*
Y141200D01*
X459285D01*
Y144086D01*
X458319D01*
Y144463D01*
X460700D01*
Y144086D01*
D02*
G37*
G36*
X457709Y141200D02*
X457265D01*
Y142371D01*
X456865D01*
X456743Y142377D01*
X456626Y142388D01*
X456526Y142399D01*
X456443Y142421D01*
X456371Y142438D01*
X456321Y142449D01*
X456288Y142460D01*
X456277Y142465D01*
X456188Y142504D01*
X456110Y142543D01*
X456044Y142587D01*
X455982Y142626D01*
X455938Y142660D01*
X455905Y142687D01*
X455883Y142710D01*
X455877Y142715D01*
X455822Y142776D01*
X455772Y142837D01*
X455733Y142893D01*
X455699Y142948D01*
X455677Y142993D01*
X455655Y143032D01*
X455650Y143054D01*
X455644Y143065D01*
X455616Y143137D01*
X455600Y143209D01*
X455583Y143281D01*
X455577Y143342D01*
X455572Y143392D01*
X455566Y143431D01*
Y143453D01*
Y143464D01*
X455572Y143564D01*
X455583Y143653D01*
X455600Y143731D01*
X455616Y143797D01*
X455633Y143853D01*
X455650Y143892D01*
X455661Y143914D01*
X455666Y143925D01*
X455705Y143992D01*
X455749Y144053D01*
X455794Y144103D01*
X455838Y144147D01*
X455877Y144186D01*
X455910Y144208D01*
X455933Y144225D01*
X455938Y144230D01*
X456005Y144275D01*
X456071Y144308D01*
X456132Y144341D01*
X456193Y144363D01*
X456249Y144386D01*
X456288Y144397D01*
X456316Y144408D01*
X456327D01*
X456493Y144441D01*
X456571Y144452D01*
X456643Y144458D01*
X456704Y144463D01*
X457709D01*
Y141200D01*
D02*
G37*
G36*
X437652Y193586D02*
X436687D01*
Y190700D01*
X436237D01*
Y193586D01*
X435271D01*
Y193963D01*
X437652D01*
Y193586D01*
D02*
G37*
G36*
X434661Y190700D02*
X434217D01*
Y191871D01*
X433817D01*
X433695Y191877D01*
X433579Y191888D01*
X433479Y191899D01*
X433395Y191921D01*
X433323Y191938D01*
X433273Y191949D01*
X433240Y191960D01*
X433229Y191965D01*
X433140Y192004D01*
X433062Y192043D01*
X432996Y192087D01*
X432935Y192126D01*
X432890Y192160D01*
X432857Y192187D01*
X432835Y192210D01*
X432829Y192215D01*
X432774Y192276D01*
X432724Y192337D01*
X432685Y192393D01*
X432652Y192448D01*
X432630Y192493D01*
X432607Y192532D01*
X432602Y192554D01*
X432596Y192565D01*
X432569Y192637D01*
X432552Y192709D01*
X432535Y192781D01*
X432530Y192842D01*
X432524Y192892D01*
X432518Y192931D01*
Y192953D01*
Y192964D01*
X432524Y193064D01*
X432535Y193153D01*
X432552Y193231D01*
X432569Y193297D01*
X432585Y193353D01*
X432602Y193392D01*
X432613Y193414D01*
X432619Y193425D01*
X432657Y193492D01*
X432702Y193553D01*
X432746Y193603D01*
X432791Y193647D01*
X432829Y193686D01*
X432863Y193708D01*
X432885Y193725D01*
X432890Y193730D01*
X432957Y193775D01*
X433024Y193808D01*
X433085Y193841D01*
X433146Y193863D01*
X433201Y193886D01*
X433240Y193897D01*
X433268Y193908D01*
X433279D01*
X433445Y193941D01*
X433523Y193952D01*
X433595Y193958D01*
X433656Y193963D01*
X434661D01*
Y190700D01*
D02*
G37*
G36*
X431742Y192298D02*
X431125D01*
X430981Y192293D01*
X430854Y192276D01*
X430743Y192254D01*
X430654Y192226D01*
X430582Y192199D01*
X430532Y192176D01*
X430504Y192160D01*
X430493Y192154D01*
X430421Y192093D01*
X430365Y192026D01*
X430326Y191954D01*
X430299Y191882D01*
X430282Y191816D01*
X430276Y191766D01*
X430271Y191743D01*
Y191727D01*
Y191721D01*
Y191716D01*
Y191655D01*
X430282Y191605D01*
X430287Y191555D01*
X430299Y191510D01*
X430310Y191477D01*
X430321Y191449D01*
X430326Y191433D01*
X430332Y191427D01*
X430387Y191344D01*
X430415Y191305D01*
X430443Y191277D01*
X430471Y191250D01*
X430493Y191233D01*
X430504Y191222D01*
X430510Y191216D01*
X430598Y191155D01*
X430687Y191116D01*
X430726Y191100D01*
X430754Y191088D01*
X430776Y191077D01*
X430781D01*
X430903Y191050D01*
X430965Y191044D01*
X431014Y191039D01*
X431065Y191033D01*
X431264D01*
X431325Y191039D01*
X431425D01*
X431459Y191044D01*
X431492D01*
X431553Y191050D01*
X431614Y191061D01*
X431664Y191066D01*
X431708Y191077D01*
X431747Y191083D01*
X431775Y191088D01*
X431791Y191094D01*
X431797D01*
Y190700D01*
X431747Y190694D01*
X431703D01*
X431669Y190689D01*
X431658D01*
X431603Y190683D01*
X431547Y190678D01*
X431525Y190672D01*
X431497D01*
X431436Y190667D01*
X431381D01*
X431364Y190661D01*
X431331D01*
X431270Y190656D01*
X431176D01*
X431070Y190661D01*
X430970Y190667D01*
X430876Y190678D01*
X430798Y190694D01*
X430731Y190711D01*
X430682Y190722D01*
X430648Y190728D01*
X430637Y190733D01*
X430548Y190767D01*
X430465Y190800D01*
X430393Y190839D01*
X430326Y190872D01*
X430276Y190905D01*
X430237Y190933D01*
X430210Y190950D01*
X430204Y190955D01*
X430138Y191011D01*
X430077Y191072D01*
X430027Y191127D01*
X429988Y191183D01*
X429954Y191227D01*
X429927Y191266D01*
X429916Y191288D01*
X429910Y191299D01*
X429877Y191377D01*
X429849Y191455D01*
X429832Y191527D01*
X429816Y191599D01*
X429810Y191655D01*
X429805Y191704D01*
Y191732D01*
Y191743D01*
X429810Y191843D01*
X429821Y191927D01*
X429838Y192004D01*
X429860Y192071D01*
X429882Y192121D01*
X429899Y192160D01*
X429910Y192187D01*
X429916Y192193D01*
X429960Y192254D01*
X430004Y192315D01*
X430049Y192359D01*
X430093Y192404D01*
X430132Y192432D01*
X430165Y192459D01*
X430188Y192471D01*
X430193Y192476D01*
X430260Y192515D01*
X430326Y192543D01*
X430393Y192570D01*
X430459Y192593D01*
X430510Y192604D01*
X430554Y192615D01*
X430582Y192626D01*
X430593D01*
X430759Y192654D01*
X430831Y192659D01*
X430903Y192665D01*
X430965Y192670D01*
X431331D01*
Y193586D01*
X429982D01*
Y193963D01*
X431742D01*
Y192298D01*
D02*
G37*
G36*
X417652Y43586D02*
X416687D01*
Y40700D01*
X416237D01*
Y43586D01*
X415271D01*
Y43963D01*
X417652D01*
Y43586D01*
D02*
G37*
G36*
X414661Y40700D02*
X414217D01*
Y41871D01*
X413817D01*
X413695Y41877D01*
X413579Y41888D01*
X413479Y41899D01*
X413395Y41921D01*
X413323Y41938D01*
X413273Y41949D01*
X413240Y41960D01*
X413229Y41965D01*
X413140Y42004D01*
X413062Y42043D01*
X412996Y42088D01*
X412935Y42126D01*
X412890Y42160D01*
X412857Y42187D01*
X412835Y42210D01*
X412829Y42215D01*
X412774Y42276D01*
X412724Y42337D01*
X412685Y42393D01*
X412652Y42448D01*
X412630Y42493D01*
X412607Y42531D01*
X412602Y42554D01*
X412596Y42565D01*
X412569Y42637D01*
X412552Y42709D01*
X412535Y42781D01*
X412530Y42842D01*
X412524Y42892D01*
X412519Y42931D01*
Y42953D01*
Y42964D01*
X412524Y43064D01*
X412535Y43153D01*
X412552Y43231D01*
X412569Y43297D01*
X412585Y43353D01*
X412602Y43392D01*
X412613Y43414D01*
X412618Y43425D01*
X412657Y43492D01*
X412702Y43553D01*
X412746Y43603D01*
X412790Y43647D01*
X412829Y43686D01*
X412863Y43708D01*
X412885Y43725D01*
X412890Y43730D01*
X412957Y43775D01*
X413024Y43808D01*
X413085Y43841D01*
X413146Y43863D01*
X413201Y43886D01*
X413240Y43897D01*
X413268Y43908D01*
X413279D01*
X413445Y43941D01*
X413523Y43952D01*
X413595Y43958D01*
X413656Y43963D01*
X414661D01*
Y40700D01*
D02*
G37*
G36*
X412136Y41805D02*
Y41421D01*
X410565D01*
Y40700D01*
X410121D01*
Y41421D01*
X409560D01*
Y41805D01*
X410121D01*
Y43963D01*
X410748D01*
X412136Y41805D01*
D02*
G37*
G36*
X424168Y154508D02*
X424190D01*
X424212Y154502D01*
X424229D01*
X424295Y154491D01*
X424356Y154486D01*
X424384Y154480D01*
X424401D01*
X424412Y154474D01*
X424417D01*
X424490Y154463D01*
X424551Y154447D01*
X424573Y154441D01*
X424595D01*
X424606Y154436D01*
X424612D01*
X424678Y154419D01*
X424734Y154402D01*
X424756Y154397D01*
X424773Y154391D01*
X424784Y154386D01*
X424789D01*
Y154008D01*
X424717Y154031D01*
X424645Y154047D01*
X424584Y154064D01*
X424528Y154080D01*
X424484Y154092D01*
X424445Y154097D01*
X424423Y154103D01*
X424417D01*
X424290Y154125D01*
X424229Y154130D01*
X424179D01*
X424134Y154136D01*
X424073D01*
X423962Y154130D01*
X423868Y154119D01*
X423785Y154097D01*
X423718Y154075D01*
X423668Y154053D01*
X423629Y154031D01*
X423607Y154019D01*
X423602Y154014D01*
X423546Y153964D01*
X423507Y153903D01*
X423480Y153842D01*
X423463Y153775D01*
X423446Y153720D01*
X423441Y153675D01*
Y153642D01*
Y153636D01*
Y153631D01*
X423446Y153537D01*
X423457Y153492D01*
X423463Y153459D01*
X423474Y153426D01*
X423485Y153403D01*
X423491Y153392D01*
Y153387D01*
X423529Y153315D01*
X423574Y153259D01*
X423591Y153237D01*
X423607Y153220D01*
X423618Y153215D01*
X423624Y153209D01*
X423690Y153159D01*
X423757Y153126D01*
X423785Y153115D01*
X423807Y153104D01*
X423824Y153098D01*
X423829D01*
X423923Y153076D01*
X423968Y153070D01*
X424012Y153065D01*
X424046Y153059D01*
X424478D01*
Y152704D01*
X424107D01*
X423979Y152699D01*
X423923Y152693D01*
X423874Y152687D01*
X423835Y152676D01*
X423807Y152671D01*
X423785Y152665D01*
X423779D01*
X423724Y152654D01*
X423674Y152637D01*
X423629Y152621D01*
X423591Y152604D01*
X423557Y152587D01*
X423535Y152576D01*
X423524Y152571D01*
X423518Y152565D01*
X423446Y152510D01*
X423391Y152460D01*
X423374Y152432D01*
X423357Y152416D01*
X423346Y152404D01*
Y152399D01*
X423324Y152360D01*
X423313Y152321D01*
X423291Y152243D01*
Y152216D01*
X423285Y152188D01*
Y152171D01*
Y152166D01*
X423296Y152060D01*
X423302Y152016D01*
X423313Y151977D01*
X423324Y151944D01*
X423330Y151921D01*
X423341Y151905D01*
Y151899D01*
X423363Y151855D01*
X423385Y151822D01*
X423441Y151755D01*
X423463Y151733D01*
X423485Y151716D01*
X423496Y151705D01*
X423502Y151699D01*
X423546Y151672D01*
X423591Y151644D01*
X423685Y151605D01*
X423724Y151588D01*
X423757Y151583D01*
X423779Y151572D01*
X423785D01*
X423851Y151561D01*
X423923Y151550D01*
X423990Y151544D01*
X424057Y151539D01*
X424112Y151533D01*
X424329D01*
X424390Y151539D01*
X424490D01*
X424523Y151544D01*
X424556D01*
X424678Y151561D01*
X424734Y151566D01*
X424784Y151572D01*
X424823Y151577D01*
X424850Y151583D01*
X424872Y151588D01*
X424878D01*
Y151200D01*
X424778Y151189D01*
X424728Y151183D01*
X424684Y151178D01*
X424645D01*
X424617Y151172D01*
X424589D01*
X424467Y151161D01*
X424412D01*
X424356Y151156D01*
X424240D01*
X424112Y151161D01*
X423996Y151167D01*
X423890Y151178D01*
X423801Y151195D01*
X423724Y151211D01*
X423668Y151222D01*
X423652Y151228D01*
X423635D01*
X423629Y151233D01*
X423624D01*
X423529Y151267D01*
X423441Y151305D01*
X423369Y151339D01*
X423302Y151378D01*
X423252Y151405D01*
X423219Y151433D01*
X423191Y151450D01*
X423185Y151455D01*
X423124Y151511D01*
X423069Y151566D01*
X423024Y151622D01*
X422986Y151672D01*
X422958Y151716D01*
X422936Y151750D01*
X422925Y151777D01*
X422919Y151783D01*
X422891Y151855D01*
X422869Y151927D01*
X422852Y151994D01*
X422841Y152055D01*
X422836Y152110D01*
X422830Y152149D01*
Y152177D01*
Y152188D01*
Y152243D01*
X422841Y152299D01*
X422852Y152343D01*
X422863Y152388D01*
X422874Y152421D01*
X422886Y152449D01*
X422891Y152465D01*
X422897Y152471D01*
X422947Y152560D01*
X422974Y152599D01*
X423002Y152632D01*
X423024Y152654D01*
X423041Y152676D01*
X423052Y152687D01*
X423058Y152693D01*
X423130Y152754D01*
X423202Y152804D01*
X423235Y152821D01*
X423257Y152832D01*
X423274Y152843D01*
X423280D01*
X423369Y152882D01*
X423413Y152898D01*
X423452Y152909D01*
X423485Y152915D01*
X423507Y152920D01*
X423524Y152926D01*
X423529D01*
X423441Y152971D01*
X423357Y153020D01*
X423291Y153070D01*
X423235Y153120D01*
X423191Y153159D01*
X423158Y153192D01*
X423135Y153220D01*
X423130Y153226D01*
X423080Y153303D01*
X423047Y153381D01*
X423019Y153459D01*
X423002Y153537D01*
X422991Y153598D01*
X422986Y153653D01*
Y153686D01*
Y153692D01*
Y153698D01*
X422991Y153764D01*
X422997Y153831D01*
X423008Y153886D01*
X423019Y153936D01*
X423035Y153981D01*
X423047Y154008D01*
X423052Y154031D01*
X423058Y154036D01*
X423085Y154092D01*
X423119Y154141D01*
X423152Y154180D01*
X423180Y154219D01*
X423213Y154253D01*
X423235Y154275D01*
X423252Y154286D01*
X423257Y154291D01*
X423307Y154330D01*
X423363Y154364D01*
X423418Y154391D01*
X423474Y154413D01*
X423518Y154430D01*
X423557Y154441D01*
X423579Y154452D01*
X423591D01*
X423668Y154474D01*
X423746Y154486D01*
X423818Y154497D01*
X423890Y154508D01*
X423951D01*
X424001Y154513D01*
X424107D01*
X424168Y154508D01*
D02*
G37*
G36*
X430700Y154086D02*
X429734D01*
Y151200D01*
X429285D01*
Y154086D01*
X428319D01*
Y154463D01*
X430700D01*
Y154086D01*
D02*
G37*
G36*
X427709Y151200D02*
X427265D01*
Y152371D01*
X426865D01*
X426743Y152377D01*
X426626Y152388D01*
X426526Y152399D01*
X426443Y152421D01*
X426371Y152438D01*
X426321Y152449D01*
X426288Y152460D01*
X426277Y152465D01*
X426188Y152504D01*
X426110Y152543D01*
X426044Y152587D01*
X425983Y152626D01*
X425938Y152660D01*
X425905Y152687D01*
X425883Y152710D01*
X425877Y152715D01*
X425822Y152776D01*
X425772Y152837D01*
X425733Y152893D01*
X425700Y152948D01*
X425677Y152993D01*
X425655Y153032D01*
X425649Y153054D01*
X425644Y153065D01*
X425616Y153137D01*
X425600Y153209D01*
X425583Y153281D01*
X425577Y153342D01*
X425572Y153392D01*
X425566Y153431D01*
Y153453D01*
Y153464D01*
X425572Y153564D01*
X425583Y153653D01*
X425600Y153731D01*
X425616Y153797D01*
X425633Y153853D01*
X425649Y153892D01*
X425661Y153914D01*
X425666Y153925D01*
X425705Y153992D01*
X425749Y154053D01*
X425794Y154103D01*
X425838Y154147D01*
X425877Y154186D01*
X425910Y154208D01*
X425933Y154225D01*
X425938Y154230D01*
X426005Y154275D01*
X426071Y154308D01*
X426132Y154341D01*
X426193Y154364D01*
X426249Y154386D01*
X426288Y154397D01*
X426315Y154408D01*
X426327D01*
X426493Y154441D01*
X426571Y154452D01*
X426643Y154458D01*
X426704Y154463D01*
X427709D01*
Y151200D01*
D02*
G37*
G36*
X314046Y164508D02*
X314151Y164497D01*
X314245Y164474D01*
X314329Y164452D01*
X314395Y164430D01*
X314445Y164408D01*
X314478Y164397D01*
X314484Y164391D01*
X314490D01*
X314578Y164347D01*
X314656Y164291D01*
X314728Y164241D01*
X314789Y164191D01*
X314839Y164147D01*
X314878Y164114D01*
X314900Y164092D01*
X314911Y164080D01*
X314673Y163797D01*
X314617Y163847D01*
X314567Y163897D01*
X314512Y163936D01*
X314467Y163970D01*
X314423Y163997D01*
X314390Y164019D01*
X314368Y164031D01*
X314362Y164036D01*
X314295Y164069D01*
X314229Y164092D01*
X314168Y164108D01*
X314107Y164119D01*
X314057Y164125D01*
X314018Y164130D01*
X313929D01*
X313879Y164125D01*
X313840Y164114D01*
X313801Y164108D01*
X313768Y164097D01*
X313746Y164086D01*
X313735Y164080D01*
X313729D01*
X313657Y164036D01*
X313596Y163997D01*
X313579Y163975D01*
X313563Y163964D01*
X313557Y163953D01*
X313552Y163947D01*
X313507Y163881D01*
X313474Y163820D01*
X313463Y163792D01*
X313457Y163770D01*
X313452Y163759D01*
Y163753D01*
X313429Y163675D01*
X313424Y163598D01*
X313418Y163570D01*
Y163548D01*
Y163531D01*
Y163525D01*
X313424Y163437D01*
X313429Y163392D01*
Y163359D01*
X313435Y163331D01*
X313441Y163309D01*
X313446Y163292D01*
Y163287D01*
X313468Y163204D01*
X313502Y163131D01*
X313518Y163098D01*
X313535Y163076D01*
X313541Y163059D01*
X313546Y163054D01*
X313607Y162959D01*
X313640Y162915D01*
X313674Y162871D01*
X313702Y162837D01*
X313724Y162810D01*
X313740Y162787D01*
X313746Y162782D01*
X313796Y162726D01*
X313851Y162665D01*
X313907Y162604D01*
X313962Y162549D01*
X314012Y162499D01*
X314051Y162460D01*
X314073Y162438D01*
X314084Y162426D01*
X314922Y161589D01*
Y161200D01*
X312769D01*
Y161616D01*
X314356D01*
X313768Y162194D01*
X313690Y162266D01*
X313624Y162338D01*
X313563Y162399D01*
X313507Y162454D01*
X313468Y162499D01*
X313435Y162532D01*
X313413Y162554D01*
X313407Y162560D01*
X313352Y162621D01*
X313302Y162682D01*
X313258Y162737D01*
X313219Y162787D01*
X313191Y162832D01*
X313169Y162859D01*
X313158Y162882D01*
X313152Y162887D01*
X313085Y163004D01*
X313058Y163059D01*
X313035Y163109D01*
X313019Y163148D01*
X313008Y163181D01*
X312997Y163204D01*
Y163209D01*
X312969Y163331D01*
X312958Y163392D01*
X312952Y163442D01*
X312947Y163492D01*
Y163525D01*
Y163553D01*
Y163559D01*
X312952Y163642D01*
X312958Y163714D01*
X312969Y163781D01*
X312980Y163842D01*
X312997Y163892D01*
X313008Y163925D01*
X313013Y163953D01*
X313019Y163958D01*
X313047Y164025D01*
X313080Y164080D01*
X313113Y164130D01*
X313146Y164175D01*
X313180Y164208D01*
X313202Y164236D01*
X313219Y164252D01*
X313224Y164258D01*
X313324Y164341D01*
X313374Y164369D01*
X313424Y164397D01*
X313468Y164419D01*
X313502Y164436D01*
X313524Y164441D01*
X313529Y164447D01*
X313596Y164469D01*
X313668Y164486D01*
X313735Y164497D01*
X313796Y164508D01*
X313851D01*
X313890Y164513D01*
X313929D01*
X314046Y164508D01*
D02*
G37*
G36*
X320700Y164086D02*
X319734D01*
Y161200D01*
X319285D01*
Y164086D01*
X318319D01*
Y164463D01*
X320700D01*
Y164086D01*
D02*
G37*
G36*
X317709Y161200D02*
X317265D01*
Y162371D01*
X316865D01*
X316743Y162377D01*
X316626Y162388D01*
X316526Y162399D01*
X316443Y162421D01*
X316371Y162438D01*
X316321Y162449D01*
X316288Y162460D01*
X316277Y162465D01*
X316188Y162504D01*
X316110Y162543D01*
X316044Y162587D01*
X315983Y162626D01*
X315938Y162660D01*
X315905Y162687D01*
X315883Y162710D01*
X315877Y162715D01*
X315822Y162776D01*
X315772Y162837D01*
X315733Y162893D01*
X315700Y162948D01*
X315677Y162993D01*
X315655Y163031D01*
X315650Y163054D01*
X315644Y163065D01*
X315616Y163137D01*
X315600Y163209D01*
X315583Y163281D01*
X315577Y163342D01*
X315572Y163392D01*
X315566Y163431D01*
Y163453D01*
Y163464D01*
X315572Y163564D01*
X315583Y163653D01*
X315600Y163731D01*
X315616Y163797D01*
X315633Y163853D01*
X315650Y163892D01*
X315661Y163914D01*
X315666Y163925D01*
X315705Y163992D01*
X315749Y164053D01*
X315794Y164103D01*
X315838Y164147D01*
X315877Y164186D01*
X315910Y164208D01*
X315933Y164225D01*
X315938Y164230D01*
X316005Y164275D01*
X316071Y164308D01*
X316132Y164341D01*
X316193Y164364D01*
X316249Y164386D01*
X316288Y164397D01*
X316316Y164408D01*
X316327D01*
X316493Y164441D01*
X316571Y164452D01*
X316643Y164458D01*
X316704Y164463D01*
X317709D01*
Y161200D01*
D02*
G37*
G36*
X340108Y292236D02*
X339953Y291864D01*
X339170Y292286D01*
Y289905D01*
X340008D01*
Y289500D01*
X337961D01*
Y289905D01*
X338688D01*
Y292780D01*
X339076D01*
X340108Y292236D01*
D02*
G37*
G36*
X348500Y289500D02*
X347662D01*
X347556Y289506D01*
X347457Y289511D01*
X347368Y289522D01*
X347290Y289533D01*
X347229Y289544D01*
X347179Y289550D01*
X347151Y289561D01*
X347140D01*
X347052Y289589D01*
X346974Y289617D01*
X346907Y289650D01*
X346846Y289683D01*
X346802Y289705D01*
X346763Y289728D01*
X346741Y289744D01*
X346735Y289750D01*
X346674Y289800D01*
X346624Y289850D01*
X346580Y289905D01*
X346546Y289949D01*
X346519Y289994D01*
X346497Y290027D01*
X346485Y290049D01*
X346480Y290055D01*
X346446Y290127D01*
X346424Y290199D01*
X346408Y290271D01*
X346396Y290333D01*
X346391Y290394D01*
X346385Y290438D01*
Y290466D01*
Y290477D01*
X346396Y290588D01*
X346402Y290638D01*
X346413Y290682D01*
X346424Y290716D01*
X346430Y290743D01*
X346441Y290760D01*
Y290765D01*
X346485Y290860D01*
X346508Y290899D01*
X346530Y290932D01*
X346546Y290954D01*
X346563Y290976D01*
X346574Y290987D01*
X346580Y290993D01*
X346646Y291059D01*
X346713Y291104D01*
X346741Y291126D01*
X346763Y291137D01*
X346779Y291148D01*
X346785D01*
X346874Y291187D01*
X346952Y291215D01*
X346985Y291220D01*
X347013Y291226D01*
X347029Y291232D01*
X347035D01*
X346935Y291270D01*
X346852Y291315D01*
X346779Y291365D01*
X346724Y291409D01*
X346685Y291448D01*
X346652Y291481D01*
X346635Y291509D01*
X346630Y291515D01*
X346585Y291587D01*
X346557Y291665D01*
X346535Y291742D01*
X346519Y291814D01*
X346508Y291875D01*
X346502Y291925D01*
Y291959D01*
Y291964D01*
Y291970D01*
X346508Y292042D01*
X346513Y292108D01*
X346546Y292231D01*
X346602Y292336D01*
X346669Y292430D01*
X346752Y292508D01*
X346841Y292569D01*
X346940Y292625D01*
X347040Y292664D01*
X347140Y292697D01*
X347240Y292719D01*
X347329Y292741D01*
X347412Y292752D01*
X347479Y292758D01*
X347534Y292763D01*
X348500D01*
Y289500D01*
D02*
G37*
G36*
X346058D02*
X345597D01*
X345370Y290210D01*
X344005D01*
X343777Y289500D01*
X343294D01*
X344365Y292763D01*
X344976D01*
X346058Y289500D01*
D02*
G37*
G36*
X343050Y292386D02*
X342084D01*
Y289500D01*
X341635D01*
Y292386D01*
X340669D01*
Y292763D01*
X343050D01*
Y292386D01*
D02*
G37*
%LPC*%
G36*
X315927Y247079D02*
X315883D01*
X315786Y247072D01*
X315698Y247050D01*
X315624Y247020D01*
X315564Y246976D01*
X315505Y246924D01*
X315461Y246865D01*
X315424Y246806D01*
X315394Y246746D01*
X315357Y246621D01*
X315342Y246561D01*
X315335Y246510D01*
X315328Y246465D01*
Y246436D01*
Y246413D01*
Y246406D01*
X315335Y246295D01*
X315342Y246206D01*
X315350Y246169D01*
X315357Y246140D01*
X315365Y246125D01*
Y246117D01*
X315394Y246029D01*
X315431Y245955D01*
X315453Y245925D01*
X315461Y245903D01*
X315476Y245895D01*
Y245888D01*
X315535Y245829D01*
X315594Y245784D01*
X315638Y245755D01*
X315646Y245747D01*
X315653D01*
X315727Y245725D01*
X315801Y245710D01*
X315831Y245703D01*
X315875D01*
X315964Y245710D01*
X316038Y245733D01*
X316068Y245740D01*
X316090Y245747D01*
X316097Y245755D01*
X316105D01*
X316179Y245807D01*
X316230Y245858D01*
X316267Y245903D01*
X316282Y245910D01*
Y245918D01*
X316334Y245999D01*
X316371Y246073D01*
X316386Y246110D01*
X316393Y246132D01*
X316401Y246147D01*
Y246154D01*
X316423Y246258D01*
X316430Y246347D01*
X316438Y246384D01*
Y246413D01*
Y246436D01*
Y246443D01*
X316430Y246547D01*
X316415Y246628D01*
Y246658D01*
X316408Y246680D01*
X316401Y246695D01*
Y246702D01*
X316364Y246783D01*
X316327Y246850D01*
X316297Y246887D01*
X316290Y246902D01*
X316230Y246961D01*
X316171Y247005D01*
X316127Y247028D01*
X316119Y247035D01*
X316112D01*
X316031Y247065D01*
X315957Y247072D01*
X315927Y247079D01*
D02*
G37*
G36*
X330535Y248559D02*
X330113D01*
X329994Y248552D01*
X329891Y248537D01*
X329802Y248508D01*
X329728Y248471D01*
X329661Y248434D01*
X329610Y248389D01*
X329565Y248337D01*
X329528Y248286D01*
X329506Y248234D01*
X329484Y248182D01*
X329454Y248101D01*
Y248064D01*
X329447Y248034D01*
Y248019D01*
Y248012D01*
X329454Y247916D01*
X329476Y247827D01*
X329506Y247753D01*
X329543Y247694D01*
X329580Y247642D01*
X329610Y247597D01*
X329632Y247575D01*
X329639Y247568D01*
X329713Y247509D01*
X329795Y247464D01*
X329876Y247435D01*
X329950Y247412D01*
X330024Y247398D01*
X330076Y247390D01*
X330535D01*
Y248559D01*
D02*
G37*
G36*
X447264Y64091D02*
X446815D01*
X446682Y64086D01*
X446565Y64064D01*
X446471Y64036D01*
X446388Y64008D01*
X446321Y63975D01*
X446277Y63947D01*
X446249Y63925D01*
X446238Y63920D01*
X446166Y63853D01*
X446116Y63775D01*
X446077Y63697D01*
X446055Y63620D01*
X446038Y63548D01*
X446032Y63492D01*
X446027Y63470D01*
Y63453D01*
Y63448D01*
Y63442D01*
X446038Y63320D01*
X446060Y63215D01*
X446094Y63126D01*
X446132Y63048D01*
X446177Y62993D01*
X446210Y62954D01*
X446232Y62926D01*
X446243Y62920D01*
X446332Y62865D01*
X446432Y62821D01*
X446532Y62793D01*
X446632Y62771D01*
X446715Y62760D01*
X446754Y62754D01*
X446787D01*
X446815Y62748D01*
X447264D01*
Y64091D01*
D02*
G37*
G36*
X427265Y244092D02*
X426815D01*
X426682Y244086D01*
X426565Y244064D01*
X426471Y244036D01*
X426388Y244008D01*
X426321Y243975D01*
X426277Y243947D01*
X426249Y243925D01*
X426238Y243919D01*
X426166Y243853D01*
X426116Y243775D01*
X426077Y243698D01*
X426055Y243620D01*
X426038Y243548D01*
X426032Y243492D01*
X426027Y243470D01*
Y243453D01*
Y243448D01*
Y243442D01*
X426038Y243320D01*
X426060Y243215D01*
X426093Y243126D01*
X426132Y243048D01*
X426177Y242993D01*
X426210Y242954D01*
X426232Y242926D01*
X426243Y242920D01*
X426332Y242865D01*
X426432Y242821D01*
X426532Y242793D01*
X426632Y242771D01*
X426715Y242759D01*
X426754Y242754D01*
X426787D01*
X426815Y242748D01*
X427265D01*
Y244092D01*
D02*
G37*
G36*
X417265Y224092D02*
X416815D01*
X416682Y224086D01*
X416565Y224064D01*
X416471Y224036D01*
X416388Y224008D01*
X416321Y223975D01*
X416277Y223947D01*
X416249Y223925D01*
X416238Y223920D01*
X416166Y223853D01*
X416116Y223775D01*
X416077Y223697D01*
X416055Y223620D01*
X416038Y223548D01*
X416033Y223492D01*
X416027Y223470D01*
Y223453D01*
Y223448D01*
Y223442D01*
X416038Y223320D01*
X416060Y223215D01*
X416093Y223126D01*
X416132Y223048D01*
X416177Y222993D01*
X416210Y222954D01*
X416232Y222926D01*
X416243Y222920D01*
X416332Y222865D01*
X416432Y222821D01*
X416532Y222793D01*
X416632Y222771D01*
X416715Y222760D01*
X416754Y222754D01*
X416787D01*
X416815Y222748D01*
X417265D01*
Y224092D01*
D02*
G37*
G36*
X463564Y263392D02*
X463115D01*
X462982Y263386D01*
X462865Y263364D01*
X462771Y263336D01*
X462688Y263308D01*
X462621Y263275D01*
X462577Y263247D01*
X462549Y263225D01*
X462538Y263219D01*
X462466Y263153D01*
X462416Y263075D01*
X462377Y262998D01*
X462355Y262920D01*
X462338Y262848D01*
X462332Y262792D01*
X462327Y262770D01*
Y262753D01*
Y262748D01*
Y262742D01*
X462338Y262620D01*
X462360Y262515D01*
X462394Y262426D01*
X462432Y262348D01*
X462477Y262293D01*
X462510Y262254D01*
X462532Y262226D01*
X462543Y262221D01*
X462632Y262165D01*
X462732Y262121D01*
X462832Y262093D01*
X462932Y262071D01*
X463015Y262059D01*
X463054Y262054D01*
X463087D01*
X463115Y262049D01*
X463564D01*
Y263392D01*
D02*
G37*
G36*
X457399Y263441D02*
X457371D01*
X457282Y263436D01*
X457243Y263430D01*
X457210Y263419D01*
X457182Y263414D01*
X457160Y263403D01*
X457149Y263397D01*
X457143D01*
X457071Y263358D01*
X457010Y263319D01*
X456988Y263303D01*
X456971Y263286D01*
X456966Y263281D01*
X456960Y263275D01*
X456905Y263219D01*
X456860Y263158D01*
X456844Y263136D01*
X456832Y263114D01*
X456821Y263103D01*
Y263097D01*
X456782Y263014D01*
X456755Y262942D01*
X456744Y262909D01*
X456733Y262887D01*
X456727Y262870D01*
Y262864D01*
X458109Y261843D01*
X458114Y261899D01*
Y261943D01*
Y261976D01*
Y261982D01*
Y261987D01*
Y262043D01*
Y262093D01*
Y262132D01*
Y262137D01*
Y262143D01*
Y262259D01*
X458109Y262365D01*
X458098Y262459D01*
X458087Y262542D01*
X458081Y262609D01*
X458070Y262659D01*
X458065Y262692D01*
Y262703D01*
X458042Y262792D01*
X458020Y262870D01*
X457998Y262936D01*
X457976Y262998D01*
X457954Y263047D01*
X457937Y263081D01*
X457926Y263103D01*
X457920Y263108D01*
X457881Y263170D01*
X457842Y263219D01*
X457798Y263258D01*
X457765Y263297D01*
X457731Y263325D01*
X457704Y263342D01*
X457687Y263353D01*
X457682Y263358D01*
X457626Y263386D01*
X457576Y263408D01*
X457521Y263419D01*
X457476Y263430D01*
X457432Y263436D01*
X457399Y263441D01*
D02*
G37*
G36*
X456644Y262448D02*
X456638Y262387D01*
Y262332D01*
X456633Y262315D01*
Y262298D01*
Y262287D01*
Y262282D01*
X456627Y262221D01*
X456622Y262165D01*
Y262148D01*
Y262132D01*
Y262121D01*
Y262115D01*
Y261999D01*
X456633Y261893D01*
X456638Y261799D01*
X456649Y261716D01*
X456660Y261649D01*
X456666Y261599D01*
X456677Y261566D01*
Y261560D01*
Y261555D01*
X456699Y261471D01*
X456721Y261388D01*
X456744Y261321D01*
X456771Y261260D01*
X456793Y261216D01*
X456810Y261177D01*
X456821Y261155D01*
X456827Y261149D01*
X456866Y261094D01*
X456905Y261044D01*
X456943Y260999D01*
X456977Y260966D01*
X457010Y260939D01*
X457038Y260922D01*
X457054Y260911D01*
X457060Y260905D01*
X457115Y260877D01*
X457165Y260861D01*
X457221Y260844D01*
X457265Y260839D01*
X457310Y260833D01*
X457343Y260827D01*
X457371D01*
X457465Y260833D01*
X457504Y260839D01*
X457537Y260850D01*
X457571Y260855D01*
X457593Y260861D01*
X457604Y260866D01*
X457609D01*
X457682Y260905D01*
X457737Y260944D01*
X457759Y260961D01*
X457776Y260977D01*
X457787Y260983D01*
X457793Y260988D01*
X457848Y261055D01*
X457893Y261116D01*
X457909Y261138D01*
X457920Y261160D01*
X457926Y261172D01*
X457931Y261177D01*
X457970Y261260D01*
X457998Y261344D01*
X458009Y261371D01*
X458020Y261399D01*
X458026Y261416D01*
Y261421D01*
X456644Y262448D01*
D02*
G37*
G36*
X443971Y262958D02*
X443921D01*
X443810Y262947D01*
X443760Y262942D01*
X443715Y262930D01*
X443682Y262919D01*
X443654Y262914D01*
X443638Y262903D01*
X443632D01*
X443582Y262880D01*
X443543Y262853D01*
X443504Y262819D01*
X443471Y262786D01*
X443443Y262758D01*
X443427Y262736D01*
X443416Y262719D01*
X443410Y262714D01*
X443377Y262658D01*
X443349Y262603D01*
X443327Y262547D01*
X443305Y262492D01*
X443294Y262442D01*
X443282Y262403D01*
X443271Y262375D01*
Y262364D01*
X443255Y262281D01*
X443244Y262187D01*
X443232Y262098D01*
X443227Y262015D01*
X443221Y261937D01*
Y261881D01*
Y261859D01*
Y261843D01*
Y261831D01*
Y261826D01*
X443277Y261793D01*
X443327Y261765D01*
X443349Y261754D01*
X443360Y261743D01*
X443371Y261737D01*
X443377D01*
X443438Y261709D01*
X443499Y261687D01*
X443521Y261676D01*
X443538Y261671D01*
X443549Y261665D01*
X443554D01*
X443627Y261648D01*
X443688Y261632D01*
X443710Y261626D01*
X443732D01*
X443743Y261621D01*
X443749D01*
X443821Y261610D01*
X443882Y261604D01*
X443998D01*
X444054Y261610D01*
X444104Y261621D01*
X444143Y261626D01*
X444176Y261637D01*
X444204Y261643D01*
X444220Y261648D01*
X444226D01*
X444309Y261687D01*
X444343Y261709D01*
X444370Y261732D01*
X444392Y261748D01*
X444409Y261765D01*
X444420Y261770D01*
X444426Y261776D01*
X444476Y261843D01*
X444509Y261909D01*
X444520Y261937D01*
X444531Y261959D01*
X444537Y261976D01*
Y261981D01*
X444553Y262076D01*
X444564Y262120D01*
Y262164D01*
X444570Y262198D01*
Y262226D01*
Y262248D01*
Y262253D01*
Y262314D01*
X444564Y262375D01*
X444553Y262425D01*
X444542Y262470D01*
X444537Y262503D01*
X444526Y262531D01*
X444520Y262547D01*
Y262553D01*
X444476Y262642D01*
X444453Y262681D01*
X444437Y262714D01*
X444415Y262742D01*
X444398Y262758D01*
X444392Y262770D01*
X444387Y262775D01*
X444315Y262836D01*
X444248Y262875D01*
X444220Y262892D01*
X444198Y262903D01*
X444187Y262908D01*
X444181D01*
X444087Y262936D01*
X444043Y262947D01*
X444004Y262953D01*
X443971Y262958D01*
D02*
G37*
G36*
X450065Y262892D02*
X449615D01*
X449482Y262886D01*
X449365Y262864D01*
X449271Y262836D01*
X449188Y262808D01*
X449121Y262775D01*
X449077Y262747D01*
X449049Y262725D01*
X449038Y262719D01*
X448966Y262653D01*
X448916Y262575D01*
X448877Y262497D01*
X448855Y262420D01*
X448838Y262348D01*
X448832Y262292D01*
X448827Y262270D01*
Y262253D01*
Y262248D01*
Y262242D01*
X448838Y262120D01*
X448860Y262015D01*
X448893Y261926D01*
X448932Y261848D01*
X448977Y261793D01*
X449010Y261754D01*
X449032Y261726D01*
X449043Y261720D01*
X449132Y261665D01*
X449232Y261621D01*
X449332Y261593D01*
X449432Y261571D01*
X449515Y261560D01*
X449554Y261554D01*
X449587D01*
X449615Y261548D01*
X450065D01*
Y262892D01*
D02*
G37*
G36*
X437565D02*
X437115D01*
X436982Y262886D01*
X436865Y262864D01*
X436771Y262836D01*
X436688Y262808D01*
X436621Y262775D01*
X436577Y262747D01*
X436549Y262725D01*
X436538Y262719D01*
X436466Y262653D01*
X436416Y262575D01*
X436377Y262497D01*
X436355Y262420D01*
X436338Y262348D01*
X436332Y262292D01*
X436327Y262270D01*
Y262253D01*
Y262248D01*
Y262242D01*
X436338Y262120D01*
X436360Y262015D01*
X436393Y261926D01*
X436432Y261848D01*
X436477Y261793D01*
X436510Y261754D01*
X436532Y261726D01*
X436543Y261720D01*
X436632Y261665D01*
X436732Y261621D01*
X436832Y261593D01*
X436932Y261571D01*
X437015Y261560D01*
X437054Y261554D01*
X437087D01*
X437115Y261548D01*
X437565D01*
Y262892D01*
D02*
G37*
G36*
X431410Y262953D02*
X431365D01*
X431265Y262947D01*
X431182Y262936D01*
X431104Y262919D01*
X431043Y262897D01*
X430993Y262875D01*
X430960Y262858D01*
X430938Y262847D01*
X430932Y262842D01*
X430877Y262797D01*
X430838Y262742D01*
X430810Y262686D01*
X430794Y262636D01*
X430777Y262586D01*
X430771Y262547D01*
Y262520D01*
Y262509D01*
X430777Y262442D01*
X430794Y262375D01*
X430816Y262320D01*
X430838Y262270D01*
X430866Y262231D01*
X430888Y262203D01*
X430905Y262181D01*
X430910Y262176D01*
X430966Y262120D01*
X431032Y262070D01*
X431104Y262026D01*
X431171Y261987D01*
X431232Y261954D01*
X431282Y261926D01*
X431315Y261909D01*
X431321Y261904D01*
X431326D01*
X431387Y261931D01*
X431443Y261954D01*
X431487Y261976D01*
X431532Y261998D01*
X431565Y262015D01*
X431587Y262031D01*
X431604Y262037D01*
X431609Y262042D01*
X431687Y262098D01*
X431748Y262142D01*
X431770Y262159D01*
X431787Y262176D01*
X431798Y262181D01*
X431804Y262187D01*
X431854Y262242D01*
X431892Y262287D01*
X431915Y262326D01*
X431920Y262331D01*
Y262336D01*
X431937Y262398D01*
X431948Y262459D01*
X431953Y262481D01*
Y262497D01*
Y262509D01*
Y262514D01*
X431948Y262592D01*
X431931Y262658D01*
X431904Y262714D01*
X431876Y262764D01*
X431848Y262797D01*
X431820Y262819D01*
X431804Y262836D01*
X431798Y262842D01*
X431737Y262880D01*
X431665Y262908D01*
X431593Y262925D01*
X431521Y262942D01*
X431460Y262947D01*
X431410Y262953D01*
D02*
G37*
G36*
X431404Y261487D02*
X431332Y261454D01*
X431271Y261421D01*
X431210Y261387D01*
X431165Y261360D01*
X431127Y261338D01*
X431099Y261321D01*
X431082Y261310D01*
X431077Y261304D01*
X431027Y261271D01*
X430988Y261243D01*
X430949Y261215D01*
X430921Y261188D01*
X430899Y261171D01*
X430882Y261154D01*
X430871Y261143D01*
X430866Y261138D01*
X430816Y261077D01*
X430782Y261021D01*
X430771Y260999D01*
X430766Y260982D01*
X430760Y260971D01*
Y260966D01*
X430738Y260899D01*
X430732Y260844D01*
X430727Y260816D01*
Y260799D01*
Y260788D01*
Y260783D01*
X430732Y260699D01*
X430749Y260638D01*
X430760Y260611D01*
X430771Y260594D01*
X430777Y260583D01*
Y260577D01*
X430821Y260522D01*
X430866Y260472D01*
X430899Y260444D01*
X430910Y260438D01*
X430916Y260433D01*
X430982Y260394D01*
X431049Y260372D01*
X431077Y260361D01*
X431099Y260355D01*
X431115Y260350D01*
X431121D01*
X431210Y260338D01*
X431287Y260333D01*
X431321Y260327D01*
X431365D01*
X431465Y260333D01*
X431509Y260338D01*
X431543Y260344D01*
X431576D01*
X431598Y260350D01*
X431615Y260355D01*
X431621D01*
X431704Y260383D01*
X431765Y260411D01*
X431793Y260422D01*
X431809Y260433D01*
X431820Y260444D01*
X431826D01*
X431881Y260494D01*
X431926Y260538D01*
X431948Y260577D01*
X431959Y260583D01*
Y260588D01*
X431987Y260655D01*
X431998Y260721D01*
X432003Y260749D01*
Y260771D01*
Y260783D01*
Y260788D01*
X431998Y260860D01*
X431987Y260921D01*
Y260944D01*
X431981Y260960D01*
X431976Y260971D01*
Y260977D01*
X431948Y261043D01*
X431915Y261099D01*
X431898Y261121D01*
X431887Y261138D01*
X431881Y261149D01*
X431876Y261154D01*
X431815Y261215D01*
X431754Y261271D01*
X431726Y261288D01*
X431704Y261304D01*
X431693Y261315D01*
X431687Y261321D01*
X431593Y261382D01*
X431504Y261437D01*
X431465Y261454D01*
X431432Y261471D01*
X431410Y261482D01*
X431404Y261487D01*
D02*
G37*
G36*
X437565Y252892D02*
X437115D01*
X436982Y252886D01*
X436865Y252864D01*
X436771Y252836D01*
X436688Y252808D01*
X436621Y252775D01*
X436577Y252747D01*
X436549Y252725D01*
X436538Y252719D01*
X436466Y252653D01*
X436416Y252575D01*
X436377Y252498D01*
X436355Y252420D01*
X436338Y252348D01*
X436332Y252292D01*
X436327Y252270D01*
Y252253D01*
Y252248D01*
Y252242D01*
X436338Y252120D01*
X436360Y252015D01*
X436393Y251926D01*
X436432Y251848D01*
X436477Y251793D01*
X436510Y251754D01*
X436532Y251726D01*
X436543Y251720D01*
X436632Y251665D01*
X436732Y251621D01*
X436832Y251593D01*
X436932Y251571D01*
X437015Y251559D01*
X437054Y251554D01*
X437087D01*
X437115Y251549D01*
X437565D01*
Y252892D01*
D02*
G37*
G36*
X441065Y272860D02*
X440943D01*
X440888Y272854D01*
X440843Y272843D01*
X440799Y272837D01*
X440765Y272826D01*
X440743Y272815D01*
X440727Y272810D01*
X440721D01*
X440643Y272771D01*
X440582Y272732D01*
X440560Y272710D01*
X440538Y272698D01*
X440532Y272687D01*
X440527Y272682D01*
X440477Y272615D01*
X440438Y272549D01*
X440427Y272521D01*
X440416Y272499D01*
X440410Y272482D01*
Y272477D01*
X440388Y272382D01*
X440383Y272338D01*
X440377Y272293D01*
X440372Y272260D01*
Y272232D01*
Y272210D01*
Y272205D01*
Y272144D01*
X440377Y272088D01*
X440388Y272038D01*
X440394Y271994D01*
X440405Y271960D01*
X440416Y271933D01*
X440421Y271916D01*
Y271910D01*
X440466Y271822D01*
X440488Y271783D01*
X440510Y271749D01*
X440527Y271727D01*
X440544Y271705D01*
X440555Y271694D01*
X440560Y271688D01*
X440627Y271633D01*
X440693Y271588D01*
X440721Y271572D01*
X440743Y271566D01*
X440760Y271555D01*
X440765D01*
X440854Y271527D01*
X440938Y271516D01*
X440976Y271511D01*
X441026D01*
X441143Y271516D01*
X441193Y271527D01*
X441237Y271538D01*
X441276Y271544D01*
X441304Y271555D01*
X441321Y271561D01*
X441326D01*
X441370Y271583D01*
X441415Y271611D01*
X441448Y271644D01*
X441481Y271672D01*
X441509Y271700D01*
X441526Y271722D01*
X441537Y271738D01*
X441542Y271744D01*
X441576Y271799D01*
X441598Y271855D01*
X441626Y271916D01*
X441642Y271972D01*
X441659Y272016D01*
X441665Y272060D01*
X441676Y272082D01*
Y272094D01*
X441692Y272177D01*
X441704Y272271D01*
X441709Y272360D01*
X441715Y272443D01*
X441720Y272521D01*
Y272576D01*
Y272599D01*
Y272615D01*
Y272626D01*
Y272632D01*
X441670Y272665D01*
X441620Y272693D01*
X441581Y272710D01*
X441576Y272715D01*
X441570D01*
X441504Y272743D01*
X441443Y272771D01*
X441420Y272776D01*
X441404Y272782D01*
X441393Y272787D01*
X441387D01*
X441315Y272810D01*
X441259Y272826D01*
X441232Y272832D01*
X441215D01*
X441204Y272837D01*
X441198D01*
X441126Y272848D01*
X441065Y272860D01*
D02*
G37*
G36*
X447265Y274092D02*
X446815D01*
X446682Y274086D01*
X446565Y274064D01*
X446471Y274036D01*
X446388Y274008D01*
X446321Y273975D01*
X446277Y273947D01*
X446249Y273925D01*
X446238Y273920D01*
X446166Y273853D01*
X446116Y273775D01*
X446077Y273697D01*
X446055Y273620D01*
X446038Y273548D01*
X446032Y273492D01*
X446027Y273470D01*
Y273453D01*
Y273448D01*
Y273442D01*
X446038Y273320D01*
X446060Y273215D01*
X446094Y273126D01*
X446132Y273048D01*
X446177Y272993D01*
X446210Y272954D01*
X446232Y272926D01*
X446243Y272920D01*
X446332Y272865D01*
X446432Y272821D01*
X446532Y272793D01*
X446632Y272771D01*
X446715Y272760D01*
X446754Y272754D01*
X446787D01*
X446815Y272748D01*
X447265D01*
Y274092D01*
D02*
G37*
G36*
X77265Y194092D02*
X76815D01*
X76682Y194086D01*
X76565Y194064D01*
X76471Y194036D01*
X76388Y194008D01*
X76321Y193975D01*
X76277Y193947D01*
X76249Y193925D01*
X76238Y193920D01*
X76166Y193853D01*
X76116Y193775D01*
X76077Y193698D01*
X76055Y193620D01*
X76038Y193548D01*
X76033Y193492D01*
X76027Y193470D01*
Y193453D01*
Y193448D01*
Y193442D01*
X76038Y193320D01*
X76060Y193215D01*
X76094Y193126D01*
X76132Y193048D01*
X76177Y192993D01*
X76210Y192954D01*
X76232Y192926D01*
X76243Y192920D01*
X76332Y192865D01*
X76432Y192821D01*
X76532Y192793D01*
X76632Y192771D01*
X76715Y192760D01*
X76754Y192754D01*
X76787D01*
X76815Y192748D01*
X77265D01*
Y194092D01*
D02*
G37*
G36*
X132065Y223892D02*
X131615D01*
X131482Y223886D01*
X131365Y223864D01*
X131271Y223836D01*
X131188Y223808D01*
X131121Y223775D01*
X131077Y223747D01*
X131049Y223725D01*
X131038Y223720D01*
X130966Y223653D01*
X130916Y223575D01*
X130877Y223498D01*
X130855Y223420D01*
X130838Y223348D01*
X130832Y223292D01*
X130827Y223270D01*
Y223253D01*
Y223248D01*
Y223242D01*
X130838Y223120D01*
X130860Y223015D01*
X130894Y222926D01*
X130932Y222848D01*
X130977Y222793D01*
X131010Y222754D01*
X131032Y222726D01*
X131043Y222721D01*
X131132Y222665D01*
X131232Y222621D01*
X131332Y222593D01*
X131432Y222571D01*
X131515Y222559D01*
X131554Y222554D01*
X131587D01*
X131615Y222549D01*
X132065D01*
Y223892D01*
D02*
G37*
G36*
X125599Y223842D02*
Y222104D01*
X126737D01*
X125599Y223842D01*
D02*
G37*
G36*
X97265Y194092D02*
X96815D01*
X96682Y194086D01*
X96565Y194064D01*
X96471Y194036D01*
X96388Y194008D01*
X96321Y193975D01*
X96277Y193947D01*
X96249Y193925D01*
X96238Y193920D01*
X96166Y193853D01*
X96116Y193775D01*
X96077Y193698D01*
X96055Y193620D01*
X96038Y193548D01*
X96033Y193492D01*
X96027Y193470D01*
Y193453D01*
Y193448D01*
Y193442D01*
X96038Y193320D01*
X96060Y193215D01*
X96093Y193126D01*
X96132Y193048D01*
X96177Y192993D01*
X96210Y192954D01*
X96232Y192926D01*
X96243Y192920D01*
X96332Y192865D01*
X96432Y192821D01*
X96532Y192793D01*
X96632Y192771D01*
X96715Y192760D01*
X96754Y192754D01*
X96787D01*
X96815Y192748D01*
X97265D01*
Y194092D01*
D02*
G37*
G36*
Y314092D02*
X96815D01*
X96682Y314086D01*
X96565Y314064D01*
X96471Y314036D01*
X96388Y314008D01*
X96321Y313975D01*
X96277Y313947D01*
X96249Y313925D01*
X96238Y313919D01*
X96166Y313853D01*
X96116Y313775D01*
X96077Y313698D01*
X96055Y313620D01*
X96038Y313548D01*
X96033Y313492D01*
X96027Y313470D01*
Y313453D01*
Y313448D01*
Y313442D01*
X96038Y313320D01*
X96060Y313215D01*
X96093Y313126D01*
X96132Y313048D01*
X96177Y312993D01*
X96210Y312954D01*
X96232Y312926D01*
X96243Y312920D01*
X96332Y312865D01*
X96432Y312821D01*
X96532Y312793D01*
X96632Y312771D01*
X96715Y312759D01*
X96754Y312754D01*
X96787D01*
X96815Y312749D01*
X97265D01*
Y314092D01*
D02*
G37*
G36*
X117265Y224092D02*
X116815D01*
X116682Y224086D01*
X116565Y224064D01*
X116471Y224036D01*
X116388Y224008D01*
X116321Y223975D01*
X116277Y223947D01*
X116249Y223925D01*
X116238Y223920D01*
X116166Y223853D01*
X116116Y223775D01*
X116077Y223697D01*
X116055Y223620D01*
X116038Y223548D01*
X116033Y223492D01*
X116027Y223470D01*
Y223453D01*
Y223448D01*
Y223442D01*
X116038Y223320D01*
X116060Y223215D01*
X116094Y223126D01*
X116132Y223048D01*
X116177Y222993D01*
X116210Y222954D01*
X116232Y222926D01*
X116243Y222920D01*
X116332Y222865D01*
X116432Y222821D01*
X116532Y222793D01*
X116632Y222771D01*
X116715Y222760D01*
X116754Y222754D01*
X116787D01*
X116815Y222748D01*
X117265D01*
Y224092D01*
D02*
G37*
G36*
X97265Y274092D02*
X96815D01*
X96682Y274086D01*
X96565Y274064D01*
X96471Y274036D01*
X96388Y274008D01*
X96321Y273975D01*
X96277Y273947D01*
X96249Y273925D01*
X96238Y273920D01*
X96166Y273853D01*
X96116Y273775D01*
X96077Y273697D01*
X96055Y273620D01*
X96038Y273548D01*
X96033Y273492D01*
X96027Y273470D01*
Y273453D01*
Y273448D01*
Y273442D01*
X96038Y273320D01*
X96060Y273215D01*
X96093Y273126D01*
X96132Y273048D01*
X96177Y272993D01*
X96210Y272954D01*
X96232Y272926D01*
X96243Y272920D01*
X96332Y272865D01*
X96432Y272821D01*
X96532Y272793D01*
X96632Y272771D01*
X96715Y272760D01*
X96754Y272754D01*
X96787D01*
X96815Y272748D01*
X97265D01*
Y274092D01*
D02*
G37*
G36*
X91098Y274142D02*
X91071D01*
X90982Y274136D01*
X90943Y274130D01*
X90910Y274119D01*
X90882Y274114D01*
X90860Y274103D01*
X90849Y274097D01*
X90843D01*
X90771Y274058D01*
X90710Y274019D01*
X90688Y274003D01*
X90671Y273986D01*
X90666Y273980D01*
X90660Y273975D01*
X90605Y273920D01*
X90560Y273858D01*
X90544Y273836D01*
X90532Y273814D01*
X90521Y273803D01*
Y273797D01*
X90482Y273714D01*
X90455Y273642D01*
X90444Y273609D01*
X90433Y273587D01*
X90427Y273570D01*
Y273564D01*
X91809Y272543D01*
X91815Y272599D01*
Y272643D01*
Y272676D01*
Y272682D01*
Y272687D01*
Y272743D01*
Y272793D01*
Y272832D01*
Y272837D01*
Y272843D01*
Y272959D01*
X91809Y273065D01*
X91798Y273159D01*
X91787Y273242D01*
X91781Y273309D01*
X91770Y273359D01*
X91764Y273392D01*
Y273403D01*
X91742Y273492D01*
X91720Y273570D01*
X91698Y273637D01*
X91676Y273697D01*
X91654Y273747D01*
X91637Y273781D01*
X91626Y273803D01*
X91620Y273809D01*
X91581Y273869D01*
X91543Y273920D01*
X91498Y273958D01*
X91465Y273997D01*
X91431Y274025D01*
X91404Y274042D01*
X91387Y274053D01*
X91382Y274058D01*
X91326Y274086D01*
X91276Y274108D01*
X91221Y274119D01*
X91176Y274130D01*
X91132Y274136D01*
X91098Y274142D01*
D02*
G37*
G36*
X90344Y273148D02*
X90338Y273087D01*
Y273031D01*
X90333Y273015D01*
Y272998D01*
Y272987D01*
Y272982D01*
X90327Y272920D01*
X90321Y272865D01*
Y272848D01*
Y272832D01*
Y272821D01*
Y272815D01*
Y272698D01*
X90333Y272593D01*
X90338Y272499D01*
X90349Y272415D01*
X90360Y272349D01*
X90366Y272299D01*
X90377Y272266D01*
Y272260D01*
Y272254D01*
X90399Y272171D01*
X90421Y272088D01*
X90444Y272021D01*
X90471Y271960D01*
X90494Y271916D01*
X90510Y271877D01*
X90521Y271855D01*
X90527Y271849D01*
X90566Y271794D01*
X90605Y271744D01*
X90643Y271700D01*
X90677Y271666D01*
X90710Y271638D01*
X90738Y271622D01*
X90754Y271611D01*
X90760Y271605D01*
X90816Y271577D01*
X90865Y271561D01*
X90921Y271544D01*
X90965Y271538D01*
X91010Y271533D01*
X91043Y271527D01*
X91071D01*
X91165Y271533D01*
X91204Y271538D01*
X91237Y271550D01*
X91271Y271555D01*
X91293Y271561D01*
X91304Y271566D01*
X91309D01*
X91382Y271605D01*
X91437Y271644D01*
X91459Y271661D01*
X91476Y271677D01*
X91487Y271683D01*
X91493Y271688D01*
X91548Y271755D01*
X91593Y271816D01*
X91609Y271838D01*
X91620Y271860D01*
X91626Y271871D01*
X91631Y271877D01*
X91670Y271960D01*
X91698Y272044D01*
X91709Y272071D01*
X91720Y272099D01*
X91726Y272116D01*
Y272121D01*
X90344Y273148D01*
D02*
G37*
G36*
X103984Y254158D02*
X103935D01*
X103824Y254147D01*
X103774Y254141D01*
X103729Y254130D01*
X103696Y254119D01*
X103668Y254114D01*
X103651Y254103D01*
X103646D01*
X103596Y254081D01*
X103557Y254053D01*
X103518Y254019D01*
X103485Y253986D01*
X103457Y253958D01*
X103441Y253936D01*
X103429Y253920D01*
X103424Y253914D01*
X103391Y253858D01*
X103363Y253803D01*
X103341Y253747D01*
X103319Y253692D01*
X103307Y253642D01*
X103296Y253603D01*
X103285Y253575D01*
Y253564D01*
X103269Y253481D01*
X103258Y253387D01*
X103246Y253298D01*
X103241Y253215D01*
X103235Y253137D01*
Y253081D01*
Y253059D01*
Y253043D01*
Y253031D01*
Y253026D01*
X103291Y252993D01*
X103341Y252965D01*
X103363Y252954D01*
X103374Y252943D01*
X103385Y252937D01*
X103391D01*
X103452Y252909D01*
X103513Y252887D01*
X103535Y252876D01*
X103552Y252871D01*
X103563Y252865D01*
X103568D01*
X103640Y252848D01*
X103701Y252832D01*
X103724Y252826D01*
X103746D01*
X103757Y252821D01*
X103762D01*
X103835Y252810D01*
X103896Y252804D01*
X104012D01*
X104068Y252810D01*
X104118Y252821D01*
X104157Y252826D01*
X104190Y252837D01*
X104218Y252843D01*
X104234Y252848D01*
X104240D01*
X104323Y252887D01*
X104356Y252909D01*
X104384Y252932D01*
X104406Y252948D01*
X104423Y252965D01*
X104434Y252970D01*
X104440Y252976D01*
X104490Y253043D01*
X104523Y253109D01*
X104534Y253137D01*
X104545Y253159D01*
X104551Y253176D01*
Y253181D01*
X104567Y253276D01*
X104578Y253320D01*
Y253364D01*
X104584Y253398D01*
Y253426D01*
Y253448D01*
Y253453D01*
Y253514D01*
X104578Y253575D01*
X104567Y253625D01*
X104556Y253670D01*
X104551Y253703D01*
X104540Y253731D01*
X104534Y253747D01*
Y253753D01*
X104490Y253842D01*
X104467Y253881D01*
X104451Y253914D01*
X104429Y253942D01*
X104412Y253958D01*
X104406Y253970D01*
X104401Y253975D01*
X104329Y254036D01*
X104262Y254075D01*
X104234Y254092D01*
X104212Y254103D01*
X104201Y254108D01*
X104195D01*
X104101Y254136D01*
X104057Y254147D01*
X104018Y254153D01*
X103984Y254158D01*
D02*
G37*
G36*
X107265Y254092D02*
X106815D01*
X106682Y254086D01*
X106565Y254064D01*
X106471Y254036D01*
X106388Y254008D01*
X106321Y253975D01*
X106277Y253947D01*
X106249Y253925D01*
X106238Y253920D01*
X106166Y253853D01*
X106116Y253775D01*
X106077Y253697D01*
X106055Y253620D01*
X106038Y253548D01*
X106033Y253492D01*
X106027Y253470D01*
Y253453D01*
Y253448D01*
Y253442D01*
X106038Y253320D01*
X106060Y253215D01*
X106094Y253126D01*
X106132Y253048D01*
X106177Y252993D01*
X106210Y252954D01*
X106232Y252926D01*
X106243Y252921D01*
X106332Y252865D01*
X106432Y252821D01*
X106532Y252793D01*
X106632Y252771D01*
X106715Y252760D01*
X106754Y252754D01*
X106787D01*
X106815Y252748D01*
X107265D01*
Y254092D01*
D02*
G37*
G36*
X47265Y214092D02*
X46815D01*
X46682Y214086D01*
X46565Y214064D01*
X46471Y214036D01*
X46388Y214008D01*
X46321Y213975D01*
X46277Y213947D01*
X46249Y213925D01*
X46238Y213919D01*
X46166Y213853D01*
X46116Y213775D01*
X46077Y213698D01*
X46055Y213620D01*
X46038Y213548D01*
X46033Y213492D01*
X46027Y213470D01*
Y213453D01*
Y213448D01*
Y213442D01*
X46038Y213320D01*
X46060Y213215D01*
X46093Y213126D01*
X46132Y213048D01*
X46177Y212993D01*
X46210Y212954D01*
X46232Y212926D01*
X46243Y212920D01*
X46332Y212865D01*
X46432Y212821D01*
X46532Y212793D01*
X46632Y212771D01*
X46715Y212759D01*
X46754Y212754D01*
X46787D01*
X46815Y212749D01*
X47265D01*
Y214092D01*
D02*
G37*
G36*
X43924Y214153D02*
X43879D01*
X43779Y214147D01*
X43696Y214136D01*
X43618Y214119D01*
X43557Y214097D01*
X43507Y214075D01*
X43474Y214058D01*
X43452Y214047D01*
X43446Y214042D01*
X43391Y213997D01*
X43352Y213942D01*
X43324Y213886D01*
X43307Y213836D01*
X43291Y213786D01*
X43285Y213747D01*
Y213720D01*
Y213709D01*
X43291Y213642D01*
X43307Y213575D01*
X43330Y213520D01*
X43352Y213470D01*
X43380Y213431D01*
X43402Y213403D01*
X43418Y213381D01*
X43424Y213376D01*
X43479Y213320D01*
X43546Y213270D01*
X43618Y213226D01*
X43685Y213187D01*
X43746Y213154D01*
X43796Y213126D01*
X43829Y213109D01*
X43835Y213104D01*
X43840D01*
X43901Y213131D01*
X43957Y213154D01*
X44001Y213176D01*
X44046Y213198D01*
X44079Y213215D01*
X44101Y213231D01*
X44118Y213237D01*
X44123Y213242D01*
X44201Y213298D01*
X44262Y213342D01*
X44284Y213359D01*
X44301Y213376D01*
X44312Y213381D01*
X44317Y213387D01*
X44368Y213442D01*
X44406Y213487D01*
X44429Y213526D01*
X44434Y213531D01*
Y213537D01*
X44451Y213598D01*
X44462Y213659D01*
X44467Y213681D01*
Y213698D01*
Y213709D01*
Y213714D01*
X44462Y213792D01*
X44445Y213858D01*
X44417Y213914D01*
X44390Y213964D01*
X44362Y213997D01*
X44334Y214019D01*
X44317Y214036D01*
X44312Y214042D01*
X44251Y214081D01*
X44179Y214108D01*
X44107Y214125D01*
X44034Y214142D01*
X43973Y214147D01*
X43924Y214153D01*
D02*
G37*
G36*
X43918Y212687D02*
X43846Y212654D01*
X43785Y212621D01*
X43724Y212587D01*
X43679Y212560D01*
X43640Y212538D01*
X43613Y212521D01*
X43596Y212510D01*
X43591Y212504D01*
X43540Y212471D01*
X43502Y212443D01*
X43463Y212416D01*
X43435Y212388D01*
X43413Y212371D01*
X43396Y212354D01*
X43385Y212343D01*
X43380Y212338D01*
X43330Y212277D01*
X43296Y212221D01*
X43285Y212199D01*
X43280Y212182D01*
X43274Y212171D01*
Y212166D01*
X43252Y212099D01*
X43246Y212044D01*
X43241Y212016D01*
Y211999D01*
Y211988D01*
Y211982D01*
X43246Y211899D01*
X43263Y211838D01*
X43274Y211810D01*
X43285Y211794D01*
X43291Y211783D01*
Y211777D01*
X43335Y211722D01*
X43380Y211672D01*
X43413Y211644D01*
X43424Y211638D01*
X43429Y211633D01*
X43496Y211594D01*
X43563Y211572D01*
X43591Y211561D01*
X43613Y211555D01*
X43629Y211550D01*
X43635D01*
X43724Y211539D01*
X43801Y211533D01*
X43835Y211527D01*
X43879D01*
X43979Y211533D01*
X44023Y211539D01*
X44057Y211544D01*
X44090D01*
X44112Y211550D01*
X44129Y211555D01*
X44134D01*
X44218Y211583D01*
X44279Y211611D01*
X44306Y211622D01*
X44323Y211633D01*
X44334Y211644D01*
X44340D01*
X44395Y211694D01*
X44440Y211738D01*
X44462Y211777D01*
X44473Y211783D01*
Y211788D01*
X44501Y211855D01*
X44512Y211922D01*
X44517Y211949D01*
Y211971D01*
Y211982D01*
Y211988D01*
X44512Y212060D01*
X44501Y212121D01*
Y212143D01*
X44495Y212160D01*
X44490Y212171D01*
Y212177D01*
X44462Y212243D01*
X44429Y212299D01*
X44412Y212321D01*
X44401Y212338D01*
X44395Y212349D01*
X44390Y212354D01*
X44329Y212416D01*
X44268Y212471D01*
X44240Y212488D01*
X44218Y212504D01*
X44207Y212515D01*
X44201Y212521D01*
X44107Y212582D01*
X44018Y212637D01*
X43979Y212654D01*
X43946Y212671D01*
X43924Y212682D01*
X43918Y212687D01*
D02*
G37*
G36*
X417265Y154092D02*
X416815D01*
X416682Y154086D01*
X416565Y154064D01*
X416471Y154036D01*
X416388Y154008D01*
X416321Y153975D01*
X416277Y153947D01*
X416249Y153925D01*
X416238Y153919D01*
X416166Y153853D01*
X416116Y153775D01*
X416077Y153698D01*
X416055Y153620D01*
X416038Y153548D01*
X416033Y153492D01*
X416027Y153470D01*
Y153453D01*
Y153448D01*
Y153442D01*
X416038Y153320D01*
X416060Y153215D01*
X416093Y153126D01*
X416132Y153048D01*
X416177Y152993D01*
X416210Y152954D01*
X416232Y152926D01*
X416243Y152920D01*
X416332Y152865D01*
X416432Y152821D01*
X416532Y152793D01*
X416632Y152771D01*
X416715Y152760D01*
X416754Y152754D01*
X416787D01*
X416815Y152749D01*
X417265D01*
Y154092D01*
D02*
G37*
G36*
X453879Y142859D02*
X453757D01*
X453701Y142854D01*
X453657Y142843D01*
X453613Y142837D01*
X453579Y142826D01*
X453557Y142815D01*
X453541Y142809D01*
X453535D01*
X453457Y142771D01*
X453396Y142732D01*
X453374Y142710D01*
X453352Y142699D01*
X453346Y142687D01*
X453341Y142682D01*
X453291Y142615D01*
X453252Y142549D01*
X453241Y142521D01*
X453230Y142499D01*
X453224Y142482D01*
Y142476D01*
X453202Y142382D01*
X453196Y142338D01*
X453191Y142293D01*
X453185Y142260D01*
Y142232D01*
Y142210D01*
Y142204D01*
Y142143D01*
X453191Y142088D01*
X453202Y142038D01*
X453207Y141994D01*
X453219Y141960D01*
X453230Y141933D01*
X453235Y141916D01*
Y141910D01*
X453280Y141822D01*
X453302Y141783D01*
X453324Y141750D01*
X453341Y141727D01*
X453357Y141705D01*
X453369Y141694D01*
X453374Y141688D01*
X453441Y141633D01*
X453507Y141588D01*
X453535Y141572D01*
X453557Y141566D01*
X453574Y141555D01*
X453579D01*
X453668Y141527D01*
X453751Y141516D01*
X453790Y141511D01*
X453840D01*
X453957Y141516D01*
X454007Y141527D01*
X454051Y141539D01*
X454090Y141544D01*
X454118Y141555D01*
X454134Y141561D01*
X454140D01*
X454184Y141583D01*
X454229Y141611D01*
X454262Y141644D01*
X454295Y141672D01*
X454323Y141700D01*
X454340Y141722D01*
X454351Y141738D01*
X454356Y141744D01*
X454390Y141799D01*
X454412Y141855D01*
X454440Y141916D01*
X454456Y141972D01*
X454473Y142016D01*
X454479Y142060D01*
X454490Y142082D01*
Y142094D01*
X454506Y142177D01*
X454517Y142271D01*
X454523Y142360D01*
X454528Y142443D01*
X454534Y142521D01*
Y142576D01*
Y142599D01*
Y142615D01*
Y142626D01*
Y142632D01*
X454484Y142665D01*
X454434Y142693D01*
X454395Y142710D01*
X454390Y142715D01*
X454384D01*
X454318Y142743D01*
X454256Y142771D01*
X454234Y142776D01*
X454218Y142782D01*
X454207Y142787D01*
X454201D01*
X454129Y142809D01*
X454073Y142826D01*
X454046Y142832D01*
X454029D01*
X454018Y142837D01*
X454012D01*
X453940Y142848D01*
X453879Y142859D01*
D02*
G37*
G36*
X457265Y144092D02*
X456815D01*
X456682Y144086D01*
X456565Y144064D01*
X456471Y144036D01*
X456388Y144008D01*
X456321Y143975D01*
X456277Y143947D01*
X456249Y143925D01*
X456238Y143920D01*
X456166Y143853D01*
X456116Y143775D01*
X456077Y143698D01*
X456055Y143620D01*
X456038Y143548D01*
X456033Y143492D01*
X456027Y143470D01*
Y143453D01*
Y143448D01*
Y143442D01*
X456038Y143320D01*
X456060Y143215D01*
X456094Y143126D01*
X456132Y143048D01*
X456177Y142993D01*
X456210Y142954D01*
X456232Y142926D01*
X456243Y142920D01*
X456332Y142865D01*
X456432Y142821D01*
X456532Y142793D01*
X456632Y142771D01*
X456715Y142760D01*
X456754Y142754D01*
X456787D01*
X456815Y142748D01*
X457265D01*
Y144092D01*
D02*
G37*
G36*
X434217Y193592D02*
X433767D01*
X433634Y193586D01*
X433518Y193564D01*
X433423Y193536D01*
X433340Y193508D01*
X433273Y193475D01*
X433229Y193447D01*
X433201Y193425D01*
X433190Y193420D01*
X433118Y193353D01*
X433068Y193275D01*
X433029Y193198D01*
X433007Y193120D01*
X432990Y193048D01*
X432985Y192992D01*
X432979Y192970D01*
Y192953D01*
Y192948D01*
Y192942D01*
X432990Y192820D01*
X433012Y192715D01*
X433046Y192626D01*
X433085Y192548D01*
X433129Y192493D01*
X433162Y192454D01*
X433185Y192426D01*
X433196Y192420D01*
X433285Y192365D01*
X433384Y192321D01*
X433484Y192293D01*
X433584Y192271D01*
X433667Y192260D01*
X433706Y192254D01*
X433740D01*
X433767Y192248D01*
X434217D01*
Y193592D01*
D02*
G37*
G36*
X414217Y43592D02*
X413767D01*
X413634Y43586D01*
X413518Y43564D01*
X413423Y43536D01*
X413340Y43508D01*
X413273Y43475D01*
X413229Y43447D01*
X413201Y43425D01*
X413190Y43420D01*
X413118Y43353D01*
X413068Y43275D01*
X413029Y43198D01*
X413007Y43120D01*
X412990Y43048D01*
X412985Y42992D01*
X412979Y42970D01*
Y42953D01*
Y42948D01*
Y42942D01*
X412990Y42820D01*
X413013Y42715D01*
X413046Y42626D01*
X413085Y42548D01*
X413129Y42493D01*
X413162Y42454D01*
X413185Y42426D01*
X413196Y42421D01*
X413284Y42365D01*
X413384Y42321D01*
X413484Y42293D01*
X413584Y42271D01*
X413667Y42260D01*
X413706Y42254D01*
X413739D01*
X413767Y42248D01*
X414217D01*
Y43592D01*
D02*
G37*
G36*
X410565Y43542D02*
Y41805D01*
X411703D01*
X410565Y43542D01*
D02*
G37*
G36*
X427265Y154092D02*
X426815D01*
X426682Y154086D01*
X426565Y154064D01*
X426471Y154036D01*
X426388Y154008D01*
X426321Y153975D01*
X426277Y153947D01*
X426249Y153925D01*
X426238Y153919D01*
X426166Y153853D01*
X426116Y153775D01*
X426077Y153698D01*
X426055Y153620D01*
X426038Y153548D01*
X426032Y153492D01*
X426027Y153470D01*
Y153453D01*
Y153448D01*
Y153442D01*
X426038Y153320D01*
X426060Y153215D01*
X426093Y153126D01*
X426132Y153048D01*
X426177Y152993D01*
X426210Y152954D01*
X426232Y152926D01*
X426243Y152920D01*
X426332Y152865D01*
X426432Y152821D01*
X426532Y152793D01*
X426632Y152771D01*
X426715Y152760D01*
X426754Y152754D01*
X426787D01*
X426815Y152749D01*
X427265D01*
Y154092D01*
D02*
G37*
G36*
X317265Y164092D02*
X316815D01*
X316682Y164086D01*
X316565Y164064D01*
X316471Y164036D01*
X316388Y164008D01*
X316321Y163975D01*
X316277Y163947D01*
X316249Y163925D01*
X316238Y163919D01*
X316166Y163853D01*
X316116Y163775D01*
X316077Y163698D01*
X316055Y163620D01*
X316038Y163548D01*
X316033Y163492D01*
X316027Y163470D01*
Y163453D01*
Y163448D01*
Y163442D01*
X316038Y163320D01*
X316060Y163215D01*
X316093Y163126D01*
X316132Y163048D01*
X316177Y162993D01*
X316210Y162954D01*
X316232Y162926D01*
X316243Y162920D01*
X316332Y162865D01*
X316432Y162821D01*
X316532Y162793D01*
X316632Y162771D01*
X316715Y162759D01*
X316754Y162754D01*
X316787D01*
X316815Y162749D01*
X317265D01*
Y164092D01*
D02*
G37*
G36*
X348056Y292386D02*
X347534D01*
X347473Y292380D01*
X347418Y292375D01*
X347373Y292369D01*
X347335Y292358D01*
X347307Y292353D01*
X347290Y292347D01*
X347285D01*
X347240Y292331D01*
X347201Y292314D01*
X347162Y292297D01*
X347135Y292281D01*
X347112Y292264D01*
X347096Y292253D01*
X347090Y292247D01*
X347085Y292242D01*
X347035Y292192D01*
X347002Y292142D01*
X346990Y292125D01*
X346985Y292108D01*
X346979Y292097D01*
Y292092D01*
X346957Y292025D01*
X346952Y291970D01*
X346946Y291942D01*
Y291925D01*
Y291914D01*
Y291909D01*
X346952Y291814D01*
X346963Y291770D01*
X346968Y291737D01*
X346979Y291703D01*
X346990Y291681D01*
X346996Y291670D01*
Y291665D01*
X347040Y291598D01*
X347085Y291542D01*
X347118Y291509D01*
X347129Y291504D01*
X347135Y291498D01*
X347207Y291454D01*
X347273Y291426D01*
X347301Y291415D01*
X347323Y291404D01*
X347340Y291398D01*
X347346D01*
X347440Y291381D01*
X347484Y291376D01*
X347529D01*
X347562Y291370D01*
X348056D01*
Y292386D01*
D02*
G37*
G36*
Y290999D02*
X347540D01*
X347479Y290993D01*
X347423Y290987D01*
X347373Y290982D01*
X347335Y290971D01*
X347307Y290965D01*
X347285Y290960D01*
X347279D01*
X347179Y290926D01*
X347140Y290910D01*
X347101Y290887D01*
X347074Y290876D01*
X347052Y290860D01*
X347040Y290854D01*
X347035Y290849D01*
X346968Y290793D01*
X346924Y290743D01*
X346907Y290716D01*
X346896Y290699D01*
X346885Y290688D01*
Y290682D01*
X346852Y290604D01*
X346835Y290532D01*
X346829Y290505D01*
Y290482D01*
Y290466D01*
Y290460D01*
X346835Y290355D01*
X346857Y290266D01*
X346890Y290188D01*
X346924Y290127D01*
X346957Y290077D01*
X346990Y290044D01*
X347013Y290022D01*
X347018Y290016D01*
X347096Y289972D01*
X347185Y289938D01*
X347279Y289911D01*
X347373Y289894D01*
X347457Y289883D01*
X347495D01*
X347529Y289877D01*
X348056D01*
Y290999D01*
D02*
G37*
G36*
X344687Y292353D02*
X344132Y290610D01*
X345242D01*
X344687Y292353D01*
D02*
G37*
%LPD*%
D17*
X285500Y287500D02*
Y302500D01*
Y252500D02*
X335500D01*
X285500D02*
Y267500D01*
X335500Y287500D02*
Y302500D01*
Y252500D02*
Y267500D01*
M02*
