M48
;Layer_Color=9474304
;FILE_FORMAT=2:5
INCH,LZ
;TYPE=PLATED
T1F00S00C0.01181
T2F00S00C0.03504
T3F00S00C0.03937
T4F00S00C0.04000
T5F00S00C0.07874
T6F00S00C0.07913
T7F00S00C0.11811
T8F00S00C0.12500
;TYPE=NON_PLATED
T9F00S00C0.03543
T10F00S00C0.04331
T11F00S00C0.06299
T12F00S00C0.10827
T13F00S00C0.12500
%
T01
X03855Y00265
X0393
X04005
X0408
X040425Y0034
X039675
X038925
X0393Y00415
X04005
X0408
X04155
X0423
X0453
X04605
X043425Y0019
X04305Y00115
X03855Y00415
X0378
X03705
X0363
X03555
X035175Y0034
X03555Y00265
X0333
X03255
X0318
X03105
X0303
X02955
X0288
X02805
X0273
X02655
X0258
X02505
X0243
X02355
X0228
Y00415
X0243
X02505
X0273
X02955
X0303
X03105
X0318
X03255
X0333
X03405Y00115
X038175Y0034
X0379052Y0055
X02205Y00415
X0213
X02055
X0198
X01905
X0183
X01755
X0168
X01605
X016425Y0049
X017175
X01755Y00565
X0168
X01605
X0153
X015675Y0049
Y0034
X016425
X017175
X017925
X018675
Y0019
X019425
X020175
X02055Y00265
X0213
X02205
X0198
Y00115
X02055
X01905
X0183
X017175Y0019
X016425
X015675
X014925
X014175
X013425
X012675
X01305Y00265
X0138
X01455
X0153
X01605
X0168
X01755
X01605Y00115
X0138
X014175Y0034
X014925
X013425
X012675
X0123Y00415
X012675Y0049
X013425
X014175
X0123Y00565
X011175Y0049
X010425
X0108Y00415
X01005
X010425Y0034
X011175
X0108Y00265
X01005
X010425Y0019
X009675
X0091Y0023
X00855Y00265
X0078
X008175Y0034
X007425
Y0049
X008175
X0083Y0054
X0093Y00565
X01005
X009675Y0034
X008175Y0019
X007425
X0123Y00265
X00705
X00605Y0027
X00555Y00265
X005925Y0034
X006675
X00705Y00415
X0063
X00555
X005925Y0049
X006675
X0063Y00565
X00555
X0068Y00095
X005925Y0064
X0063Y00715
X00705
X006675Y0079
X005925
X0063Y00865
X00705
X006675Y0094
X005925
X0063Y01015
X00555
X005925Y0109
X006675
X0063Y01165
X00555
X005925Y0124
X006675
Y0139
X00555Y01465
X005726Y0149687
X00525Y015
X004425Y0154
X003675
X002925
X0033Y01615
X00335Y01695
X0031
X00285
Y0172
Y01745
Y0177
Y01795
X00335Y01845
X0036
X00385
X0041
X0051Y0187
X00535
X0056
X00585
X005756Y019884
X005206Y019984
X006606Y019834
X006926Y0192687
X0070123Y0209311
X005706Y021334
X00465Y02135
X00375Y0195
X00385Y01695
X0036
X004176Y0167687
X005226Y0168187
X005676
X005976
X006476
X00685Y01695
X00705Y01615
X00555Y00865
Y00715
X0078
X00855
X0093
X01005
X010425Y0079
X01005Y00865
X0093
X00855
X0082826Y0089005
X0078Y00865
X008175Y0079
X008925
Y0064
X009675
X010425
X008175
X007425Y0079
X0087019Y0092198
X0087519Y0096198
X0094519Y0103198
X009675Y0109
X0101519Y0116198
X010425Y0124
X0103019Y0134698
X010425Y0139
X011175
X011925
X012675
X01305Y01465
X0138
X0123
X01155
X0108
X01005
X0093
X009675Y0139
X0097019Y0134698
X008925Y0139
X00855Y01315
X0078
X007425Y0139
X0078Y01465
X00725Y01495
X00735Y01695
X0076
X0071
X008113Y01805
X0084Y0183
X0085123Y019431
X0092624
X009726Y0200187
X0088873Y0201811
X009176Y0214687
X010226Y0211187
X0115123Y0209311
X0122624
X012226Y0201187
X0115123Y019431
X011726Y0189187
X0107624Y019431
X0148278Y0207
X0181Y020884
X019Y0182
X0185Y0171
X01755Y01315
X0168
X01605
X0153
X015675Y0124
X016425
X017175
X01755Y01165
X0168
X01605
X0153
X01455
X014925Y0124
Y0109
X015675
X016425
X017175
X01755Y01015
X0168
X01605
X0153
X01455
X014925Y0094
X015675
X016425
X017175
X01755Y00865
X0168
X01605
X0153
X01455
X014925Y0079
X015675
X016425
X017175
X01755Y00715
X0168
X01605
X0153
X015675Y0064
X016425
X017175
X014175
X0138Y00715
X01305
X01335Y0074621
X0123Y00715
X012675Y0094
X014175
Y0109
X012675
Y0124
X0123Y01315
X01155
X008925Y0124
X0115019Y0090198
X02237Y00935
X0223972Y00857
X02245Y0115
X0244528
X02505Y0116
X0264228Y01148
X0263648Y013
X0268Y0128988
X0254Y0129
X0251Y0131
X02495Y0158
X026Y0156
X02645Y0155
X0268028Y0148423
X0258Y0162
X0254Y0166
X0252847Y00995
X02485Y01
X0233Y0098
X023Y0086
X0244Y00857
X02539Y0086404
X02637Y00855
X0271Y0092797
X0281Y0098
X02885
X02835Y00855
X0303442Y0079255
X030397Y0108144
X0306Y0106114
X0284028Y01148
X03307Y01333
X0327Y0137
X0318Y0149223
X03655
X03605Y01628
X0358
X03775Y01585
X0366713Y0129646
X0361952Y01325
X03484Y0117654
X03535Y0112
X03624Y0059654
X0342Y0176
X0346Y0181
X03845Y0163
X0398452Y01405
X0397952Y01265
Y0124
Y01215
Y0119
Y01165
Y0114
X0400452
X0402952
X0405452
X0407952
X0410452
X041175Y0109
X041925
X042675
X043425
X0438Y01165
X04305
X0423
X04155
X041925Y0124
X042675
X043425
X0437552Y01396
X0437577Y0148423
X0420669Y0142169
X041175Y0124
X040425
Y0109
X039675
X0390452
Y01115
X0387952
X0385452
Y0109
Y01065
X0387952
X0390452
Y0104
Y01015
X0387952
X0385452
Y0099
X0390452
X0385452Y0104
Y0114
Y01165
X0387952
X0390452
Y0119
Y0114
X0385452Y0119
X04005Y01015
X0400452Y00965
X0402952
X0405452
X0407952
X0410452
X0412952
X0415452
X0417952
X0420452
X0422952
X0425452
X0427952
X0430452
X04305Y01015
X0438
X0423
X04155
X0408
X0400452Y0094
Y00915
X0397937
X039675Y0094
X0396Y00825
Y00805
Y0078
Y0076
X03985
Y0078
Y00805
Y00825
X0391
Y00805
Y0078
Y0076
X03885
Y0078
Y00805
Y00825
X0385745Y0064244
X0384283Y0059559
X0405952Y0069989
X041925Y0094
X0448452Y0083
X0432Y0175
X0435452Y01785
X0432Y0183
X04365Y0191
X0457Y0193
X0456Y01965
X0399Y0207
X039995Y024555
X0422Y0246
X0423Y02375
X0424Y0228
X04364Y02271
X0437Y0224
X0443Y02185
X045548Y0218579
X0467076Y0220524
X04665Y02238
X04635Y02415
X0453Y02325
X04485Y02315
X04425Y0231
X04249Y02649
X04006Y02767
X045Y0278
X0375822Y0262854
X0382023Y0253877
X034
Y025123
Y0256724
Y02596
X03325Y0281771
X03425Y0303
X03105Y0261
X03Y02595
X02985Y0272014
X0294368Y0272024
X029076Y0272014
X02865Y02645
Y026181
X0277609Y0253
X027076Y0259032
X0256354Y0261276
X026276Y0269467
X02415Y0267
X0235Y0266
X0232618Y0269
X02325Y0256939
X02315Y0244579
X02345Y0233
X02535Y02415
X0261652Y0241
X0247741Y0251
X0235177Y0279587
X0257427Y0304074
X0267104Y0298
X0287221Y0238066
X0302Y0238193
X0307503Y0237
X0225Y0244
X02249Y0256939
X02265Y0279587
X02185
X0208846Y0283614
X019Y0283429
X0185484Y0271878
X0177Y0253
X0181Y0242691
X0187903Y0239969
X02045Y0249777
X0162646Y0246694
X0162Y02387
X0145Y02225
X0122624Y022431
X01185Y02235
X011Y0223
X010776Y0228687
X01075Y024
X0100124Y0239311
X009726Y0235687
X0092624Y0239311
X0096373Y0246811
X0103874
X0107624Y025431
X0115123
X0122624
X0126374Y026181
X0118874
X0111373
X0115123Y026931
X0122624
X0126374Y0276811
X0118874
X0111373
X0115123Y0284311
X0122624
X0126374Y029181
X0111373
X0103874
X0107624Y029931
Y0284311
Y026931
X0100124Y025431
X0092624
X0085123
X0077623
X007156Y025334
X0073874Y026181
X0081374
X00895Y02645
X0077623Y026931
X007706Y023084
X0073874Y023181
X007776Y0223687
X0073874Y021681
X009176Y0228187
X0088873Y023181
X010026Y0223187
X0118874Y0246811
X0126374
X0092624Y029931
X0070123
X0062624
X0055124
X0047624
X0040124
X0051373Y029181
X0058873
X0066373
X0062624Y0284311
X0055124
X0051373Y0276811
X0047624Y026931
X0040124
X0043874Y026181
X006856Y025534
X007076Y022804
X006732Y022658
X006756Y022284
X006676Y0219187
X005006Y023434
X003206Y023384
X003256Y022234
Y021834
T02
X00895Y0278
X00995
T03
X0256689Y0044819
X0267595
X02785
X0289405
X0294858Y0056
X0283953
X0273047
X0262142
X0251236
T04
X02305Y0218032
Y0228031
X02405
Y0218032
X02505
Y0228031
X02605
Y0218032
X02705
Y0228031
X02805
Y0218032
X02905
Y0228031
X03005
Y0218032
X03105
Y0228031
X03205
Y0218032
X03305
Y0228031
X03405
Y0218032
X03505
Y0228031
X03605
X03705
Y0218032
X03605
X02205
X02105
X02005
X01905
X01805
Y0228031
X01905
X02005
X02105
X02205
T05
X0393952Y0005039
T06
X00795Y0298
X01195
T07
X032224Y0050409
X0223854
T08
X0043Y00426
X0435Y02847
T09
X044538Y0242079
X046538Y0246079
Y0238079
X012826Y0238187
Y0230187
X010826Y0234187
T10
X0263043Y0318016
X0185484
T11
X0076Y0014
Y0041559
X01335
Y0014
T12
X0389634Y0224449
Y0315
X0161287
Y0224449
T13
X04349Y00427
X0043Y02847
M30
