G04*
G04 #@! TF.GenerationSoftware,Altium Limited,Altium Designer,19.0.8 (182)*
G04*
G04 Layer_Physical_Order=2*
G04 Layer_Color=16711680*
%FSLAX25Y25*%
%MOIN*%
G70*
G01*
G75*
%ADD10C,0.00600*%
%ADD15C,0.02000*%
%ADD17C,0.01000*%
%ADD18C,0.00800*%
%ADD113O,0.05118X0.06299*%
%ADD117C,0.03347*%
%ADD124C,0.02500*%
%ADD125C,0.05000*%
%ADD128P,0.06392X8X202.5*%
%ADD129P,0.14915X8X202.5*%
%ADD130P,0.09633X8X22.5*%
%ADD131C,0.04500*%
%ADD132C,0.02400*%
%ADD133C,0.02000*%
%ADD134C,0.03504*%
%ADD135R,0.16000X0.16000*%
G36*
X438573Y309507D02*
X438580Y309449D01*
X438575Y309391D01*
X438612Y308240D01*
X438641Y308068D01*
Y307894D01*
X438941Y305611D01*
X439001Y305388D01*
X439031Y305158D01*
X439627Y302934D01*
X439716Y302720D01*
X439776Y302497D01*
X440657Y300369D01*
X440773Y300169D01*
X440861Y299955D01*
X442013Y297961D01*
X442153Y297777D01*
X442269Y297577D01*
X443671Y295750D01*
X443835Y295586D01*
X443975Y295403D01*
X445604Y293775D01*
X445787Y293634D01*
X445951Y293470D01*
X447778Y292068D01*
X447978Y291953D01*
X448162Y291812D01*
X450156Y290660D01*
X450370Y290572D01*
X450570Y290456D01*
X452698Y289575D01*
X452921Y289515D01*
X453135Y289426D01*
X455359Y288830D01*
X455589Y288800D01*
X455812Y288740D01*
X458095Y288440D01*
X458269D01*
X458440Y288411D01*
X459592Y288374D01*
X459650Y288380D01*
X459707Y288372D01*
X474171D01*
Y39141D01*
X459707D01*
X459650Y39134D01*
X459592Y39139D01*
X458440Y39101D01*
X458269Y39073D01*
X458095D01*
X455812Y38773D01*
X455589Y38713D01*
X455359Y38682D01*
X453135Y38087D01*
X452921Y37998D01*
X452698Y37938D01*
X450570Y37057D01*
X450370Y36941D01*
X450156Y36853D01*
X448162Y35701D01*
X447978Y35560D01*
X447778Y35445D01*
X445951Y34043D01*
X445787Y33879D01*
X445604Y33738D01*
X443975Y32110D01*
X443835Y31927D01*
X443671Y31763D01*
X442269Y29936D01*
X442153Y29736D01*
X442013Y29552D01*
X440861Y27558D01*
X440773Y27344D01*
X440657Y27144D01*
X439776Y25016D01*
X439716Y24793D01*
X439627Y24579D01*
X439031Y22355D01*
X439001Y22125D01*
X438941Y21902D01*
X438641Y19619D01*
Y19445D01*
X438612Y19273D01*
X438575Y18122D01*
X438580Y18064D01*
X438573Y18007D01*
Y3543D01*
X398723Y3538D01*
X398397Y4038D01*
X398528Y5039D01*
X398373Y6224D01*
X397915Y7327D01*
X397188Y8275D01*
X396240Y9002D01*
X395137Y9460D01*
X393952Y9616D01*
X392768Y9460D01*
X391664Y9002D01*
X390716Y8275D01*
X389989Y7327D01*
X389532Y6224D01*
X389376Y5039D01*
X389508Y4037D01*
X389182Y3537D01*
X336884Y3531D01*
X336530Y3884D01*
Y21500D01*
X336410Y22414D01*
X336057Y23265D01*
X335496Y23996D01*
X334765Y24557D01*
X333914Y24910D01*
X333000Y25030D01*
X211500D01*
X210586Y24910D01*
X209735Y24557D01*
X209004Y23996D01*
X208443Y23265D01*
X208090Y22414D01*
X207970Y21500D01*
Y3884D01*
X207616Y3530D01*
X165908Y3534D01*
X165701Y4034D01*
X173594Y11927D01*
X174000Y11873D01*
X174809Y11980D01*
X175563Y12292D01*
X176211Y12789D01*
X195295Y31873D01*
X341373D01*
Y20500D01*
X341373Y20500D01*
X341480Y19691D01*
X341792Y18937D01*
X342289Y18289D01*
X347789Y12789D01*
X347789Y12789D01*
X348437Y12292D01*
X349191Y11980D01*
X350000Y11873D01*
X420423D01*
X420423Y11873D01*
X420827Y11926D01*
X421232Y11980D01*
X421986Y12292D01*
X422634Y12789D01*
X446461Y36616D01*
X446461Y36616D01*
X446958Y37264D01*
X447033Y37445D01*
X468711Y59123D01*
X468711Y59123D01*
X469208Y59771D01*
X469520Y60525D01*
X469627Y61334D01*
Y83500D01*
X469520Y84309D01*
X469208Y85063D01*
X468711Y85711D01*
X468063Y86208D01*
X467309Y86520D01*
X466500Y86627D01*
X448452D01*
X447643Y86520D01*
X446889Y86208D01*
X446241Y85711D01*
X445744Y85063D01*
X445432Y84309D01*
X445326Y83500D01*
X445432Y82691D01*
X445744Y81937D01*
X446241Y81289D01*
X446889Y80792D01*
X447643Y80480D01*
X448452Y80373D01*
X463373D01*
Y62629D01*
X454276Y53531D01*
X450883Y56924D01*
X450898Y57000D01*
X450715Y57918D01*
X450196Y58696D01*
X449418Y59215D01*
X448500Y59398D01*
X447582Y59215D01*
X446804Y58696D01*
X446284Y57918D01*
X446102Y57000D01*
X446284Y56082D01*
X446804Y55304D01*
X447582Y54785D01*
X448500Y54602D01*
X448576Y54617D01*
X451968Y51224D01*
X442159Y41415D01*
X441678Y41630D01*
X441783Y42700D01*
X441651Y44043D01*
X441259Y45334D01*
X440623Y46524D01*
X439767Y47567D01*
X438724Y48423D01*
X437534Y49059D01*
X436243Y49451D01*
X434900Y49583D01*
X433557Y49451D01*
X432266Y49059D01*
X431076Y48423D01*
X430033Y47567D01*
X429177Y46524D01*
X428541Y45334D01*
X428149Y44043D01*
X428017Y42700D01*
X428149Y41357D01*
X428541Y40066D01*
X429177Y38876D01*
X430033Y37833D01*
X431076Y36977D01*
X432266Y36341D01*
X433557Y35949D01*
X434900Y35817D01*
X436243Y35949D01*
X436273Y35958D01*
X436531Y35530D01*
X419128Y18127D01*
X351295D01*
X347627Y21795D01*
Y35000D01*
Y67614D01*
X347520Y68423D01*
X347208Y69177D01*
X346711Y69825D01*
X346711Y69825D01*
X334711Y81825D01*
X308211Y108325D01*
X308211Y108325D01*
X306181Y110355D01*
X305533Y110852D01*
X304779Y111164D01*
X303970Y111271D01*
X303161Y111164D01*
X302407Y110852D01*
X301759Y110355D01*
X301262Y109707D01*
X300950Y108953D01*
X300843Y108144D01*
X300950Y107335D01*
X301262Y106581D01*
X301759Y105933D01*
X303789Y103903D01*
X303789Y103903D01*
X324848Y82844D01*
X324657Y82382D01*
X303442D01*
X302633Y82275D01*
X301879Y81963D01*
X301232Y81466D01*
X300735Y80819D01*
X300422Y80064D01*
X300316Y79255D01*
X300422Y78446D01*
X300735Y77692D01*
X301232Y77044D01*
X301879Y76547D01*
X302633Y76235D01*
X303442Y76129D01*
X331563D01*
X341373Y66319D01*
Y38127D01*
X239127D01*
Y40040D01*
X251534Y52447D01*
X253013D01*
X254789Y54224D01*
Y57776D01*
X253013Y59553D01*
X249460D01*
X247684Y57776D01*
Y57441D01*
X233789Y43546D01*
X233292Y42899D01*
X232980Y42145D01*
X232873Y41335D01*
X232873Y41335D01*
Y38127D01*
X194000D01*
X193191Y38020D01*
X192437Y37708D01*
X191789Y37211D01*
X171789Y17211D01*
X171292Y16563D01*
X170980Y15809D01*
X170873Y15000D01*
X170927Y14594D01*
X163219Y6886D01*
X130281D01*
X119386Y17781D01*
Y79217D01*
X119243Y79939D01*
X118834Y80551D01*
X103405Y95979D01*
Y116198D01*
X103262Y116920D01*
X102853Y117532D01*
X102241Y117941D01*
X101519Y118084D01*
X100797Y117941D01*
X100185Y117532D01*
X99777Y116920D01*
X99633Y116198D01*
Y95198D01*
X99777Y94476D01*
X100185Y93864D01*
X115614Y78436D01*
Y17000D01*
X115757Y16278D01*
X116166Y15666D01*
X127796Y4036D01*
X127589Y3536D01*
X39342Y3543D01*
Y18007D01*
X39334Y18064D01*
X39340Y18122D01*
X39302Y19273D01*
X39274Y19445D01*
Y19619D01*
X38973Y21902D01*
X38914Y22125D01*
X38883Y22355D01*
X38287Y24579D01*
X38199Y24793D01*
X38139Y25016D01*
X37258Y27144D01*
X37142Y27344D01*
X37053Y27558D01*
X35902Y29552D01*
X35761Y29736D01*
X35645Y29936D01*
X34244Y31763D01*
X34080Y31927D01*
X33939Y32110D01*
X32311Y33738D01*
X32127Y33879D01*
X31964Y34043D01*
X30137Y35445D01*
X29936Y35560D01*
X29753Y35701D01*
X27759Y36853D01*
X27545Y36941D01*
X27344Y37057D01*
X25217Y37938D01*
X24994Y37998D01*
X24780Y38087D01*
X22555Y38682D01*
X22326Y38713D01*
X22103Y38773D01*
X19819Y39073D01*
X19646D01*
X19474Y39101D01*
X18323Y39139D01*
X18265Y39134D01*
X18207Y39141D01*
X3744D01*
Y288372D01*
X18207D01*
X18265Y288380D01*
X18323Y288374D01*
X19474Y288411D01*
X19646Y288440D01*
X19819D01*
X22103Y288740D01*
X22326Y288800D01*
X22555Y288830D01*
X24780Y289426D01*
X24994Y289515D01*
X25217Y289575D01*
X27344Y290456D01*
X27545Y290572D01*
X27759Y290660D01*
X29753Y291812D01*
X29936Y291953D01*
X30137Y292068D01*
X30465Y292320D01*
X30913Y292099D01*
Y235239D01*
X30762Y235138D01*
X30364Y234542D01*
X30225Y233840D01*
X30364Y233138D01*
X30762Y232542D01*
X30913Y232441D01*
Y223116D01*
X30864Y223042D01*
X30725Y222340D01*
X30864Y221638D01*
X30913Y221565D01*
Y219116D01*
X30864Y219042D01*
X30725Y218340D01*
X30864Y217638D01*
X30913Y217565D01*
Y172000D01*
X31104Y171541D01*
X31563Y171351D01*
X131563Y171351D01*
X132022Y171541D01*
X132212Y172000D01*
X132212Y240577D01*
Y323970D01*
X152067D01*
X152258Y323508D01*
X150000Y321250D01*
Y308750D01*
X155000Y303750D01*
X167500D01*
X172500Y308750D01*
Y321250D01*
X170242Y323508D01*
X170433Y323970D01*
X380567D01*
X380758Y323508D01*
X378500Y321250D01*
Y308750D01*
X383500Y303750D01*
X396000D01*
X401000Y308750D01*
Y321250D01*
X398742Y323508D01*
X398933Y323970D01*
X438573D01*
Y309507D01*
D02*
G37*
G36*
X131563Y240577D02*
X131563Y172000D01*
X31563Y172000D01*
X31563Y293162D01*
X31964Y293470D01*
X32127Y293634D01*
X32311Y293775D01*
X33939Y295403D01*
X34080Y295586D01*
X34244Y295750D01*
X35645Y297577D01*
X35761Y297777D01*
X35902Y297961D01*
X37053Y299955D01*
X37142Y300169D01*
X37258Y300369D01*
X38139Y302497D01*
X38199Y302720D01*
X38287Y302934D01*
X38883Y305158D01*
X38914Y305388D01*
X38973Y305611D01*
X39274Y307894D01*
Y308068D01*
X39302Y308240D01*
X39340Y309391D01*
X39334Y309449D01*
X39342Y309507D01*
Y323970D01*
X131563D01*
Y240577D01*
D02*
G37*
%LPC*%
G36*
X263043Y320805D02*
X262321Y320710D01*
X261649Y320431D01*
X261071Y319988D01*
X260628Y319410D01*
X260349Y318738D01*
X260254Y318016D01*
X260349Y317294D01*
X260628Y316621D01*
X261071Y316043D01*
X261649Y315600D01*
X262321Y315322D01*
X263043Y315227D01*
X263765Y315322D01*
X264438Y315600D01*
X265016Y316043D01*
X265459Y316621D01*
X265738Y317294D01*
X265832Y318016D01*
X265738Y318738D01*
X265459Y319410D01*
X265016Y319988D01*
X264438Y320431D01*
X263765Y320710D01*
X263043Y320805D01*
D02*
G37*
G36*
X185484D02*
X184762Y320710D01*
X184090Y320431D01*
X183512Y319988D01*
X183069Y319410D01*
X182790Y318738D01*
X182695Y318016D01*
X182790Y317294D01*
X183069Y316621D01*
X183512Y316043D01*
X184090Y315600D01*
X184762Y315322D01*
X185484Y315227D01*
X186206Y315322D01*
X186879Y315600D01*
X187457Y316043D01*
X187900Y316621D01*
X188178Y317294D01*
X188274Y318016D01*
X188178Y318738D01*
X187900Y319410D01*
X187457Y319988D01*
X186879Y320431D01*
X186206Y320710D01*
X185484Y320805D01*
D02*
G37*
G36*
X257427Y305909D02*
X256725Y305770D01*
X256130Y305372D01*
X255732Y304776D01*
X255592Y304074D01*
X255732Y303372D01*
X256130Y302776D01*
X256725Y302379D01*
X257427Y302239D01*
X257635Y302280D01*
X262708Y297207D01*
X262708Y297207D01*
X263072Y296964D01*
X263501Y296878D01*
X263501Y296879D01*
X265689D01*
X265807Y296702D01*
X266402Y296304D01*
X267104Y296165D01*
X267807Y296304D01*
X268402Y296702D01*
X268800Y297298D01*
X268940Y298000D01*
X268800Y298702D01*
X268402Y299298D01*
X267807Y299696D01*
X267104Y299835D01*
X266402Y299696D01*
X265807Y299298D01*
X265689Y299121D01*
X263966D01*
X259221Y303866D01*
X259263Y304074D01*
X259123Y304776D01*
X258725Y305372D01*
X258130Y305770D01*
X257427Y305909D01*
D02*
G37*
G36*
X435800Y291906D02*
Y285500D01*
X442206D01*
X442145Y286121D01*
X441730Y287488D01*
X441057Y288747D01*
X440151Y289851D01*
X439047Y290757D01*
X437788Y291430D01*
X436421Y291845D01*
X435800Y291906D01*
D02*
G37*
G36*
X434200D02*
X433579Y291845D01*
X432212Y291430D01*
X430953Y290757D01*
X429849Y289851D01*
X428943Y288747D01*
X428269Y287488D01*
X427855Y286121D01*
X427794Y285500D01*
X434200D01*
Y291906D01*
D02*
G37*
G36*
X352600Y286100D02*
X335400D01*
Y282893D01*
X333915D01*
X333798Y283069D01*
X333202Y283467D01*
X332500Y283607D01*
X331798Y283467D01*
X331202Y283069D01*
X330804Y282474D01*
X330665Y281771D01*
X330804Y281069D01*
X331202Y280473D01*
X331798Y280076D01*
X332500Y279936D01*
X333202Y280076D01*
X333798Y280473D01*
X333915Y280650D01*
X335400D01*
Y270486D01*
X330035Y265122D01*
X293558D01*
X287886Y270793D01*
X287522Y271036D01*
X287093Y271122D01*
X287093Y271122D01*
X285600D01*
Y286100D01*
X268400D01*
Y268900D01*
X284392D01*
X284500Y268879D01*
X286629D01*
X292300Y263207D01*
X292300Y263207D01*
X292664Y262964D01*
X293093Y262878D01*
X293093Y262878D01*
X330500D01*
X330500Y262878D01*
X330929Y262964D01*
X331293Y263207D01*
X336986Y268900D01*
X352600D01*
Y286100D01*
D02*
G37*
G36*
X319500Y286500D02*
X311300D01*
Y278300D01*
X319500D01*
Y286500D01*
D02*
G37*
G36*
X309700D02*
X301500D01*
Y278300D01*
X309700D01*
Y286500D01*
D02*
G37*
G36*
X442206Y283900D02*
X435800D01*
Y277494D01*
X436421Y277555D01*
X437788Y277970D01*
X439047Y278643D01*
X440151Y279549D01*
X441057Y280653D01*
X441730Y281912D01*
X442145Y283279D01*
X442206Y283900D01*
D02*
G37*
G36*
X434200D02*
X427794D01*
X427855Y283279D01*
X428269Y281912D01*
X428943Y280653D01*
X429849Y279549D01*
X430953Y278643D01*
X432212Y277970D01*
X433579Y277555D01*
X434200Y277494D01*
Y283900D01*
D02*
G37*
G36*
X450000Y279835D02*
X449298Y279696D01*
X448702Y279298D01*
X448304Y278702D01*
X448165Y278000D01*
X448254Y277552D01*
X447851Y277149D01*
X447652Y276851D01*
X447582Y276500D01*
Y269215D01*
X447582Y269215D01*
X446804Y268696D01*
X446284Y267918D01*
X446102Y267000D01*
X446284Y266082D01*
X446804Y265304D01*
X447582Y264785D01*
X448500Y264602D01*
X449418Y264785D01*
X450196Y265304D01*
X450715Y266082D01*
X450898Y267000D01*
X450715Y267918D01*
X450196Y268696D01*
X449418Y269215D01*
X449418Y269215D01*
Y275788D01*
X449890Y276187D01*
X450000Y276165D01*
X450702Y276304D01*
X451298Y276702D01*
X451696Y277298D01*
X451835Y278000D01*
X451696Y278702D01*
X451298Y279298D01*
X450702Y279696D01*
X450000Y279835D01*
D02*
G37*
G36*
X319500Y276700D02*
X311300D01*
Y268500D01*
X319500D01*
Y276700D01*
D02*
G37*
G36*
X309700D02*
X301500D01*
Y268500D01*
X309700D01*
Y276700D01*
D02*
G37*
G36*
X459300Y259647D02*
Y257800D01*
X461147D01*
X460904Y258388D01*
X460463Y258963D01*
X459888Y259404D01*
X459300Y259647D01*
D02*
G37*
G36*
X457700D02*
X457112Y259404D01*
X456537Y258963D01*
X456096Y258388D01*
X455853Y257800D01*
X457700D01*
Y259647D01*
D02*
G37*
G36*
X461147Y256200D02*
X459300D01*
Y254353D01*
X459888Y254596D01*
X460463Y255037D01*
X460904Y255612D01*
X461147Y256200D01*
D02*
G37*
G36*
X457700D02*
X455853D01*
X456096Y255612D01*
X456537Y255037D01*
X457112Y254596D01*
X457700Y254353D01*
Y256200D01*
D02*
G37*
G36*
X232618Y270835D02*
X231915Y270696D01*
X231320Y270298D01*
X230922Y269702D01*
X230783Y269000D01*
X230922Y268298D01*
X231320Y267702D01*
X231496Y267585D01*
Y260795D01*
X231496Y260795D01*
X231581Y260366D01*
X231825Y260002D01*
X233679Y258148D01*
Y256451D01*
X232988Y255760D01*
X230123D01*
X229694Y255675D01*
X229330Y255432D01*
X229330Y255432D01*
X219707Y245809D01*
X219464Y245445D01*
X219378Y245015D01*
X219378Y245015D01*
Y238622D01*
X219378Y238622D01*
X219464Y238193D01*
X219707Y237829D01*
X227618Y229918D01*
X227422Y229447D01*
X227314Y228622D01*
Y227441D01*
X227422Y226616D01*
X227741Y225848D01*
X228247Y225188D01*
X228907Y224681D01*
X229675Y224363D01*
X230500Y224255D01*
X231325Y224363D01*
X232093Y224681D01*
X232753Y225188D01*
X232878Y225351D01*
X233379Y225182D01*
Y220881D01*
X232878Y220712D01*
X232753Y220875D01*
X232093Y221381D01*
X231325Y221700D01*
X230500Y221808D01*
X229675Y221700D01*
X228907Y221381D01*
X228247Y220875D01*
X227741Y220215D01*
X227422Y219447D01*
X227314Y218622D01*
Y217441D01*
X227422Y216616D01*
X227618Y216145D01*
X215595Y204122D01*
X145500D01*
X145500Y204122D01*
X145071Y204036D01*
X144707Y203793D01*
X135107Y194193D01*
X134864Y193829D01*
X134778Y193400D01*
X134778Y193400D01*
Y166365D01*
X125535Y157122D01*
X75747D01*
X75747Y157122D01*
X75318Y157036D01*
X74954Y156793D01*
X74954Y156793D01*
X69407Y151246D01*
X69164Y150882D01*
X69078Y150453D01*
X69078Y150453D01*
Y101631D01*
X69078Y101631D01*
X69164Y101202D01*
X69407Y100838D01*
X81032Y89213D01*
X80991Y89005D01*
X81130Y88303D01*
X81528Y87707D01*
X82124Y87309D01*
X82826Y87170D01*
X83528Y87309D01*
X84124Y87707D01*
X84522Y88303D01*
X84661Y89005D01*
X84604Y89292D01*
X84655Y89369D01*
X84741Y89798D01*
X84655Y90227D01*
X84412Y90591D01*
X84048Y90834D01*
X83619Y90920D01*
X83190Y90834D01*
X83113Y90783D01*
X82826Y90840D01*
X82618Y90799D01*
X71322Y102096D01*
Y149988D01*
X76212Y154878D01*
X92341D01*
X92533Y154417D01*
X81805Y143688D01*
X81561Y143324D01*
X81476Y142895D01*
X81476Y142895D01*
Y96620D01*
X81476Y96620D01*
X81561Y96190D01*
X81805Y95827D01*
X85225Y92406D01*
X85184Y92198D01*
X85324Y91496D01*
X85721Y90900D01*
X86317Y90503D01*
X87019Y90363D01*
X87722Y90503D01*
X88317Y90900D01*
X88715Y91496D01*
X88854Y92198D01*
X88715Y92900D01*
X88317Y93496D01*
X87722Y93894D01*
X87019Y94033D01*
X86811Y93992D01*
X83719Y97084D01*
Y142431D01*
X94288Y153000D01*
X126621D01*
X126622Y153000D01*
X127051Y153085D01*
X127415Y153329D01*
X138293Y164207D01*
X138293Y164207D01*
X138536Y164571D01*
X138622Y165000D01*
X138622Y165000D01*
Y192035D01*
X146233Y199647D01*
X222346D01*
X222346Y199647D01*
X222775Y199732D01*
X223139Y199975D01*
X235293Y212129D01*
X235293Y212129D01*
X235536Y212493D01*
X235622Y212922D01*
Y231585D01*
X235798Y231702D01*
X236196Y232298D01*
X236335Y233000D01*
X236225Y233552D01*
X236528Y234019D01*
X236860Y234054D01*
X239031Y231883D01*
X238956Y231506D01*
X238861Y231346D01*
X238247Y230875D01*
X237741Y230215D01*
X237422Y229447D01*
X237314Y228622D01*
Y227441D01*
X237422Y226616D01*
X237741Y225848D01*
X238247Y225188D01*
X238907Y224681D01*
X239675Y224363D01*
X240500Y224255D01*
X241325Y224363D01*
X242093Y224681D01*
X242753Y225188D01*
X243259Y225848D01*
X243578Y226616D01*
X243610Y226863D01*
X244138Y227042D01*
X248964Y222217D01*
Y221405D01*
X248907Y221381D01*
X248247Y220875D01*
X247741Y220215D01*
X247422Y219447D01*
X247314Y218622D01*
Y217441D01*
X247422Y216616D01*
X247741Y215848D01*
X248247Y215188D01*
X248907Y214682D01*
X249675Y214363D01*
X250500Y214255D01*
X251325Y214363D01*
X252093Y214682D01*
X252753Y215188D01*
X253259Y215848D01*
X253578Y216616D01*
X253686Y217441D01*
Y218622D01*
X253578Y219447D01*
X253259Y220215D01*
X252753Y220875D01*
X252093Y221381D01*
X251325Y221700D01*
X251207Y221715D01*
Y222681D01*
X251207Y222681D01*
X251121Y223110D01*
X250878Y223474D01*
X250878Y223474D01*
X250590Y223762D01*
X250769Y224290D01*
X251325Y224363D01*
X252093Y224681D01*
X252753Y225188D01*
X253259Y225848D01*
X253578Y226616D01*
X253686Y227441D01*
Y228622D01*
X253578Y229447D01*
X253259Y230215D01*
X252753Y230875D01*
X252093Y231382D01*
X251325Y231700D01*
X250500Y231808D01*
X249675Y231700D01*
X249352Y231566D01*
X233246Y247672D01*
X232882Y247915D01*
X232453Y248000D01*
X232453Y248000D01*
X230433D01*
X230433Y248000D01*
X230003Y247915D01*
X229640Y247672D01*
X229640Y247672D01*
X227235Y245268D01*
X226318D01*
X226298Y245298D01*
X225723Y245682D01*
X225656Y245741D01*
X225547Y246214D01*
X231212Y251878D01*
X234076D01*
X234076Y251878D01*
X234506Y251964D01*
X234870Y252207D01*
X237193Y254530D01*
X237193Y254530D01*
X237436Y254894D01*
X237522Y255324D01*
Y259276D01*
X237522Y259276D01*
X237436Y259705D01*
X237193Y260069D01*
X237193Y260069D01*
X236122Y261140D01*
Y264585D01*
X236298Y264702D01*
X236696Y265298D01*
X236835Y266000D01*
X236696Y266702D01*
X236298Y267298D01*
X235702Y267696D01*
X235000Y267835D01*
X234545Y267745D01*
X234244Y268195D01*
X234313Y268298D01*
X234453Y269000D01*
X234313Y269702D01*
X233915Y270298D01*
X233320Y270696D01*
X232618Y270835D01*
D02*
G37*
G36*
X277609Y254835D02*
X276907Y254696D01*
X276811Y254631D01*
X249741D01*
X249116Y254507D01*
X248587Y254153D01*
X247152Y252718D01*
X247038Y252696D01*
X246443Y252298D01*
X246045Y251702D01*
X245905Y251000D01*
X246045Y250298D01*
X246443Y249702D01*
X247038Y249304D01*
X247741Y249165D01*
X248443Y249304D01*
X249038Y249702D01*
X249436Y250298D01*
X249459Y250411D01*
X250416Y251369D01*
X276811D01*
X276907Y251304D01*
X277609Y251165D01*
X278312Y251304D01*
X278907Y251702D01*
X279305Y252298D01*
X279445Y253000D01*
X279305Y253702D01*
X278907Y254298D01*
X278312Y254696D01*
X277609Y254835D01*
D02*
G37*
G36*
X448500Y259398D02*
X447582Y259215D01*
X446804Y258696D01*
X446284Y257918D01*
X446102Y257000D01*
X446284Y256082D01*
X446804Y255304D01*
X447480Y254853D01*
Y244036D01*
X446980Y243862D01*
X446306Y244313D01*
X445380Y244497D01*
X444455Y244313D01*
X443918Y243954D01*
X443418Y244221D01*
Y253000D01*
X443348Y253351D01*
X443149Y253649D01*
X440716Y256082D01*
X440716Y256082D01*
X440898Y257000D01*
X440716Y257918D01*
X440196Y258696D01*
X439418Y259215D01*
X438500Y259398D01*
X437582Y259215D01*
X436804Y258696D01*
X436284Y257918D01*
X436102Y257000D01*
X436284Y256082D01*
X436804Y255304D01*
X437582Y254784D01*
X438500Y254602D01*
X439418Y254784D01*
X439418Y254784D01*
X441582Y252620D01*
Y237500D01*
X441652Y237149D01*
X441851Y236851D01*
X446754Y231948D01*
X446665Y231500D01*
X446804Y230798D01*
X447202Y230202D01*
X447798Y229804D01*
X448500Y229665D01*
X449202Y229804D01*
X449798Y230202D01*
X450196Y230798D01*
X450335Y231500D01*
X450196Y232202D01*
X449798Y232798D01*
X449202Y233196D01*
X448500Y233335D01*
X448052Y233246D01*
X443418Y237880D01*
Y239936D01*
X443918Y240204D01*
X444455Y239845D01*
X445380Y239661D01*
X446306Y239845D01*
X446980Y240296D01*
X447480Y240121D01*
Y237000D01*
X447558Y236610D01*
X447779Y236279D01*
X451230Y232828D01*
X451165Y232500D01*
X451304Y231798D01*
X451702Y231202D01*
X452298Y230804D01*
X453000Y230665D01*
X453702Y230804D01*
X454298Y231202D01*
X454696Y231798D01*
X454835Y232500D01*
X454696Y233202D01*
X454298Y233798D01*
X453702Y234196D01*
X453000Y234335D01*
X452672Y234270D01*
X449520Y237422D01*
Y254853D01*
X450196Y255304D01*
X450715Y256082D01*
X450898Y257000D01*
X450715Y257918D01*
X450196Y258696D01*
X449418Y259215D01*
X448500Y259398D01*
D02*
G37*
G36*
X465380Y248497D02*
X464455Y248313D01*
X463670Y247789D01*
X463146Y247004D01*
X462962Y246079D01*
X463146Y245153D01*
X463670Y244369D01*
X464455Y243845D01*
X465380Y243661D01*
X466306Y243845D01*
X467090Y244369D01*
X467614Y245153D01*
X467798Y246079D01*
X467614Y247004D01*
X467090Y247789D01*
X466306Y248313D01*
X465380Y248497D01*
D02*
G37*
G36*
X301203Y244422D02*
X301203Y244422D01*
X255518D01*
X255089Y244336D01*
X254725Y244093D01*
X254725Y244093D01*
X253890Y243258D01*
X253500Y243335D01*
X252798Y243196D01*
X252202Y242798D01*
X251804Y242202D01*
X251665Y241500D01*
X251804Y240798D01*
X252202Y240202D01*
X252798Y239804D01*
X253500Y239665D01*
X254202Y239804D01*
X254798Y240202D01*
X255196Y240798D01*
X255335Y241500D01*
X255330Y241526D01*
X255983Y242179D01*
X259699D01*
X259957Y241767D01*
X259951Y241679D01*
X259816Y241000D01*
X259956Y240298D01*
X260354Y239702D01*
X260949Y239304D01*
X261652Y239165D01*
X262354Y239304D01*
X262949Y239702D01*
X263067Y239879D01*
X298728D01*
X300206Y238401D01*
X300165Y238193D01*
X300304Y237491D01*
X300702Y236895D01*
X301298Y236497D01*
X302000Y236358D01*
X302702Y236497D01*
X303298Y236895D01*
X303696Y237491D01*
X303835Y238193D01*
X303790Y238419D01*
X304251Y238666D01*
X305709Y237208D01*
X305667Y237000D01*
X305807Y236298D01*
X306205Y235702D01*
X306800Y235304D01*
X307503Y235165D01*
X308205Y235304D01*
X308800Y235702D01*
X309198Y236298D01*
X309338Y237000D01*
X309198Y237702D01*
X308800Y238298D01*
X308205Y238696D01*
X307503Y238835D01*
X307295Y238794D01*
X301996Y244093D01*
X301632Y244336D01*
X301203Y244422D01*
D02*
G37*
G36*
X177000Y254835D02*
X176298Y254696D01*
X175702Y254298D01*
X175304Y253702D01*
X175165Y253000D01*
X175304Y252298D01*
X175702Y251702D01*
X175878Y251585D01*
Y246691D01*
X175878Y246691D01*
X175964Y246261D01*
X176207Y245898D01*
X179206Y242898D01*
X179165Y242691D01*
X179304Y241988D01*
X179702Y241393D01*
X180298Y240995D01*
X181000Y240855D01*
X181702Y240995D01*
X182298Y241393D01*
X182696Y241988D01*
X182835Y242691D01*
X182696Y243393D01*
X182298Y243988D01*
X181702Y244386D01*
X181000Y244526D01*
X180792Y244484D01*
X178122Y247155D01*
Y251585D01*
X178298Y251702D01*
X178696Y252298D01*
X178835Y253000D01*
X178696Y253702D01*
X178298Y254298D01*
X177702Y254696D01*
X177000Y254835D01*
D02*
G37*
G36*
X428500Y239398D02*
X427582Y239215D01*
X426804Y238696D01*
X426421Y238122D01*
X424712D01*
X424696Y238202D01*
X424298Y238798D01*
X423702Y239196D01*
X423000Y239335D01*
X422298Y239196D01*
X421702Y238798D01*
X421304Y238202D01*
X421165Y237500D01*
X421304Y236798D01*
X421702Y236202D01*
X422298Y235804D01*
X423000Y235665D01*
X423702Y235804D01*
X423813Y235878D01*
X426421D01*
X426804Y235304D01*
X427582Y234785D01*
X428500Y234602D01*
X429418Y234785D01*
X430196Y235304D01*
X430716Y236082D01*
X430898Y237000D01*
X430716Y237918D01*
X430196Y238696D01*
X429418Y239215D01*
X428500Y239398D01*
D02*
G37*
G36*
X465380Y240497D02*
X464455Y240313D01*
X463670Y239789D01*
X463146Y239004D01*
X462962Y238079D01*
X463146Y237153D01*
X463670Y236369D01*
X464455Y235845D01*
X465380Y235661D01*
X466306Y235845D01*
X467090Y236369D01*
X467614Y237153D01*
X467798Y238079D01*
X467614Y239004D01*
X467090Y239789D01*
X466306Y240313D01*
X465380Y240497D01*
D02*
G37*
G36*
X438500Y249398D02*
X437582Y249216D01*
X436804Y248696D01*
X436284Y247918D01*
X436102Y247000D01*
X436284Y246082D01*
X436804Y245304D01*
X437480Y244853D01*
Y235000D01*
X437558Y234610D01*
X437779Y234279D01*
X440730Y231328D01*
X440665Y231000D01*
X440804Y230298D01*
X441202Y229702D01*
X441798Y229304D01*
X442500Y229165D01*
X443202Y229304D01*
X443798Y229702D01*
X444196Y230298D01*
X444335Y231000D01*
X444196Y231702D01*
X443798Y232298D01*
X443202Y232696D01*
X442500Y232835D01*
X442172Y232770D01*
X439520Y235422D01*
Y244853D01*
X440196Y245304D01*
X440716Y246082D01*
X440898Y247000D01*
X440716Y247918D01*
X440196Y248696D01*
X439418Y249216D01*
X438500Y249398D01*
D02*
G37*
G36*
X371300Y232106D02*
Y228832D01*
X374062D01*
X373967Y229551D01*
X373609Y230417D01*
X373038Y231160D01*
X372295Y231731D01*
X371429Y232089D01*
X371300Y232106D01*
D02*
G37*
G36*
X221300D02*
Y228832D01*
X224062D01*
X223967Y229551D01*
X223609Y230417D01*
X223038Y231160D01*
X222295Y231731D01*
X221429Y232089D01*
X221300Y232106D01*
D02*
G37*
G36*
X301300D02*
Y228832D01*
X304062D01*
X303967Y229551D01*
X303609Y230417D01*
X303038Y231160D01*
X302295Y231731D01*
X301429Y232089D01*
X301300Y232106D01*
D02*
G37*
G36*
X369700D02*
X369571Y232089D01*
X368705Y231731D01*
X367962Y231160D01*
X367391Y230417D01*
X367033Y229551D01*
X366938Y228832D01*
X369700D01*
Y232106D01*
D02*
G37*
G36*
X219700D02*
X219571Y232089D01*
X218705Y231731D01*
X217962Y231160D01*
X217391Y230417D01*
X217033Y229551D01*
X216938Y228832D01*
X219700D01*
Y232106D01*
D02*
G37*
G36*
X299700D02*
X299571Y232089D01*
X298705Y231731D01*
X297962Y231160D01*
X297391Y230417D01*
X297033Y229551D01*
X296938Y228832D01*
X299700D01*
Y232106D01*
D02*
G37*
G36*
X424000Y229835D02*
X423298Y229696D01*
X422702Y229298D01*
X422304Y228702D01*
X422165Y228000D01*
X422206Y227792D01*
X417707Y223293D01*
X417464Y222929D01*
X417378Y222500D01*
X417378Y222500D01*
Y219079D01*
X416804Y218696D01*
X416285Y217918D01*
X416102Y217000D01*
X416285Y216082D01*
X416804Y215304D01*
X417582Y214785D01*
X418500Y214602D01*
X419418Y214785D01*
X420196Y215304D01*
X420716Y216082D01*
X420898Y217000D01*
X420716Y217918D01*
X420196Y218696D01*
X419622Y219079D01*
Y222035D01*
X423792Y226206D01*
X424000Y226165D01*
X424702Y226304D01*
X425298Y226702D01*
X425696Y227298D01*
X425835Y228000D01*
X425696Y228702D01*
X425298Y229298D01*
X424702Y229696D01*
X424000Y229835D01*
D02*
G37*
G36*
X360500Y231808D02*
X359675Y231700D01*
X358907Y231382D01*
X358247Y230875D01*
X357741Y230215D01*
X357422Y229447D01*
X357314Y228622D01*
Y227441D01*
X357422Y226616D01*
X357741Y225848D01*
X358247Y225188D01*
X358907Y224681D01*
X359675Y224363D01*
X360500Y224255D01*
X361325Y224363D01*
X362093Y224681D01*
X362753Y225188D01*
X363259Y225848D01*
X363578Y226616D01*
X363686Y227441D01*
Y228622D01*
X363578Y229447D01*
X363259Y230215D01*
X362753Y230875D01*
X362093Y231382D01*
X361325Y231700D01*
X360500Y231808D01*
D02*
G37*
G36*
X350500D02*
X349675Y231700D01*
X348907Y231382D01*
X348247Y230875D01*
X347741Y230215D01*
X347422Y229447D01*
X347314Y228622D01*
Y227441D01*
X347422Y226616D01*
X347741Y225848D01*
X348247Y225188D01*
X348907Y224681D01*
X349675Y224363D01*
X350500Y224255D01*
X351325Y224363D01*
X352093Y224681D01*
X352753Y225188D01*
X353259Y225848D01*
X353578Y226616D01*
X353686Y227441D01*
Y228622D01*
X353578Y229447D01*
X353259Y230215D01*
X352753Y230875D01*
X352093Y231382D01*
X351325Y231700D01*
X350500Y231808D01*
D02*
G37*
G36*
X340500D02*
X339675Y231700D01*
X338907Y231382D01*
X338247Y230875D01*
X337741Y230215D01*
X337422Y229447D01*
X337314Y228622D01*
Y227441D01*
X337422Y226616D01*
X337741Y225848D01*
X338247Y225188D01*
X338907Y224681D01*
X339675Y224363D01*
X340500Y224255D01*
X341325Y224363D01*
X342093Y224681D01*
X342753Y225188D01*
X343259Y225848D01*
X343578Y226616D01*
X343686Y227441D01*
Y228622D01*
X343578Y229447D01*
X343259Y230215D01*
X342753Y230875D01*
X342093Y231382D01*
X341325Y231700D01*
X340500Y231808D01*
D02*
G37*
G36*
X330500D02*
X329675Y231700D01*
X328907Y231382D01*
X328247Y230875D01*
X327741Y230215D01*
X327422Y229447D01*
X327314Y228622D01*
Y227441D01*
X327422Y226616D01*
X327741Y225848D01*
X328247Y225188D01*
X328907Y224681D01*
X329675Y224363D01*
X330500Y224255D01*
X331325Y224363D01*
X332093Y224681D01*
X332753Y225188D01*
X333259Y225848D01*
X333578Y226616D01*
X333686Y227441D01*
Y228622D01*
X333578Y229447D01*
X333259Y230215D01*
X332753Y230875D01*
X332093Y231382D01*
X331325Y231700D01*
X330500Y231808D01*
D02*
G37*
G36*
X320500D02*
X319675Y231700D01*
X318907Y231382D01*
X318247Y230875D01*
X317741Y230215D01*
X317422Y229447D01*
X317314Y228622D01*
Y227441D01*
X317422Y226616D01*
X317741Y225848D01*
X318247Y225188D01*
X318907Y224681D01*
X319675Y224363D01*
X320500Y224255D01*
X321325Y224363D01*
X322093Y224681D01*
X322753Y225188D01*
X323259Y225848D01*
X323578Y226616D01*
X323686Y227441D01*
Y228622D01*
X323578Y229447D01*
X323259Y230215D01*
X322753Y230875D01*
X322093Y231382D01*
X321325Y231700D01*
X320500Y231808D01*
D02*
G37*
G36*
X310500D02*
X309675Y231700D01*
X308907Y231382D01*
X308247Y230875D01*
X307741Y230215D01*
X307422Y229447D01*
X307314Y228622D01*
Y227441D01*
X307422Y226616D01*
X307741Y225848D01*
X308247Y225188D01*
X308907Y224681D01*
X309675Y224363D01*
X310500Y224255D01*
X311325Y224363D01*
X312093Y224681D01*
X312753Y225188D01*
X313259Y225848D01*
X313578Y226616D01*
X313686Y227441D01*
Y228622D01*
X313578Y229447D01*
X313259Y230215D01*
X312753Y230875D01*
X312093Y231382D01*
X311325Y231700D01*
X310500Y231808D01*
D02*
G37*
G36*
X290500D02*
X289675Y231700D01*
X288907Y231382D01*
X288247Y230875D01*
X287741Y230215D01*
X287422Y229447D01*
X287314Y228622D01*
Y227441D01*
X287422Y226616D01*
X287741Y225848D01*
X288247Y225188D01*
X288907Y224681D01*
X289675Y224363D01*
X290500Y224255D01*
X291325Y224363D01*
X292093Y224681D01*
X292753Y225188D01*
X293259Y225848D01*
X293578Y226616D01*
X293686Y227441D01*
Y228622D01*
X293578Y229447D01*
X293259Y230215D01*
X292753Y230875D01*
X292093Y231382D01*
X291325Y231700D01*
X290500Y231808D01*
D02*
G37*
G36*
X280500D02*
X279675Y231700D01*
X278907Y231382D01*
X278247Y230875D01*
X277741Y230215D01*
X277422Y229447D01*
X277314Y228622D01*
Y227441D01*
X277422Y226616D01*
X277741Y225848D01*
X278247Y225188D01*
X278907Y224681D01*
X279675Y224363D01*
X280500Y224255D01*
X281325Y224363D01*
X282093Y224681D01*
X282753Y225188D01*
X283259Y225848D01*
X283578Y226616D01*
X283686Y227441D01*
Y228622D01*
X283578Y229447D01*
X283259Y230215D01*
X282753Y230875D01*
X282093Y231382D01*
X281325Y231700D01*
X280500Y231808D01*
D02*
G37*
G36*
X270500D02*
X269675Y231700D01*
X268907Y231382D01*
X268247Y230875D01*
X267741Y230215D01*
X267422Y229447D01*
X267314Y228622D01*
Y227441D01*
X267422Y226616D01*
X267741Y225848D01*
X268247Y225188D01*
X268907Y224681D01*
X269675Y224363D01*
X270500Y224255D01*
X271325Y224363D01*
X272093Y224681D01*
X272753Y225188D01*
X273259Y225848D01*
X273578Y226616D01*
X273686Y227441D01*
Y228622D01*
X273578Y229447D01*
X273259Y230215D01*
X272753Y230875D01*
X272093Y231382D01*
X271325Y231700D01*
X270500Y231808D01*
D02*
G37*
G36*
X260500D02*
X259675Y231700D01*
X258907Y231382D01*
X258247Y230875D01*
X257741Y230215D01*
X257422Y229447D01*
X257314Y228622D01*
Y227441D01*
X257422Y226616D01*
X257741Y225848D01*
X258247Y225188D01*
X258907Y224681D01*
X259675Y224363D01*
X260500Y224255D01*
X261325Y224363D01*
X262093Y224681D01*
X262753Y225188D01*
X263259Y225848D01*
X263578Y226616D01*
X263686Y227441D01*
Y228622D01*
X263578Y229447D01*
X263259Y230215D01*
X262753Y230875D01*
X262093Y231382D01*
X261325Y231700D01*
X260500Y231808D01*
D02*
G37*
G36*
X210500D02*
X209675Y231700D01*
X208907Y231382D01*
X208247Y230875D01*
X207741Y230215D01*
X207422Y229447D01*
X207314Y228622D01*
Y227441D01*
X207422Y226616D01*
X207741Y225848D01*
X208247Y225188D01*
X208907Y224681D01*
X209675Y224363D01*
X210500Y224255D01*
X211325Y224363D01*
X212093Y224681D01*
X212753Y225188D01*
X213259Y225848D01*
X213578Y226616D01*
X213686Y227441D01*
Y228622D01*
X213578Y229447D01*
X213259Y230215D01*
X212753Y230875D01*
X212093Y231382D01*
X211325Y231700D01*
X210500Y231808D01*
D02*
G37*
G36*
X187903Y241804D02*
X187201Y241665D01*
X186606Y241267D01*
X186208Y240671D01*
X186068Y239969D01*
X186208Y239267D01*
X186606Y238671D01*
X187201Y238273D01*
X187903Y238134D01*
X188427Y238238D01*
X197398Y229267D01*
X197314Y228622D01*
Y227441D01*
X197422Y226616D01*
X197741Y225848D01*
X198247Y225188D01*
X198907Y224681D01*
X199675Y224363D01*
X200500Y224255D01*
X201325Y224363D01*
X202093Y224681D01*
X202753Y225188D01*
X203259Y225848D01*
X203578Y226616D01*
X203686Y227441D01*
Y228622D01*
X203578Y229447D01*
X203259Y230215D01*
X202753Y230875D01*
X202093Y231382D01*
X201325Y231700D01*
X200500Y231808D01*
X199675Y231700D01*
X198907Y231382D01*
X198652Y231186D01*
X189707Y240131D01*
X189599Y240671D01*
X189201Y241267D01*
X188606Y241665D01*
X187903Y241804D01*
D02*
G37*
G36*
X190500Y231808D02*
X189675Y231700D01*
X188907Y231382D01*
X188247Y230875D01*
X187741Y230215D01*
X187422Y229447D01*
X187314Y228622D01*
Y227441D01*
X187422Y226616D01*
X187741Y225848D01*
X188247Y225188D01*
X188907Y224681D01*
X189675Y224363D01*
X190500Y224255D01*
X191325Y224363D01*
X192093Y224681D01*
X192753Y225188D01*
X193259Y225848D01*
X193578Y226616D01*
X193686Y227441D01*
Y228622D01*
X193578Y229447D01*
X193259Y230215D01*
X192753Y230875D01*
X192093Y231382D01*
X191325Y231700D01*
X190500Y231808D01*
D02*
G37*
G36*
X180500D02*
X179675Y231700D01*
X178907Y231382D01*
X178247Y230875D01*
X177741Y230215D01*
X177422Y229447D01*
X177314Y228622D01*
Y227441D01*
X177422Y226616D01*
X177741Y225848D01*
X178247Y225188D01*
X178907Y224681D01*
X179675Y224363D01*
X180500Y224255D01*
X181325Y224363D01*
X182093Y224681D01*
X182753Y225188D01*
X183259Y225848D01*
X183578Y226616D01*
X183686Y227441D01*
Y228622D01*
X183578Y229447D01*
X183259Y230215D01*
X182753Y230875D01*
X182093Y231382D01*
X181325Y231700D01*
X180500Y231808D01*
D02*
G37*
G36*
X374062Y227232D02*
X371300D01*
Y223956D01*
X371429Y223973D01*
X372295Y224332D01*
X373038Y224903D01*
X373609Y225646D01*
X373967Y226512D01*
X374062Y227232D01*
D02*
G37*
G36*
X304062D02*
X301300D01*
Y223956D01*
X301429Y223973D01*
X302295Y224332D01*
X303038Y224903D01*
X303609Y225646D01*
X303967Y226512D01*
X304062Y227232D01*
D02*
G37*
G36*
X224062D02*
X221300D01*
Y223956D01*
X221429Y223973D01*
X222295Y224332D01*
X223038Y224903D01*
X223609Y225646D01*
X223967Y226512D01*
X224062Y227232D01*
D02*
G37*
G36*
X369700D02*
X366938D01*
X367033Y226512D01*
X367391Y225646D01*
X367962Y224903D01*
X368705Y224332D01*
X369571Y223973D01*
X369700Y223956D01*
Y227232D01*
D02*
G37*
G36*
X299700D02*
X296938D01*
X297033Y226512D01*
X297391Y225646D01*
X297962Y224903D01*
X298705Y224332D01*
X299571Y223973D01*
X299700Y223956D01*
Y227232D01*
D02*
G37*
G36*
X219700D02*
X216938D01*
X217033Y226512D01*
X217391Y225646D01*
X217962Y224903D01*
X218705Y224332D01*
X219571Y223973D01*
X219700Y223956D01*
Y227232D01*
D02*
G37*
G36*
X341300Y222107D02*
Y218831D01*
X344062D01*
X343967Y219551D01*
X343609Y220417D01*
X343038Y221160D01*
X342295Y221731D01*
X341429Y222090D01*
X341300Y222107D01*
D02*
G37*
G36*
X241300D02*
Y218831D01*
X244062D01*
X243967Y219551D01*
X243609Y220417D01*
X243038Y221160D01*
X242295Y221731D01*
X241429Y222090D01*
X241300Y222107D01*
D02*
G37*
G36*
X321300D02*
Y218831D01*
X324062D01*
X323967Y219551D01*
X323609Y220417D01*
X323038Y221160D01*
X322295Y221731D01*
X321429Y222090D01*
X321300Y222107D01*
D02*
G37*
G36*
X271300D02*
Y218831D01*
X274062D01*
X273967Y219551D01*
X273609Y220417D01*
X273038Y221160D01*
X272295Y221731D01*
X271429Y222090D01*
X271300Y222107D01*
D02*
G37*
G36*
X201300D02*
Y218831D01*
X204062D01*
X203967Y219551D01*
X203609Y220417D01*
X203038Y221160D01*
X202295Y221731D01*
X201429Y222090D01*
X201300Y222107D01*
D02*
G37*
G36*
X339700D02*
X339571Y222090D01*
X338705Y221731D01*
X337962Y221160D01*
X337391Y220417D01*
X337033Y219551D01*
X336938Y218831D01*
X339700D01*
Y222107D01*
D02*
G37*
G36*
X239700D02*
X239571Y222090D01*
X238705Y221731D01*
X237962Y221160D01*
X237391Y220417D01*
X237033Y219551D01*
X236938Y218831D01*
X239700D01*
Y222107D01*
D02*
G37*
G36*
X319700D02*
X319571Y222090D01*
X318705Y221731D01*
X317962Y221160D01*
X317391Y220417D01*
X317033Y219551D01*
X316938Y218831D01*
X319700D01*
Y222107D01*
D02*
G37*
G36*
X269700D02*
X269571Y222090D01*
X268705Y221731D01*
X267962Y221160D01*
X267391Y220417D01*
X267033Y219551D01*
X266938Y218831D01*
X269700D01*
Y222107D01*
D02*
G37*
G36*
X199700D02*
X199571Y222090D01*
X198705Y221731D01*
X197962Y221160D01*
X197391Y220417D01*
X197033Y219551D01*
X196938Y218831D01*
X199700D01*
Y222107D01*
D02*
G37*
G36*
X436400Y228935D02*
X435698Y228796D01*
X435102Y228398D01*
X434704Y227802D01*
X434565Y227100D01*
X434704Y226398D01*
X435102Y225802D01*
X435366Y225626D01*
X435664Y225335D01*
X435494Y224985D01*
X435304Y224702D01*
X435165Y224000D01*
X435304Y223298D01*
X435702Y222702D01*
X436298Y222304D01*
X437000Y222165D01*
X437702Y222304D01*
X438298Y222702D01*
X438696Y223298D01*
X438798Y223812D01*
X439165Y224179D01*
X461283D01*
X465316Y220145D01*
X465380Y219822D01*
X465778Y219227D01*
X466373Y218829D01*
X467076Y218689D01*
X467778Y218829D01*
X468373Y219227D01*
X468771Y219822D01*
X468911Y220524D01*
X468771Y221227D01*
X468373Y221822D01*
X468026Y222054D01*
X467839Y222421D01*
X467918Y222682D01*
X468196Y223098D01*
X468335Y223800D01*
X468196Y224502D01*
X467798Y225098D01*
X467202Y225496D01*
X466500Y225635D01*
X466292Y225594D01*
X463993Y227893D01*
X463629Y228136D01*
X463200Y228222D01*
X463200Y228222D01*
X437815D01*
X437698Y228398D01*
X437102Y228796D01*
X436400Y228935D01*
D02*
G37*
G36*
X370500Y221808D02*
X369675Y221700D01*
X368907Y221381D01*
X368247Y220875D01*
X367741Y220215D01*
X367422Y219447D01*
X367314Y218622D01*
Y217441D01*
X367422Y216616D01*
X367741Y215848D01*
X368247Y215188D01*
X368907Y214682D01*
X369675Y214363D01*
X370500Y214255D01*
X371325Y214363D01*
X372093Y214682D01*
X372753Y215188D01*
X373259Y215848D01*
X373578Y216616D01*
X373686Y217441D01*
Y218622D01*
X373578Y219447D01*
X373259Y220215D01*
X372753Y220875D01*
X372093Y221381D01*
X371325Y221700D01*
X370500Y221808D01*
D02*
G37*
G36*
X360500D02*
X359675Y221700D01*
X358907Y221381D01*
X358247Y220875D01*
X357741Y220215D01*
X357422Y219447D01*
X357314Y218622D01*
Y217441D01*
X357422Y216616D01*
X357741Y215848D01*
X358247Y215188D01*
X358907Y214682D01*
X359675Y214363D01*
X360500Y214255D01*
X361325Y214363D01*
X362093Y214682D01*
X362753Y215188D01*
X363259Y215848D01*
X363578Y216616D01*
X363686Y217441D01*
Y218622D01*
X363578Y219447D01*
X363259Y220215D01*
X362753Y220875D01*
X362093Y221381D01*
X361325Y221700D01*
X360500Y221808D01*
D02*
G37*
G36*
X350500D02*
X349675Y221700D01*
X348907Y221381D01*
X348247Y220875D01*
X347741Y220215D01*
X347422Y219447D01*
X347314Y218622D01*
Y217441D01*
X347422Y216616D01*
X347741Y215848D01*
X348247Y215188D01*
X348907Y214682D01*
X349675Y214363D01*
X350500Y214255D01*
X351325Y214363D01*
X352093Y214682D01*
X352753Y215188D01*
X353259Y215848D01*
X353578Y216616D01*
X353686Y217441D01*
Y218622D01*
X353578Y219447D01*
X353259Y220215D01*
X352753Y220875D01*
X352093Y221381D01*
X351325Y221700D01*
X350500Y221808D01*
D02*
G37*
G36*
X330500D02*
X329675Y221700D01*
X328907Y221381D01*
X328247Y220875D01*
X327741Y220215D01*
X327422Y219447D01*
X327314Y218622D01*
Y217441D01*
X327422Y216616D01*
X327741Y215848D01*
X328247Y215188D01*
X328907Y214682D01*
X329675Y214363D01*
X330500Y214255D01*
X331325Y214363D01*
X332093Y214682D01*
X332753Y215188D01*
X333259Y215848D01*
X333578Y216616D01*
X333686Y217441D01*
Y218622D01*
X333578Y219447D01*
X333259Y220215D01*
X332753Y220875D01*
X332093Y221381D01*
X331325Y221700D01*
X330500Y221808D01*
D02*
G37*
G36*
X310500D02*
X309675Y221700D01*
X308907Y221381D01*
X308247Y220875D01*
X307741Y220215D01*
X307422Y219447D01*
X307314Y218622D01*
Y217441D01*
X307422Y216616D01*
X307741Y215848D01*
X308247Y215188D01*
X308907Y214682D01*
X309675Y214363D01*
X310500Y214255D01*
X311325Y214363D01*
X312093Y214682D01*
X312753Y215188D01*
X313259Y215848D01*
X313578Y216616D01*
X313686Y217441D01*
Y218622D01*
X313578Y219447D01*
X313259Y220215D01*
X312753Y220875D01*
X312093Y221381D01*
X311325Y221700D01*
X310500Y221808D01*
D02*
G37*
G36*
X300500D02*
X299675Y221700D01*
X298907Y221381D01*
X298247Y220875D01*
X297741Y220215D01*
X297422Y219447D01*
X297314Y218622D01*
Y217441D01*
X297422Y216616D01*
X297741Y215848D01*
X298247Y215188D01*
X298907Y214682D01*
X299675Y214363D01*
X300500Y214255D01*
X301325Y214363D01*
X302093Y214682D01*
X302753Y215188D01*
X303259Y215848D01*
X303578Y216616D01*
X303686Y217441D01*
Y218622D01*
X303578Y219447D01*
X303259Y220215D01*
X302753Y220875D01*
X302093Y221381D01*
X301325Y221700D01*
X300500Y221808D01*
D02*
G37*
G36*
X290500D02*
X289675Y221700D01*
X288907Y221381D01*
X288247Y220875D01*
X287741Y220215D01*
X287422Y219447D01*
X287314Y218622D01*
Y217441D01*
X287422Y216616D01*
X287741Y215848D01*
X288247Y215188D01*
X288907Y214682D01*
X289675Y214363D01*
X290500Y214255D01*
X291325Y214363D01*
X292093Y214682D01*
X292753Y215188D01*
X293259Y215848D01*
X293578Y216616D01*
X293686Y217441D01*
Y218622D01*
X293578Y219447D01*
X293259Y220215D01*
X292753Y220875D01*
X292093Y221381D01*
X291325Y221700D01*
X290500Y221808D01*
D02*
G37*
G36*
X280500D02*
X279675Y221700D01*
X278907Y221381D01*
X278247Y220875D01*
X277741Y220215D01*
X277422Y219447D01*
X277314Y218622D01*
Y217441D01*
X277422Y216616D01*
X277741Y215848D01*
X278247Y215188D01*
X278907Y214682D01*
X279675Y214363D01*
X280500Y214255D01*
X281325Y214363D01*
X282093Y214682D01*
X282753Y215188D01*
X283259Y215848D01*
X283578Y216616D01*
X283686Y217441D01*
Y218622D01*
X283578Y219447D01*
X283259Y220215D01*
X282753Y220875D01*
X282093Y221381D01*
X281325Y221700D01*
X280500Y221808D01*
D02*
G37*
G36*
X260500D02*
X259675Y221700D01*
X258907Y221381D01*
X258247Y220875D01*
X257741Y220215D01*
X257422Y219447D01*
X257314Y218622D01*
Y217441D01*
X257422Y216616D01*
X257741Y215848D01*
X258247Y215188D01*
X258907Y214682D01*
X259675Y214363D01*
X260500Y214255D01*
X261325Y214363D01*
X262093Y214682D01*
X262753Y215188D01*
X263259Y215848D01*
X263578Y216616D01*
X263686Y217441D01*
Y218622D01*
X263578Y219447D01*
X263259Y220215D01*
X262753Y220875D01*
X262093Y221381D01*
X261325Y221700D01*
X260500Y221808D01*
D02*
G37*
G36*
X220500D02*
X219675Y221700D01*
X218907Y221381D01*
X218247Y220875D01*
X217741Y220215D01*
X217422Y219447D01*
X217314Y218622D01*
Y217441D01*
X217422Y216616D01*
X217741Y215848D01*
X218247Y215188D01*
X218907Y214682D01*
X219675Y214363D01*
X220500Y214255D01*
X221325Y214363D01*
X222093Y214682D01*
X222753Y215188D01*
X223259Y215848D01*
X223578Y216616D01*
X223686Y217441D01*
Y218622D01*
X223578Y219447D01*
X223259Y220215D01*
X222753Y220875D01*
X222093Y221381D01*
X221325Y221700D01*
X220500Y221808D01*
D02*
G37*
G36*
X210500D02*
X209675Y221700D01*
X208907Y221381D01*
X208247Y220875D01*
X207741Y220215D01*
X207422Y219447D01*
X207314Y218622D01*
Y217441D01*
X207422Y216616D01*
X207741Y215848D01*
X208247Y215188D01*
X208907Y214682D01*
X209675Y214363D01*
X210500Y214255D01*
X211325Y214363D01*
X212093Y214682D01*
X212753Y215188D01*
X213259Y215848D01*
X213578Y216616D01*
X213686Y217441D01*
Y218622D01*
X213578Y219447D01*
X213259Y220215D01*
X212753Y220875D01*
X212093Y221381D01*
X211325Y221700D01*
X210500Y221808D01*
D02*
G37*
G36*
X190500D02*
X189675Y221700D01*
X188907Y221381D01*
X188247Y220875D01*
X187741Y220215D01*
X187422Y219447D01*
X187314Y218622D01*
Y217441D01*
X187422Y216616D01*
X187741Y215848D01*
X188247Y215188D01*
X188907Y214682D01*
X189675Y214363D01*
X190500Y214255D01*
X191325Y214363D01*
X192093Y214682D01*
X192753Y215188D01*
X193259Y215848D01*
X193578Y216616D01*
X193686Y217441D01*
Y218622D01*
X193578Y219447D01*
X193259Y220215D01*
X192753Y220875D01*
X192093Y221381D01*
X191325Y221700D01*
X190500Y221808D01*
D02*
G37*
G36*
X180500D02*
X179675Y221700D01*
X178907Y221381D01*
X178247Y220875D01*
X177741Y220215D01*
X177422Y219447D01*
X177314Y218622D01*
Y217441D01*
X177422Y216616D01*
X177741Y215848D01*
X178247Y215188D01*
X178907Y214682D01*
X179675Y214363D01*
X180500Y214255D01*
X181325Y214363D01*
X182093Y214682D01*
X182753Y215188D01*
X183259Y215848D01*
X183578Y216616D01*
X183686Y217441D01*
Y218622D01*
X183578Y219447D01*
X183259Y220215D01*
X182753Y220875D01*
X182093Y221381D01*
X181325Y221700D01*
X180500Y221808D01*
D02*
G37*
G36*
X344062Y217231D02*
X341300D01*
Y213956D01*
X341429Y213973D01*
X342295Y214332D01*
X343038Y214903D01*
X343609Y215646D01*
X343967Y216512D01*
X344062Y217231D01*
D02*
G37*
G36*
X324062D02*
X321300D01*
Y213956D01*
X321429Y213973D01*
X322295Y214332D01*
X323038Y214903D01*
X323609Y215646D01*
X323967Y216512D01*
X324062Y217231D01*
D02*
G37*
G36*
X274062D02*
X271300D01*
Y213956D01*
X271429Y213973D01*
X272295Y214332D01*
X273038Y214903D01*
X273609Y215646D01*
X273967Y216512D01*
X274062Y217231D01*
D02*
G37*
G36*
X244062D02*
X241300D01*
Y213956D01*
X241429Y213973D01*
X242295Y214332D01*
X243038Y214903D01*
X243609Y215646D01*
X243967Y216512D01*
X244062Y217231D01*
D02*
G37*
G36*
X204062D02*
X201300D01*
Y213956D01*
X201429Y213973D01*
X202295Y214332D01*
X203038Y214903D01*
X203609Y215646D01*
X203967Y216512D01*
X204062Y217231D01*
D02*
G37*
G36*
X339700D02*
X336938D01*
X337033Y216512D01*
X337391Y215646D01*
X337962Y214903D01*
X338705Y214332D01*
X339571Y213973D01*
X339700Y213956D01*
Y217231D01*
D02*
G37*
G36*
X319700D02*
X316938D01*
X317033Y216512D01*
X317391Y215646D01*
X317962Y214903D01*
X318705Y214332D01*
X319571Y213973D01*
X319700Y213956D01*
Y217231D01*
D02*
G37*
G36*
X269700D02*
X266938D01*
X267033Y216512D01*
X267391Y215646D01*
X267962Y214903D01*
X268705Y214332D01*
X269571Y213973D01*
X269700Y213956D01*
Y217231D01*
D02*
G37*
G36*
X239700D02*
X236938D01*
X237033Y216512D01*
X237391Y215646D01*
X237962Y214903D01*
X238705Y214332D01*
X239571Y213973D01*
X239700Y213956D01*
Y217231D01*
D02*
G37*
G36*
X199700D02*
X196938D01*
X197033Y216512D01*
X197391Y215646D01*
X197962Y214903D01*
X198705Y214332D01*
X199571Y213973D01*
X199700Y213956D01*
Y217231D01*
D02*
G37*
G36*
X396000Y235931D02*
X383500Y235931D01*
X378500Y230931D01*
Y218431D01*
X383500Y213432D01*
X396000D01*
X401000Y218431D01*
Y230931D01*
X396000Y235931D01*
D02*
G37*
G36*
X167500Y235699D02*
X155000Y235699D01*
X150000Y230699D01*
Y218199D01*
X155000Y213199D01*
X167500D01*
X172500Y218199D01*
Y230699D01*
X167500Y235699D01*
D02*
G37*
G36*
X375822Y264690D02*
X375120Y264550D01*
X374525Y264152D01*
X374127Y263557D01*
X373987Y262854D01*
X374127Y262152D01*
X374525Y261557D01*
X375120Y261159D01*
X375233Y261136D01*
X377541Y258828D01*
Y252697D01*
X377666Y252072D01*
X378019Y251543D01*
X388016Y241547D01*
X388545Y241193D01*
X389170Y241069D01*
X395624D01*
X402369Y234324D01*
Y212676D01*
X398411Y208718D01*
X398298Y208696D01*
X397702Y208298D01*
X397304Y207702D01*
X397165Y207000D01*
X397304Y206298D01*
X397702Y205702D01*
X398298Y205304D01*
X399000Y205165D01*
X399702Y205304D01*
X400298Y205702D01*
X400696Y206298D01*
X400718Y206411D01*
X405154Y210846D01*
X405507Y211376D01*
X405631Y212000D01*
Y235000D01*
X405507Y235624D01*
X405154Y236154D01*
X398105Y243202D01*
X398297Y243664D01*
X421550D01*
X422272Y243807D01*
X422884Y244216D01*
X423334Y244666D01*
X423743Y245278D01*
X423886Y246000D01*
X423743Y246722D01*
X423334Y247334D01*
X422722Y247743D01*
X422000Y247886D01*
X421278Y247743D01*
X420820Y247436D01*
X391131D01*
X383357Y255211D01*
X382745Y255620D01*
X382023Y255763D01*
X381301Y255620D01*
X381245Y255582D01*
X380804Y255818D01*
Y259504D01*
X380680Y260128D01*
X380326Y260657D01*
X377540Y263443D01*
X377518Y263557D01*
X377120Y264152D01*
X376525Y264550D01*
X375822Y264690D01*
D02*
G37*
G36*
X145000Y224335D02*
X144298Y224196D01*
X143702Y223798D01*
X143304Y223202D01*
X143165Y222500D01*
X143304Y221798D01*
X143702Y221202D01*
X143878Y221085D01*
Y210278D01*
X143878Y210278D01*
X143964Y209849D01*
X144207Y209485D01*
X146484Y207208D01*
X146443Y207000D01*
X146583Y206298D01*
X146980Y205702D01*
X147576Y205304D01*
X148278Y205165D01*
X148980Y205304D01*
X149576Y205702D01*
X149974Y206298D01*
X150113Y207000D01*
X149974Y207702D01*
X149576Y208298D01*
X148980Y208696D01*
X148278Y208835D01*
X148070Y208794D01*
X146122Y210743D01*
Y221085D01*
X146298Y221202D01*
X146696Y221798D01*
X146835Y222500D01*
X146696Y223202D01*
X146298Y223798D01*
X145702Y224196D01*
X145000Y224335D01*
D02*
G37*
G36*
X435452Y188898D02*
X434535Y188716D01*
X433757Y188196D01*
X433237Y187418D01*
X433054Y186500D01*
X433237Y185582D01*
X433757Y184804D01*
X434433Y184353D01*
Y180495D01*
X434386Y180467D01*
X433886Y180750D01*
Y183000D01*
X433743Y183722D01*
X433334Y184334D01*
X432722Y184743D01*
X432000Y184886D01*
X431278Y184743D01*
X430666Y184334D01*
X430257Y183722D01*
X430114Y183000D01*
Y175000D01*
X430257Y174278D01*
X430666Y173666D01*
X431278Y173257D01*
X432000Y173114D01*
X432722Y173257D01*
X433334Y173666D01*
X433743Y174278D01*
X433886Y175000D01*
Y176780D01*
X434386Y177048D01*
X434750Y176804D01*
X435452Y176665D01*
X436155Y176804D01*
X436750Y177202D01*
X437148Y177798D01*
X437288Y178500D01*
X437148Y179202D01*
X436750Y179798D01*
X436472Y179984D01*
Y184353D01*
X437148Y184804D01*
X437668Y185582D01*
X437850Y186500D01*
X437668Y187418D01*
X437148Y188196D01*
X436370Y188716D01*
X435452Y188898D01*
D02*
G37*
G36*
X190000Y183835D02*
X189298Y183696D01*
X188702Y183298D01*
X188304Y182702D01*
X188165Y182000D01*
X188206Y181792D01*
X184207Y177793D01*
X183964Y177429D01*
X183878Y177000D01*
X183878Y177000D01*
Y172415D01*
X183702Y172298D01*
X183304Y171702D01*
X183165Y171000D01*
X183304Y170298D01*
X183702Y169702D01*
X184298Y169304D01*
X185000Y169165D01*
X185702Y169304D01*
X186298Y169702D01*
X186696Y170298D01*
X186835Y171000D01*
X186696Y171702D01*
X186298Y172298D01*
X186122Y172415D01*
Y176535D01*
X189792Y180206D01*
X190000Y180165D01*
X190702Y180304D01*
X191298Y180702D01*
X191696Y181298D01*
X191835Y182000D01*
X191696Y182702D01*
X191298Y183298D01*
X190702Y183696D01*
X190000Y183835D01*
D02*
G37*
G36*
X346000Y182835D02*
X345298Y182696D01*
X344702Y182298D01*
X344585Y182122D01*
X343747D01*
X343318Y182036D01*
X342954Y181793D01*
X342954Y181793D01*
X326207Y165046D01*
X325964Y164682D01*
X325878Y164253D01*
X325879Y164253D01*
Y138415D01*
X325702Y138298D01*
X325304Y137702D01*
X325165Y137000D01*
X325304Y136298D01*
X325702Y135702D01*
X326298Y135304D01*
X327000Y135165D01*
X327702Y135304D01*
X328298Y135702D01*
X328696Y136298D01*
X328835Y137000D01*
X328696Y137702D01*
X328298Y138298D01*
X328121Y138415D01*
Y163788D01*
X329095Y164762D01*
X329155Y164754D01*
X329578Y164538D01*
Y134715D01*
X329402Y134598D01*
X329004Y134002D01*
X328865Y133300D01*
X329004Y132598D01*
X329402Y132002D01*
X329998Y131604D01*
X330700Y131465D01*
X331402Y131604D01*
X331998Y132002D01*
X332396Y132598D01*
X332535Y133300D01*
X332396Y134002D01*
X331998Y134598D01*
X331821Y134715D01*
Y164235D01*
X341792Y174206D01*
X342000Y174165D01*
X342702Y174304D01*
X343298Y174702D01*
X343696Y175298D01*
X343835Y176000D01*
X343696Y176702D01*
X343298Y177298D01*
X342723Y177682D01*
X342656Y177741D01*
X342547Y178214D01*
X344130Y179797D01*
X344663Y179761D01*
X344702Y179702D01*
X345298Y179304D01*
X346000Y179165D01*
X346702Y179304D01*
X347298Y179702D01*
X347696Y180298D01*
X347835Y181000D01*
X347696Y181702D01*
X347298Y182298D01*
X346702Y182696D01*
X346000Y182835D01*
D02*
G37*
G36*
X371632Y166070D02*
X357068D01*
X356678Y165992D01*
X356347Y165771D01*
X355029Y164453D01*
X354808Y164122D01*
X354730Y163732D01*
Y161868D01*
X354808Y161478D01*
X355029Y161147D01*
X360933Y155243D01*
Y133984D01*
X360655Y133798D01*
X360257Y133202D01*
X360117Y132500D01*
X360257Y131798D01*
X360655Y131202D01*
X361250Y130804D01*
X361952Y130665D01*
X362655Y130804D01*
X363250Y131202D01*
X363648Y131798D01*
X363788Y132500D01*
X363648Y133202D01*
X363250Y133798D01*
X362972Y133984D01*
Y155666D01*
X362894Y156056D01*
X362673Y156387D01*
X358608Y160452D01*
X358800Y160914D01*
X369919D01*
X373666Y157166D01*
X374278Y156757D01*
X375000Y156614D01*
X377500D01*
X378222Y156757D01*
X378834Y157166D01*
X379243Y157778D01*
X379386Y158500D01*
X379243Y159222D01*
X378834Y159834D01*
X378222Y160243D01*
X377500Y160386D01*
X375781D01*
X374649Y161519D01*
X374840Y161980D01*
X383016D01*
X383202Y161702D01*
X383798Y161304D01*
X384500Y161165D01*
X385202Y161304D01*
X385798Y161702D01*
X386196Y162298D01*
X386335Y163000D01*
X386196Y163702D01*
X385798Y164298D01*
X385202Y164696D01*
X384500Y164835D01*
X383798Y164696D01*
X383202Y164298D01*
X383016Y164020D01*
X374104D01*
X372353Y165771D01*
X372022Y165992D01*
X371632Y166070D01*
D02*
G37*
G36*
X318500Y159398D02*
X317582Y159215D01*
X316804Y158696D01*
X316284Y157918D01*
X316102Y157000D01*
X316284Y156082D01*
X316804Y155304D01*
X316869Y155261D01*
Y150632D01*
X316702Y150521D01*
X316304Y149926D01*
X316165Y149223D01*
X316304Y148521D01*
X316702Y147925D01*
X317298Y147528D01*
X318000Y147388D01*
X318702Y147528D01*
X319298Y147925D01*
X319696Y148521D01*
X319758Y148834D01*
X320007Y149207D01*
X320131Y149831D01*
Y155261D01*
X320196Y155304D01*
X320715Y156082D01*
X320898Y157000D01*
X320715Y157918D01*
X320196Y158696D01*
X319418Y159215D01*
X318500Y159398D01*
D02*
G37*
G36*
X428500Y149398D02*
X427582Y149215D01*
X426804Y148696D01*
X426285Y147918D01*
X426102Y147000D01*
X426285Y146082D01*
X426804Y145304D01*
X426869Y145261D01*
Y143452D01*
X426993Y142828D01*
X427347Y142299D01*
X428652Y140993D01*
X428461Y140531D01*
X422379D01*
X422134Y141031D01*
X422412Y141447D01*
X422555Y142169D01*
Y142309D01*
X422412Y143031D01*
X422003Y143643D01*
X420386Y145260D01*
Y145582D01*
X420385Y145588D01*
X420716Y146082D01*
X420898Y147000D01*
X420716Y147918D01*
X420196Y148696D01*
X419418Y149215D01*
X418500Y149398D01*
X417582Y149215D01*
X416804Y148696D01*
X416285Y147918D01*
X416102Y147000D01*
X416285Y146082D01*
X416615Y145588D01*
X416614Y145582D01*
Y144478D01*
X416757Y143757D01*
X417166Y143145D01*
X419054Y141257D01*
X419205Y141031D01*
X418959Y140531D01*
X416582D01*
X415460Y141654D01*
X414931Y142007D01*
X414306Y142131D01*
X399251D01*
X399155Y142196D01*
X398452Y142335D01*
X397750Y142196D01*
X397155Y141798D01*
X396757Y141202D01*
X396617Y140500D01*
X396757Y139798D01*
X397155Y139202D01*
X397750Y138804D01*
X398452Y138665D01*
X399155Y138804D01*
X399251Y138869D01*
X413631D01*
X414753Y137747D01*
X415282Y137393D01*
X415906Y137269D01*
X431652D01*
X432277Y137393D01*
X432806Y137747D01*
X433028Y137969D01*
X436754D01*
X436850Y137904D01*
X437552Y137765D01*
X438255Y137904D01*
X438850Y138302D01*
X439248Y138898D01*
X439388Y139600D01*
X439248Y140302D01*
X438850Y140898D01*
X438255Y141296D01*
X437552Y141435D01*
X436850Y141296D01*
X436754Y141231D01*
X433028D01*
X430131Y144128D01*
Y145261D01*
X430196Y145304D01*
X430716Y146082D01*
X430898Y147000D01*
X430716Y147918D01*
X430196Y148696D01*
X429418Y149215D01*
X428500Y149398D01*
D02*
G37*
G36*
X437577Y150258D02*
X436875Y150118D01*
X436279Y149721D01*
X435882Y149125D01*
X435742Y148423D01*
X435882Y147721D01*
X436279Y147125D01*
X436875Y146727D01*
X437577Y146588D01*
X438279Y146727D01*
X438875Y147125D01*
X438993Y147301D01*
X446613D01*
X456237Y137677D01*
X456102Y137000D01*
X456285Y136082D01*
X456804Y135304D01*
X457582Y134784D01*
X458500Y134602D01*
X459418Y134784D01*
X460196Y135304D01*
X460715Y136082D01*
X460898Y137000D01*
X460715Y137918D01*
X460196Y138696D01*
X459418Y139216D01*
X458500Y139398D01*
X457823Y139263D01*
X447870Y149216D01*
X447506Y149459D01*
X447077Y149544D01*
X447077Y149544D01*
X438993D01*
X438875Y149721D01*
X438279Y150118D01*
X437577Y150258D01*
D02*
G37*
G36*
X268028D02*
X267325Y150118D01*
X266730Y149721D01*
X266332Y149125D01*
X266192Y148423D01*
X266332Y147721D01*
X266730Y147125D01*
X266892Y147017D01*
Y130413D01*
X266702Y130286D01*
X266304Y129691D01*
X266165Y128988D01*
X266304Y128286D01*
X266702Y127690D01*
X267298Y127293D01*
X268000Y127153D01*
X268702Y127293D01*
X269298Y127690D01*
X269696Y128286D01*
X269835Y128988D01*
X269696Y129691D01*
X269298Y130286D01*
X269135Y130394D01*
Y146998D01*
X269325Y147125D01*
X269723Y147721D01*
X269863Y148423D01*
X269723Y149125D01*
X269325Y149721D01*
X268730Y150118D01*
X268028Y150258D01*
D02*
G37*
G36*
X254953Y169422D02*
X254953Y169422D01*
X253047D01*
X252618Y169336D01*
X252254Y169093D01*
X252254Y169093D01*
X248707Y165546D01*
X248464Y165182D01*
X248378Y164753D01*
X248378Y164753D01*
Y159415D01*
X248202Y159298D01*
X247804Y158702D01*
X247665Y158000D01*
X247804Y157298D01*
X248202Y156702D01*
X248798Y156304D01*
X249241Y156216D01*
X249407Y155675D01*
X247866Y154134D01*
X247623Y153770D01*
X247537Y153341D01*
X247537Y153341D01*
Y117977D01*
X247537Y117977D01*
X247623Y117548D01*
X247866Y117184D01*
X248729Y116322D01*
X248665Y116000D01*
X248804Y115298D01*
X249202Y114702D01*
X249798Y114304D01*
X250500Y114165D01*
X251202Y114304D01*
X251798Y114702D01*
X252196Y115298D01*
X252335Y116000D01*
X252196Y116702D01*
X251798Y117298D01*
X251202Y117696D01*
X250500Y117835D01*
X250406Y117817D01*
X249781Y118442D01*
Y129120D01*
X250222Y129355D01*
X250298Y129304D01*
X251000Y129165D01*
X251702Y129304D01*
X252298Y129702D01*
X252696Y130298D01*
X252835Y131000D01*
X252696Y131702D01*
X252298Y132298D01*
X252121Y132415D01*
Y152955D01*
X255479Y156312D01*
X255978Y156104D01*
Y130637D01*
X255978Y130637D01*
X256064Y130208D01*
X256307Y129844D01*
X266038Y120113D01*
Y100129D01*
X254108Y88198D01*
X253900Y88240D01*
X253198Y88100D01*
X252602Y87702D01*
X252204Y87107D01*
X252065Y86404D01*
X252204Y85702D01*
X252602Y85107D01*
X253198Y84709D01*
X253900Y84569D01*
X254602Y84709D01*
X255198Y85107D01*
X255596Y85702D01*
X255735Y86404D01*
X255694Y86612D01*
X267953Y98871D01*
X267953Y98871D01*
X268196Y99235D01*
X268281Y99664D01*
X268281Y99664D01*
Y119479D01*
X268743Y119670D01*
X270706Y117708D01*
Y94574D01*
X270298Y94493D01*
X269702Y94095D01*
X269304Y93500D01*
X269165Y92797D01*
X269304Y92095D01*
X269702Y91500D01*
X270298Y91102D01*
X271000Y90962D01*
X271702Y91102D01*
X272298Y91500D01*
X272696Y92095D01*
X272835Y92797D01*
X272781Y93072D01*
X272864Y93196D01*
X272949Y93625D01*
X272949Y93625D01*
Y118173D01*
X272949Y118173D01*
X272864Y118602D01*
X272621Y118966D01*
X272621Y118966D01*
X263884Y127702D01*
X264049Y128244D01*
X264350Y128304D01*
X264946Y128702D01*
X265343Y129298D01*
X265483Y130000D01*
X265343Y130702D01*
X264946Y131298D01*
X264769Y131415D01*
Y148846D01*
X265293Y149370D01*
X265293Y149370D01*
X265536Y149734D01*
X265621Y150163D01*
Y153585D01*
X265798Y153702D01*
X266196Y154298D01*
X266335Y155000D01*
X266196Y155702D01*
X265798Y156298D01*
X265202Y156696D01*
X264500Y156835D01*
X263798Y156696D01*
X263202Y156298D01*
X262804Y155702D01*
X262665Y155000D01*
X262804Y154298D01*
X263202Y153702D01*
X263379Y153585D01*
Y150628D01*
X262855Y150104D01*
X262612Y149740D01*
X262526Y149311D01*
X262526Y149311D01*
Y131415D01*
X262350Y131298D01*
X261952Y130702D01*
X261892Y130401D01*
X261350Y130236D01*
X259822Y131765D01*
Y146161D01*
X260793Y147133D01*
X260793Y147133D01*
X261036Y147496D01*
X261122Y147926D01*
X261122Y147926D01*
Y154585D01*
X261298Y154702D01*
X261696Y155298D01*
X261835Y156000D01*
X261696Y156702D01*
X261298Y157298D01*
X260702Y157696D01*
X260000Y157835D01*
X259622Y157760D01*
X259121Y158133D01*
Y160585D01*
X259298Y160702D01*
X259696Y161298D01*
X259835Y162000D01*
X259696Y162702D01*
X259298Y163298D01*
X258702Y163696D01*
X258000Y163835D01*
X257298Y163696D01*
X256983Y164087D01*
X256968Y164130D01*
X257093Y164254D01*
X257336Y164618D01*
X257422Y165047D01*
X257421Y165047D01*
Y166953D01*
X257336Y167382D01*
X257093Y167746D01*
X257093Y167746D01*
X255746Y169093D01*
X255382Y169336D01*
X254953Y169422D01*
D02*
G37*
G36*
X223700Y95335D02*
X222998Y95195D01*
X222402Y94797D01*
X222004Y94202D01*
X221865Y93500D01*
X222004Y92797D01*
X222402Y92202D01*
X222998Y91804D01*
X223700Y91664D01*
X223908Y91706D01*
X228548Y87066D01*
X228304Y86702D01*
X228165Y86000D01*
X228304Y85298D01*
X228702Y84702D01*
X229298Y84304D01*
X230000Y84165D01*
X230702Y84304D01*
X231298Y84702D01*
X231696Y85298D01*
X231835Y86000D01*
X231696Y86702D01*
X231298Y87298D01*
X231072Y87449D01*
X231036Y87629D01*
X230793Y87993D01*
X230793Y87993D01*
X225494Y93292D01*
X225535Y93500D01*
X225396Y94202D01*
X224998Y94797D01*
X224402Y95195D01*
X223700Y95335D01*
D02*
G37*
G36*
X405952Y71825D02*
X405250Y71685D01*
X404655Y71287D01*
X404257Y70692D01*
X404117Y69989D01*
X404204Y69554D01*
X400015Y65366D01*
X387161D01*
X387043Y65542D01*
X386448Y65940D01*
X385745Y66079D01*
X385043Y65940D01*
X384448Y65542D01*
X384050Y64946D01*
X383910Y64244D01*
X384050Y63542D01*
X384448Y62946D01*
X385043Y62549D01*
X385745Y62409D01*
X386448Y62549D01*
X387043Y62946D01*
X387161Y63122D01*
X400480D01*
X400480Y63122D01*
X400909Y63208D01*
X401273Y63451D01*
X405982Y68160D01*
X406655Y68294D01*
X407250Y68691D01*
X407648Y69287D01*
X407788Y69989D01*
X407648Y70692D01*
X407250Y71287D01*
X406655Y71685D01*
X405952Y71825D01*
D02*
G37*
G36*
X88500Y59398D02*
X87582Y59215D01*
X86804Y58696D01*
X86421Y58122D01*
X86000D01*
X86000Y58122D01*
X85571Y58036D01*
X85207Y57793D01*
X83208Y55794D01*
X83000Y55835D01*
X82298Y55696D01*
X81702Y55298D01*
X81304Y54702D01*
X81165Y54000D01*
X81304Y53298D01*
X81702Y52702D01*
X82298Y52304D01*
X83000Y52165D01*
X83702Y52304D01*
X84298Y52702D01*
X84696Y53298D01*
X84835Y54000D01*
X84794Y54208D01*
X86160Y55573D01*
X86657Y55524D01*
X86804Y55304D01*
X87582Y54785D01*
X88500Y54602D01*
X89418Y54785D01*
X90196Y55304D01*
X90715Y56082D01*
X90898Y57000D01*
X90715Y57918D01*
X90196Y58696D01*
X89418Y59215D01*
X88500Y59398D01*
D02*
G37*
G36*
X288500Y99835D02*
X287798Y99696D01*
X287202Y99298D01*
X286804Y98702D01*
X286665Y98000D01*
X286804Y97298D01*
X287202Y96702D01*
X287798Y96304D01*
X287911Y96282D01*
X293227Y90966D01*
Y59553D01*
X293082D01*
X291305Y57776D01*
Y54224D01*
X293082Y52447D01*
X296635D01*
X298411Y54224D01*
Y57776D01*
X296635Y59553D01*
X296490D01*
Y91642D01*
X296365Y92266D01*
X296012Y92795D01*
X290218Y98589D01*
X290196Y98702D01*
X289798Y99298D01*
X289202Y99696D01*
X288500Y99835D01*
D02*
G37*
G36*
X281000D02*
X280298Y99696D01*
X279702Y99298D01*
X279304Y98702D01*
X279165Y98000D01*
X279304Y97298D01*
X279702Y96702D01*
X280298Y96304D01*
X280411Y96282D01*
X284669Y92024D01*
Y75520D01*
X282799Y73651D01*
X282446Y73121D01*
X282321Y72497D01*
Y59553D01*
X282176D01*
X280400Y57776D01*
Y54224D01*
X282176Y52447D01*
X285729D01*
X287506Y54224D01*
Y57776D01*
X285729Y59553D01*
X285584D01*
Y71821D01*
X287454Y73691D01*
X287807Y74220D01*
X287931Y74844D01*
Y92700D01*
X287807Y93324D01*
X287454Y93853D01*
X282718Y98589D01*
X282696Y98702D01*
X282298Y99298D01*
X281702Y99696D01*
X281000Y99835D01*
D02*
G37*
G36*
X248500Y101835D02*
X247798Y101696D01*
X247202Y101298D01*
X246804Y100702D01*
X246665Y100000D01*
X246804Y99298D01*
X246869Y99202D01*
Y85228D01*
X246993Y84604D01*
X247346Y84075D01*
X271369Y60053D01*
X271302Y59553D01*
X271271D01*
X269495Y57776D01*
Y54224D01*
X271271Y52447D01*
X274824D01*
X276600Y54224D01*
Y57776D01*
X274824Y59553D01*
X274679D01*
Y60681D01*
X274554Y61305D01*
X274201Y61835D01*
X250131Y85904D01*
Y99202D01*
X250196Y99298D01*
X250335Y100000D01*
X250196Y100702D01*
X249798Y101298D01*
X249202Y101696D01*
X248500Y101835D01*
D02*
G37*
G36*
X233000Y99835D02*
X232298Y99696D01*
X231702Y99298D01*
X231304Y98702D01*
X231165Y98000D01*
X231304Y97298D01*
X231369Y97202D01*
Y89823D01*
X231493Y89198D01*
X231846Y88669D01*
X260463Y60053D01*
X260396Y59553D01*
X260365D01*
X258589Y57776D01*
Y54224D01*
X260365Y52447D01*
X263918D01*
X265694Y54224D01*
Y57776D01*
X263918Y59553D01*
X263773D01*
Y60681D01*
X263649Y61305D01*
X263295Y61835D01*
X234631Y90499D01*
Y97202D01*
X234696Y97298D01*
X234835Y98000D01*
X234696Y98702D01*
X234298Y99298D01*
X233702Y99696D01*
X233000Y99835D01*
D02*
G37*
G36*
X43800Y49806D02*
Y43400D01*
X50206D01*
X50145Y44021D01*
X49731Y45388D01*
X49057Y46647D01*
X48151Y47751D01*
X47047Y48657D01*
X45788Y49330D01*
X44421Y49745D01*
X43800Y49806D01*
D02*
G37*
G36*
X42200D02*
X41579Y49745D01*
X40212Y49330D01*
X38953Y48657D01*
X37849Y47751D01*
X36943Y46647D01*
X36270Y45388D01*
X35855Y44021D01*
X35794Y43400D01*
X42200D01*
Y49806D01*
D02*
G37*
G36*
X325985Y57899D02*
X318495D01*
X314750Y54154D01*
Y46665D01*
X318495Y42920D01*
X325985D01*
X329730Y46665D01*
Y54154D01*
X325985Y57899D01*
D02*
G37*
G36*
X227599D02*
X220110D01*
X216365Y54154D01*
Y46665D01*
X220110Y42920D01*
X227599D01*
X231344Y46665D01*
Y54154D01*
X227599Y57899D01*
D02*
G37*
G36*
X291182Y48372D02*
X287629D01*
X285853Y46595D01*
Y43042D01*
X287629Y41266D01*
X291182D01*
X292958Y43042D01*
Y46595D01*
X291182Y48372D01*
D02*
G37*
G36*
X280276D02*
X276724D01*
X274947Y46595D01*
Y43042D01*
X276724Y41266D01*
X280276D01*
X282053Y43042D01*
Y46595D01*
X280276Y48372D01*
D02*
G37*
G36*
X269371D02*
X265818D01*
X264042Y46595D01*
Y43042D01*
X265818Y41266D01*
X269371D01*
X271147Y43042D01*
Y46595D01*
X269371Y48372D01*
D02*
G37*
G36*
X258465D02*
X254913D01*
X253136Y46595D01*
Y43042D01*
X254913Y41266D01*
X258465D01*
X260242Y43042D01*
Y46595D01*
X258465Y48372D01*
D02*
G37*
G36*
X133500Y45341D02*
X132521Y45212D01*
X131609Y44834D01*
X130826Y44233D01*
X130225Y43450D01*
X129847Y42538D01*
X129718Y41559D01*
X129847Y40580D01*
X130225Y39668D01*
X130826Y38885D01*
X131609Y38284D01*
X132521Y37906D01*
X133500Y37777D01*
X134479Y37906D01*
X135391Y38284D01*
X136174Y38885D01*
X136775Y39668D01*
X137153Y40580D01*
X137282Y41559D01*
X137153Y42538D01*
X136775Y43450D01*
X136174Y44233D01*
X135391Y44834D01*
X134479Y45212D01*
X133500Y45341D01*
D02*
G37*
G36*
X76000D02*
X75021Y45212D01*
X74109Y44834D01*
X73326Y44233D01*
X72725Y43450D01*
X72347Y42538D01*
X72218Y41559D01*
X72347Y40580D01*
X72725Y39668D01*
X73326Y38885D01*
X74109Y38284D01*
X75021Y37906D01*
X76000Y37777D01*
X76979Y37906D01*
X77891Y38284D01*
X78674Y38885D01*
X79275Y39668D01*
X79653Y40580D01*
X79782Y41559D01*
X79653Y42538D01*
X79275Y43450D01*
X78674Y44233D01*
X77891Y44834D01*
X76979Y45212D01*
X76000Y45341D01*
D02*
G37*
G36*
X416252Y39147D02*
Y37300D01*
X418100D01*
X417856Y37888D01*
X417415Y38463D01*
X416840Y38904D01*
X416252Y39147D01*
D02*
G37*
G36*
X414652D02*
X414064Y38904D01*
X413489Y38463D01*
X413048Y37888D01*
X412805Y37300D01*
X414652D01*
Y39147D01*
D02*
G37*
G36*
X50206Y41800D02*
X43800D01*
Y35394D01*
X44421Y35455D01*
X45788Y35870D01*
X47047Y36543D01*
X48151Y37449D01*
X49057Y38553D01*
X49731Y39812D01*
X50145Y41179D01*
X50206Y41800D01*
D02*
G37*
G36*
X42200D02*
X35794D01*
X35855Y41179D01*
X36270Y39812D01*
X36943Y38553D01*
X37849Y37449D01*
X38953Y36543D01*
X40212Y35870D01*
X41579Y35455D01*
X42200Y35394D01*
Y41800D01*
D02*
G37*
G36*
X418100Y35700D02*
X416252D01*
Y33853D01*
X416840Y34096D01*
X417415Y34537D01*
X417856Y35112D01*
X418100Y35700D01*
D02*
G37*
G36*
X414652D02*
X412805D01*
X413048Y35112D01*
X413489Y34537D01*
X414064Y34096D01*
X414652Y33853D01*
Y35700D01*
D02*
G37*
G36*
X91000Y24835D02*
X90298Y24696D01*
X89702Y24298D01*
X89304Y23702D01*
X89165Y23000D01*
X89289Y22375D01*
X87707Y20793D01*
X87464Y20429D01*
X87378Y20000D01*
X87378Y20000D01*
Y19079D01*
X86804Y18696D01*
X86285Y17918D01*
X86102Y17000D01*
X86285Y16082D01*
X86804Y15304D01*
X87582Y14785D01*
X88500Y14602D01*
X89418Y14785D01*
X90196Y15304D01*
X90715Y16082D01*
X90898Y17000D01*
X90715Y17918D01*
X90196Y18696D01*
X89662Y19052D01*
X89634Y19548D01*
X91313Y21227D01*
X91702Y21304D01*
X92298Y21702D01*
X92696Y22298D01*
X92835Y23000D01*
X92696Y23702D01*
X92298Y24298D01*
X91702Y24696D01*
X91000Y24835D01*
D02*
G37*
G36*
X133500Y17782D02*
X132521Y17653D01*
X131609Y17275D01*
X130826Y16674D01*
X130225Y15891D01*
X129847Y14979D01*
X129718Y14000D01*
X129847Y13021D01*
X130225Y12109D01*
X130826Y11326D01*
X131609Y10725D01*
X132521Y10347D01*
X133500Y10218D01*
X134479Y10347D01*
X135391Y10725D01*
X136174Y11326D01*
X136775Y12109D01*
X137153Y13021D01*
X137282Y14000D01*
X137153Y14979D01*
X136775Y15891D01*
X136174Y16674D01*
X135391Y17275D01*
X134479Y17653D01*
X133500Y17782D01*
D02*
G37*
G36*
X76000D02*
X75021Y17653D01*
X74109Y17275D01*
X73326Y16674D01*
X72725Y15891D01*
X72347Y14979D01*
X72218Y14000D01*
X72347Y13021D01*
X72725Y12109D01*
X73326Y11326D01*
X74109Y10725D01*
X75021Y10347D01*
X76000Y10218D01*
X76979Y10347D01*
X77891Y10725D01*
X78674Y11326D01*
X79275Y12109D01*
X79653Y13021D01*
X79782Y14000D01*
X79653Y14979D01*
X79275Y15891D01*
X78674Y16674D01*
X77891Y17275D01*
X76979Y17653D01*
X76000Y17782D01*
D02*
G37*
G36*
X99000Y313735D02*
Y307500D01*
X105235D01*
X105154Y308324D01*
X104768Y309596D01*
X104141Y310769D01*
X103297Y311797D01*
X102269Y312641D01*
X101096Y313268D01*
X99824Y313654D01*
X99000Y313735D01*
D02*
G37*
G36*
X98000D02*
X97176Y313654D01*
X95904Y313268D01*
X94731Y312641D01*
X93703Y311797D01*
X92859Y310769D01*
X92232Y309596D01*
X91846Y308324D01*
X91765Y307500D01*
X98000D01*
Y313735D01*
D02*
G37*
G36*
X105235Y306500D02*
X99000D01*
Y300265D01*
X99824Y300346D01*
X101096Y300732D01*
X102269Y301359D01*
X103297Y302203D01*
X104141Y303231D01*
X104768Y304404D01*
X105154Y305676D01*
X105235Y306500D01*
D02*
G37*
G36*
X98000D02*
X91765D01*
X91846Y305676D01*
X92232Y304404D01*
X92859Y303231D01*
X93703Y302203D01*
X94731Y301359D01*
X95904Y300732D01*
X97176Y300346D01*
X98000Y300265D01*
Y306500D01*
D02*
G37*
G36*
X122025Y303050D02*
X116975D01*
X114450Y300525D01*
Y295475D01*
X116975Y292950D01*
X122025D01*
X124550Y295475D01*
Y300525D01*
X122025Y303050D01*
D02*
G37*
G36*
X82025D02*
X76975D01*
X74450Y300525D01*
Y295475D01*
X76975Y292950D01*
X82025D01*
X84550Y295475D01*
Y300525D01*
X82025Y303050D01*
D02*
G37*
G36*
X99500Y285285D02*
X98079Y285145D01*
X96712Y284731D01*
X95453Y284057D01*
X94500Y283276D01*
X93547Y284057D01*
X92288Y284731D01*
X90921Y285145D01*
X89500Y285285D01*
X88079Y285145D01*
X86712Y284731D01*
X85453Y284057D01*
X84349Y283151D01*
X83443Y282047D01*
X82770Y280788D01*
X82355Y279421D01*
X82215Y278000D01*
X82355Y276579D01*
X82770Y275212D01*
X83443Y273953D01*
X84349Y272849D01*
X85453Y271943D01*
X86712Y271269D01*
X87560Y271012D01*
X87682Y270527D01*
X87539Y270384D01*
X87116Y270256D01*
X86039Y269680D01*
X85095Y268905D01*
X84320Y267961D01*
X83744Y266884D01*
X83390Y265715D01*
X83270Y264500D01*
X83390Y263285D01*
X83744Y262116D01*
X84320Y261039D01*
X85095Y260095D01*
X86039Y259320D01*
X87116Y258744D01*
X88285Y258390D01*
X89500Y258270D01*
X90715Y258390D01*
X91884Y258744D01*
X92961Y259320D01*
X93905Y260095D01*
X94680Y261039D01*
X94824Y261309D01*
X95904Y260732D01*
X97176Y260346D01*
X98500Y260215D01*
X99824Y260346D01*
X101096Y260732D01*
X102269Y261359D01*
X103297Y262203D01*
X104141Y263231D01*
X104768Y264404D01*
X105154Y265676D01*
X105285Y267000D01*
X105154Y268324D01*
X104768Y269596D01*
X104141Y270769D01*
X103614Y271411D01*
X103594Y271572D01*
X103713Y272079D01*
X104651Y272849D01*
X105557Y273953D01*
X106230Y275212D01*
X106645Y276579D01*
X106785Y278000D01*
X106645Y279421D01*
X106230Y280788D01*
X105557Y282047D01*
X104651Y283151D01*
X103547Y284057D01*
X102288Y284731D01*
X100921Y285145D01*
X99500Y285285D01*
D02*
G37*
G36*
X43000Y291583D02*
X41657Y291451D01*
X40366Y291059D01*
X39176Y290423D01*
X38133Y289567D01*
X37277Y288524D01*
X36641Y287334D01*
X36249Y286043D01*
X36117Y284700D01*
X36249Y283357D01*
X36641Y282066D01*
X37277Y280876D01*
X38133Y279833D01*
X39176Y278977D01*
X40366Y278341D01*
X41657Y277949D01*
X43000Y277817D01*
X44343Y277949D01*
X45634Y278341D01*
X46824Y278977D01*
X47867Y279833D01*
X48723Y280876D01*
X49359Y282066D01*
X49751Y283357D01*
X49883Y284700D01*
X49751Y286043D01*
X49359Y287334D01*
X48723Y288524D01*
X47867Y289567D01*
X46824Y290423D01*
X45634Y291059D01*
X44343Y291451D01*
X43000Y291583D01*
D02*
G37*
G36*
X71560Y255175D02*
X70858Y255036D01*
X70262Y254638D01*
X69864Y254043D01*
X69725Y253340D01*
X69766Y253132D01*
X52095Y235462D01*
X51475D01*
X51358Y235638D01*
X50762Y236036D01*
X50060Y236175D01*
X49358Y236036D01*
X48762Y235638D01*
X48364Y235043D01*
X48225Y234340D01*
X48364Y233638D01*
X48762Y233042D01*
X49358Y232645D01*
X50060Y232505D01*
X50762Y232645D01*
X51358Y233042D01*
X51475Y233219D01*
X52560D01*
X52560Y233219D01*
X52989Y233304D01*
X53353Y233547D01*
X71352Y251546D01*
X71560Y251505D01*
X72262Y251645D01*
X72858Y252042D01*
X73255Y252638D01*
X73395Y253340D01*
X73255Y254043D01*
X72858Y254638D01*
X72262Y255036D01*
X71560Y255175D01*
D02*
G37*
G36*
X108500Y249398D02*
X107582Y249216D01*
X106804Y248696D01*
X106284Y247918D01*
X106102Y247000D01*
X106284Y246082D01*
X106804Y245304D01*
X107378Y244921D01*
Y241811D01*
X106798Y241696D01*
X106202Y241298D01*
X105804Y240702D01*
X105665Y240000D01*
X105804Y239298D01*
X106202Y238702D01*
X106798Y238304D01*
X107500Y238165D01*
X108202Y238304D01*
X108798Y238702D01*
X109196Y239298D01*
X109335Y240000D01*
X109294Y240208D01*
X109536Y240571D01*
X109622Y241000D01*
Y244921D01*
X110196Y245304D01*
X110715Y246082D01*
X110898Y247000D01*
X110715Y247918D01*
X110196Y248696D01*
X109418Y249216D01*
X108500Y249398D01*
D02*
G37*
G36*
X128260Y240605D02*
X127334Y240421D01*
X126550Y239896D01*
X126026Y239112D01*
X125842Y238187D01*
X126026Y237261D01*
X126550Y236477D01*
X127334Y235953D01*
X128260Y235769D01*
X129185Y235953D01*
X129970Y236477D01*
X130494Y237261D01*
X130678Y238187D01*
X130494Y239112D01*
X129970Y239896D01*
X129185Y240421D01*
X128260Y240605D01*
D02*
G37*
G36*
X108260Y236605D02*
X107334Y236421D01*
X106550Y235896D01*
X106026Y235112D01*
X105842Y234187D01*
X106026Y233261D01*
X106550Y232477D01*
X107334Y231953D01*
X108260Y231768D01*
X109185Y231953D01*
X109970Y232477D01*
X110494Y233261D01*
X110678Y234187D01*
X110494Y235112D01*
X109970Y235896D01*
X109185Y236421D01*
X108260Y236605D01*
D02*
G37*
G36*
X107760Y230522D02*
X107057Y230382D01*
X106462Y229984D01*
X106064Y229389D01*
X106019Y229162D01*
X93273D01*
X93058Y229484D01*
X92462Y229882D01*
X91760Y230022D01*
X91057Y229882D01*
X90462Y229484D01*
X90246Y229162D01*
X72175D01*
X72058Y229338D01*
X71462Y229736D01*
X70760Y229875D01*
X70057Y229736D01*
X69462Y229338D01*
X69064Y228743D01*
X68925Y228040D01*
X69064Y227338D01*
X69462Y226742D01*
X70057Y226345D01*
X70760Y226205D01*
X71462Y226345D01*
X72058Y226742D01*
X72175Y226919D01*
X90442D01*
X90462Y226889D01*
X91057Y226491D01*
X91760Y226351D01*
X92462Y226491D01*
X93058Y226889D01*
X93077Y226919D01*
X107113D01*
X107113Y226919D01*
X107268Y226949D01*
X107760Y226851D01*
X108462Y226991D01*
X109058Y227389D01*
X109455Y227984D01*
X109595Y228687D01*
X109455Y229389D01*
X109058Y229984D01*
X108462Y230382D01*
X107760Y230522D01*
D02*
G37*
G36*
X128260Y232605D02*
X127334Y232421D01*
X126550Y231896D01*
X126026Y231112D01*
X125842Y230187D01*
X126026Y229261D01*
X126550Y228477D01*
X127334Y227953D01*
X128260Y227768D01*
X129185Y227953D01*
X129970Y228477D01*
X130494Y229261D01*
X130678Y230187D01*
X130494Y231112D01*
X129970Y231896D01*
X129185Y232421D01*
X128260Y232605D01*
D02*
G37*
G36*
X118500Y225335D02*
X117798Y225196D01*
X117202Y224798D01*
X116804Y224202D01*
X116665Y223500D01*
X116804Y222798D01*
X117202Y222202D01*
X117798Y221804D01*
X118500Y221665D01*
X118828Y221730D01*
X124279Y216279D01*
X124610Y216058D01*
X125000Y215980D01*
X126353D01*
X126804Y215304D01*
X127582Y214785D01*
X128500Y214602D01*
X129418Y214785D01*
X130196Y215304D01*
X130716Y216082D01*
X130898Y217000D01*
X130716Y217918D01*
X130196Y218696D01*
X129418Y219215D01*
X128500Y219398D01*
X127582Y219215D01*
X126804Y218696D01*
X126353Y218020D01*
X125422D01*
X120270Y223172D01*
X120335Y223500D01*
X120196Y224202D01*
X119798Y224798D01*
X119202Y225196D01*
X118500Y225335D01*
D02*
G37*
G36*
X110000Y224835D02*
X109298Y224696D01*
X108702Y224298D01*
X108304Y223702D01*
X108165Y223000D01*
X108304Y222298D01*
X108702Y221702D01*
X109298Y221304D01*
X110000Y221165D01*
X110328Y221230D01*
X115279Y216279D01*
X115610Y216058D01*
X116000Y215980D01*
X116353D01*
X116804Y215304D01*
X117582Y214785D01*
X118500Y214602D01*
X119418Y214785D01*
X120196Y215304D01*
X120715Y216082D01*
X120898Y217000D01*
X120715Y217918D01*
X120196Y218696D01*
X119418Y219215D01*
X118500Y219398D01*
X117582Y219215D01*
X116804Y218696D01*
X116600Y218389D01*
X116102Y218340D01*
X111770Y222672D01*
X111835Y223000D01*
X111696Y223702D01*
X111298Y224298D01*
X110702Y224696D01*
X110000Y224835D01*
D02*
G37*
G36*
X66760Y221022D02*
X66057Y220882D01*
X65462Y220484D01*
X65064Y219889D01*
X64925Y219187D01*
X65064Y218484D01*
X65462Y217889D01*
X66057Y217491D01*
X66760Y217351D01*
X67462Y217491D01*
X68058Y217889D01*
X68175Y218065D01*
X87295D01*
X90049Y215312D01*
X89925Y214687D01*
X90064Y213984D01*
X90462Y213389D01*
X91057Y212991D01*
X91760Y212851D01*
X92462Y212991D01*
X93058Y213389D01*
X93455Y213984D01*
X93595Y214687D01*
X93455Y215389D01*
X93058Y215984D01*
X92462Y216382D01*
X92073Y216460D01*
X88553Y219980D01*
X88189Y220223D01*
X87760Y220308D01*
X87760Y220308D01*
X68175D01*
X68058Y220484D01*
X67462Y220882D01*
X66760Y221022D01*
D02*
G37*
G36*
X46500Y215335D02*
X45798Y215196D01*
X45202Y214798D01*
X44993Y214484D01*
X44707Y214293D01*
X44464Y213929D01*
X44378Y213500D01*
Y210000D01*
X44378Y210000D01*
X44464Y209571D01*
X44707Y209207D01*
X46237Y207677D01*
X46102Y207000D01*
X46284Y206082D01*
X46804Y205304D01*
X47582Y204784D01*
X48500Y204602D01*
X49418Y204784D01*
X50196Y205304D01*
X50716Y206082D01*
X50898Y207000D01*
X50716Y207918D01*
X50196Y208696D01*
X49418Y209215D01*
X48500Y209398D01*
X47823Y209263D01*
X46622Y210465D01*
Y211689D01*
X47202Y211804D01*
X47798Y212202D01*
X48196Y212798D01*
X48335Y213500D01*
X48196Y214202D01*
X47798Y214798D01*
X47202Y215196D01*
X46500Y215335D01*
D02*
G37*
G36*
X122260Y203022D02*
X121557Y202882D01*
X120962Y202484D01*
X120564Y201889D01*
X120429Y201206D01*
X98743D01*
X98558Y201484D01*
X97962Y201882D01*
X97260Y202022D01*
X96557Y201882D01*
X95962Y201484D01*
X95564Y200889D01*
X95425Y200187D01*
X95564Y199484D01*
X95962Y198889D01*
X96557Y198491D01*
X97260Y198351D01*
X97962Y198491D01*
X98558Y198889D01*
X98743Y199167D01*
X121260D01*
X121650Y199245D01*
X121913Y199420D01*
X122260Y199351D01*
X122962Y199491D01*
X123558Y199889D01*
X123955Y200484D01*
X124095Y201187D01*
X123955Y201889D01*
X123558Y202484D01*
X122962Y202882D01*
X122260Y203022D01*
D02*
G37*
G36*
X98500Y189398D02*
X97582Y189216D01*
X96804Y188696D01*
X96353Y188020D01*
X88000D01*
X87610Y187942D01*
X87279Y187721D01*
X84328Y184770D01*
X84000Y184835D01*
X83298Y184696D01*
X82702Y184298D01*
X82304Y183702D01*
X82165Y183000D01*
X82262Y182510D01*
X81833Y182196D01*
X81130Y182335D01*
X80802Y182270D01*
X79520Y183553D01*
Y184853D01*
X80196Y185304D01*
X80716Y186082D01*
X80898Y187000D01*
X80716Y187918D01*
X80196Y188696D01*
X79418Y189216D01*
X78500Y189398D01*
X77582Y189216D01*
X76804Y188696D01*
X76284Y187918D01*
X76102Y187000D01*
X76284Y186082D01*
X76804Y185304D01*
X77480Y184853D01*
Y183131D01*
X77558Y182740D01*
X77779Y182410D01*
X79361Y180828D01*
X79295Y180500D01*
X79435Y179798D01*
X79833Y179202D01*
X80428Y178804D01*
X81130Y178665D01*
X81833Y178804D01*
X82428Y179202D01*
X82826Y179798D01*
X82966Y180500D01*
X82868Y180990D01*
X83298Y181304D01*
X84000Y181165D01*
X84702Y181304D01*
X85298Y181702D01*
X85696Y182298D01*
X85835Y183000D01*
X85770Y183328D01*
X88422Y185980D01*
X96353D01*
X96804Y185304D01*
X97582Y184784D01*
X98500Y184602D01*
X99418Y184784D01*
X100196Y185304D01*
X100715Y186082D01*
X100898Y187000D01*
X100715Y187918D01*
X100196Y188696D01*
X99418Y189216D01*
X98500Y189398D01*
D02*
G37*
%LPD*%
D10*
X442500Y237500D02*
X448500Y231500D01*
X442500Y237500D02*
Y253000D01*
X438500Y257000D02*
X442500Y253000D01*
X448500Y276500D02*
X450000Y278000D01*
X448500Y267000D02*
Y276500D01*
D15*
X404000Y212000D02*
Y235000D01*
X399000Y207000D02*
X404000Y212000D01*
X379173Y252697D02*
Y259504D01*
X375822Y262854D02*
X379173Y259504D01*
X396300Y242700D02*
X404000Y235000D01*
X389170Y242700D02*
X396300D01*
X379173Y252697D02*
X389170Y242700D01*
X273047Y56000D02*
Y60681D01*
X262142Y56000D02*
Y60681D01*
X428500Y143452D02*
Y147000D01*
Y143452D02*
X432352Y139600D01*
X233000Y89823D02*
Y98000D01*
Y89823D02*
X262142Y60681D01*
X248500Y85228D02*
Y100000D01*
Y85228D02*
X273047Y60681D01*
X281000Y98000D02*
X286300Y92700D01*
Y74844D02*
Y92700D01*
X283953Y72497D02*
X286300Y74844D01*
X283953Y56000D02*
Y72497D01*
X288500Y98000D02*
X294858Y91642D01*
Y56000D02*
Y91642D01*
X448500Y57000D02*
X454500Y51000D01*
X249741Y253000D02*
X277609D01*
X247741Y251000D02*
X249741Y253000D01*
X318500Y149831D02*
Y157000D01*
X318000Y149331D02*
X318500Y149831D01*
X318000Y149223D02*
Y149331D01*
X415906Y138900D02*
X431652D01*
X414306Y140500D02*
X415906Y138900D01*
X398452Y140500D02*
X414306D01*
X431652Y138900D02*
X432352Y139600D01*
X437552D01*
D17*
X461747Y225300D02*
X466947Y220100D01*
X145000Y210278D02*
Y222500D01*
Y210278D02*
X148278Y207000D01*
X400480Y64244D02*
X406089Y69853D01*
X255518Y243300D02*
X301203D01*
X253718Y241500D02*
X255518Y243300D01*
X253500Y241500D02*
X253718D01*
X301203Y243300D02*
X307503Y237000D01*
X261652Y241000D02*
X299193D01*
X302000Y238193D01*
X343747Y181000D02*
X346000D01*
X327000Y164253D02*
X343747Y181000D01*
X327000Y137000D02*
Y164253D01*
X330700Y164700D02*
X342000Y176000D01*
X330700Y133300D02*
Y164700D01*
X226529Y235300D02*
X237200D01*
X240500Y232000D01*
Y228031D02*
Y232000D01*
X222700Y239129D02*
X226529Y235300D01*
X222700Y239129D02*
Y244953D01*
X234076Y253000D02*
X236400Y255324D01*
X230747Y253000D02*
X234076D01*
X222700Y244953D02*
X230747Y253000D01*
X230123Y254639D02*
X233453D01*
X220500Y245015D02*
X230123Y254639D01*
X220500Y238622D02*
Y245015D01*
X236400Y255324D02*
Y259276D01*
X234800Y255986D02*
Y258613D01*
X233453Y254639D02*
X234800Y255986D01*
X232618Y260795D02*
X234800Y258613D01*
X232453Y246879D02*
X250500Y228831D01*
X230433Y246879D02*
X232453D01*
X227700Y244146D02*
X230433Y246879D01*
X225146Y244146D02*
X227700D01*
X225000Y244000D02*
X225146Y244146D01*
X235000Y260676D02*
X236400Y259276D01*
X232618Y260795D02*
Y269000D01*
X235000Y260676D02*
Y266000D01*
X220500Y238622D02*
X230500Y228622D01*
Y228031D02*
Y228622D01*
X250500Y228031D02*
Y228831D01*
X231500Y244579D02*
X244159Y231920D01*
Y228607D02*
Y231920D01*
Y228607D02*
X250085Y222681D01*
Y218446D02*
Y222681D01*
Y218446D02*
X250500Y218032D01*
X234500Y212922D02*
Y233000D01*
X222346Y200768D02*
X234500Y212922D01*
X145768Y200768D02*
X222346D01*
X145500Y203000D02*
X216059D01*
X230500Y217441D01*
Y218032D01*
X268014Y148409D02*
X268028Y148423D01*
X268014Y129002D02*
Y148409D01*
X268000Y128988D02*
X268014Y129002D01*
X258700Y131300D02*
Y146626D01*
X257100Y130637D02*
Y156650D01*
X258000Y157550D01*
X257100Y130637D02*
X267160Y120577D01*
X258700Y146626D02*
X260000Y147926D01*
X258700Y131300D02*
X271827Y118173D01*
X260000Y147926D02*
Y156000D01*
X251000Y131000D02*
Y153419D01*
X248659Y117977D02*
Y153341D01*
Y117977D02*
X250500Y116137D01*
X248659Y153341D02*
X254000Y158682D01*
X251000Y153419D02*
X255600Y158019D01*
X263648Y130000D02*
Y149311D01*
X264500Y150163D01*
Y155000D01*
X258000Y157550D02*
Y162000D01*
X267160Y99664D02*
Y120577D01*
X271827Y93625D02*
Y118173D01*
X271000Y92797D02*
X271827Y93625D01*
X249500Y164753D02*
X253047Y168300D01*
X249500Y158000D02*
Y164753D01*
X255600Y158019D02*
Y164347D01*
X254000Y158682D02*
Y166000D01*
X253047Y168300D02*
X254953D01*
X256300Y166953D01*
Y165047D02*
Y166953D01*
X255600Y164347D02*
X256300Y165047D01*
X250500Y116000D02*
Y116137D01*
X187903Y239969D02*
X188282D01*
X200220Y228031D01*
X200500D01*
X177000Y246691D02*
X181000Y242691D01*
X177000Y246691D02*
Y253000D01*
X185000Y177000D02*
X190000Y182000D01*
X185000Y171000D02*
Y177000D01*
X293093Y264000D02*
X330500D01*
X88500Y20000D02*
X91500Y23000D01*
X338085Y281771D02*
X338907Y282593D01*
X287093Y270000D02*
X293093Y264000D01*
X330500D02*
X344000Y277500D01*
X284500Y270000D02*
X287093D01*
X277000Y277500D02*
X284500Y270000D01*
X447077Y148423D02*
X458500Y137000D01*
X437577Y148423D02*
X447077D01*
X253900Y86404D02*
X267160Y99664D01*
X230000Y86000D02*
Y87200D01*
X223700Y93500D02*
X230000Y87200D01*
X385745Y64244D02*
X400480D01*
X82598Y96620D02*
X87019Y92198D01*
X82598Y96620D02*
Y142895D01*
X126622Y154122D02*
X137500Y165000D01*
X93824Y154122D02*
X126622D01*
X82598Y142895D02*
X93824Y154122D01*
X135900Y193400D02*
X145500Y203000D01*
X135900Y165900D02*
Y193400D01*
X126000Y156000D02*
X135900Y165900D01*
X137500Y192500D02*
X145768Y200768D01*
X137500Y165000D02*
Y192500D01*
X75747Y156000D02*
X126000D01*
X70200Y150453D02*
X75747Y156000D01*
X70200Y101631D02*
X82826Y89005D01*
X70200Y101631D02*
Y150453D01*
X82826Y89005D02*
X83619Y89798D01*
X263501Y298000D02*
X267104D01*
X257427Y304074D02*
X263501Y298000D01*
X332500Y281771D02*
X338085D01*
X338907Y282593D02*
X344000Y277500D01*
X70760Y228040D02*
X107113D01*
X45500Y210000D02*
Y213500D01*
X83000Y54000D02*
X86000Y57000D01*
X88500D01*
X91000Y23000D02*
X91500D01*
X88500Y17000D02*
Y20000D01*
X418500Y222500D02*
X424000Y228000D01*
X418500Y217000D02*
Y222500D01*
X423000Y237500D02*
X423500Y237000D01*
X428500D01*
X45500Y210000D02*
X48500Y207000D01*
X89500Y264500D02*
X92000Y267000D01*
X98500D01*
X107500Y240000D02*
X108500Y241000D01*
Y247000D01*
X45500Y213500D02*
X46500D01*
X467076Y220228D02*
Y220524D01*
X466947Y220100D02*
X467076Y220228D01*
X437000Y224000D02*
X437400D01*
X438700Y225300D01*
X461747D01*
X463200Y227100D02*
X466500Y223800D01*
X436400Y227100D02*
X463200D01*
X50060Y234340D02*
X52560D01*
X71560Y253340D01*
X66760Y219187D02*
X87760D01*
X91760Y215187D01*
Y214687D02*
Y215187D01*
X107113Y228040D02*
X107760Y228687D01*
D18*
X78500Y183131D02*
X81130Y180500D01*
X78500Y183131D02*
Y187000D01*
X84000Y183000D02*
X88000Y187000D01*
X98500D01*
X355750Y161868D02*
X361952Y155666D01*
X355750Y161868D02*
Y163732D01*
X361952Y132500D02*
Y155666D01*
X357068Y165050D02*
X371632D01*
X355750Y163732D02*
X357068Y165050D01*
X371632D02*
X373682Y163000D01*
X448500Y237000D02*
X453000Y232500D01*
X438500Y235000D02*
Y247000D01*
Y235000D02*
X442500Y231000D01*
X448500Y237000D02*
Y257000D01*
X110000Y223000D02*
X116000Y217000D01*
X118500D01*
Y223500D02*
X125000Y217000D01*
X128500D01*
X121260Y200187D02*
X122260Y201187D01*
X373682Y163000D02*
X384500D01*
X435452Y178500D02*
Y186500D01*
X97260Y200187D02*
X121260D01*
D113*
X180500Y218032D02*
D03*
Y228031D02*
D03*
X190500Y218032D02*
D03*
Y228031D02*
D03*
X200500Y218032D02*
D03*
Y228031D02*
D03*
X210500Y218032D02*
D03*
Y228031D02*
D03*
X220500Y218032D02*
D03*
Y228031D02*
D03*
X230500Y218032D02*
D03*
Y228031D02*
D03*
X240500Y218032D02*
D03*
Y228031D02*
D03*
X250500Y218032D02*
D03*
Y228031D02*
D03*
X260500Y218032D02*
D03*
Y228031D02*
D03*
X270500Y218032D02*
D03*
Y228031D02*
D03*
X280500Y218032D02*
D03*
Y228031D02*
D03*
X290500Y218032D02*
D03*
Y228031D02*
D03*
X300500Y218032D02*
D03*
Y228031D02*
D03*
X310500Y218032D02*
D03*
Y228031D02*
D03*
X320500Y218032D02*
D03*
Y228031D02*
D03*
X330500Y218032D02*
D03*
Y228031D02*
D03*
X340500Y218032D02*
D03*
Y228031D02*
D03*
X350500Y218032D02*
D03*
Y228031D02*
D03*
X370500D02*
D03*
Y218032D02*
D03*
X360500Y228031D02*
D03*
Y218032D02*
D03*
D117*
X128260Y230187D02*
D03*
Y238187D02*
D03*
X108260Y234187D02*
D03*
X445380Y242079D02*
D03*
X465380Y246079D02*
D03*
Y238079D02*
D03*
D124*
X399950Y245550D02*
X421550D01*
X422000Y246000D01*
X390350Y245550D02*
X399950D01*
X360500Y162800D02*
X370700D01*
X358000D02*
X360500D01*
X370700D02*
X375000Y158500D01*
X382023Y253877D02*
X390350Y245550D01*
X101519Y95198D02*
X117500Y79217D01*
Y17000D02*
Y79217D01*
X164000Y5000D02*
X174000Y15000D01*
X420669Y142169D02*
Y142309D01*
X418500Y144478D02*
X420669Y142309D01*
X418500Y144478D02*
Y145582D01*
X375000Y158500D02*
X377500D01*
X432000Y175000D02*
Y183000D01*
X117500Y17000D02*
X129500Y5000D01*
X164000D01*
X101519Y95198D02*
Y116198D01*
D125*
X448452Y83500D02*
X466500D01*
X236000Y41335D02*
X250951Y56286D01*
X344500Y20500D02*
Y35000D01*
Y20500D02*
X350000Y15000D01*
X420423D01*
X444250Y38827D01*
X236000Y35000D02*
Y41335D01*
X303442Y79255D02*
X332141D01*
X303970Y108144D02*
X306000Y106114D01*
X332500Y79614D01*
X444250Y39084D02*
X466500Y61334D01*
X332500Y79614D02*
X344500Y67614D01*
X332141Y79255D02*
X332500Y79614D01*
X344500Y35000D02*
Y67614D01*
X236000Y35000D02*
X344500D01*
X194000D02*
X236000D01*
X174000Y15000D02*
X194000Y35000D01*
X444250Y38827D02*
Y39084D01*
X466500Y61334D02*
Y83500D01*
D128*
X294858Y56000D02*
D03*
X283953D02*
D03*
X273047D02*
D03*
X262142D02*
D03*
X251236D02*
D03*
X289405Y44819D02*
D03*
X278500D02*
D03*
X267595D02*
D03*
X256689D02*
D03*
D129*
X322240Y50409D02*
D03*
X223854D02*
D03*
D130*
X79500Y298000D02*
D03*
X119500D02*
D03*
D131*
X89500Y278000D02*
D03*
X99500D02*
D03*
D132*
X399000Y207000D02*
D03*
X145000Y222500D02*
D03*
X126374Y291810D02*
D03*
X122624Y284311D02*
D03*
X126374Y276811D02*
D03*
X122624Y269310D02*
D03*
X126374Y261810D02*
D03*
X122624Y254310D02*
D03*
X126374Y246811D02*
D03*
X122624Y224310D02*
D03*
Y209311D02*
D03*
X115123Y284311D02*
D03*
X118874Y276811D02*
D03*
X115123Y269310D02*
D03*
X118874Y261810D02*
D03*
X115123Y254310D02*
D03*
X118874Y246811D02*
D03*
X115123Y209311D02*
D03*
Y194310D02*
D03*
X107624Y299310D02*
D03*
X111373Y291810D02*
D03*
X107624Y284311D02*
D03*
X111373Y276811D02*
D03*
X107624Y269310D02*
D03*
X111373Y261810D02*
D03*
X107624Y254310D02*
D03*
Y194310D02*
D03*
X103874Y291810D02*
D03*
X100124Y254310D02*
D03*
X103874Y246811D02*
D03*
X100124Y239311D02*
D03*
X92624Y299310D02*
D03*
Y254310D02*
D03*
X96373Y246811D02*
D03*
X92624Y239311D02*
D03*
Y194310D02*
D03*
X85123Y254310D02*
D03*
X88873Y231810D02*
D03*
Y201811D02*
D03*
X85123Y194310D02*
D03*
X77623Y269310D02*
D03*
X81374Y261810D02*
D03*
X77623Y254310D02*
D03*
X70123Y299310D02*
D03*
X73874Y261810D02*
D03*
Y231810D02*
D03*
Y216810D02*
D03*
X70123Y209311D02*
D03*
X62624Y299310D02*
D03*
X66373Y291810D02*
D03*
X62624Y284311D02*
D03*
X55124Y299310D02*
D03*
X58873Y291810D02*
D03*
X55124Y284311D02*
D03*
X47624Y299310D02*
D03*
X51373Y291810D02*
D03*
Y276811D02*
D03*
X47624Y269310D02*
D03*
X40124Y299310D02*
D03*
Y269310D02*
D03*
X43874Y261810D02*
D03*
X307503Y237000D02*
D03*
X302000Y238193D02*
D03*
X346000Y181000D02*
D03*
X342000Y176000D02*
D03*
X225000Y244000D02*
D03*
X235000Y266000D02*
D03*
X232618Y269000D02*
D03*
X234500Y233000D02*
D03*
X330700Y133300D02*
D03*
X327000Y137000D02*
D03*
X263648Y130000D02*
D03*
X268000Y128988D02*
D03*
X260000Y156000D02*
D03*
X258000Y162000D02*
D03*
X254000Y166000D02*
D03*
X249500Y158000D02*
D03*
X264500Y155000D02*
D03*
X254000Y129000D02*
D03*
X268028Y148423D02*
D03*
X251000Y131000D02*
D03*
X375822Y262854D02*
D03*
X187903Y239969D02*
D03*
X162000Y238700D02*
D03*
X162646Y246694D02*
D03*
X181000Y242691D02*
D03*
X177000Y253000D02*
D03*
X185000Y171000D02*
D03*
X181000Y208840D02*
D03*
X253500Y241500D02*
D03*
X231500Y244579D02*
D03*
X81130Y180500D02*
D03*
X300000Y259500D02*
D03*
X286500Y261810D02*
D03*
X287221Y238066D02*
D03*
X261652Y241000D02*
D03*
X63000Y56500D02*
D03*
X66750Y49000D02*
D03*
X74250D02*
D03*
X66750Y34000D02*
D03*
X460500Y41500D02*
D03*
X453000D02*
D03*
X434250Y124000D02*
D03*
X438000Y116500D02*
D03*
X434250Y109000D02*
D03*
X438000Y101500D02*
D03*
X434250Y19000D02*
D03*
X426750Y124000D02*
D03*
X430500Y116500D02*
D03*
X426750Y109000D02*
D03*
X430500Y101500D02*
D03*
Y11500D02*
D03*
X419250Y124000D02*
D03*
X423000Y116500D02*
D03*
X419250Y109000D02*
D03*
X423000Y101500D02*
D03*
X419250Y94000D02*
D03*
X423000Y41500D02*
D03*
X411750Y124000D02*
D03*
X415500Y116500D02*
D03*
X411750Y109000D02*
D03*
X415500Y101500D02*
D03*
Y41500D02*
D03*
X404250Y124000D02*
D03*
Y109000D02*
D03*
X408000Y101500D02*
D03*
Y41500D02*
D03*
X404250Y34000D02*
D03*
X408000Y26500D02*
D03*
X396750Y109000D02*
D03*
X400500Y101500D02*
D03*
X396750Y94000D02*
D03*
X400500Y41500D02*
D03*
X396750Y34000D02*
D03*
X400500Y26500D02*
D03*
X393000Y41500D02*
D03*
X389250Y34000D02*
D03*
X393000Y26500D02*
D03*
X385500Y41500D02*
D03*
X381750Y34000D02*
D03*
X385500Y26500D02*
D03*
X378000Y41500D02*
D03*
X370500D02*
D03*
X363000D02*
D03*
X355500D02*
D03*
X351750Y34000D02*
D03*
X355500Y26500D02*
D03*
X340500Y11500D02*
D03*
X333000Y41500D02*
D03*
Y26500D02*
D03*
X325500Y41500D02*
D03*
Y26500D02*
D03*
X318000Y41500D02*
D03*
Y26500D02*
D03*
X310500Y41500D02*
D03*
Y26500D02*
D03*
X303000Y41500D02*
D03*
Y26500D02*
D03*
X295500Y41500D02*
D03*
Y26500D02*
D03*
X288000D02*
D03*
X280500D02*
D03*
X273000Y41500D02*
D03*
Y26500D02*
D03*
X265500D02*
D03*
X258000D02*
D03*
X250500Y41500D02*
D03*
Y26500D02*
D03*
X243000Y41500D02*
D03*
Y26500D02*
D03*
X235500D02*
D03*
X228000Y41500D02*
D03*
Y26500D02*
D03*
X220500Y41500D02*
D03*
Y26500D02*
D03*
X213000Y41500D02*
D03*
Y26500D02*
D03*
X205500Y41500D02*
D03*
Y26500D02*
D03*
X201750Y19000D02*
D03*
X205500Y11500D02*
D03*
X198000Y41500D02*
D03*
Y26500D02*
D03*
X194250Y19000D02*
D03*
X198000Y11500D02*
D03*
X190500Y41500D02*
D03*
X186750Y34000D02*
D03*
Y19000D02*
D03*
X190500Y11500D02*
D03*
X183000Y41500D02*
D03*
X179250Y34000D02*
D03*
X183000Y11500D02*
D03*
X175500Y131500D02*
D03*
X171750Y124000D02*
D03*
X175500Y116500D02*
D03*
X171750Y109000D02*
D03*
X175500Y101500D02*
D03*
X171750Y94000D02*
D03*
X175500Y86500D02*
D03*
X171750Y79000D02*
D03*
X175500Y71500D02*
D03*
X171750Y64000D02*
D03*
X175500Y56500D02*
D03*
X171750Y49000D02*
D03*
X175500Y41500D02*
D03*
X171750Y34000D02*
D03*
X175500Y26500D02*
D03*
X171750Y19000D02*
D03*
X168000Y131500D02*
D03*
X164250Y124000D02*
D03*
X168000Y116500D02*
D03*
X164250Y109000D02*
D03*
X168000Y101500D02*
D03*
X164250Y94000D02*
D03*
X168000Y86500D02*
D03*
X164250Y79000D02*
D03*
X168000Y71500D02*
D03*
X164250Y64000D02*
D03*
X168000Y56500D02*
D03*
X164250Y49000D02*
D03*
X168000Y41500D02*
D03*
X164250Y34000D02*
D03*
X168000Y26500D02*
D03*
X164250Y19000D02*
D03*
X160500Y131500D02*
D03*
X156750Y124000D02*
D03*
X160500Y116500D02*
D03*
X156750Y109000D02*
D03*
X160500Y101500D02*
D03*
X156750Y94000D02*
D03*
X160500Y86500D02*
D03*
X156750Y79000D02*
D03*
X160500Y71500D02*
D03*
X156750Y64000D02*
D03*
X160500Y56500D02*
D03*
X156750Y49000D02*
D03*
X160500Y41500D02*
D03*
X156750Y34000D02*
D03*
X160500Y26500D02*
D03*
X156750Y19000D02*
D03*
X160500Y11500D02*
D03*
X153000Y131500D02*
D03*
X149250Y124000D02*
D03*
X153000Y116500D02*
D03*
X149250Y109000D02*
D03*
X153000Y101500D02*
D03*
X149250Y94000D02*
D03*
X153000Y86500D02*
D03*
X149250Y79000D02*
D03*
X153000Y71500D02*
D03*
Y56500D02*
D03*
X149250Y34000D02*
D03*
X153000Y26500D02*
D03*
X149250Y19000D02*
D03*
X145500Y116500D02*
D03*
X141750Y109000D02*
D03*
X145500Y101500D02*
D03*
X141750Y94000D02*
D03*
X145500Y86500D02*
D03*
X141750Y64000D02*
D03*
Y49000D02*
D03*
Y34000D02*
D03*
X145500Y26500D02*
D03*
X141750Y19000D02*
D03*
X138000Y146500D02*
D03*
Y71500D02*
D03*
X134250Y49000D02*
D03*
Y34000D02*
D03*
X138000Y26500D02*
D03*
X134250Y19000D02*
D03*
X138000Y11500D02*
D03*
X130500Y146500D02*
D03*
X126750Y139000D02*
D03*
Y124000D02*
D03*
Y109000D02*
D03*
Y94000D02*
D03*
X130500Y71500D02*
D03*
X126750Y49000D02*
D03*
Y34000D02*
D03*
X130500Y26500D02*
D03*
X126750Y19000D02*
D03*
X123000Y146500D02*
D03*
X119250Y139000D02*
D03*
X123000Y131500D02*
D03*
Y71500D02*
D03*
Y56500D02*
D03*
Y41500D02*
D03*
Y26500D02*
D03*
X115500Y146500D02*
D03*
X111750Y139000D02*
D03*
X115500Y131500D02*
D03*
X111750Y49000D02*
D03*
Y34000D02*
D03*
X108000Y146500D02*
D03*
X104250Y139000D02*
D03*
Y124000D02*
D03*
Y79000D02*
D03*
Y64000D02*
D03*
Y49000D02*
D03*
X108000Y41500D02*
D03*
X104250Y34000D02*
D03*
X108000Y26500D02*
D03*
X104250Y19000D02*
D03*
X100500Y146500D02*
D03*
X96750Y139000D02*
D03*
Y109000D02*
D03*
X100500Y86500D02*
D03*
Y71500D02*
D03*
X96750Y64000D02*
D03*
X100500Y56500D02*
D03*
Y41500D02*
D03*
X96750Y34000D02*
D03*
X100500Y26500D02*
D03*
X96750Y19000D02*
D03*
X93000Y146500D02*
D03*
X89250Y139000D02*
D03*
Y124000D02*
D03*
X93000Y86500D02*
D03*
X89250Y79000D02*
D03*
X93000Y71500D02*
D03*
X89250Y64000D02*
D03*
X93000Y56500D02*
D03*
X85500Y131500D02*
D03*
Y86500D02*
D03*
X81750Y79000D02*
D03*
X85500Y71500D02*
D03*
X81750Y64000D02*
D03*
Y49000D02*
D03*
Y34000D02*
D03*
X85500Y26500D02*
D03*
X81750Y19000D02*
D03*
X78000Y146500D02*
D03*
X74250Y139000D02*
D03*
X78000Y131500D02*
D03*
Y86500D02*
D03*
X74250Y79000D02*
D03*
X78000Y71500D02*
D03*
X74250Y34000D02*
D03*
X78000Y26500D02*
D03*
X74250Y19000D02*
D03*
X70500Y161500D02*
D03*
X66750Y139000D02*
D03*
Y124000D02*
D03*
Y109000D02*
D03*
Y94000D02*
D03*
X70500Y86500D02*
D03*
X66750Y79000D02*
D03*
X70500Y71500D02*
D03*
Y41500D02*
D03*
Y26500D02*
D03*
X59250Y124000D02*
D03*
X63000Y116500D02*
D03*
X59250Y109000D02*
D03*
X63000Y101500D02*
D03*
X59250Y94000D02*
D03*
X63000Y86500D02*
D03*
X59250Y79000D02*
D03*
X63000Y71500D02*
D03*
X59250Y64000D02*
D03*
Y49000D02*
D03*
X63000Y41500D02*
D03*
X59250Y34000D02*
D03*
X55500Y146500D02*
D03*
Y116500D02*
D03*
Y101500D02*
D03*
Y86500D02*
D03*
Y71500D02*
D03*
Y56500D02*
D03*
Y41500D02*
D03*
Y26500D02*
D03*
X44250Y154000D02*
D03*
X36750D02*
D03*
X33000Y161500D02*
D03*
X29250Y154000D02*
D03*
X358000Y162800D02*
D03*
X366713Y129646D02*
D03*
X310500Y261000D02*
D03*
X277609Y253000D02*
D03*
X303970Y108144D02*
D03*
X303442Y79255D02*
D03*
X306000Y106114D02*
D03*
X437577Y148423D02*
D03*
X233000Y98000D02*
D03*
X248500Y100000D02*
D03*
X281000Y98000D02*
D03*
X288500D02*
D03*
X271000Y92797D02*
D03*
X230000Y86000D02*
D03*
X223700Y93500D02*
D03*
X250500Y116000D02*
D03*
X244528Y115000D02*
D03*
X284028Y114800D02*
D03*
X252847Y99500D02*
D03*
X340000Y251230D02*
D03*
Y253877D02*
D03*
Y256724D02*
D03*
Y259600D02*
D03*
X382023Y253877D02*
D03*
X385745Y64244D02*
D03*
X52500Y150000D02*
D03*
X82826Y89005D02*
D03*
X342500Y303000D02*
D03*
X267104Y298000D02*
D03*
X257427Y304074D02*
D03*
X185484Y271878D02*
D03*
X332500Y281771D02*
D03*
X270760Y259032D02*
D03*
X256354Y261276D02*
D03*
X262760Y269467D02*
D03*
X247741Y251000D02*
D03*
X286500Y264500D02*
D03*
X298500Y272014D02*
D03*
X294368Y272024D02*
D03*
X290760Y272014D02*
D03*
X204500Y249777D02*
D03*
X232500Y256939D02*
D03*
X224900D02*
D03*
X218500Y279587D02*
D03*
X226500D02*
D03*
X235177D02*
D03*
X241500Y267000D02*
D03*
X208846Y283614D02*
D03*
X190000Y283429D02*
D03*
X148278Y207000D02*
D03*
X68500Y169500D02*
D03*
X253900Y86404D02*
D03*
X223972Y85700D02*
D03*
X244000D02*
D03*
X263700Y85500D02*
D03*
X283500D02*
D03*
X264228Y114800D02*
D03*
X224500Y115000D02*
D03*
X318000Y149223D02*
D03*
X361952Y132500D02*
D03*
X420669Y142169D02*
D03*
X377500Y158500D02*
D03*
X353500Y112000D02*
D03*
X405952Y69989D02*
D03*
X133500Y74621D02*
D03*
X83000Y54000D02*
D03*
X91000Y23000D02*
D03*
X463500Y241500D02*
D03*
X453000Y232500D02*
D03*
X424000Y228000D02*
D03*
X423000Y237500D02*
D03*
X442500Y231000D02*
D03*
X448500Y231500D02*
D03*
X450000Y278000D02*
D03*
X84000Y183000D02*
D03*
X89500Y264500D02*
D03*
X107500Y240000D02*
D03*
X110000Y223000D02*
D03*
X118500Y223500D02*
D03*
X46500Y213500D02*
D03*
X28500Y179500D02*
D03*
Y177000D02*
D03*
Y174500D02*
D03*
Y172000D02*
D03*
Y169500D02*
D03*
X31000D02*
D03*
X33500D02*
D03*
X58500Y187000D02*
D03*
X56000D02*
D03*
X53500D02*
D03*
X51000D02*
D03*
X41000Y184500D02*
D03*
X38500D02*
D03*
X36000D02*
D03*
X33500D02*
D03*
X76000Y169500D02*
D03*
X73500D02*
D03*
X71000D02*
D03*
X38500D02*
D03*
X36000D02*
D03*
X117260Y189187D02*
D03*
X122260Y201187D02*
D03*
X384500Y163000D02*
D03*
X437552Y139600D02*
D03*
X435452Y178500D02*
D03*
X360500Y162800D02*
D03*
X448452Y83000D02*
D03*
X467076Y220524D02*
D03*
X457000Y193000D02*
D03*
X436500Y191000D02*
D03*
X97260Y200187D02*
D03*
X101519Y116198D02*
D03*
X87019Y92198D02*
D03*
X94519Y103198D02*
D03*
X103019Y134698D02*
D03*
X97019D02*
D03*
X115019Y90198D02*
D03*
X87519Y96198D02*
D03*
X107760Y228687D02*
D03*
X422000Y246000D02*
D03*
X399950Y245550D02*
D03*
X437000Y224000D02*
D03*
X432000Y183000D02*
D03*
Y175000D02*
D03*
X456000Y196500D02*
D03*
X443000Y218500D02*
D03*
X424900Y264900D02*
D03*
X436400Y227100D02*
D03*
X466500Y223800D02*
D03*
X69260Y192687D02*
D03*
X67320Y226580D02*
D03*
X52260Y168187D02*
D03*
X57060Y213340D02*
D03*
X57560Y198840D02*
D03*
X66060Y198340D02*
D03*
X67560Y222840D02*
D03*
X77060Y230840D02*
D03*
X50060Y234340D02*
D03*
X71560Y253340D02*
D03*
X68560Y255340D02*
D03*
X32560Y218340D02*
D03*
Y222340D02*
D03*
X32060Y233840D02*
D03*
X398452Y140500D02*
D03*
X348400Y117654D02*
D03*
X66760Y219187D02*
D03*
X91760Y214687D02*
D03*
X102260Y211187D02*
D03*
X100260Y223187D02*
D03*
X70760Y228040D02*
D03*
X77760Y223687D02*
D03*
X97260Y235687D02*
D03*
X91760Y228187D02*
D03*
X59760Y168187D02*
D03*
X56760D02*
D03*
X41760Y167687D02*
D03*
X64760Y168187D02*
D03*
X37500Y195000D02*
D03*
X52060Y199840D02*
D03*
X190000Y182000D02*
D03*
X72500Y149500D02*
D03*
X57260Y149687D02*
D03*
D133*
X365500Y149223D02*
D03*
X398500Y76000D02*
D03*
X396000D02*
D03*
X398500Y78000D02*
D03*
X396000D02*
D03*
X398500Y80500D02*
D03*
X396000D02*
D03*
Y82500D02*
D03*
X398500D02*
D03*
X388500Y78000D02*
D03*
X391000D02*
D03*
Y76000D02*
D03*
X388500D02*
D03*
X391000Y82500D02*
D03*
Y80500D02*
D03*
X388500D02*
D03*
Y82500D02*
D03*
X397937Y91500D02*
D03*
X379052Y55000D02*
D03*
X455480Y218579D02*
D03*
X400600Y276700D02*
D03*
X397952Y126500D02*
D03*
Y121500D02*
D03*
Y119000D02*
D03*
X362400Y59654D02*
D03*
X384283Y59559D02*
D03*
X387952Y101500D02*
D03*
Y106500D02*
D03*
Y111500D02*
D03*
Y116500D02*
D03*
X410452Y114000D02*
D03*
X407952D02*
D03*
X405452D02*
D03*
X402952D02*
D03*
X400452D02*
D03*
X397952D02*
D03*
Y116500D02*
D03*
Y124000D02*
D03*
X430452Y96500D02*
D03*
X427952D02*
D03*
X425452D02*
D03*
X422952D02*
D03*
X420452D02*
D03*
X417952D02*
D03*
X415452D02*
D03*
X412952D02*
D03*
X410452D02*
D03*
X407952D02*
D03*
X405452D02*
D03*
X402952D02*
D03*
X400452D02*
D03*
Y94000D02*
D03*
Y91500D02*
D03*
X390452Y119000D02*
D03*
Y116500D02*
D03*
Y114000D02*
D03*
Y111500D02*
D03*
Y109000D02*
D03*
Y106500D02*
D03*
Y104000D02*
D03*
Y101500D02*
D03*
Y99000D02*
D03*
X385452D02*
D03*
Y101500D02*
D03*
Y104000D02*
D03*
Y106500D02*
D03*
Y109000D02*
D03*
Y111500D02*
D03*
Y114000D02*
D03*
Y116500D02*
D03*
Y119000D02*
D03*
X60500Y27000D02*
D03*
X68000Y9500D02*
D03*
D134*
X448500Y57000D02*
D03*
X88500Y17000D02*
D03*
Y57000D02*
D03*
X128500Y217000D02*
D03*
X438500Y247000D02*
D03*
Y257000D02*
D03*
X448500D02*
D03*
X458500D02*
D03*
X448500Y267000D02*
D03*
X418500Y217000D02*
D03*
X428500Y237000D02*
D03*
X48500Y207000D02*
D03*
X108500Y247000D02*
D03*
X98500Y267000D02*
D03*
X118500Y217000D02*
D03*
X98500Y307000D02*
D03*
Y187000D02*
D03*
X78500D02*
D03*
X318500Y157000D02*
D03*
X428500Y147000D02*
D03*
X415452Y36500D02*
D03*
X435452Y186500D02*
D03*
X458500Y137000D02*
D03*
X418500Y147000D02*
D03*
D135*
X277000Y277500D02*
D03*
X310500D02*
D03*
X344000D02*
D03*
M02*
