G04*
G04 #@! TF.GenerationSoftware,Altium Limited,Altium Designer,19.0.8 (182)*
G04*
G04 Layer_Color=16711935*
%FSLAX25Y25*%
%MOIN*%
G70*
G01*
G75*
%ADD113O,0.05118X0.06299*%
%ADD114C,0.19685*%
%ADD115P,0.06818X8X202.5*%
%ADD116P,0.15341X8X202.5*%
%ADD117C,0.03347*%
%ADD118C,0.00800*%
%ADD119P,0.10499X8X22.5*%
%ADD120C,0.05300*%
%ADD136R,0.21000X0.10429*%
%ADD137C,0.04304*%
%ADD138R,0.16800X0.16800*%
D113*
X180500Y218032D02*
D03*
Y228031D02*
D03*
X190500Y218032D02*
D03*
Y228031D02*
D03*
X200500Y218032D02*
D03*
Y228031D02*
D03*
X210500Y218032D02*
D03*
Y228031D02*
D03*
X220500Y218032D02*
D03*
Y228031D02*
D03*
X230500Y218032D02*
D03*
Y228031D02*
D03*
X240500Y218032D02*
D03*
Y228031D02*
D03*
X250500Y218032D02*
D03*
Y228031D02*
D03*
X260500Y218032D02*
D03*
Y228031D02*
D03*
X270500Y218032D02*
D03*
Y228031D02*
D03*
X280500Y218032D02*
D03*
Y228031D02*
D03*
X290500Y218032D02*
D03*
Y228031D02*
D03*
X300500Y218032D02*
D03*
Y228031D02*
D03*
X310500Y218032D02*
D03*
Y228031D02*
D03*
X320500Y218032D02*
D03*
Y228031D02*
D03*
X330500Y218032D02*
D03*
Y228031D02*
D03*
X340500Y218032D02*
D03*
Y228031D02*
D03*
X350500Y218032D02*
D03*
Y228031D02*
D03*
X370500D02*
D03*
Y218032D02*
D03*
X360500Y228031D02*
D03*
Y218032D02*
D03*
D114*
X389634Y315000D02*
D03*
Y224449D02*
D03*
X161287D02*
D03*
Y315000D02*
D03*
D115*
X294858Y56000D02*
D03*
X283953D02*
D03*
X273047D02*
D03*
X262142D02*
D03*
X251236D02*
D03*
X289405Y44819D02*
D03*
X278500D02*
D03*
X267595D02*
D03*
X256689D02*
D03*
D116*
X322240Y50409D02*
D03*
X223854D02*
D03*
D117*
X128260Y230187D02*
D03*
Y238187D02*
D03*
X108260Y234187D02*
D03*
X445380Y242079D02*
D03*
X465380Y246079D02*
D03*
Y238079D02*
D03*
D118*
X393952Y5039D02*
D03*
D119*
X79500Y298000D02*
D03*
X119500D02*
D03*
D120*
X89500Y278000D02*
D03*
X99500D02*
D03*
D136*
X94500Y278215D02*
D03*
D137*
X448500Y57000D02*
D03*
X88500Y17000D02*
D03*
Y57000D02*
D03*
X128500Y217000D02*
D03*
X438500Y247000D02*
D03*
Y257000D02*
D03*
X448500D02*
D03*
X458500D02*
D03*
X448500Y267000D02*
D03*
X418500Y217000D02*
D03*
X428500Y237000D02*
D03*
X48500Y207000D02*
D03*
X108500Y247000D02*
D03*
X98500Y267000D02*
D03*
X118500Y217000D02*
D03*
X98500Y307000D02*
D03*
Y187000D02*
D03*
X78500D02*
D03*
X318500Y157000D02*
D03*
X428500Y147000D02*
D03*
X415452Y36500D02*
D03*
X435452Y186500D02*
D03*
X458500Y137000D02*
D03*
X418500Y147000D02*
D03*
D138*
X277000Y277500D02*
D03*
X310500D02*
D03*
X344000D02*
D03*
M02*
