G04*
G04 #@! TF.GenerationSoftware,Altium Limited,Altium Designer,19.0.8 (182)*
G04*
G04 Layer_Color=32768*
%FSLAX25Y25*%
%MOIN*%
G70*
G01*
G75*
%ADD62C,0.01000*%
%ADD66C,0.00600*%
D62*
X231000Y41500D02*
X353000D01*
Y20000D02*
Y41500D01*
X231000Y20000D02*
X353000D01*
X231000D02*
Y41500D01*
X708500Y20000D02*
X830500D01*
Y41500D01*
X708500D02*
X830500D01*
X708500Y20000D02*
Y41500D01*
Y369000D02*
X830500D01*
Y347500D02*
Y369000D01*
X708500Y347500D02*
X830500D01*
X708500D02*
Y369000D01*
X231500D02*
X353000D01*
Y347500D02*
Y369000D01*
X231500Y347500D02*
X353000D01*
X231500D02*
Y369000D01*
X30000Y830000D02*
Y849994D01*
X39997D01*
X43329Y846661D01*
Y839997D01*
X39997Y836664D01*
X30000D01*
X36665D02*
X43329Y830000D01*
X59990Y849994D02*
X53326D01*
X49994Y846661D01*
Y833332D01*
X53326Y830000D01*
X59990D01*
X63323Y833332D01*
Y846661D01*
X59990Y849994D01*
X69987D02*
Y833332D01*
X73319Y830000D01*
X79984D01*
X83316Y833332D01*
Y849994D01*
X89981D02*
X103310D01*
X96645D01*
Y830000D01*
X109974Y849994D02*
X116639D01*
X113306D01*
Y830000D01*
X109974D01*
X116639D01*
X126635D02*
Y849994D01*
X139964Y830000D01*
Y849994D01*
X159958Y846661D02*
X156626Y849994D01*
X149961D01*
X146629Y846661D01*
Y833332D01*
X149961Y830000D01*
X156626D01*
X159958Y833332D01*
Y839997D01*
X153294D01*
X186616Y849994D02*
Y830000D01*
X199945D01*
X206610D02*
Y843329D01*
X213274Y849994D01*
X219939Y843329D01*
Y830000D01*
Y839997D01*
X206610D01*
X226603Y849994D02*
Y846661D01*
X233268Y839997D01*
X239932Y846661D01*
Y849994D01*
X233268Y839997D02*
Y830000D01*
X259926Y849994D02*
X246597D01*
Y830000D01*
X259926D01*
X246597Y839997D02*
X253261D01*
X266590Y830000D02*
Y849994D01*
X276587D01*
X279919Y846661D01*
Y839997D01*
X276587Y836664D01*
X266590D01*
X273255D02*
X279919Y830000D01*
X306577D02*
X319906Y843329D01*
X346564Y830000D02*
Y849994D01*
X356561D01*
X359893Y846661D01*
Y839997D01*
X356561Y836664D01*
X346564D01*
X366558Y830000D02*
Y843329D01*
X373222Y849994D01*
X379887Y843329D01*
Y830000D01*
Y839997D01*
X366558D01*
X386551Y830000D02*
Y849994D01*
X399881Y830000D01*
Y849994D01*
X419874D02*
X406545D01*
Y830000D01*
X419874D01*
X406545Y839997D02*
X413209D01*
X426539Y849994D02*
Y830000D01*
X439868D01*
X476522Y849994D02*
X469858D01*
X466526Y846661D01*
Y833332D01*
X469858Y830000D01*
X476522D01*
X479855Y833332D01*
Y846661D01*
X476522Y849994D01*
X486519D02*
Y833332D01*
X489851Y830000D01*
X496516D01*
X499848Y833332D01*
Y849994D01*
X506513D02*
X519842D01*
X513177D01*
Y830000D01*
X526506Y849994D02*
Y830000D01*
X539835D01*
X546500Y849994D02*
X553164D01*
X549832D01*
Y830000D01*
X546500D01*
X553164D01*
X563161D02*
Y849994D01*
X576490Y830000D01*
Y849994D01*
X596484D02*
X583155D01*
Y830000D01*
X596484D01*
X583155Y839997D02*
X589819D01*
D66*
X461896Y657104D02*
G03*
X479500Y639500I17604J0D01*
G01*
X55500Y38000D02*
G03*
X37896Y55604I-17604J0D01*
G01*
X55604Y365396D02*
G03*
X38000Y383000I-17604J0D01*
G01*
X533104Y365396D02*
G03*
X515500Y383000I-17604J0D01*
G01*
X533104Y37896D02*
G03*
X515500Y55500I-17604J0D01*
G01*
X479500D02*
G03*
X461896Y37896I0J-17604D01*
G01*
X957000Y55500D02*
G03*
X939396Y37896I0J-17604D01*
G01*
X957000Y383000D02*
G03*
X939396Y365396I0J-17604D01*
G01*
X479500Y383000D02*
G03*
X461896Y365396I0J-17604D01*
G01*
X462000Y329500D02*
G03*
X479604Y311896I17604J0D01*
G01*
X939396Y657104D02*
G03*
X957000Y639500I17604J0D01*
G01*
X939500Y329500D02*
G03*
X957104Y311896I17604J0D01*
G01*
X37896Y639396D02*
G03*
X55500Y657000I0J17604D01*
G01*
X38000Y312000D02*
G03*
X55604Y329604I0J17604D01*
G01*
X515396Y311896D02*
G03*
X533000Y329500I0J17604D01*
G01*
X515500Y639500D02*
G03*
X533104Y657104I0J17604D01*
G01*
X939500Y675000D02*
X975000D01*
Y639500D02*
Y675000D01*
X957000Y639500D02*
X975000D01*
X939396Y657104D02*
Y674896D01*
X461896Y657104D02*
Y674896D01*
X462000Y675000D02*
X533104D01*
Y657104D02*
Y675000D01*
X479500Y639500D02*
X515500D01*
X20000Y639396D02*
X37896D01*
X20000D02*
Y675000D01*
X55500D01*
Y657000D02*
Y675000D01*
X20000Y312500D02*
Y383000D01*
X38000D01*
X55604Y329604D02*
Y365396D01*
X461896Y20396D02*
X462291Y20000D01*
X464000D02*
X500000D01*
X462291D02*
X464000D01*
X500000D02*
X533000D01*
X533104Y20104D01*
Y37896D01*
X479500Y55500D02*
X515500D01*
X957000D02*
X975000D01*
Y20000D02*
Y55500D01*
X939500Y20000D02*
X975000D01*
X939396Y20104D02*
X939500Y20000D01*
X939396Y20104D02*
Y37896D01*
X479604Y311896D02*
X515396D01*
X461896Y329500D02*
Y365396D01*
X479500Y383000D02*
X515500D01*
X533000Y329500D02*
Y365396D01*
X957000Y383000D02*
X975000D01*
X939500Y329500D02*
Y366000D01*
X957209Y312000D02*
X975000D01*
X0Y0D02*
X50000D01*
X0D02*
Y700000D01*
X1000000D01*
Y0D02*
Y700000D01*
X50000Y0D02*
X1000000D01*
X55500Y20000D02*
Y38000D01*
X20000Y20000D02*
X55500D01*
X20000D02*
Y55500D01*
X20104Y55604D01*
X37896D01*
X975000Y312000D02*
Y383000D01*
X461896Y20396D02*
Y37896D01*
X20500Y312000D02*
X38000D01*
X20000Y312500D02*
X20500Y312000D01*
M02*
