G04*
G04 #@! TF.GenerationSoftware,Altium Limited,Altium Designer,19.0.8 (182)*
G04*
G04 Layer_Color=16711935*
%FSLAX25Y25*%
%MOIN*%
G70*
G01*
G75*
%ADD62C,0.01000*%
D62*
X39997Y789993D02*
X33332D01*
X30000Y786661D01*
Y773332D01*
X33332Y770000D01*
X39997D01*
X43329Y773332D01*
Y786661D01*
X39997Y789993D01*
X49994D02*
Y773332D01*
X53326Y770000D01*
X59990D01*
X63323Y773332D01*
Y789993D01*
X69987D02*
X83316D01*
X76652D01*
Y770000D01*
X89981Y789993D02*
Y770000D01*
X103310D01*
X109974Y789993D02*
X116639D01*
X113306D01*
Y770000D01*
X109974D01*
X116639D01*
X126635D02*
Y789993D01*
X139964Y770000D01*
Y789993D01*
X159958D02*
X146629D01*
Y770000D01*
X159958D01*
X146629Y779997D02*
X153294D01*
X193281Y770000D02*
X186616Y776664D01*
Y783329D01*
X193281Y789993D01*
X203277D02*
X209942D01*
X206610D01*
Y770000D01*
X203277D01*
X209942D01*
X219939D02*
Y789993D01*
X233268Y770000D01*
Y789993D01*
X239932D02*
Y770000D01*
X249929D01*
X253261Y773332D01*
Y786661D01*
X249929Y789993D01*
X239932D01*
X259926D02*
X266590D01*
X263258D01*
Y770000D01*
X259926D01*
X266590D01*
X276587Y789993D02*
Y776664D01*
X283252Y770000D01*
X289916Y776664D01*
Y789993D01*
X296581D02*
X303245D01*
X299913D01*
Y770000D01*
X296581D01*
X303245D01*
X313242Y789993D02*
Y770000D01*
X323239D01*
X326571Y773332D01*
Y786661D01*
X323239Y789993D01*
X313242D01*
X333235D02*
Y773332D01*
X336568Y770000D01*
X343232D01*
X346564Y773332D01*
Y789993D01*
X353229Y770000D02*
Y783329D01*
X359893Y789993D01*
X366558Y783329D01*
Y770000D01*
Y779997D01*
X353229D01*
X373222Y789993D02*
Y770000D01*
X386551D01*
X413209Y789993D02*
Y770000D01*
X423206D01*
X426539Y773332D01*
Y776664D01*
X423206Y779997D01*
X413209D01*
X423206D01*
X426539Y783329D01*
Y786661D01*
X423206Y789993D01*
X413209D01*
X443200D02*
X436535D01*
X433203Y786661D01*
Y773332D01*
X436535Y770000D01*
X443200D01*
X446532Y773332D01*
Y786661D01*
X443200Y789993D01*
X453197Y770000D02*
Y783329D01*
X459861Y789993D01*
X466526Y783329D01*
Y770000D01*
Y779997D01*
X453197D01*
X473190Y770000D02*
Y789993D01*
X483187D01*
X486519Y786661D01*
Y779997D01*
X483187Y776664D01*
X473190D01*
X479855D02*
X486519Y770000D01*
X493184Y789993D02*
Y770000D01*
X503180D01*
X506513Y773332D01*
Y786661D01*
X503180Y789993D01*
X493184D01*
X513177Y770000D02*
X519842Y776664D01*
Y783329D01*
X513177Y789993D01*
X549832Y770000D02*
Y789993D01*
X559829D01*
X563161Y786661D01*
Y779997D01*
X559829Y776664D01*
X549832D01*
X556496D02*
X563161Y770000D01*
X583155Y789993D02*
X569826D01*
Y770000D01*
X583155D01*
X569826Y779997D02*
X576490D01*
X603148Y789993D02*
X589819D01*
Y779997D01*
X596484D01*
X589819D01*
Y770000D01*
X623142Y789993D02*
X609813D01*
Y770000D01*
X623142D01*
X609813Y779997D02*
X616477D01*
X629806Y770000D02*
Y789993D01*
X639803D01*
X643135Y786661D01*
Y779997D01*
X639803Y776664D01*
X629806D01*
X636471D02*
X643135Y770000D01*
X663129Y789993D02*
X649800D01*
Y770000D01*
X663129D01*
X649800Y779997D02*
X656464D01*
X669793Y770000D02*
Y789993D01*
X683122Y770000D01*
Y789993D01*
X703116Y786661D02*
X699784Y789993D01*
X693119D01*
X689787Y786661D01*
Y773332D01*
X693119Y770000D01*
X699784D01*
X703116Y773332D01*
X723109Y789993D02*
X709780D01*
Y770000D01*
X723109D01*
X709780Y779997D02*
X716445D01*
X759764Y789993D02*
X753100D01*
X749767Y786661D01*
Y773332D01*
X753100Y770000D01*
X759764D01*
X763096Y773332D01*
Y786661D01*
X759764Y789993D01*
X769761Y770000D02*
Y789993D01*
X783090Y770000D01*
Y789993D01*
X789754D02*
Y770000D01*
X803084D01*
X809748Y789993D02*
Y786661D01*
X816413Y779997D01*
X823077Y786661D01*
Y789993D01*
X816413Y779997D02*
Y770000D01*
X68994Y62757D02*
G03*
X68994Y62757I-6250J0D01*
G01*
X460993Y304756D02*
G03*
X460993Y304756I-6250J0D01*
G01*
X37993Y311902D02*
G03*
X55598Y329506I0J17604D01*
G01*
X461889D02*
G03*
X479494Y311902I17604J0D01*
G01*
Y55611D02*
G03*
X461889Y38006I0J-17604D01*
G01*
X55598D02*
G03*
X37993Y55611I-17604J0D01*
G01*
X68994Y304756D02*
G03*
X68994Y304756I-6250J0D01*
G01*
X460993Y62757D02*
G03*
X460993Y62757I-6250J0D01*
G01*
X55611Y20000D02*
X231286D01*
X352799Y20013D02*
X461889D01*
X352786Y20000D02*
Y41500D01*
X231286D02*
X352786D01*
X231286Y20000D02*
Y41500D01*
X55598Y329506D02*
Y347500D01*
X461889Y329506D02*
Y347500D01*
X479494Y311902D02*
X497487D01*
Y55611D02*
Y311902D01*
X479494Y55611D02*
X497487D01*
X461889Y20013D02*
Y38006D01*
X55598Y20013D02*
Y38006D01*
X20000Y55611D02*
X37993D01*
X20000D02*
Y311902D01*
X37993D01*
X55598Y347500D02*
X461889D01*
X546481Y62757D02*
G03*
X546481Y62757I-6250J0D01*
G01*
X938480Y304756D02*
G03*
X938480Y304756I-6250J0D01*
G01*
X515481Y311902D02*
G03*
X533085Y329506I0J17604D01*
G01*
X939376D02*
G03*
X956981Y311902I17604J0D01*
G01*
Y55611D02*
G03*
X939376Y38006I0J-17604D01*
G01*
X533085D02*
G03*
X515481Y55611I-17604J0D01*
G01*
X546481Y304756D02*
G03*
X546481Y304756I-6250J0D01*
G01*
X938480Y62757D02*
G03*
X938480Y62757I-6250J0D01*
G01*
X533098Y20000D02*
X708773D01*
X830286Y20013D02*
X939376D01*
X830273Y20000D02*
Y41500D01*
X708773D02*
X830273D01*
X708773Y20000D02*
Y41500D01*
X533085Y329506D02*
Y347500D01*
X939376Y329506D02*
Y347500D01*
X956981Y311902D02*
X974974D01*
Y55611D02*
Y311902D01*
X956981Y55611D02*
X974974D01*
X939376Y20013D02*
Y38006D01*
X533085Y20013D02*
Y38006D01*
X497487Y55611D02*
X515481D01*
X497487D02*
Y311902D01*
X515481D01*
X533085Y347500D02*
X939376D01*
X68994Y390244D02*
G03*
X68994Y390244I-6250J0D01*
G01*
X460993Y632243D02*
G03*
X460993Y632243I-6250J0D01*
G01*
X37993Y639389D02*
G03*
X55598Y656993I0J17604D01*
G01*
X461889D02*
G03*
X479494Y639389I17604J0D01*
G01*
Y383098D02*
G03*
X461889Y365493I0J-17604D01*
G01*
X55598D02*
G03*
X37993Y383098I-17604J0D01*
G01*
X68994Y632243D02*
G03*
X68994Y632243I-6250J0D01*
G01*
X460993Y390244D02*
G03*
X460993Y390244I-6250J0D01*
G01*
X55611Y347487D02*
X231286D01*
X352799Y347500D02*
X461889D01*
X352786Y347487D02*
Y368987D01*
X231286D02*
X352786D01*
X231286Y347487D02*
Y368987D01*
X55598Y656993D02*
Y674987D01*
X461889Y656993D02*
Y674987D01*
X479494Y639389D02*
X497487D01*
Y383098D02*
Y639389D01*
X479494Y383098D02*
X497487D01*
X461889Y347500D02*
Y365493D01*
X55598Y347500D02*
Y365493D01*
X20000Y383098D02*
X37993D01*
X20000D02*
Y639389D01*
X37993D01*
X55598Y674987D02*
X461889D01*
X546481Y390244D02*
G03*
X546481Y390244I-6250J0D01*
G01*
X938480Y632243D02*
G03*
X938480Y632243I-6250J0D01*
G01*
X515481Y639389D02*
G03*
X533085Y656993I0J17604D01*
G01*
X939376D02*
G03*
X956981Y639389I17604J0D01*
G01*
Y383098D02*
G03*
X939376Y365493I0J-17604D01*
G01*
X533085D02*
G03*
X515481Y383098I-17604J0D01*
G01*
X546481Y632243D02*
G03*
X546481Y632243I-6250J0D01*
G01*
X938480Y390244D02*
G03*
X938480Y390244I-6250J0D01*
G01*
X533098Y347487D02*
X708773D01*
X830286Y347500D02*
X939376D01*
X830273Y347487D02*
Y368987D01*
X708773D02*
X830273D01*
X708773Y347487D02*
Y368987D01*
X533085Y656993D02*
Y674987D01*
X939376Y656993D02*
Y674987D01*
X956981Y639389D02*
X974974D01*
Y383098D02*
Y639389D01*
X956981Y383098D02*
X974974D01*
X939376Y347500D02*
Y365493D01*
X533085Y347500D02*
Y365493D01*
X497487Y383098D02*
X515481D01*
X497487D02*
Y639389D01*
X515481D01*
X533085Y674987D02*
X939376D01*
M02*
