M48
;Layer_Color=9474304
;FILE_FORMAT=2:5
INCH,LZ
;TYPE=PLATED
T1F00S00C0.01181
T2F00S00C0.03504
T3F00S00C0.03937
T4F00S00C0.04000
T5F00S00C0.07874
T6F00S00C0.07913
T7F00S00C0.11811
T8F00S00C0.12500
;TYPE=NON_PLATED
T9F00S00C0.03543
T10F00S00C0.04331
T11F00S00C0.06299
T12F00S00C0.10827
T13F00S00C0.12500
%
T01
X0075286Y00465
Y00615
Y00765
X0082786
X0086536Y0069
X0094036
X0101536
X0102786Y0074
X0101536Y0084
X0109036
X0116536
X0124036
X0120286Y00765
X0112786
X0124036Y0069
X0131536
X0127786Y00615
X0120286
X0124036Y0054
X0131536
X0127786Y00465
X0120286
X0124036Y0039
X0116536
X0110786Y0043
X0105286Y00465
X0097786
X0090286
X0080286Y0047
X0079036Y0054
X0086536
X0094036
X0101536
X0116536
X0146536
X0154036
X0161536
X0169036
X0176536
X0184036
X0191536
X0199036
X0206536
X0210286Y00615
X0217786
X0225286
Y00465
X0217786
X0221536Y0039
X0214036
X0206536
X0210286Y00315
X0217786
X0225286
X0202786
X0191536Y0039
X0184036
X0176536
X0169036
X0161536
X0154036
X0146536
X0150286Y00465
X0157786
X0165286
X0172786
X0180286
X0187786
X0195286
Y00615
X0202786
X0187786
X0180286
X0184036Y0069
X0191536
X0195286Y00765
X0187786
X0180286
X0172786
X0176536Y0084
X0184036
X0191536
X0176536Y0069
X0161536
X0154036
X0146536
X0142786Y00765
Y00615
Y00465
X0157786Y00315
X0180286
X0161536Y0084
X0079036
Y0069
X0082786Y00615
X0090286
X0094036Y0039
X0101536
X0087786Y00295
X0232786Y00465
X0240286
X0247786
X0255286
X0262786
X0270286
X0277786
X0285286
X0292786
X0300286
X0307786
X0315286
X0322786
X0330286
X0337786
X0345286
X0352786
Y00615
X0345286
X0337786
X0330286
X0322786
X0315286
X0292786
X0270286
X0262786
X0247786
X0240286
X0232786
X0375286
X0382786
X0371536Y0054
X0375286Y00465
X0360286Y00315
X0382186Y0079654
X0398838Y0075
X040407Y0079559
X0405531Y0084244
X0405286Y00615
X0412786
X0420286
X0427786
X0435286
X0442786
X0424036Y0054
X0416536
X0409036
X0401536
X0405286Y00465
X0412786
X0420286
X0427786
X0454036Y0039
X0450286Y00315
X0472786Y00615
X0480286
X0397786
X0390286
X0552773
X0560273
X0567773
X0564023Y0069
X0571523
X0579023
X0580273Y0074
X0579023Y0084
X0586523
X0594023
X0601523
X0597773Y00765
X0590273
X0601523Y0069
X0609023
X0605273Y00615
X0597773
X0601523Y0054
X0609023
X0605273Y00465
X0597773
X0601523Y0039
X0594023
X0588273Y0043
X0582773Y00465
X0575273
X0567773
X0557773Y0047
X0552773Y00465
X0556523Y0054
X0564023
X0571523
X0579023
X0594023
X0624023
X0631523
X0639023
X0646523
X0654023
X0661523
X0669023
X0676523
X0684023
X0687773Y00615
X0695273
Y00465
X0699023Y0039
X0691523
X0684023
X0687773Y00315
X0695273
X0680273
X0669023Y0039
X0661523
X0654023
X0646523
X0639023
X0631523
X0624023
X0627773Y00465
X0635273
X0642773
X0650273
X0657773
X0665273
X0672773
Y00615
X0680273
X0665273
X0657773
X0661523Y0069
X0669023
X0672773Y00765
X0665273
X0657773
X0650273
X0654023Y0084
X0661523
X0669023
X0654023Y0069
X0639023
X0631523
X0624023
X0620273Y00765
Y00615
Y00465
X0635273Y00315
X0657773
X0639023Y0084
X0556523
X0560273Y00765
X0552773
X0556523Y0069
X0571523Y0039
X0579023
X0565273Y00295
X0702773Y00315
Y00465
X0710273
X0717773
X0725273
X0732773
X0740273
X0747773
X0755273
X0762773
X0770273
X0777773
X0785273
X0792773
X0800273
X0807773
X0815273
X0822773
X0830273
Y00615
X0822773
X0815273
X0807773
X0800273
X0792773
X0770273
X0747773
X0740273
X0725273
X0717773
X0710273
X0702773
X0852773
X0849023Y0054
X0852773Y00465
X0837773Y00315
X0860273Y00615
X0867773
X0875273
X0882773
X0890273
X0897773
X0905273
X0912773
X0920273
X0901523Y0054
X0894023
X0886523
X0879023
X0882773Y00465
X0890273
X0897773
X0905273
X0931523Y0039
X0927773Y00315
X0950273Y00615
X0957773
X0881557Y0079559
X0883018Y0084244
X0876325Y0075
X0859673Y0079654
X0885773Y0096
Y0098
X0888273
Y0096
Y01005
Y01025
X0885773
Y01005
X0893273
Y01025
X0895773
Y01005
Y0098
Y0096
X0893273
Y0098
X089521Y01115
X0897725
Y0114
Y01165
X0900225
X0902725
X0905225
X0907725
X0910225
X0912725
X0915225
X0917725
X0920225
X0922725
X0925225
X0927725
X0927773Y01215
X0935273
X0931523Y0129
X0924023
X0916523
X0909023
X0907725Y0134
X0905225
X0902725
X0900225
X0897725
X0895225
Y01365
Y0139
Y01415
Y0144
Y01465
X0901523Y0144
X0909023
X0916523
X0924023
X0931523
X0935273Y01365
X0927773
X0920273
X0912773
Y01215
X0920273
X0916523Y0114
X0905273Y01215
X0897773
X0887725
X0885225
X0882725
Y0119
X0887725
Y0124
Y01265
X0885225
X0882725
Y0124
Y0129
Y01315
X0885225
X0887725
Y0134
Y01365
X0885225
X0882725
Y0134
Y0139
X0887725
Y0129
X0894023
X0901523
X0894023Y0114
X0903225Y0089989
X0945725Y0103
X0934825Y01596
X093485Y0168423
X0917942Y0162169
X0895725Y01605
X0881773Y0183
X0874773Y01785
X0862773Y0169223
X0857773Y01828
X0859225Y01525
X0863986Y0149646
X0896273Y0227
X0933773Y0211
X0929273Y0203
X0932725Y01985
X0929273Y0195
X0954273Y0213
X0953273Y02165
X0952754Y0238579
X0940273Y02385
X0964349Y0240524
X0843273Y0201
X0839273Y0196
X0855273Y01828
X0815273Y0169223
X0824273Y0157
X0827973Y01533
X0845673Y0137654
X0850773Y0132
X0801243Y0128144
X0803273Y0126114
X0785773Y0118
X0778273
X0780773Y01055
X0768273Y0112797
X0760973Y01055
X0751173Y0106404
X0741273Y01057
X0727273Y0106
X0721246Y01057
X0720973Y01135
X0730273Y0118
X0745773Y012
X075012Y01195
X0747773Y0136
X0741801Y0135
X0761501Y01348
X0760921Y015
X0765273Y0148988
X0751273Y0149
X0748273Y0151
X0746773Y0178
X0757273Y0176
X0761773Y0175
X0765301Y0168423
X0755273Y0182
X0751273Y0186
X0721773Y0135
X0781301Y01348
X0800716Y0099255
X0669023Y0099
X0661523
X0654023
X0646523
X0650273Y01065
X0657773
X0665273
X0672773
X0669023Y0114
X0661523
X0654023
X0646523
X0639023
X0642773Y01215
X0650273
X0657773
X0665273
X0672773
X0669023Y0129
X0661523
X0654023
X0646523
X0639023
X0642773Y01365
X0650273
X0657773
X0665273
X0672773
X0669023Y0144
X0661523
X0654023
X0646523
X0650273Y01515
X0657773
X0665273
X0672773
X0682273Y0191
X0687273Y0202
X0678273Y022884
X0645551Y0227
X0619897Y022931
X0612397
X0599533Y0231187
X0589033Y0234687
X0586147Y0221811
X0594533Y0220187
X0589897Y0214311
X0582397
X0581273Y0203
X0578404Y02005
X0573273Y01895
X0570773
X0568273
X0565773
X0562033Y0188187
X0557033
X0554033
X0549533
X0549773Y017
X0554533Y0169687
X0552773Y01665
X0564023Y0159
X0571523
X0575273Y01665
X0569773Y01695
X0567773Y01815
X0566533Y0212687
X0563333Y021834
X0554833Y021884
X0549333Y021984
X0548273Y0207
X0550773
X0553273
X0555773
X0554333Y023334
X0564033Y0239187
X0571147Y023681
X0567397Y022931
X0604897Y0214311
X0612397
X0614533Y0209187
X0619533Y0221187
X0620273Y01665
X0627773
X0635273
X0624023Y0159
X0616523
X0609023
X0601523
X0600292Y0154698
X0594292
X0594023Y0159
X0586523
X0590273Y01665
X0597773
X0605273
X0612773
Y01515
X0620273
X0624023Y0144
Y0129
Y0114
X0612292Y0110198
X0597773Y01065
X0590273
X0582773
X0580099Y0109005
X0575273Y01065
X0567773
X0560273
X0552773
X0556523Y0114
X0564023
X0560273Y01215
X0552773
X0556523Y0129
X0564023
X0560273Y01365
X0552773
X0556523Y0144
X0564023
X0575273Y01515
X0582773
X0586523Y0144
X0601523
X0598792Y0136198
X0594023Y0129
X0591792Y0123198
X0584792Y0116198
X0584292Y0112198
X0586523Y0099
X0579023
X0571523
X0564023
X0556523
X0560273Y00915
X0567773
X0575273
X0582773
X0590273
X0597773
X0601523Y0099
X0620273Y00915
X0627773
X0630773Y0094621
X0635273Y00915
X0650273
X0657773
X0665273
X0672773
X0642773Y01065
X0552773Y00915
X0541523Y0174
X0534023
X0526523
X0530273Y01815
X0530773Y01895
X0528273
X0525773
Y0192
Y01945
Y0197
Y01995
X0530773Y02045
X0533273
X0535773
X0538273
X0534773Y0215
X0535773Y01895
X0533273
X0539033Y0187687
X0543773Y02335
X0529833Y023834
Y024234
X0486862Y0240524
X0475267Y0238579
X0462786Y02385
X0456286Y0211
X0451786Y0203
X0455238Y01985
X0451786Y0195
X0457363Y0168423
X0457338Y01596
X0454036Y0144
X0446536
X0439036
X0431536
X0424036
X0417738
Y01465
Y01415
Y0139
Y01365
Y0134
X0420238
X0422739
X0425239
X0427739
X0430238
X0431536Y0129
X0439036
X0446536
X0454036
X0457786Y01365
X0450286
X0442786
X0435286
Y01215
X0435239Y01165
X0437739
X0440239
X0442738
X0445238
X0447739
X0450239
X0450286Y01215
X0457786
X0442786
X0439036Y0114
X0432738Y01165
X0430238
X0427739
X0425239
X0422739
X0420238
Y0114
Y01115
X0417723
X0416536Y0114
X0420286Y01215
X0427786
X0424036Y0129
X0416536
X0410239
Y01315
X0407738
X0405238
Y0129
Y01265
X0407738
X0410239
Y0124
Y01215
X0407738
X0405238
Y0119
X0410239
X0405238Y0124
Y0134
Y01365
X0407738
X0410239
Y0139
Y0134
X0405238Y0139
X0418238Y01605
X0440455Y0162169
X0404286Y0183
X0397286Y01785
X0418786Y0227
X0475786Y02165
X0476786Y0213
X0468238Y0103
X0418286Y01025
Y01005
Y0098
Y0096
X0415786
Y0098
Y01005
Y01025
X0410786
Y01005
Y0098
Y0096
X0408286
Y0098
Y01005
Y01025
X0425738Y0089989
X0373286Y0132
X0368186Y0137654
X0381738Y01525
X03865Y0149646
X0385286Y0169223
X0380286Y01828
X0377786
X0361786Y0196
X0365786Y0201
X0337786Y0169223
X0346786Y0157
X0350486Y01533
X0323756Y0128144
X0325786Y0126114
X0308286Y0118
X0300786
X0303286Y01055
X0290786Y0112797
X0283486Y01055
X0273686Y0106404
X0263786Y01057
X0249786Y0106
X0243759Y01057
X0243486Y01135
X0252786Y0118
X0268286Y012
X0272633Y01195
X0270286Y0136
X0264314Y0135
X0284014Y01348
X0283434Y015
X0287786Y0148988
X0273786Y0149
X0270786Y0151
X0269286Y0178
X0279786Y0176
X0284286Y0175
X0287814Y0168423
X0277786Y0182
X0273786Y0186
X0244286Y0135
X0303814Y01348
X0323229Y0099255
X0191536Y0099
X0184036
X0176536
X0169036
X0172786Y01065
X0180286
X0187786
X0195286
X0191536Y0114
X0184036
X0176536
X0169036
X0161536
X0165286Y01215
X0172786
X0180286
X0187786
X0195286
X0191536Y0129
X0184036
X0176536
X0169036
X0161536
X0165286Y01365
X0172786
X0180286
X0187786
X0195286
X0191536Y0144
X0184036
X0176536
X0169036
X0172786Y01515
X0180286
X0187786
X0195286
X0204786Y0191
X0209786Y0202
X0200786Y022884
X0168064Y0227
X014241Y022931
X013491
X0122046Y0231187
X0111546Y0234687
X010866Y0221811
X0117046Y0220187
X011241Y0214311
X010491
X0103786Y0203
X0100917Y02005
X0095786Y01895
X0093286
X0090786
X0088286
X0084546Y0188187
X0079546
X0076546
X0077046Y0169687
X0092286Y01695
X0097786Y01665
X0094036Y0159
X0086536
Y0144
X0079036
X0082786Y01365
X0086536Y0129
X0079036
X0082786Y01215
X0086536Y0114
X0079036
X0082786Y01065
X0090286
X0097786
X0102612Y0109005
X0105286Y01065
X0106805Y0112198
X0107305Y0116198
X0114305Y0123198
X0116536Y0129
X0121305Y0136198
X0124036Y0144
X0122805Y0154698
X0124036Y0159
X0131536
X0139036
X0146536
X0150286Y01665
X0157786
X0142786
X0135286
X0127786
X0120286
X0112786
X0116536Y0159
X0116805Y0154698
X0109036Y0159
X0105286Y01515
X0097786
X0109036Y0144
X0135286Y01515
X0142786
X0146536Y0144
Y0129
Y0114
X0134805Y0110198
X0120286Y01065
X0112786
X0109036Y0099
X0101536
X0094036
X0086536
X0079036
X0082786Y00915
X0090286
X0097786
X0105286
X0112786
X0120286
X0124036Y0099
X0142786Y00915
X0150286
X0153286Y0094621
X0157786Y00915
X0172786
X0180286
X0187786
X0195286
X0165286Y01065
X0137046Y0209187
X013491Y0214311
X012741
X0142046Y0221187
X0085846Y021834
X0089046Y0212687
X0078286Y0207
X0077346Y021884
X0076846Y023334
X0086546Y0239187
X009366Y023681
X008991Y022931
X0090286Y01815
X0072046Y0188187
X0061546Y0187687
X0058286Y01895
X0055786
X0053286
X0050786
X0048286
Y0192
Y01945
Y0197
Y01995
X0053286Y02045
X0055786
X0058286
X0060786
X0070786Y0207
X0073286
X0075786
X0071846Y021984
X0066286Y02335
X0052346Y023834
Y024234
X0057286Y0215
X0052786Y01815
X0056536Y0174
X0064036
X0072286Y017
X0075286Y01665
Y01365
Y01215
Y01065
Y00915
X0049036Y0174
X0051846Y025384
X0069846Y025434
X006366Y028181
X006741Y0289311
X005991
X007116Y0296811
X007491Y030431
X007116Y031181
X007491Y031931
X006741
X005991
X0075286Y0373987
Y0388987
X0082786
X0090286
X0086536Y0396487
X0094036
X0101536
Y0381487
X0094036
X0086536
X0079036
X0080286Y0374487
X0090286Y0373987
X0097786
X0105286
X0110786Y0370487
X0116536Y0366487
X0124036
X0127786Y0373987
X0120286
X0124036Y0381487
X0131536
X0127786Y0388987
X0120286
X0124036Y0396487
X0131536
X0146536
X0154036
X0161536
X0176536
X0184036
X0191536
X0195286Y0388987
X0202786
X0210286
X0217786
X0225286
Y0373987
X0217786
X0221536Y0366487
X0214036
X0206536
X0210286Y0358987
X0217786
X0225286
X0202786
X0191536Y0366487
X0184036
X0176536
X0169036
X0161536
X0154036
X0146536
X0150286Y0373987
X0157786
X0165286
X0172786
X0180286
X0187786
X0195286
X0199036Y0381487
X0206536
X0191536
X0184036
X0176536
X0169036
X0161536
X0154036
X0146536
X0142786Y0388987
Y0373987
X0157786Y0358987
X0180286
Y0388987
X0187786
X0116536Y0381487
X0101536Y0366487
X0094036
X0087786Y0356987
X008991Y031931
X008241
X008616Y031181
X007866
X008241Y030431
X009741Y0289311
X010116Y028181
X009366
X0091346Y027334
X0088346Y027534
X009741Y027431
X010491
X011241
X011991
X012741
X013491
X014241
X014616Y028181
X013866
X013116
X013491Y0289311
X014241
X014616Y0296811
X013866
X013116
X013491Y030431
X014241
X014616Y031181
X013116
X012366
X012741Y031931
Y030431
Y0289311
X0109286Y02845
X011616Y026681
X012366
X0127286Y026
X011991Y0259311
X0117046Y0255687
X011241Y0259311
X010866Y0251811
X0111546Y0248187
X0120046Y0243187
X0129786Y0243
X0127546Y0248687
X0138286Y02435
X014241Y024431
X0164786Y02425
X0181786Y02587
X0182432Y0266694
X0196786Y0273
X0200786Y0262691
X020769Y0259969
X0224286Y0269777
X0228633Y0303614
X0209786Y0303429
X020527Y0291878
X014616Y026681
X013866
X0096846Y025084
X009366Y0251811
X0090546Y024804
X0087106Y024658
X0087346Y024284
X0097546Y0243687
X011241Y031931
X0079036Y0396487
X0232786Y0388987
X0240286
X0247786
X0262786
X0270286
Y0373987
X0277786
X0285286
X0292786
X0300286
X0307786
X0315286
X0322786
X0330286
X0337786
X0345286
X0352786
Y0388987
X0345286
X0337786
X0330286
X0322786
X0315286
X0292786
X0262786Y0373987
X0255286
X0247786
X0240286
X0232786
X0238286Y0299587
X0246286
X0254963
X0252404Y0289
X0254786Y0286
X0261286Y0287
X0252286Y0276939
X0244686
X0244786Y0264
X0251286Y0264579
X0254286Y0253
X0273286Y02615
X0281438Y0261
X0267527Y0271
X027614Y0281276
X0282546Y0289467
X0290546Y0279032
X0297396Y0273
X0306286Y028181
Y02845
X0310546Y0292014
X0314154Y0292024
X0318286Y0292014
X0319786Y02795
X0330286Y0281
X0327289Y0257
X0321786Y0258193
X0307007Y0258066
X0359786Y027123
Y0273877
Y0276724
Y02796
X0352286Y0301771
X0362286Y0323
X0360286Y0358987
X0375286Y0373987
X0371536Y0381487
X0375286Y0388987
X0382786
X0286891Y0318
X0277214Y0324074
X0395608Y0282854
X0401809Y0273877
X0419736Y026555
X0441786Y0266
X0442786Y02575
X0443786Y0248
X0456186Y02471
X0456786Y0244
X0462286Y0251
X0468286Y02515
X0472786Y02525
X0483286Y02615
X0486286Y02438
X0529333Y025384
X0541147Y028181
X0544897Y0289311
X0537397
Y031931
X0544897
X0469786Y0298
X0444686Y02849
X0420386Y02967
X0420286Y0373987
X0427786
X0424036Y0381487
X0416536
X0409036
X0401536
X0405286Y0388987
X0412786
X0420286
X0427786
X0435286
X0442786
X0472786
X0480286
X0454036Y0366487
X0450286Y0358987
X0412786Y0373987
X0405286
X0397786Y0388987
X0390286
X0552773
X0560273
X0567773
X0564023Y0396487
X0571523
X0579023
Y0381487
X0571523
X0564023
X0556523
X0557773Y0374487
X0552773Y0373987
X0567773
X0575273
X0582773
X0588273Y0370487
X0594023Y0366487
X0601523
X0605273Y0373987
X0597773
X0601523Y0381487
X0609023
X0605273Y0388987
X0597773
X0601523Y0396487
X0609023
X0624023
X0631523
X0639023
X0654023
X0661523
X0669023
X0672773Y0388987
X0680273
X0687773
X0695273
Y0373987
X0699023Y0366487
X0691523
X0684023
X0687773Y0358987
X0695273
X0680273
X0669023Y0366487
X0661523
X0654023
X0646523
X0639023
X0631523
X0624023
X0627773Y0373987
X0635273
X0642773
X0650273
X0657773
X0665273
X0672773
X0676523Y0381487
X0684023
X0669023
X0661523
X0654023
X0646523
X0639023
X0631523
X0624023
X0620273Y0388987
Y0373987
X0635273Y0358987
X0657773
Y0388987
X0665273
X0594023Y0381487
X0579023Y0366487
X0571523
X0565273Y0356987
X0567397Y031931
X0559897
X0552397
X0556147Y031181
X0563647
X0559897Y030431
X0552397
X0548647Y031181
Y0296811
X0574897Y0289311
X0578647Y028181
X0571147
X0568833Y027334
X0565833Y027534
X0574897Y027431
X0582397
X0589897
X0597397
X0604897
X0612397
X0619897
X0623647Y028181
X0616147
X0608647
X0612397Y0289311
X0619897
X0623647Y0296811
X0616147
X0608647
X0612397Y030431
X0619897
X0623647Y031181
X0608647
X0601147
X0604897Y031931
Y030431
Y0289311
X0586773Y02845
X0593647Y026681
X0601147
X0604773Y026
X0597397Y0259311
X0594533Y0255687
X0589897Y0259311
X0586147Y0251811
X0589033Y0248187
X0597533Y0243187
X0607273Y0243
X0605033Y0248687
X0615773Y02435
X0619897Y024431
X0642273Y02425
X0659273Y02587
X0659919Y0266694
X0674273Y0273
X0678273Y0262691
X0685177Y0259969
X0682757Y0291878
X0687273Y0303429
X0623647Y026681
X0616147
X0574333Y025084
X0571147Y0251811
X0568033Y024804
X0564593Y024658
X0564833Y024284
X0575033Y0243687
X0547333Y025434
X0589897Y031931
X0556523Y0396487
X0702773Y0388987
X0710273
X0717773
X0725273
X0740273
X0747773
Y0373987
X0755273
X0762773
X0770273
X0777773
X0785273
X0792773
X0800273
X0807773
X0815273
X0822773
X0830273
Y0388987
X0822773
X0815273
X0807773
X0800273
X0792773
X0770273
X0740273Y0373987
X0732773
X0725273
X0717773
X0710273
X0702773
Y0358987
X070612Y0303614
X0715773Y0299587
X0723773
X073245
X0729891Y0289
X0732273Y0286
X0738773Y0287
X0729773Y0276939
X0722173
X0722273Y0264
X0728773Y0264579
X0731773Y0253
X0750773Y02615
X0758925Y0261
X0745014Y0271
X0753627Y0281276
X0760033Y0289467
X0768033Y0279032
X0774883Y0273
X0783773Y028181
Y02845
X0788033Y0292014
X0791641Y0292024
X0795773Y0292014
X0797273Y02795
X0807773Y0281
X0804776Y0257
X0799273Y0258193
X0784494Y0258066
X0837273Y027123
Y0273877
Y0276724
Y02796
X0829773Y0301771
X0839773Y0323
X0837773Y0358987
X0852773Y0373987
X0849023Y0381487
X0852773Y0388987
X0764377Y0318
X0754701Y0324074
X0701773Y0269777
X0879296Y0273877
X0873096Y0282854
X0897873Y02967
X0897223Y026555
X0919273Y0266
X0920273Y02575
X0921273Y0248
X0933673Y02471
X0934273Y0244
X0939773Y0251
X0945773Y02515
X0950273Y02525
X0960773Y02615
X0963773Y02438
X0947273Y0298
X0922173Y02849
X0927773Y0358987
X0931523Y0366487
X0920273Y0388987
X0912773
X0905273
X0897773
X0890273
X0882773
X0875273
X0867773
X0860273
X0879023Y0381487
X0886523
X0894023
X0901523
X0905273Y0373987
X0897773
X0890273
X0882773
X0950273Y0388987
X0957773
X0945725Y0430487
X0935273Y0448987
X0927773
X0927725Y0443987
X0925225
X0922725
X0920225
X0917725
X0915225
X0912725
X0910225
X0907725
X0905225
X0902725
X0900225
X0897725
Y0441487
Y0438987
X089521
X0894023Y0441487
X0897773Y0448987
X0905273
X0912773
X0920273
X0924023Y0456487
X0931523
X0935273Y0463987
X0927773
X0920273
X0912773
X0907725Y0461487
X0905225
X0902725
X0900225
X0897725
X0895225
Y0463987
Y0466487
Y0468987
Y0471487
Y0473987
X0901523Y0471487
X0909023
X0916523
X0924023
X0931523
X0934825Y0487087
X093485Y049591
X0917942Y0489656
X0895725Y0487987
X0887725Y0466487
Y0463987
X0885225
X0882725
Y0461487
Y0458987
X0885225
X0887725
Y0461487
Y0456487
Y0453987
X0885225
X0882725
Y0451487
Y0448987
X0885225
X0887725
Y0451487
Y0446487
X0882725
Y0456487
Y0466487
X0894023Y0456487
X0901523
X0909023
X0916523
Y0441487
X0895773Y0429987
Y0427987
Y0425487
Y0423487
X0893273
Y0425487
Y0427987
Y0429987
X0888273
Y0427987
Y0425487
Y0423487
X0885773
Y0425487
Y0427987
Y0429987
X0883018Y0411731
X0881557Y0407046
X0876325Y0402487
X0859673Y040714
X0903225Y0417476
X0863986Y0477133
X0859225Y0479987
X0862773Y049671
X0857773Y0510287
X0874773Y0505987
X0881773Y0510487
X0896273Y0554487
X0933773Y0538487
X0929273Y0530487
X0932725Y0525987
X0929273Y0522487
X0954273Y0540487
X0953273Y0543987
X0843273Y0528487
X0839273Y0523487
X0855273Y0510287
X0815273Y049671
X0824273Y0484487
X0827973Y0480787
X0845673Y046514
X0850773Y0459487
X0801243Y0455631
X0803273Y0453601
X0785773Y0445487
X0778273
X0780773Y0432987
X0768273Y0440284
X0760973Y0432987
X0751173Y0433891
X0741273Y0433187
X0727273Y0433487
X0721246Y0433187
X0720973Y0440987
X0730273Y0445487
X0745773Y0447487
X075012Y0446987
X0747773Y0463487
X0741801Y0462487
X0761501Y0462287
X0760921Y0477487
X0765273Y0476475
X0751273Y0476487
X0748273Y0478487
X0746773Y0505487
X0757273Y0503487
X0761773Y0502487
X0765301Y049591
X0755273Y0509487
X0751273Y0513487
X0721773Y0462487
X0781301Y0462287
X0800716Y0426742
X0669023Y0426487
X0661523
X0654023
X0646523
X0650273Y0433987
X0657773
X0665273
X0672773
X0669023Y0441487
X0661523
X0654023
X0646523
X0639023
X0642773Y0448987
X0650273
X0657773
X0665273
X0672773
X0669023Y0456487
X0661523
X0654023
X0646523
X0639023
X0642773Y0463987
X0650273
X0657773
X0665273
X0672773
X0669023Y0471487
X0661523
X0654023
X0646523
X0650273Y0478987
X0657773
X0665273
X0672773
X0682273Y0518487
X0687273Y0529487
X0645551Y0554487
X0619533Y0548674
X0612397Y0541797
X0614533Y0536674
X0604897Y0541797
X0589897
X0582397
X0586147Y0549298
X0594533Y0547674
X0581273Y0530487
X0578404Y0527987
X0573273Y0516987
X0570773
X0568273
X0565773
X0562033Y0515674
X0557033
X0554033
X0549533
X0549773Y0497487
X0554533Y0497174
X0552773Y0493987
X0564023Y0486487
X0571523
X0575273Y0493987
X0569773Y0496987
X0567773Y0508987
X0566533Y0540174
X0563333Y0545827
X0554833Y0546327
X0549333Y0547327
X0548273Y0534487
X0550773
X0553273
X0555773
X0556523Y0471487
X0564023
X0560273Y0463987
X0552773
X0556523Y0456487
X0564023
X0560273Y0448987
X0552773
X0556523Y0441487
X0564023
X0567773Y0433987
X0575273
X0580099Y0436492
X0582773Y0433987
X0584292Y0439685
X0584792Y0443685
X0591792Y0450685
X0594023Y0456487
X0598792Y0463685
X0601523Y0471487
X0600292Y0482185
X0601523Y0486487
X0609023
X0616523
X0624023
X0627773Y0493987
X0635273
X0620273
X0612773
X0605273
X0597773
X0590273
X0594023Y0486487
X0594292Y0482185
X0586523Y0486487
X0582773Y0478987
X0575273
X0586523Y0471487
X0612773Y0478987
X0620273
X0624023Y0471487
Y0456487
Y0441487
X0612292Y0437685
X0597773Y0433987
X0590273
X0586523Y0426487
X0579023
X0571523
X0564023
X0556523
X0560273Y0433987
X0552773
Y0418987
X0560273
X0567773
X0575273
X0582773
X0590273
X0597773
X0601523Y0426487
Y0411487
X0594023
X0586523
X0579023
X0580273Y0401487
X0590273Y0403987
X0597773
X0620273
Y0418987
X0627773
X0630773Y0422108
X0635273Y0418987
X0639023Y0411487
X0654023
X0661523
X0669023
X0672773Y0418987
X0665273
X0657773
X0650273
Y0403987
X0657773
X0665273
X0672773
X0642773Y0433987
X0556523Y0411487
X0560273Y0403987
X0552773
X0541523Y0501487
X0534023
X0526523
X0530273Y0508987
X0530773Y0516987
X0528273
X0525773
Y0519487
Y0521987
Y0524487
Y0526987
X0530773Y0531987
X0533273
X0535773
X0538273
X0534773Y0542487
X0535773Y0516987
X0533273
X0539033Y0515174
X0476786Y0540487
X0475786Y0543987
X0456286Y0538487
X0451786Y0530487
X0455238Y0525987
X0451786Y0522487
X0457363Y049591
X0457338Y0487087
X0454036Y0471487
X0446536
X0439036
X0431536
X0424036
X0417738
Y0473987
Y0468987
Y0466487
Y0463987
Y0461487
X0420238
X0422739
X0425239
X0427739
X0430238
X0431536Y0456487
X0439036
X0446536
X0454036
X0457786Y0463987
X0450286
X0442786
X0435286
Y0448987
X0435239Y0443987
X0437739
X0440239
X0442738
X0445238
X0447739
X0450239
X0450286Y0448987
X0457786
X0442786
X0439036Y0441487
X0432738Y0443987
X0430238
X0427739
X0425239
X0422739
X0420238
Y0441487
Y0438987
X0417723
X0416536Y0441487
X0420286Y0448987
X0427786
X0424036Y0456487
X0416536
X0410239
Y0458987
X0407738
X0405238
Y0456487
Y0453987
X0407738
X0410239
Y0451487
Y0448987
X0407738
X0405238
Y0446487
X0410239
X0405238Y0451487
Y0461487
Y0463987
X0407738
X0410239
Y0466487
Y0461487
X0405238Y0466487
X0418238Y0487987
X0440455Y0489656
X0404286Y0510487
X0397286Y0505987
X0418786Y0554487
X0418286Y0429987
Y0427987
Y0425487
Y0423487
X0415786
Y0425487
Y0427987
Y0429987
X0410786
Y0427987
Y0425487
Y0423487
X0408286
Y0425487
Y0427987
Y0429987
X0405531Y0411731
X040407Y0407046
X0398838Y0402487
X0425738Y0417476
X0468238Y0430487
X0382186Y040714
X0373286Y0459487
X0368186Y046514
X0381738Y0479987
X03865Y0477133
X0385286Y049671
X0380286Y0510287
X0377786
X0361786Y0523487
X0365786Y0528487
X0337786Y049671
X0346786Y0484487
X0350486Y0480787
X0323756Y0455631
X0325786Y0453601
X0308286Y0445487
X0300786
X0303286Y0432987
X0290786Y0440284
X0283486Y0432987
X0273686Y0433891
X0263786Y0433187
X0249786Y0433487
X0243759Y0433187
X0243486Y0440987
X0252786Y0445487
X0268286Y0447487
X0272633Y0446987
X0270286Y0463487
X0264314Y0462487
X0284014Y0462287
X0283434Y0477487
X0287786Y0476475
X0273786Y0476487
X0270786Y0478487
X0269286Y0505487
X0279786Y0503487
X0284286Y0502487
X0287814Y049591
X0277786Y0509487
X0273786Y0513487
X0244286Y0462487
X0303814Y0462287
X0323229Y0426742
X0191536Y0426487
X0184036
X0176536
X0169036
X0172786Y0433987
X0180286
X0187786
X0195286
X0191536Y0441487
X0184036
X0176536
X0169036
X0161536
X0165286Y0448987
X0172786
X0180286
X0187786
X0195286
X0191536Y0456487
X0184036
X0176536
X0169036
X0161536
X0165286Y0463987
X0172786
X0180286
X0187786
X0195286
X0191536Y0471487
X0184036
X0176536
X0169036
X0172786Y0478987
X0180286
X0187786
X0195286
X0204786Y0518487
X0209786Y0529487
X0168064Y0554487
X0142046Y0548674
X013491Y0541797
X0137046Y0536674
X012741Y0541797
X011241
X010491
X010866Y0549298
X0117046Y0547674
X0103786Y0530487
X0100917Y0527987
X0095786Y0516987
X0093286
X0090786
X0088286
X0084546Y0515674
X0079546
X0076546
X0077046Y0497174
X0092286Y0496987
X0097786Y0493987
X0094036Y0486487
X0086536
Y0471487
X0079036
X0082786Y0463987
X0086536Y0456487
X0079036
X0082786Y0448987
X0086536Y0441487
X0079036
X0082786Y0433987
X0090286
X0097786
X0102612Y0436492
X0105286Y0433987
X0106805Y0439685
X0107305Y0443685
X0114305Y0450685
X0116536Y0456487
X0121305Y0463685
X0124036Y0471487
X0122805Y0482185
X0124036Y0486487
X0131536
X0139036
X0146536
X0150286Y0493987
X0157786
X0142786
X0135286
X0127786
X0120286
X0112786
X0116536Y0486487
X0116805Y0482185
X0109036Y0486487
X0105286Y0478987
X0097786
X0109036Y0471487
X0135286Y0478987
X0142786
X0146536Y0471487
Y0456487
Y0441487
X0134805Y0437685
X0120286Y0433987
X0112786
X0109036Y0426487
X0101536
X0094036
X0086536
X0079036
X0082786Y0418987
X0090286
X0097786
X0105286
X0112786
X0120286
X0124036Y0426487
Y0411487
X0116536
X0109036
X0101536
X0102786Y0401487
X0112786Y0403987
X0120286
X0142786
Y0418987
X0150286
X0153286Y0422108
X0157786Y0418987
X0161536Y0411487
X0176536
X0184036
X0191536
X0195286Y0418987
X0187786
X0180286
X0172786
Y0403987
X0180286
X0187786
X0195286
X0165286Y0433987
X0079036Y0411487
X0082786Y0403987
X0090286Y0508987
X0089046Y0540174
X0085846Y0545827
X0077346Y0546327
X0078286Y0534487
X0075786
X0073286
X0070786
X0060786Y0531987
X0058286
X0055786
X0053286
X0048286Y0526987
Y0524487
Y0521987
Y0519487
Y0516987
X0050786
X0053286
X0055786
X0058286
X0061546Y0515174
X0072046Y0515674
X0072286Y0497487
X0075286Y0493987
X0064036Y0501487
X0056536
X0049036
X0052786Y0508987
X0057286Y0542487
X0071846Y0547327
X0075286Y0463987
Y0448987
Y0433987
Y0418987
Y0403987
X0066286Y0560987
X0052346Y0565827
Y0569827
X0051846Y0581327
X0069846Y0581827
X006366Y0609298
X006741Y0616797
X005991
X007116Y0624298
X007491Y0631798
X007116Y0639297
X007491Y0646798
X006741
X005991
X008241
X008991
X008616Y0639297
X007866
X008241Y0631798
X009741Y0616797
X010116Y0609298
X009366
X0091346Y0600827
X0088346Y0602827
X009741Y0601797
X010491
X011241
X011991
X012741
X013491
X014241
X014616Y0609298
X013866
X013116
X013491Y0616797
X014241
X014616Y0624298
X013866
X013116
X013491Y0631798
X014241
X014616Y0639297
X013116
X012366
X012741Y0646798
Y0631798
Y0616797
X0109286Y0611987
X011616Y0594298
X012366
X0127286Y0587487
X011991Y0586798
X0117046Y0583174
X011241Y0586798
X010866Y0579297
X0111546Y0575674
Y0562174
X0122046Y0558674
X0120046Y0570674
X0129786Y0570487
X0127546Y0576174
X0138286Y0570987
X014241Y0571798
Y0556798
X013491
X013866Y0594298
X014616
X0182432Y0594181
X0181786Y0586187
X0200786Y0590177
X020769Y0587456
X0196786Y0600487
X020527Y0619365
X0209786Y0630916
X0228633Y0631101
X0224286Y0597264
X0200786Y0556327
X0164786Y0569987
X0097546Y0571174
X0096846Y0578327
X009366Y0579297
X0090546Y0575527
X0087106Y0574067
X0087346Y0570327
X0086546Y0566674
X009366Y0564297
X008991Y0556798
X0076846Y0560827
X011241Y0646798
X0238286Y0627074
X0246286
X0254963
X0252404Y0616487
X0254786Y0613487
X0261286Y0614487
X0252286Y0604426
X0244686
X0244786Y0591487
X0251286Y0592066
X0254286Y0580487
X0273286Y0588987
X0281438Y0588487
X0267527Y0598487
X027614Y0608763
X0282546Y0616954
X0290546Y0606519
X0297396Y0600487
X0306286Y0609298
Y0611987
X0310546Y0619501
X0314154Y0619511
X0318286Y0619501
X0319786Y0606987
X0330286Y0608487
X0327289Y0584487
X0321786Y058568
X0307007Y0585553
X0359786Y0598717
Y0601364
Y0604211
Y0607087
X0352286Y0629258
X0362286Y0650487
X0286891Y0645487
X0277214Y0651561
X0395608Y0610341
X0401809Y0601364
X0419736Y0593037
X0441786Y0593487
X0442786Y0584987
X0443786Y0575487
X0456186Y0574587
X0456786Y0571487
X0462786Y0565987
X0475267Y0566066
X0486862Y0568011
X0486286Y0571287
X0483286Y0588987
X0472786Y0579987
X0468286Y0578987
X0462286Y0578487
X0444686Y0612387
X0420386Y0624187
X0469786Y0625487
X0537397Y0616797
X0544897
X0541147Y0609298
X0529333Y0581327
X0529833Y0569827
Y0565827
X0543773Y0560987
X0544897Y0646798
X0537397
X0552397
X0559897
X0567397
X0563647Y0639297
X0556147
X0548647
X0552397Y0631798
X0559897
X0548647Y0624298
X0574897Y0616797
X0578647Y0609298
X0571147
X0568833Y0600827
X0565833Y0602827
X0574897Y0601797
X0582397
X0589897
X0597397
X0604897
X0612397
X0619897
X0623647Y0609298
X0616147
X0608647
X0612397Y0616797
X0619897
X0623647Y0624298
X0616147
X0608647
X0612397Y0631798
X0619897
X0623647Y0639297
X0608647
X0601147
X0604897Y0646798
Y0631798
Y0616797
X0586773Y0611987
X0593647Y0594298
X0601147
X0604773Y0587487
X0597397Y0586798
X0594533Y0583174
X0589897Y0586798
X0586147Y0579297
X0589033Y0575674
Y0562174
X0599533Y0558674
X0597533Y0570674
X0607273Y0570487
X0605033Y0576174
X0615773Y0570987
X0619897Y0571798
Y0556798
X0612397
X0616147Y0594298
X0623647
X0659919Y0594181
X0659273Y0586187
X0678273Y0590177
X0685177Y0587456
X0674273Y0600487
X0682757Y0619365
X0687273Y0630916
X0678273Y0556327
X0642273Y0569987
X0575033Y0571174
X0574333Y0578327
X0571147Y0579297
X0568033Y0575527
X0564593Y0574067
X0564833Y0570327
X0564033Y0566674
X0571147Y0564297
X0567397Y0556798
X0554333Y0560827
X0547333Y0581827
X0589897Y0646798
X070612Y0631101
X0715773Y0627074
X0723773
X073245
X0729891Y0616487
X0732273Y0613487
X0738773Y0614487
X0729773Y0604426
X0722173
X0722273Y0591487
X0728773Y0592066
X0731773Y0580487
X0750773Y0588987
X0758925Y0588487
X0745014Y0598487
X0753627Y0608763
X0760033Y0616954
X0768033Y0606519
X0774883Y0600487
X0783773Y0609298
Y0611987
X0788033Y0619501
X0791641Y0619511
X0795773Y0619501
X0797273Y0606987
X0807773Y0608487
X0804776Y0584487
X0799273Y058568
X0784494Y0585553
X0837273Y0598717
Y0601364
Y0604211
Y0607087
X0829773Y0629258
X0839773Y0650487
X0764377Y0645487
X0754701Y0651561
X0701773Y0597264
X0879296Y0601364
X0873096Y0610341
X0897873Y0624187
X0897223Y0593037
X0919273Y0593487
X0920273Y0584987
X0921273Y0575487
X0933673Y0574587
X0934273Y0571487
X0940273Y0565987
X0952754Y0566066
X0964349Y0568011
X0963773Y0571287
X0960773Y0588987
X0950273Y0579987
X0945773Y0578987
X0939773Y0578487
X0922173Y0612387
X0947273Y0625487
T02
X0109286Y0298
X0119286
X0586773
X0596773
X0119286Y0625487
X0109286
X0586773
X0596773
T03
X0276475Y0064819
X0287381
X0298286
X0309192
X0314644Y0076
X0303739
X0292833
X0281928
X0271022
X0748509
X0759415
X077032
X0781226
X0792131
X0786679Y0064819
X0775773
X0764868
X0753962
X0309192Y0392306
X0298286
X0287381
X0276475
X0753962
X0764868
X0775773
X0786679
X0792131Y0403487
X0781226
X077032
X0759415
X0748509
X0314644
X0303739
X0292833
X0281928
X0271022
T04
X0857773Y0238032
X0867773
X0847773
X0837773
X0827773
X0817773
X0807773
X0797773
X0787773
X0777773
X0767773
X0757773
X0747773
X0737773
X0727773
X0717773
X0707773
X0697773
X0687773
X0677773
X0390286
X0380286
X0370286
X0360286
X0350286
X0340286
X0330286
X0320286
X0310286
X0300286
X0290286
X0280286
X0270286
X0260286
X0250286
X0240286
X0230286
X0220286
X0210286
X0200286
Y0248031
X0210286
X0220286
X0230286
X0240286
X0250286
X0260286
X0270286
X0280286
X0290286
X0300286
X0310286
X0320286
X0330286
X0340286
X0350286
X0360286
X0370286
X0380286
X0390286
X0677773
X0687773
X0697773
X0707773
X0717773
X0727773
X0737773
X0747773
X0757773
X0767773
X0777773
X0787773
X0797773
X0807773
X0817773
X0827773
X0837773
X0847773
X0857773
X0867773
X0230286Y0565519
X0220286
X0210286
X0200286
Y0575519
X0210286
X0220286
X0230286
X0240286
Y0565519
X0250286
Y0575519
X0260286
Y0565519
X0270286
Y0575519
X0280286
Y0565519
X0290286
Y0575519
X0300286
Y0565519
X0310286
Y0575519
X0320286
Y0565519
X0330286
Y0575519
X0340286
Y0565519
X0350286
Y0575519
X0360286
Y0565519
X0370286
Y0575519
X0380286
Y0565519
X0390286
Y0575519
X0677773
Y0565519
X0687773
Y0575519
X0697773
Y0565519
X0707773
Y0575519
X0717773
Y0565519
X0727773
Y0575519
X0737773
Y0565519
X0747773
Y0575519
X0757773
Y0565519
X0767773
Y0575519
X0777773
Y0565519
X0787773
Y0575519
X0797773
Y0565519
X0807773
Y0575519
X0817773
Y0565519
X0827773
Y0575519
X0837773
Y0565519
X0847773
Y0575519
X0857773
X0867773
Y0565519
X0857773
T05
X0413738Y0025039
X0891225
X0413738Y0352526
X0891225
T06
X0099286Y0318
X0139286
X0576773
X0616773
X0139286Y0645487
X0099286
X0576773
X0616773
T07
X024364Y007041
X0342026
X0721128
X0819513
X0342026Y0397896
X024364
X0721128
X0819513
T08
X0062786Y00626
X0540273
X0062786Y0390087
X0454786Y03047
X0540273Y0390087
X0932273Y03047
X0454786Y0632187
X0932273
T09
X0128046Y0254187
X0148046Y0250187
Y0258187
X0465167Y0262079
X0485167Y0266079
Y0258079
X0605533Y0254187
X0625533Y0250187
Y0258187
X0942653Y0262079
X0962654Y0266079
Y0258079
X0148046Y0577674
Y0585674
X0128046Y0581674
X0465167Y0589566
X0485167Y0593566
Y0585566
X0605533Y0581674
X0625533Y0577674
Y0585674
X0942653Y0589566
X0962654Y0593566
Y0585566
T10
X020527Y0338016
X0282829
X0682757
X0760316
X020527Y0665503
X0282829
X0682757
X0760316
T11
X0095786Y0034
Y0061559
X0153286
Y0034
X0573273
Y0061559
X0630773
Y0034
X0153286Y0361487
Y0389046
X0095786
Y0361487
X0573273
Y0389046
X0630773
Y0361487
T12
X0181074Y0244449
Y0335
X040942
Y0244449
X0658561
Y0335
X0886907
Y0244449
X0181074Y0571936
Y0662487
X040942
Y0571936
X0658561
Y0662487
X0886907
Y0571936
T13
X0454686Y00627
X0932173
X0062786Y03047
X0454686Y0390187
X0540273Y03047
X0932173Y0390187
X0062786Y0632187
X0540273
M30
