G04*
G04 #@! TF.GenerationSoftware,Altium Limited,Altium Designer,19.0.8 (182)*
G04*
G04 Layer_Color=8388736*
%FSLAX25Y25*%
%MOIN*%
G70*
G01*
G75*
%ADD142R,0.03175X0.01587*%
%ADD143R,0.03969X0.02381*%
%ADD144R,0.05556X0.02381*%
%ADD145R,0.01587X0.03175*%
D142*
X351799Y280680D02*
D03*
X313274Y279039D02*
D03*
X429226Y106006D02*
D03*
X829286Y280680D02*
D03*
X790761Y279039D02*
D03*
X906713Y106006D02*
D03*
X351799Y608167D02*
D03*
X313274Y606526D02*
D03*
X429226Y433493D02*
D03*
X829286Y608167D02*
D03*
X790761Y606526D02*
D03*
X906713Y433493D02*
D03*
D143*
X466454Y157340D02*
D03*
X428254Y166509D02*
D03*
X943941Y157340D02*
D03*
X905741Y166509D02*
D03*
X466454Y484827D02*
D03*
X428254Y493996D02*
D03*
X943941Y484827D02*
D03*
X905741Y493996D02*
D03*
D144*
X407716Y154509D02*
D03*
X885203D02*
D03*
X407716Y481996D02*
D03*
X885203D02*
D03*
D145*
X393245Y122512D02*
D03*
Y135512D02*
D03*
X870732Y122512D02*
D03*
Y135512D02*
D03*
X393245Y449999D02*
D03*
Y462999D02*
D03*
X870732Y449999D02*
D03*
Y462999D02*
D03*
M02*
