G04*
G04 #@! TF.GenerationSoftware,Altium Limited,Altium Designer,19.0.8 (182)*
G04*
G04 Layer_Color=8421504*
%FSLAX25Y25*%
%MOIN*%
G70*
G01*
G75*
%ADD11R,0.02200X0.03000*%
%ADD12R,0.03740X0.03740*%
%ADD13R,0.04173X0.02559*%
%ADD14R,0.10700X0.06300*%
%ADD15R,0.03740X0.03740*%
%ADD16R,0.02362X0.02953*%
%ADD17R,0.01575X0.02953*%
%ADD18R,0.08661X0.22047*%
%ADD19R,0.05512X0.13386*%
%ADD20R,0.03200X0.03600*%
%ADD21R,0.02400X0.03200*%
%ADD22R,0.02400X0.03200*%
%ADD23R,0.01200X0.04800*%
%ADD24R,0.02953X0.02362*%
%ADD25R,0.02953X0.01575*%
%ADD26O,0.04528X0.00984*%
%ADD27R,0.04528X0.00984*%
%ADD28R,0.02756X0.00984*%
%ADD29R,0.10236X0.10236*%
%ADD30R,0.00984X0.02756*%
%ADD31R,0.11900X0.05600*%
%ADD32R,0.02800X0.04800*%
%ADD34R,0.06693X0.03150*%
%ADD39R,0.04000X0.05600*%
%ADD41R,0.10236X0.10236*%
%ADD42R,0.06200X0.02400*%
%ADD43R,0.07100X0.06300*%
%ADD45R,0.12992X0.17323*%
%ADD46R,0.15354X0.24410*%
%ADD47R,0.07900X0.20900*%
%ADD48R,0.06600X0.06000*%
%ADD49R,0.06300X0.10700*%
%ADD50R,0.02400X0.06000*%
%ADD51R,0.01500X0.02000*%
%ADD52R,0.01200X0.02600*%
%ADD53R,0.06000X0.02400*%
%ADD54R,0.01496X0.04921*%
%ADD55R,0.04000X0.09900*%
%ADD56R,0.09900X0.23700*%
%ADD57R,0.01496X0.02362*%
%ADD59R,0.04331X0.02200*%
%ADD90R,0.07480X0.05512*%
%ADD91R,0.07874X0.08268*%
%ADD92R,0.05906X0.06299*%
%ADD93R,0.07480X0.08268*%
%ADD94R,0.02756X0.11024*%
%ADD95R,0.03937X0.20079*%
D11*
X389403Y150000D02*
D03*
X393143D02*
D03*
X396943D02*
D03*
Y159000D02*
D03*
X389403D02*
D03*
X393143D02*
D03*
X866890Y150000D02*
D03*
X870630D02*
D03*
X874430D02*
D03*
Y159000D02*
D03*
X866890D02*
D03*
X870630D02*
D03*
X389403Y477487D02*
D03*
X393143D02*
D03*
X396943D02*
D03*
Y486487D02*
D03*
X389403D02*
D03*
X393143D02*
D03*
X866890Y477487D02*
D03*
X870630D02*
D03*
X874430D02*
D03*
Y486487D02*
D03*
X866890D02*
D03*
X870630D02*
D03*
D12*
X276140Y285233D02*
D03*
X270432D02*
D03*
X59492Y269840D02*
D03*
X65200D02*
D03*
X59285Y256300D02*
D03*
X64994D02*
D03*
X104140Y261500D02*
D03*
X98432D02*
D03*
X59272Y249881D02*
D03*
X64981D02*
D03*
X112451Y110198D02*
D03*
X118160D02*
D03*
X116160Y149698D02*
D03*
X110451D02*
D03*
X387884Y79654D02*
D03*
X393593D02*
D03*
X382593Y147500D02*
D03*
X376884D02*
D03*
X393593Y86154D02*
D03*
X387884D02*
D03*
X469593Y146500D02*
D03*
X463884D02*
D03*
X65200Y263840D02*
D03*
X59492D02*
D03*
X98432Y268000D02*
D03*
X104140D02*
D03*
X104175Y254040D02*
D03*
X98466D02*
D03*
X84100Y228840D02*
D03*
X78392D02*
D03*
X84300Y222440D02*
D03*
X78592D02*
D03*
X65140Y237500D02*
D03*
X59432D02*
D03*
X65140Y243500D02*
D03*
X59432D02*
D03*
X118190Y116498D02*
D03*
X112481D02*
D03*
X112951Y101698D02*
D03*
X118660D02*
D03*
X129660Y149698D02*
D03*
X123951D02*
D03*
X288668Y285233D02*
D03*
X282959D02*
D03*
X301513Y257500D02*
D03*
X295804D02*
D03*
X208831Y225173D02*
D03*
X203122D02*
D03*
X192634D02*
D03*
X198343D02*
D03*
X185932Y258700D02*
D03*
X191640D02*
D03*
X431093Y154500D02*
D03*
X425384D02*
D03*
X390940Y165000D02*
D03*
X385232D02*
D03*
X753627Y285233D02*
D03*
X747919D02*
D03*
X536979Y269840D02*
D03*
X542687D02*
D03*
X536772Y256300D02*
D03*
X542481D02*
D03*
X581628Y261500D02*
D03*
X575919D02*
D03*
X536759Y249881D02*
D03*
X542468D02*
D03*
X589938Y110198D02*
D03*
X595647D02*
D03*
X593647Y149698D02*
D03*
X587938D02*
D03*
X865371Y79654D02*
D03*
X871080D02*
D03*
X860080Y147500D02*
D03*
X854371D02*
D03*
X871080Y86154D02*
D03*
X865371D02*
D03*
X947080Y146500D02*
D03*
X941371D02*
D03*
X542687Y263840D02*
D03*
X536979D02*
D03*
X575919Y268000D02*
D03*
X581628D02*
D03*
X581662Y254040D02*
D03*
X575953D02*
D03*
X561587Y228840D02*
D03*
X555879D02*
D03*
X561787Y222440D02*
D03*
X556079D02*
D03*
X542627Y237500D02*
D03*
X536919D02*
D03*
X542627Y243500D02*
D03*
X536919D02*
D03*
X595677Y116498D02*
D03*
X589968D02*
D03*
X590438Y101698D02*
D03*
X596147D02*
D03*
X607147Y149698D02*
D03*
X601438D02*
D03*
X766155Y285233D02*
D03*
X760446D02*
D03*
X779000Y257500D02*
D03*
X773291D02*
D03*
X686318Y225173D02*
D03*
X680609D02*
D03*
X670121D02*
D03*
X675830D02*
D03*
X663419Y258700D02*
D03*
X669128D02*
D03*
X908580Y154500D02*
D03*
X902871D02*
D03*
X868427Y165000D02*
D03*
X862719D02*
D03*
X276140Y612720D02*
D03*
X270432D02*
D03*
X59492Y597327D02*
D03*
X65200D02*
D03*
X59285Y583787D02*
D03*
X64994D02*
D03*
X104140Y588987D02*
D03*
X98432D02*
D03*
X59272Y577368D02*
D03*
X64981D02*
D03*
X112451Y437685D02*
D03*
X118160D02*
D03*
X116160Y477185D02*
D03*
X110451D02*
D03*
X387884Y407140D02*
D03*
X393593D02*
D03*
X382593Y474987D02*
D03*
X376884D02*
D03*
X393593Y413640D02*
D03*
X387884D02*
D03*
X469593Y473987D02*
D03*
X463884D02*
D03*
X65200Y591327D02*
D03*
X59492D02*
D03*
X98432Y595487D02*
D03*
X104140D02*
D03*
X104175Y581527D02*
D03*
X98466D02*
D03*
X84100Y556327D02*
D03*
X78392D02*
D03*
X84300Y549927D02*
D03*
X78592D02*
D03*
X65140Y564987D02*
D03*
X59432D02*
D03*
X65140Y570987D02*
D03*
X59432D02*
D03*
X118190Y443985D02*
D03*
X112481D02*
D03*
X112951Y429185D02*
D03*
X118660D02*
D03*
X129660Y477185D02*
D03*
X123951D02*
D03*
X288668Y612720D02*
D03*
X282959D02*
D03*
X301513Y584987D02*
D03*
X295804D02*
D03*
X208831Y552660D02*
D03*
X203122D02*
D03*
X192634D02*
D03*
X198343D02*
D03*
X185932Y586187D02*
D03*
X191640D02*
D03*
X431093Y481987D02*
D03*
X425384D02*
D03*
X390940Y492487D02*
D03*
X385232D02*
D03*
X753627Y612720D02*
D03*
X747919D02*
D03*
X536979Y597327D02*
D03*
X542687D02*
D03*
X536772Y583787D02*
D03*
X542481D02*
D03*
X581628Y588987D02*
D03*
X575919D02*
D03*
X536759Y577368D02*
D03*
X542468D02*
D03*
X589938Y437685D02*
D03*
X595647D02*
D03*
X593647Y477185D02*
D03*
X587938D02*
D03*
X865371Y407140D02*
D03*
X871080D02*
D03*
X860080Y474987D02*
D03*
X854371D02*
D03*
X871080Y413640D02*
D03*
X865371D02*
D03*
X947080Y473987D02*
D03*
X941371D02*
D03*
X542687Y591327D02*
D03*
X536979D02*
D03*
X575919Y595487D02*
D03*
X581628D02*
D03*
X581662Y581527D02*
D03*
X575953D02*
D03*
X561587Y556327D02*
D03*
X555879D02*
D03*
X561787Y549927D02*
D03*
X556079D02*
D03*
X542627Y564987D02*
D03*
X536919D02*
D03*
X542627Y570987D02*
D03*
X536919D02*
D03*
X595677Y443985D02*
D03*
X589968D02*
D03*
X590438Y429185D02*
D03*
X596147D02*
D03*
X607147Y477185D02*
D03*
X601438D02*
D03*
X766155Y612720D02*
D03*
X760446D02*
D03*
X779000Y584987D02*
D03*
X773291D02*
D03*
X686318Y552660D02*
D03*
X680609D02*
D03*
X670121D02*
D03*
X675830D02*
D03*
X663419Y586187D02*
D03*
X669128D02*
D03*
X908580Y481987D02*
D03*
X902871D02*
D03*
X868427Y492487D02*
D03*
X862719D02*
D03*
D13*
X340526Y284190D02*
D03*
Y276710D02*
D03*
X333046D02*
D03*
Y280450D02*
D03*
Y284190D02*
D03*
X818013D02*
D03*
Y276710D02*
D03*
X810533D02*
D03*
Y280450D02*
D03*
Y284190D02*
D03*
X340526Y611677D02*
D03*
Y604197D02*
D03*
X333046D02*
D03*
Y607937D02*
D03*
Y611677D02*
D03*
X818013D02*
D03*
Y604197D02*
D03*
X810533D02*
D03*
Y607937D02*
D03*
Y611677D02*
D03*
D14*
X351786Y275087D02*
D03*
Y286198D02*
D03*
X313286Y284632D02*
D03*
Y273520D02*
D03*
X429239Y100488D02*
D03*
Y111600D02*
D03*
X829273Y275087D02*
D03*
Y286198D02*
D03*
X790773Y284632D02*
D03*
Y273520D02*
D03*
X906725Y100488D02*
D03*
Y111600D02*
D03*
X351786Y602574D02*
D03*
Y613685D02*
D03*
X313286Y612119D02*
D03*
Y601007D02*
D03*
X429239Y427975D02*
D03*
Y439087D02*
D03*
X829273Y602574D02*
D03*
Y613685D02*
D03*
X790773Y612119D02*
D03*
Y601007D02*
D03*
X906725Y427975D02*
D03*
Y439087D02*
D03*
D15*
X326286Y278646D02*
D03*
Y284354D02*
D03*
X107046Y241541D02*
D03*
Y235832D02*
D03*
X79546Y284741D02*
D03*
Y279032D02*
D03*
X93546Y212832D02*
D03*
Y218541D02*
D03*
X99546Y212832D02*
D03*
Y218541D02*
D03*
X91846Y260986D02*
D03*
Y266694D02*
D03*
X138805Y112844D02*
D03*
Y118552D02*
D03*
Y125844D02*
D03*
Y131552D02*
D03*
Y144552D02*
D03*
Y138844D02*
D03*
X96805Y124844D02*
D03*
Y130552D02*
D03*
Y137844D02*
D03*
Y143552D02*
D03*
Y111844D02*
D03*
Y117552D02*
D03*
X140305Y97344D02*
D03*
Y103052D02*
D03*
X471167Y216824D02*
D03*
Y222533D02*
D03*
X464166D02*
D03*
Y216824D02*
D03*
X72046Y232541D02*
D03*
Y226832D02*
D03*
X68786Y175854D02*
D03*
Y170146D02*
D03*
X452239Y159354D02*
D03*
Y153646D02*
D03*
X115546Y245332D02*
D03*
Y251041D02*
D03*
X101046Y235876D02*
D03*
Y241584D02*
D03*
X81786Y175854D02*
D03*
Y170146D02*
D03*
X87786Y175854D02*
D03*
Y170146D02*
D03*
X399238Y85268D02*
D03*
Y79559D02*
D03*
X157286Y102975D02*
D03*
Y97267D02*
D03*
X218786Y276396D02*
D03*
Y270687D02*
D03*
X181786Y276939D02*
D03*
Y271230D02*
D03*
X261286Y277146D02*
D03*
Y282854D02*
D03*
X289286Y268646D02*
D03*
Y274354D02*
D03*
X457166Y222533D02*
D03*
Y216824D02*
D03*
X457286Y232146D02*
D03*
Y237854D02*
D03*
X444486Y273946D02*
D03*
Y279654D02*
D03*
X803773Y278646D02*
D03*
Y284354D02*
D03*
X584533Y241541D02*
D03*
Y235832D02*
D03*
X557033Y284741D02*
D03*
Y279032D02*
D03*
X571033Y212832D02*
D03*
Y218541D02*
D03*
X577033Y212832D02*
D03*
Y218541D02*
D03*
X569333Y260986D02*
D03*
Y266694D02*
D03*
X616292Y112844D02*
D03*
Y118552D02*
D03*
Y125844D02*
D03*
Y131552D02*
D03*
Y144552D02*
D03*
Y138844D02*
D03*
X574292Y124844D02*
D03*
Y130552D02*
D03*
Y137844D02*
D03*
Y143552D02*
D03*
Y111844D02*
D03*
Y117552D02*
D03*
X617792Y97344D02*
D03*
Y103052D02*
D03*
X948654Y216824D02*
D03*
Y222533D02*
D03*
X941654D02*
D03*
Y216824D02*
D03*
X549533Y232541D02*
D03*
Y226832D02*
D03*
X546273Y175854D02*
D03*
Y170146D02*
D03*
X929725Y159354D02*
D03*
Y153646D02*
D03*
X593033Y245332D02*
D03*
Y251041D02*
D03*
X578533Y235876D02*
D03*
Y241584D02*
D03*
X559273Y175854D02*
D03*
Y170146D02*
D03*
X565273Y175854D02*
D03*
Y170146D02*
D03*
X876725Y85268D02*
D03*
Y79559D02*
D03*
X634773Y102975D02*
D03*
Y97267D02*
D03*
X696273Y276396D02*
D03*
Y270687D02*
D03*
X659273Y276939D02*
D03*
Y271230D02*
D03*
X738773Y277146D02*
D03*
Y282854D02*
D03*
X766773Y268646D02*
D03*
Y274354D02*
D03*
X934653Y222533D02*
D03*
Y216824D02*
D03*
X934773Y232146D02*
D03*
Y237854D02*
D03*
X921973Y273946D02*
D03*
Y279654D02*
D03*
X326286Y606133D02*
D03*
Y611841D02*
D03*
X107046Y569028D02*
D03*
Y563319D02*
D03*
X79546Y612228D02*
D03*
Y606519D02*
D03*
X93546Y540319D02*
D03*
Y546028D02*
D03*
X99546Y540319D02*
D03*
Y546028D02*
D03*
X91846Y588473D02*
D03*
Y594181D02*
D03*
X138805Y440331D02*
D03*
Y446039D02*
D03*
Y453331D02*
D03*
Y459039D02*
D03*
Y472039D02*
D03*
Y466331D02*
D03*
X96805Y452331D02*
D03*
Y458039D02*
D03*
Y465331D02*
D03*
Y471039D02*
D03*
Y439331D02*
D03*
Y445039D02*
D03*
X140305Y424831D02*
D03*
Y430539D02*
D03*
X471167Y544311D02*
D03*
Y550020D02*
D03*
X464166D02*
D03*
Y544311D02*
D03*
X72046Y560028D02*
D03*
Y554319D02*
D03*
X68786Y503341D02*
D03*
Y497633D02*
D03*
X452239Y486841D02*
D03*
Y481133D02*
D03*
X115546Y572819D02*
D03*
Y578528D02*
D03*
X101046Y563363D02*
D03*
Y569071D02*
D03*
X81786Y503341D02*
D03*
Y497633D02*
D03*
X87786Y503341D02*
D03*
Y497633D02*
D03*
X399238Y412754D02*
D03*
Y407046D02*
D03*
X157286Y430462D02*
D03*
Y424754D02*
D03*
X218786Y603883D02*
D03*
Y598174D02*
D03*
X181786Y604426D02*
D03*
Y598717D02*
D03*
X261286Y604633D02*
D03*
Y610341D02*
D03*
X289286Y596133D02*
D03*
Y601841D02*
D03*
X457166Y550020D02*
D03*
Y544311D02*
D03*
X457286Y559633D02*
D03*
Y565341D02*
D03*
X444486Y601433D02*
D03*
Y607141D02*
D03*
X803773Y606133D02*
D03*
Y611841D02*
D03*
X584533Y569028D02*
D03*
Y563319D02*
D03*
X557033Y612228D02*
D03*
Y606519D02*
D03*
X571033Y540319D02*
D03*
Y546028D02*
D03*
X577033Y540319D02*
D03*
Y546028D02*
D03*
X569333Y588473D02*
D03*
Y594181D02*
D03*
X616292Y440331D02*
D03*
Y446039D02*
D03*
Y453331D02*
D03*
Y459039D02*
D03*
Y472039D02*
D03*
Y466331D02*
D03*
X574292Y452331D02*
D03*
Y458039D02*
D03*
Y465331D02*
D03*
Y471039D02*
D03*
Y439331D02*
D03*
Y445039D02*
D03*
X617792Y424831D02*
D03*
Y430539D02*
D03*
X948654Y544311D02*
D03*
Y550020D02*
D03*
X941654D02*
D03*
Y544311D02*
D03*
X549533Y560028D02*
D03*
Y554319D02*
D03*
X546273Y503341D02*
D03*
Y497633D02*
D03*
X929725Y486841D02*
D03*
Y481133D02*
D03*
X593033Y572819D02*
D03*
Y578528D02*
D03*
X578533Y563363D02*
D03*
Y569071D02*
D03*
X559273Y503341D02*
D03*
Y497633D02*
D03*
X565273Y503341D02*
D03*
Y497633D02*
D03*
X876725Y412754D02*
D03*
Y407046D02*
D03*
X634773Y430462D02*
D03*
Y424754D02*
D03*
X696273Y603883D02*
D03*
Y598174D02*
D03*
X659273Y604426D02*
D03*
Y598717D02*
D03*
X738773Y604633D02*
D03*
Y610341D02*
D03*
X766773Y596133D02*
D03*
Y601841D02*
D03*
X934653Y550020D02*
D03*
Y544311D02*
D03*
X934773Y559633D02*
D03*
Y565341D02*
D03*
X921973Y601433D02*
D03*
Y607141D02*
D03*
D16*
X279129Y116312D02*
D03*
Y110407D02*
D03*
X269286Y116312D02*
D03*
Y110407D02*
D03*
X279656Y145612D02*
D03*
Y139707D02*
D03*
X269814Y145612D02*
D03*
Y139707D02*
D03*
X288633Y298905D02*
D03*
Y293000D02*
D03*
X278790Y298905D02*
D03*
Y293000D02*
D03*
X228633Y292990D02*
D03*
Y287085D02*
D03*
X218790Y292990D02*
D03*
Y287085D02*
D03*
X756616Y116312D02*
D03*
Y110407D02*
D03*
X746773Y116312D02*
D03*
Y110407D02*
D03*
X757143Y145612D02*
D03*
Y139707D02*
D03*
X747301Y145612D02*
D03*
Y139707D02*
D03*
X766120Y298905D02*
D03*
Y293000D02*
D03*
X756277Y298905D02*
D03*
Y293000D02*
D03*
X706120Y292990D02*
D03*
Y287085D02*
D03*
X696277Y292990D02*
D03*
Y287085D02*
D03*
X279129Y443799D02*
D03*
Y437894D02*
D03*
X269286Y443799D02*
D03*
Y437894D02*
D03*
X279656Y473099D02*
D03*
Y467194D02*
D03*
X269814Y473099D02*
D03*
Y467194D02*
D03*
X288633Y626393D02*
D03*
Y620487D02*
D03*
X278790Y626393D02*
D03*
Y620487D02*
D03*
X228633Y620477D02*
D03*
Y614572D02*
D03*
X218790Y620477D02*
D03*
Y614572D02*
D03*
X756616Y443799D02*
D03*
Y437894D02*
D03*
X746773Y443799D02*
D03*
Y437894D02*
D03*
X757143Y473099D02*
D03*
Y467194D02*
D03*
X747301Y473099D02*
D03*
Y467194D02*
D03*
X766120Y626393D02*
D03*
Y620487D02*
D03*
X756277Y626393D02*
D03*
Y620487D02*
D03*
X706120Y620477D02*
D03*
Y614572D02*
D03*
X696277Y620477D02*
D03*
Y614572D02*
D03*
D17*
X275782Y116312D02*
D03*
Y110407D02*
D03*
X272633Y116312D02*
D03*
Y110407D02*
D03*
X276310Y145612D02*
D03*
Y139707D02*
D03*
X273160Y145612D02*
D03*
Y139707D02*
D03*
X285286Y298905D02*
D03*
Y293000D02*
D03*
X282137Y298905D02*
D03*
Y293000D02*
D03*
X225286Y292990D02*
D03*
Y287085D02*
D03*
X222137Y292990D02*
D03*
Y287085D02*
D03*
X753269Y116312D02*
D03*
Y110407D02*
D03*
X750120Y116312D02*
D03*
Y110407D02*
D03*
X753797Y145612D02*
D03*
Y139707D02*
D03*
X750647Y145612D02*
D03*
Y139707D02*
D03*
X762773Y298905D02*
D03*
Y293000D02*
D03*
X759623Y298905D02*
D03*
Y293000D02*
D03*
X702773Y292990D02*
D03*
Y287085D02*
D03*
X699623Y292990D02*
D03*
Y287085D02*
D03*
X275782Y443799D02*
D03*
Y437894D02*
D03*
X272633Y443799D02*
D03*
Y437894D02*
D03*
X276310Y473099D02*
D03*
Y467194D02*
D03*
X273160Y473099D02*
D03*
Y467194D02*
D03*
X285286Y626393D02*
D03*
Y620487D02*
D03*
X282137Y626393D02*
D03*
Y620487D02*
D03*
X225286Y620477D02*
D03*
Y614572D02*
D03*
X222137Y620477D02*
D03*
Y614572D02*
D03*
X753269Y443799D02*
D03*
Y437894D02*
D03*
X750120Y443799D02*
D03*
Y437894D02*
D03*
X753797Y473099D02*
D03*
Y467194D02*
D03*
X750647Y473099D02*
D03*
Y467194D02*
D03*
X762773Y626393D02*
D03*
Y620487D02*
D03*
X759623Y626393D02*
D03*
Y620487D02*
D03*
X702773Y620477D02*
D03*
Y614572D02*
D03*
X699623Y620477D02*
D03*
Y614572D02*
D03*
D18*
X375827Y333095D02*
D03*
X321103D02*
D03*
X291097D02*
D03*
X197003D02*
D03*
X853314D02*
D03*
X798590D02*
D03*
X768584D02*
D03*
X674490D02*
D03*
X375827Y660581D02*
D03*
X321103D02*
D03*
X291097D02*
D03*
X197003D02*
D03*
X853314D02*
D03*
X798590D02*
D03*
X768584D02*
D03*
X674490D02*
D03*
D19*
X363229Y314000D02*
D03*
X353386D02*
D03*
X343544D02*
D03*
X333701D02*
D03*
X278499D02*
D03*
X268656D02*
D03*
X258814D02*
D03*
X248971D02*
D03*
X239129D02*
D03*
X229286D02*
D03*
X219444D02*
D03*
X209601D02*
D03*
X840716D02*
D03*
X830873D02*
D03*
X821031D02*
D03*
X811188D02*
D03*
X755986D02*
D03*
X746143D02*
D03*
X736301D02*
D03*
X726458D02*
D03*
X716616D02*
D03*
X706773D02*
D03*
X696931D02*
D03*
X687088D02*
D03*
X363229Y641487D02*
D03*
X353386D02*
D03*
X343544D02*
D03*
X333701D02*
D03*
X278499D02*
D03*
X268656D02*
D03*
X258814D02*
D03*
X248971D02*
D03*
X239129D02*
D03*
X229286D02*
D03*
X219444D02*
D03*
X209601D02*
D03*
X840716D02*
D03*
X830873D02*
D03*
X821031D02*
D03*
X811188D02*
D03*
X755986D02*
D03*
X746143D02*
D03*
X736301D02*
D03*
X726458D02*
D03*
X716616D02*
D03*
X706773D02*
D03*
X696931D02*
D03*
X687088D02*
D03*
D20*
X247286Y94007D02*
D03*
X243486Y102344D02*
D03*
X251026D02*
D03*
X247814Y123307D02*
D03*
X244014Y131644D02*
D03*
X251554D02*
D03*
X307286Y94007D02*
D03*
X303486Y102344D02*
D03*
X311026D02*
D03*
X307814Y123307D02*
D03*
X304014Y131644D02*
D03*
X311554D02*
D03*
X287286Y94007D02*
D03*
X283486Y102344D02*
D03*
X291026D02*
D03*
X287814Y123307D02*
D03*
X284014Y131644D02*
D03*
X291554D02*
D03*
X267546Y94070D02*
D03*
X263746Y102407D02*
D03*
X271286D02*
D03*
X268074Y123370D02*
D03*
X264274Y131707D02*
D03*
X271814D02*
D03*
X724773Y94007D02*
D03*
X720973Y102344D02*
D03*
X728513D02*
D03*
X725301Y123307D02*
D03*
X721501Y131644D02*
D03*
X729041D02*
D03*
X784773Y94007D02*
D03*
X780973Y102344D02*
D03*
X788513D02*
D03*
X785301Y123307D02*
D03*
X781501Y131644D02*
D03*
X789041D02*
D03*
X764773Y94007D02*
D03*
X760973Y102344D02*
D03*
X768513D02*
D03*
X765301Y123307D02*
D03*
X761501Y131644D02*
D03*
X769041D02*
D03*
X745033Y94070D02*
D03*
X741233Y102407D02*
D03*
X748773D02*
D03*
X745561Y123370D02*
D03*
X741760Y131707D02*
D03*
X749301D02*
D03*
X247286Y421494D02*
D03*
X243486Y429831D02*
D03*
X251026D02*
D03*
X247814Y450794D02*
D03*
X244014Y459131D02*
D03*
X251554D02*
D03*
X307286Y421494D02*
D03*
X303486Y429831D02*
D03*
X311026D02*
D03*
X307814Y450794D02*
D03*
X304014Y459131D02*
D03*
X311554D02*
D03*
X287286Y421494D02*
D03*
X283486Y429831D02*
D03*
X291026D02*
D03*
X287814Y450794D02*
D03*
X284014Y459131D02*
D03*
X291554D02*
D03*
X267546Y421557D02*
D03*
X263746Y429894D02*
D03*
X271286D02*
D03*
X268074Y450857D02*
D03*
X264274Y459194D02*
D03*
X271814D02*
D03*
X724773Y421494D02*
D03*
X720973Y429831D02*
D03*
X728513D02*
D03*
X725301Y450794D02*
D03*
X721501Y459131D02*
D03*
X729041D02*
D03*
X784773Y421494D02*
D03*
X780973Y429831D02*
D03*
X788513D02*
D03*
X785301Y450794D02*
D03*
X781501Y459131D02*
D03*
X789041D02*
D03*
X764773Y421494D02*
D03*
X760973Y429831D02*
D03*
X768513D02*
D03*
X765301Y450794D02*
D03*
X761501Y459131D02*
D03*
X769041D02*
D03*
X745033Y421557D02*
D03*
X741233Y429894D02*
D03*
X748773D02*
D03*
X745561Y450857D02*
D03*
X741760Y459194D02*
D03*
X749301D02*
D03*
D21*
X257286Y103328D02*
D03*
Y93407D02*
D03*
X257814Y132628D02*
D03*
Y122707D02*
D03*
X297286Y103328D02*
D03*
Y93407D02*
D03*
X297814Y132628D02*
D03*
Y122707D02*
D03*
X277286Y103328D02*
D03*
Y93407D02*
D03*
X277814Y132628D02*
D03*
Y122707D02*
D03*
X237286Y103328D02*
D03*
Y93407D02*
D03*
X237814Y132628D02*
D03*
Y122707D02*
D03*
X734773Y103328D02*
D03*
Y93407D02*
D03*
X735301Y132628D02*
D03*
Y122707D02*
D03*
X774773Y103328D02*
D03*
Y93407D02*
D03*
X775301Y132628D02*
D03*
Y122707D02*
D03*
X754773Y103328D02*
D03*
Y93407D02*
D03*
X755301Y132628D02*
D03*
Y122707D02*
D03*
X714773Y103328D02*
D03*
Y93407D02*
D03*
X715301Y132628D02*
D03*
Y122707D02*
D03*
X257286Y430815D02*
D03*
Y420894D02*
D03*
X257814Y460115D02*
D03*
Y450194D02*
D03*
X297286Y430815D02*
D03*
Y420894D02*
D03*
X297814Y460115D02*
D03*
Y450194D02*
D03*
X277286Y430815D02*
D03*
Y420894D02*
D03*
X277814Y460115D02*
D03*
Y450194D02*
D03*
X237286Y430815D02*
D03*
Y420894D02*
D03*
X237814Y460115D02*
D03*
Y450194D02*
D03*
X734773Y430815D02*
D03*
Y420894D02*
D03*
X735301Y460115D02*
D03*
Y450194D02*
D03*
X774773Y430815D02*
D03*
Y420894D02*
D03*
X775301Y460115D02*
D03*
Y450194D02*
D03*
X754773Y430815D02*
D03*
Y420894D02*
D03*
X755301Y460115D02*
D03*
Y450194D02*
D03*
X714773Y430815D02*
D03*
Y420894D02*
D03*
X715301Y460115D02*
D03*
Y450194D02*
D03*
D22*
X281086Y276724D02*
D03*
X277286D02*
D03*
X273546D02*
D03*
Y267200D02*
D03*
X281086D02*
D03*
X277286Y267276D02*
D03*
X758573Y276724D02*
D03*
X754773D02*
D03*
X751033D02*
D03*
Y267200D02*
D03*
X758573D02*
D03*
X754773Y267276D02*
D03*
X281086Y604211D02*
D03*
X277286D02*
D03*
X273546D02*
D03*
Y594687D02*
D03*
X281086D02*
D03*
X277286Y594763D02*
D03*
X758573Y604211D02*
D03*
X754773D02*
D03*
X751033D02*
D03*
Y594687D02*
D03*
X758573D02*
D03*
X754773Y594763D02*
D03*
D23*
X254963Y271532D02*
D03*
X252404D02*
D03*
X249845D02*
D03*
X247286D02*
D03*
X244686D02*
D03*
X242086D02*
D03*
X239586D02*
D03*
X254963Y294449D02*
D03*
X252404D02*
D03*
X249845D02*
D03*
X247286D02*
D03*
X244686D02*
D03*
X242086D02*
D03*
X239586D02*
D03*
X732450Y271532D02*
D03*
X729891D02*
D03*
X727332D02*
D03*
X724773D02*
D03*
X722173D02*
D03*
X719573D02*
D03*
X717073D02*
D03*
X732450Y294449D02*
D03*
X729891D02*
D03*
X727332D02*
D03*
X724773D02*
D03*
X722173D02*
D03*
X719573D02*
D03*
X717073D02*
D03*
X254963Y599018D02*
D03*
X252404D02*
D03*
X249845D02*
D03*
X247286D02*
D03*
X244686D02*
D03*
X242086D02*
D03*
X239586D02*
D03*
X254963Y621936D02*
D03*
X252404D02*
D03*
X249845D02*
D03*
X247286D02*
D03*
X244686D02*
D03*
X242086D02*
D03*
X239586D02*
D03*
X732450Y599018D02*
D03*
X729891D02*
D03*
X727332D02*
D03*
X724773D02*
D03*
X722173D02*
D03*
X719573D02*
D03*
X717073D02*
D03*
X732450Y621936D02*
D03*
X729891D02*
D03*
X727332D02*
D03*
X724773D02*
D03*
X722173D02*
D03*
X719573D02*
D03*
X717073D02*
D03*
D24*
X378692Y259344D02*
D03*
X372786D02*
D03*
X378692Y269187D02*
D03*
X372786D02*
D03*
X54286Y230996D02*
D03*
X60192D02*
D03*
X54286Y221153D02*
D03*
X60192D02*
D03*
X856179Y259344D02*
D03*
X850273D02*
D03*
X856179Y269187D02*
D03*
X850273D02*
D03*
X531773Y230996D02*
D03*
X537679D02*
D03*
X531773Y221153D02*
D03*
X537679D02*
D03*
X378692Y586831D02*
D03*
X372786D02*
D03*
X378692Y596674D02*
D03*
X372786D02*
D03*
X54286Y558483D02*
D03*
X60192D02*
D03*
X54286Y548640D02*
D03*
X60192D02*
D03*
X856179Y586831D02*
D03*
X850273D02*
D03*
X856179Y596674D02*
D03*
X850273D02*
D03*
X531773Y558483D02*
D03*
X537679D02*
D03*
X531773Y548640D02*
D03*
X537679D02*
D03*
D25*
X378692Y262691D02*
D03*
X372786D02*
D03*
X378692Y265840D02*
D03*
X372786D02*
D03*
X54286Y227650D02*
D03*
X60192D02*
D03*
X54286Y224500D02*
D03*
X60192D02*
D03*
X856179Y262691D02*
D03*
X850273D02*
D03*
X856179Y265840D02*
D03*
X850273D02*
D03*
X531773Y227650D02*
D03*
X537679D02*
D03*
X531773Y224500D02*
D03*
X537679D02*
D03*
X378692Y590177D02*
D03*
X372786D02*
D03*
X378692Y593327D02*
D03*
X372786D02*
D03*
X54286Y555137D02*
D03*
X60192D02*
D03*
X54286Y551987D02*
D03*
X60192D02*
D03*
X856179Y590177D02*
D03*
X850273D02*
D03*
X856179Y593327D02*
D03*
X850273D02*
D03*
X531773Y555137D02*
D03*
X537679D02*
D03*
X531773Y551987D02*
D03*
X537679D02*
D03*
D26*
X75366Y267809D02*
D03*
Y265840D02*
D03*
Y263872D02*
D03*
X82846Y267809D02*
D03*
Y265840D02*
D03*
Y269777D02*
D03*
X75366D02*
D03*
X552853Y267809D02*
D03*
Y265840D02*
D03*
Y263872D02*
D03*
X560333Y267809D02*
D03*
Y265840D02*
D03*
Y269777D02*
D03*
X552853D02*
D03*
X75366Y595296D02*
D03*
Y593327D02*
D03*
Y591359D02*
D03*
X82846Y595296D02*
D03*
Y593327D02*
D03*
Y597264D02*
D03*
X75366D02*
D03*
X552853Y595296D02*
D03*
Y593327D02*
D03*
Y591359D02*
D03*
X560333Y595296D02*
D03*
Y593327D02*
D03*
Y597264D02*
D03*
X552853D02*
D03*
D27*
X82846Y263872D02*
D03*
X560333D02*
D03*
X82846Y591359D02*
D03*
X560333D02*
D03*
D28*
X114566Y236108D02*
D03*
Y234139D02*
D03*
Y232171D02*
D03*
Y230202D02*
D03*
Y228234D02*
D03*
Y226265D02*
D03*
X129526Y236108D02*
D03*
Y234139D02*
D03*
Y232171D02*
D03*
Y230202D02*
D03*
Y228234D02*
D03*
Y226265D02*
D03*
X482747Y243500D02*
D03*
Y241531D02*
D03*
Y239563D02*
D03*
Y237595D02*
D03*
Y235626D02*
D03*
Y233658D02*
D03*
X467786D02*
D03*
Y235626D02*
D03*
Y237595D02*
D03*
Y239563D02*
D03*
Y241531D02*
D03*
Y243500D02*
D03*
X592053Y236108D02*
D03*
Y234139D02*
D03*
Y232171D02*
D03*
Y230202D02*
D03*
Y228234D02*
D03*
Y226265D02*
D03*
X607013Y236108D02*
D03*
Y234139D02*
D03*
Y232171D02*
D03*
Y230202D02*
D03*
Y228234D02*
D03*
Y226265D02*
D03*
X960234Y243500D02*
D03*
Y241531D02*
D03*
Y239563D02*
D03*
Y237595D02*
D03*
Y235626D02*
D03*
Y233658D02*
D03*
X945273D02*
D03*
Y235626D02*
D03*
Y237595D02*
D03*
Y239563D02*
D03*
Y241531D02*
D03*
Y243500D02*
D03*
X114566Y563595D02*
D03*
Y561626D02*
D03*
Y559658D02*
D03*
Y557689D02*
D03*
Y555721D02*
D03*
Y553752D02*
D03*
X129526Y563595D02*
D03*
Y561626D02*
D03*
Y559658D02*
D03*
Y557689D02*
D03*
Y555721D02*
D03*
Y553752D02*
D03*
X482747Y570987D02*
D03*
Y569019D02*
D03*
Y567050D02*
D03*
Y565082D02*
D03*
Y563113D02*
D03*
Y561144D02*
D03*
X467786D02*
D03*
Y563113D02*
D03*
Y565082D02*
D03*
Y567050D02*
D03*
Y569019D02*
D03*
Y570987D02*
D03*
X592053Y563595D02*
D03*
Y561626D02*
D03*
Y559658D02*
D03*
Y557689D02*
D03*
Y555721D02*
D03*
Y553752D02*
D03*
X607013Y563595D02*
D03*
Y561626D02*
D03*
Y559658D02*
D03*
Y557689D02*
D03*
Y555721D02*
D03*
Y553752D02*
D03*
X960234Y570987D02*
D03*
Y569019D02*
D03*
Y567050D02*
D03*
Y565082D02*
D03*
Y563113D02*
D03*
Y561144D02*
D03*
X945273D02*
D03*
Y563113D02*
D03*
Y565082D02*
D03*
Y567050D02*
D03*
Y569019D02*
D03*
Y570987D02*
D03*
D29*
X122046Y231187D02*
D03*
X599533D02*
D03*
X122046Y558674D02*
D03*
X599533D02*
D03*
D30*
X126967Y223706D02*
D03*
X124999D02*
D03*
X123030D02*
D03*
X121062D02*
D03*
X119093D02*
D03*
X117125D02*
D03*
Y238667D02*
D03*
X119093D02*
D03*
X121062D02*
D03*
X123030D02*
D03*
X124999D02*
D03*
X126967D02*
D03*
X470345Y231098D02*
D03*
X472314D02*
D03*
X474282D02*
D03*
X476251D02*
D03*
X478219D02*
D03*
X480188D02*
D03*
X470345Y246059D02*
D03*
X472314D02*
D03*
X474282D02*
D03*
X476251D02*
D03*
X478219D02*
D03*
X480188D02*
D03*
X604454Y223706D02*
D03*
X602486D02*
D03*
X600517D02*
D03*
X598549D02*
D03*
X596580D02*
D03*
X594612D02*
D03*
Y238667D02*
D03*
X596580D02*
D03*
X598549D02*
D03*
X600517D02*
D03*
X602486D02*
D03*
X604454D02*
D03*
X947832Y231098D02*
D03*
X949801D02*
D03*
X951769D02*
D03*
X953738D02*
D03*
X955706D02*
D03*
X957675D02*
D03*
X947832Y246059D02*
D03*
X949801D02*
D03*
X951769D02*
D03*
X953738D02*
D03*
X955706D02*
D03*
X957675D02*
D03*
X126967Y551193D02*
D03*
X124999D02*
D03*
X123030D02*
D03*
X121062D02*
D03*
X119093D02*
D03*
X117125D02*
D03*
Y566154D02*
D03*
X119093D02*
D03*
X121062D02*
D03*
X123030D02*
D03*
X124999D02*
D03*
X126967D02*
D03*
X470345Y558585D02*
D03*
X472314D02*
D03*
X474282D02*
D03*
X476251D02*
D03*
X478219D02*
D03*
X480188D02*
D03*
X470345Y573546D02*
D03*
X472314D02*
D03*
X474282D02*
D03*
X476251D02*
D03*
X478219D02*
D03*
X480188D02*
D03*
X604454Y551193D02*
D03*
X602486D02*
D03*
X600517D02*
D03*
X598549D02*
D03*
X596580D02*
D03*
X594612D02*
D03*
Y566154D02*
D03*
X596580D02*
D03*
X598549D02*
D03*
X600517D02*
D03*
X602486D02*
D03*
X604454D02*
D03*
X947832Y558585D02*
D03*
X949801D02*
D03*
X951769D02*
D03*
X953738D02*
D03*
X955706D02*
D03*
X957675D02*
D03*
X947832Y573546D02*
D03*
X949801D02*
D03*
X951769D02*
D03*
X953738D02*
D03*
X955706D02*
D03*
X957675D02*
D03*
D31*
X465790Y129000D02*
D03*
X484738D02*
D03*
X943277D02*
D03*
X962225D02*
D03*
X465790Y456487D02*
D03*
X484738D02*
D03*
X943277D02*
D03*
X962225D02*
D03*
D32*
X478467Y305484D02*
D03*
X484022D02*
D03*
X478467Y293579D02*
D03*
X484022D02*
D03*
X955954Y305484D02*
D03*
X961509D02*
D03*
X955954Y293579D02*
D03*
X961509D02*
D03*
X478467Y632971D02*
D03*
X484022D02*
D03*
X478467Y621066D02*
D03*
X484022D02*
D03*
X955954Y632971D02*
D03*
X961509D02*
D03*
X955954Y621066D02*
D03*
X961509D02*
D03*
D34*
X481786Y213000D02*
D03*
Y226386D02*
D03*
X142046Y211187D02*
D03*
Y224572D02*
D03*
X959273Y213000D02*
D03*
Y226386D02*
D03*
X619533Y211187D02*
D03*
Y224572D02*
D03*
X481786Y540487D02*
D03*
Y553873D02*
D03*
X142046Y538674D02*
D03*
Y552059D02*
D03*
X959273Y540487D02*
D03*
Y553873D02*
D03*
X619533Y538674D02*
D03*
Y552059D02*
D03*
D39*
X462698Y153000D02*
D03*
X470238D02*
D03*
X466438Y161731D02*
D03*
X424498Y162169D02*
D03*
X432038D02*
D03*
X428238Y170900D02*
D03*
X940185Y153000D02*
D03*
X947725D02*
D03*
X943925Y161731D02*
D03*
X901985Y162169D02*
D03*
X909525D02*
D03*
X905725Y170900D02*
D03*
X462698Y480487D02*
D03*
X470238D02*
D03*
X466438Y489218D02*
D03*
X424498Y489656D02*
D03*
X432038D02*
D03*
X428238Y498387D02*
D03*
X940185Y480487D02*
D03*
X947725D02*
D03*
X943925Y489218D02*
D03*
X901985Y489656D02*
D03*
X909525D02*
D03*
X905725Y498387D02*
D03*
D41*
X475267Y238579D02*
D03*
X952754D02*
D03*
X475267Y566066D02*
D03*
X952754D02*
D03*
D42*
X130005Y123198D02*
D03*
Y128198D02*
D03*
Y138198D02*
D03*
X108675Y123198D02*
D03*
Y128198D02*
D03*
Y138198D02*
D03*
X130005Y133198D02*
D03*
X108675D02*
D03*
X607492Y123198D02*
D03*
Y128198D02*
D03*
Y138198D02*
D03*
X586162Y123198D02*
D03*
Y128198D02*
D03*
Y138198D02*
D03*
X607492Y133198D02*
D03*
X586162D02*
D03*
X130005Y450685D02*
D03*
Y455685D02*
D03*
Y465685D02*
D03*
X108675Y450685D02*
D03*
Y455685D02*
D03*
Y465685D02*
D03*
X130005Y460685D02*
D03*
X108675D02*
D03*
X607492Y450685D02*
D03*
Y455685D02*
D03*
Y465685D02*
D03*
X586162Y450685D02*
D03*
Y455685D02*
D03*
Y465685D02*
D03*
X607492Y460685D02*
D03*
X586162D02*
D03*
D43*
X407738Y148988D02*
D03*
Y160100D02*
D03*
X885225Y148988D02*
D03*
Y160100D02*
D03*
X407738Y476475D02*
D03*
Y487587D02*
D03*
X885225Y476475D02*
D03*
Y487587D02*
D03*
D45*
X416494Y75433D02*
D03*
X893981D02*
D03*
X416494Y402920D02*
D03*
X893981D02*
D03*
D46*
X439132Y40000D02*
D03*
X388345D02*
D03*
X916619D02*
D03*
X865832D02*
D03*
X439132Y367487D02*
D03*
X388345D02*
D03*
X916619D02*
D03*
X865832D02*
D03*
D47*
X482231Y104000D02*
D03*
X456239D02*
D03*
X959718D02*
D03*
X933725D02*
D03*
X482231Y431487D02*
D03*
X456239D02*
D03*
X959718D02*
D03*
X933725D02*
D03*
D48*
X444239Y97100D02*
D03*
Y111900D02*
D03*
X921725Y97100D02*
D03*
Y111900D02*
D03*
X444239Y424587D02*
D03*
Y439387D02*
D03*
X921725Y424587D02*
D03*
Y439387D02*
D03*
D49*
X387727Y122500D02*
D03*
X398838D02*
D03*
X387727Y135500D02*
D03*
X398838D02*
D03*
X865214Y122500D02*
D03*
X876325D02*
D03*
X865214Y135500D02*
D03*
X876325D02*
D03*
X387727Y449987D02*
D03*
X398838D02*
D03*
X387727Y462987D02*
D03*
X398838D02*
D03*
X865214Y449987D02*
D03*
X876325D02*
D03*
X865214Y462987D02*
D03*
X876325D02*
D03*
D50*
X423386Y274700D02*
D03*
Y296200D02*
D03*
X428386Y274700D02*
D03*
X433386D02*
D03*
X428386Y296200D02*
D03*
X433386D02*
D03*
X438386Y274700D02*
D03*
Y296200D02*
D03*
X900873Y274700D02*
D03*
Y296200D02*
D03*
X905873Y274700D02*
D03*
X910873D02*
D03*
X905873Y296200D02*
D03*
X910873D02*
D03*
X915873Y274700D02*
D03*
Y296200D02*
D03*
X423386Y602187D02*
D03*
Y623687D02*
D03*
X428386Y602187D02*
D03*
X433386D02*
D03*
X428386Y623687D02*
D03*
X433386D02*
D03*
X438386Y602187D02*
D03*
Y623687D02*
D03*
X900873Y602187D02*
D03*
Y623687D02*
D03*
X905873Y602187D02*
D03*
X910873D02*
D03*
X905873Y623687D02*
D03*
X910873D02*
D03*
X915873Y602187D02*
D03*
Y623687D02*
D03*
D51*
X146187Y104598D02*
D03*
X150505D02*
D03*
Y97852D02*
D03*
X146191D02*
D03*
X623674Y104598D02*
D03*
X627992D02*
D03*
Y97852D02*
D03*
X623678D02*
D03*
X146187Y432085D02*
D03*
X150505D02*
D03*
Y425339D02*
D03*
X146191D02*
D03*
X623674Y432085D02*
D03*
X627992D02*
D03*
Y425339D02*
D03*
X623678D02*
D03*
D52*
X148305Y97564D02*
D03*
X625792D02*
D03*
X148305Y425051D02*
D03*
X625792D02*
D03*
D53*
X189286Y292585D02*
D03*
X210786D02*
D03*
X189286Y287585D02*
D03*
Y282585D02*
D03*
X210786Y287585D02*
D03*
Y282585D02*
D03*
X189286Y277585D02*
D03*
X210786D02*
D03*
X666773Y292585D02*
D03*
X688273D02*
D03*
X666773Y287585D02*
D03*
Y282585D02*
D03*
X688273Y287585D02*
D03*
Y282585D02*
D03*
X666773Y277585D02*
D03*
X688273D02*
D03*
X189286Y620072D02*
D03*
X210786D02*
D03*
X189286Y615071D02*
D03*
Y610072D02*
D03*
X210786Y615071D02*
D03*
Y610072D02*
D03*
X189286Y605071D02*
D03*
X210786D02*
D03*
X666773Y620072D02*
D03*
X688273D02*
D03*
X666773Y615071D02*
D03*
Y610072D02*
D03*
X688273Y615071D02*
D03*
Y610072D02*
D03*
X666773Y605071D02*
D03*
X688273D02*
D03*
D54*
X61346Y183372D02*
D03*
X63905D02*
D03*
X66464D02*
D03*
X69023D02*
D03*
X71582D02*
D03*
X74141D02*
D03*
X76700D02*
D03*
X79259D02*
D03*
X81818D02*
D03*
X84377D02*
D03*
X84377Y214868D02*
D03*
X81818D02*
D03*
X79259D02*
D03*
X76700D02*
D03*
X74141D02*
D03*
X71582D02*
D03*
X69023D02*
D03*
X66464D02*
D03*
X63905D02*
D03*
X61346D02*
D03*
X538833Y183372D02*
D03*
X541392D02*
D03*
X543951D02*
D03*
X546510D02*
D03*
X549069D02*
D03*
X551628D02*
D03*
X554187D02*
D03*
X556746D02*
D03*
X559305D02*
D03*
X561865D02*
D03*
X561865Y214868D02*
D03*
X559305D02*
D03*
X556746D02*
D03*
X554187D02*
D03*
X551628D02*
D03*
X549069D02*
D03*
X546510D02*
D03*
X543951D02*
D03*
X541392D02*
D03*
X538833D02*
D03*
X61346Y510859D02*
D03*
X63905D02*
D03*
X66464D02*
D03*
X69023D02*
D03*
X71582D02*
D03*
X74141D02*
D03*
X76700D02*
D03*
X79259D02*
D03*
X81818D02*
D03*
X84377D02*
D03*
X84377Y542355D02*
D03*
X81818D02*
D03*
X79259D02*
D03*
X76700D02*
D03*
X74141D02*
D03*
X71582D02*
D03*
X69023D02*
D03*
X66464D02*
D03*
X63905D02*
D03*
X61346D02*
D03*
X538833Y510859D02*
D03*
X541392D02*
D03*
X543951D02*
D03*
X546510D02*
D03*
X549069D02*
D03*
X551628D02*
D03*
X554187D02*
D03*
X556746D02*
D03*
X559305D02*
D03*
X561865D02*
D03*
X561865Y542355D02*
D03*
X559305D02*
D03*
X556746D02*
D03*
X554187D02*
D03*
X551628D02*
D03*
X549069D02*
D03*
X546510D02*
D03*
X543951D02*
D03*
X541392D02*
D03*
X538833D02*
D03*
D55*
X427786Y309500D02*
D03*
X437786D02*
D03*
X905273D02*
D03*
X915273D02*
D03*
X427786Y636987D02*
D03*
X437786D02*
D03*
X905273D02*
D03*
X915273D02*
D03*
D56*
X432786Y329500D02*
D03*
X910273D02*
D03*
X432786Y656987D02*
D03*
X910273D02*
D03*
D57*
X408664Y92264D02*
D03*
X411813D02*
D03*
X414963D02*
D03*
X418112D02*
D03*
X408664Y106043D02*
D03*
X411813D02*
D03*
X414963D02*
D03*
X418112D02*
D03*
X886150Y92264D02*
D03*
X889300D02*
D03*
X892450D02*
D03*
X895599D02*
D03*
X886150Y106043D02*
D03*
X889300D02*
D03*
X892450D02*
D03*
X895599D02*
D03*
X408664Y419751D02*
D03*
X411813D02*
D03*
X414963D02*
D03*
X418112D02*
D03*
X408664Y433530D02*
D03*
X411813D02*
D03*
X414963D02*
D03*
X418112D02*
D03*
X886150Y419751D02*
D03*
X889300D02*
D03*
X892450D02*
D03*
X895599D02*
D03*
X886150Y433530D02*
D03*
X889300D02*
D03*
X892450D02*
D03*
X895599D02*
D03*
D59*
X73397Y246520D02*
D03*
Y242840D02*
D03*
Y250380D02*
D03*
X82846D02*
D03*
Y246580D02*
D03*
Y242840D02*
D03*
X550884Y246520D02*
D03*
Y242840D02*
D03*
Y250380D02*
D03*
X560333D02*
D03*
Y246580D02*
D03*
Y242840D02*
D03*
X73397Y574007D02*
D03*
Y570327D02*
D03*
Y577867D02*
D03*
X82846D02*
D03*
Y574067D02*
D03*
Y570327D02*
D03*
X550884Y574007D02*
D03*
Y570327D02*
D03*
Y577867D02*
D03*
X560333D02*
D03*
Y574067D02*
D03*
Y570327D02*
D03*
D90*
X137932Y37150D02*
D03*
Y26520D02*
D03*
X80432Y37150D02*
D03*
Y26520D02*
D03*
X615419Y37150D02*
D03*
Y26520D02*
D03*
X557919Y37150D02*
D03*
Y26520D02*
D03*
X137932Y364637D02*
D03*
Y354007D02*
D03*
X80432Y364637D02*
D03*
Y354007D02*
D03*
X615419Y364637D02*
D03*
Y354007D02*
D03*
X557919Y364637D02*
D03*
Y354007D02*
D03*
D91*
X150530Y81244D02*
D03*
X93030D02*
D03*
X628017D02*
D03*
X570517D02*
D03*
X150530Y408731D02*
D03*
X93030D02*
D03*
X628017D02*
D03*
X570517D02*
D03*
D92*
X168640Y29276D02*
D03*
X111141D02*
D03*
X646128D02*
D03*
X588627D02*
D03*
X168640Y356763D02*
D03*
X111141D02*
D03*
X646128D02*
D03*
X588627D02*
D03*
D93*
X169034Y66284D02*
D03*
X111534D02*
D03*
X646521D02*
D03*
X589021D02*
D03*
X169034Y393770D02*
D03*
X111534D02*
D03*
X646521D02*
D03*
X589021D02*
D03*
D94*
X490793Y188579D02*
D03*
X456540D02*
D03*
X968279D02*
D03*
X934027D02*
D03*
X490793Y516066D02*
D03*
X456540D02*
D03*
X968279D02*
D03*
X934027D02*
D03*
D95*
X399238Y103500D02*
D03*
X380734D02*
D03*
X876725D02*
D03*
X858222D02*
D03*
X399238Y430987D02*
D03*
X380734D02*
D03*
X876725D02*
D03*
X858222D02*
D03*
M02*
